<?xml version="1.0" encoding="utf-8" ?>
<svg baseProfile="full" height="300mm" version="1.1" viewBox="0,0,200,300" width="200mm" xmlns="http://www.w3.org/2000/svg" xmlns:ev="http://www.w3.org/2001/xml-events" xmlns:xlink="http://www.w3.org/1999/xlink"><defs /><rect fill="#222222" height="300" width="200" x="0" y="0" /><text fill="#FFFFFF" style="font-size:12px; font-family:Arial; font-weight:bold;" x="10" y="20">Over 15km Runs</text><text fill="#FFFFFF" style="font-size:4px; font-family:Arial" x="10" y="280">ATHLETE</text><text fill="#FFFFFF" style="font-size:9px; font-family:Arial" x="10" y="290">Tian</text><text fill="#FFFFFF" style="font-size:4px; font-family:Arial" x="120" y="280">STATISTICS</text><text fill="#FFFFFF" style="font-size:3px; font-family:Arial" x="120" y="285">Number: 7</text><text fill="#FFFFFF" style="font-size:3px; font-family:Arial" x="120" y="290">Weekly: 1.0</text><text fill="#FFFFFF" style="font-size:3px; font-family:Arial" x="141" y="285">Total: 122.9 km</text><text fill="#FFFFFF" style="font-size:3px; font-family:Arial" x="141" y="290">Avg: 17.6 km</text><text fill="#FFFFFF" style="font-size:3px; font-family:Arial" x="167" y="285">Min: 15.0 km</text><text fill="#FFFFFF" style="font-size:3px; font-family:Arial" x="167" y="290">Max: 21.5 km</text><polyline fill="none" points="13.0,69.46096750342986 13.36420463892864,69.32582059130073 13.683994077990064,69.27755380292365 14.128146076662233,69.18102017241472 14.421286395809148,69.17136680541444 14.527882875467185,69.15206006927474 15.051982233911986,68.939685782585 15.256292153324466,68.79488493366807 15.629379832244013,68.65973732917337 16.1268300707452,68.50528275202669 16.70422766901902,68.26394710792374 17.201677907578414,68.12879895152582 17.903438065492082,67.87780914556788 18.383122224069666,67.68473973431537 18.702911663072882,67.59785840574477 20.648297417355934,67.24067900042428 20.923671656521037,67.14414385757118 21.65208093437832,66.96072688865388 21.88303997370531,66.85453799891548 22.087349893088685,66.69042772599641 22.229478532652138,66.50701011696219 22.42490541204461,66.15948130602919 22.54038493175176,65.80229794890329 22.584800131589873,65.51268910108047 22.593683171609882,65.14585030095623 22.558151011675363,64.33493980635103 22.638098371447995,63.65917719668505 22.646981411409797,62.45244951303903 22.67363053135341,62.30764143818669 22.78022701104055,62.201448747407994 23.268794209579937,61.97940920455585 24.29922684651683,61.45809748284955 24.521302845852915,61.40017382915539 24.832209244923433,61.38086593885964 25.43625596316997,61.45809748284955 25.756045402231393,61.51602111074317 26.448922520154156,61.72840752547927 26.750945879262872,61.844254514508066 27.51488731696736,62.25937204404909 27.799144596152473,62.44279564640601 28.43872347427532,62.81929591401422 28.62526731370599,62.896526603355596 29.67346603059559,63.12821839604294 30.05543674947694,63.24406413750694 30.4818226681964,63.33094837587123 30.988155946688494,63.379217372101266 31.760980424442096,63.35025597650383 31.920875143958256,63.32129457447445 32.5782201019756,63.29233316599857 33.32439545978559,63.07994930661516 33.90179305805941,63.01237255131855 34.05280473761377,62.93514193082228 34.23046553708264,62.886872769704496 34.68350057574571,62.79033439367777 35.296430333924945,62.713103641261114 35.54515545317554,62.6455266952471 36.85096232936485,62.60691128174949 37.33064648794243,62.67448824785242 37.65931896693655,62.67448824785242 37.85474584635813,62.65518054682616 38.156769205466844,62.57794971410476 38.71640072381706,62.39452630244341 39.204967922356445,62.26902592429542 39.81789768053568,62.16283320199727 40.35976311893319,62.08560207673145 40.69731863794732,61.998717005961225 40.99045895706513,61.844254514508066 41.203651916468516,61.68979183950432 41.4346109557373,61.46775142262777 41.514558315480826,61.40982777321915 41.65668695510249,61.36155804566806 42.40286231288337,61.2167487554907 42.82924823163194,61.18778687807935 42.926961671357276,61.207094797056925 42.97137687119539,61.2167487554907 43.06020727092982,61.29398039699299 43.397762789943954,61.38086593885964 43.78861654881621,61.544982915009314 44.51702582661528,62.00837090556888 45.30761638426338,62.713103641261114 45.78730054287007,63.25371794466628 46.30251686129486,63.71709984372865 46.57789110051817,63.91982890514919 47.34183253822266,64.39286215230095 47.91034709656378,64.64385868646059 48.478861654846696,64.79831785124406 48.807534133899026,64.82727892418916 49.28721829247661,64.8176252339399 49.775785491015995,64.92381578746426 50.0511597302102,65.05896727563231 50.237703569669975,65.12654296702385 50.61967428855132,65.3003088692858 50.77068596810568,65.39684538128495 51.214837966748746,65.61887908685458 51.38361572625581,65.73472260880226 51.49909524593386,65.87952686603967 51.64122388555552,65.9953701557024 52.120908044074895,66.4683958505193 52.3873992433073,66.69042772599641 52.79601908210316,67.0765692149289 53.09804244118277,67.46270955698128 53.27570324068074,67.59785840574477 53.90639907878358,68.41840197174315 54.004112518479815,68.50528275202669 54.172890278015984,68.61147029350832 54.35943411744665,68.66939073414687 54.554860996839125,68.68869754195475 54.856884355976945,68.6404305170654 55.2655041947728,68.43770881684031 55.39874979437445,68.33152113343385 55.514229314023396,68.19637304730713 55.825135713093914,67.7233536395288 56.01167955255369,67.51097701908293 56.09162691232632,67.48201654394506 56.17157427206985,67.41444207692257 56.26040467180428,67.2599860203918 56.526895871036686,66.91245922226517 56.686790590552846,66.64215995922132 56.89110050993622,66.4201280013367 57.0776443494251,66.14017412262183 57.3441355485993,65.80229794890329 57.521796348068165,65.49338182160864 57.64615890773712,65.13619663435384 57.877117947035,64.74039568595617 57.974831386702135,64.05498143713339 58.05477874647477,63.736407387004874 58.090310906409286,62.944795760886336 57.92153314690222,62.11456375409034 57.81493666724418,61.7187536050551 57.521796348068165,61.207094797056925 57.432965948362835,61.02366945090034 57.361901628552005,60.77266592615342 57.388550748466514,60.43477580045146 57.37078466851381,60.07757671244326 57.397433788428316,59.623835914826486 57.45073202828644,59.44040833423787 57.548445467982674,59.228018180670915 57.637275867775315,59.17009353311005 57.85046882709139,59.13147708703764 57.93041618686402,59.07355239644676 58.14360914626741,58.75496613665746 58.19690738606732,58.571537329800776 58.250205625925446,58.47499574851827 58.77430498439935,57.81851109385025 59.14739266326069,57.44199633961398 59.582661621971056,57.123406080165296 59.87580194111797,56.959283520474855 60.29330481987563,56.66965496833291 60.941766737931175,56.312445531686535 61.2704392169544,56.1772849482586 61.750123375531984,55.89730900678114 62.09656193450792,55.742839263621136 62.19427537426236,55.68491306260694 62.34528705381672,55.520788686138985 62.64731041289633,55.35666410236445 62.77167297253618,55.23115692788997 63.10922849155031,55.105649632147106 63.98864944893285,54.59396478727285 64.34397104787058,54.33329437463544 65.33887152493116,53.46438922236848 65.48100016449462,53.30026204117894 65.78302352360333,53.05889816280978 65.92515216319589,52.92373419507203 66.12946208255016,52.65340583777288 66.37818720182986,52.00654641397705 66.94670176014188,50.73212738009897 67.0,50.539032496570144 66.87563744038926,50.85763890052476 66.76904096067301,51.041078596856096 66.66244448098587,51.33071969531011 66.28047376213362,52.161020598934556 66.07616384275025,52.711333390259824 65.98733344301581,52.8561521584852 65.55206448427634,53.21337109663 64.78812304654275,53.93746052586357 64.05971376871457,54.53603807408945 63.31353841093369,54.98979663616774 62.762789932545274,55.26977453294239 62.59401217306731,55.41459044973453 62.27422273400589,55.61733246210497 62.13209409441333,55.77180235446576 61.70570817569387,55.94558076388057 61.50139825628139,56.061432907714334 60.81740417832043,56.408988719500485 60.710807698604185,56.44760597454297 60.284421779884724,56.698617852598545 59.742556341487216,57.07513476058375 59.37835170258768,57.27787418229127 59.09409442340257,57.48061328767653 58.481164665252436,58.13709964923328 58.36568514557439,58.33983741423435 58.25908866588725,58.47499574851827 58.116960026323795,58.76462027721573 58.05477874647477,58.9866653121353 57.92153314690222,59.24732639080321 57.83270274716779,59.28594280242396 57.628392827755306,59.29559690356837 57.548445467982674,59.35352149519167 57.45961506824824,59.623835914826486 57.42408290837193,59.76864697977726 57.37966770850471,60.2127332395612 57.37966770850471,60.8498978315547 57.42408290837193,61.042977394252375 57.50403026814456,61.24571062641917 57.779404507309664,61.72840752547927 57.85046882709139,61.91183187709248 57.94818226681673,62.39452630244341 58.010363546636654,62.62621898992802 58.06366178649478,63.05098784437723 58.010363546636654,63.58194696048304 58.02812962658936,63.91982890514919 57.96594834679854,64.05498143713339 57.82381970717688,64.7597030772522 57.37966770850471,65.67680086072505 57.29083730877028,65.82160518248565 56.92663266987074,66.20774925199657 56.78450403024908,66.40082085663744 56.597960190847516,66.72904192649003 56.42918243128224,66.96072688865388 56.18934035205166,67.41444207692257 56.11827603226993,67.49167003637558 56.00279651256278,67.55924446330027 55.816252673161216,67.76196753323893 55.60305971375783,68.09018516678043 55.38098371445085,68.35082799139491 55.061194275389425,68.57285665211384 54.812469156080624,68.67904413840006 54.51932883699192,68.72731114898488 54.35055107748485,68.71765774831147 54.181773317977786,68.66939073414687 53.98634643855621,68.54389641351008 53.76427043922013,68.29290740887518 53.47113012007321,67.87780914556788 53.080276361259166,67.47236305083061 52.82266820201767,67.14414385757118 52.34298404344008,66.68077417406312 52.15644020398031,66.51666368179576 51.703405165317236,66.0532917618184 51.472446125990245,65.8409124132013 51.36584964633221,65.70576173797599 51.19707188682514,65.58026455661457 50.424247409100644,65.24238692765357 49.93568021056126,64.99139154913428 49.69583813127247,64.90450842057908 49.48264517192729,64.84658630260674 49.18062181281857,64.80797154296306 48.59434117455385,64.8176252339399 48.38114821515046,64.78866415882658 47.857048856734764,64.63420498258347 47.59944069746416,64.51836047998222 46.631189340376295,63.987405188716366 46.16038822176051,63.64952341967728 45.76953446288826,63.29233316599857 45.3342655042361,62.751719023202895 45.16548774467083,62.61656513620255 44.88123046554392,62.32694919081405 44.552557986520696,62.06629428824817 43.49547622964019,61.39051988434949 43.33558151012403,61.313288300189015 43.02467511105351,61.22640271317505 42.77594999180292,61.207094797056925 42.50057575257961,61.2167487554907 41.603388715244364,61.40017382915539 41.39019575587008,61.506367174537445 41.123704556695884,61.747715364144824 40.954926797159715,61.88287015457172 40.60848823818378,62.027678702674166 39.94226024020463,62.201448747407994 39.187201842374634,62.30764143818669 39.098371442669304,62.33660306605452 38.96512584306765,62.34625694058923 38.75193288369337,62.44279564640601 38.005757525912486,62.69379594597558 37.463892087485874,62.72275748781976 36.886494489212055,62.684142097270524 36.15808521138388,62.67448824785242 35.61621977298637,62.69379594597558 35.40302681364119,62.74206517881248 34.94999177494901,62.79033439367777 34.55025497614406,62.85791126443655 34.32817897677887,62.91583426851139 33.67971705875243,63.01237255131855 33.120085540402215,63.137872211773356 32.78253002141719,63.27302555675851 32.569337062042905,63.32129457447445 32.293962822819594,63.35025597650383 31.929758183920057,63.35025597650383 31.75209738445119,63.36956357427698 31.014805066632107,63.388871169197955 30.828261227172334,63.379217372101266 30.37522618850926,63.31164077237918 28.607501233753283,62.90618043630093 28.420957394322613,62.82894975270756 27.434939957223833,62.23041039895179 26.670998519519344,61.81529277693335 26.24461260077078,61.6608300675216 25.711630202335073,61.49671323764778 25.098700444184942,61.3712119926131 24.796677085076226,61.351904098024534 24.539068925834727,61.3712119926131 24.245928606687812,61.42913565921481 24.121566047077067,61.52567504620674 23.277677249570843,61.998717005961225 22.74469485116424,62.26902592429542 22.691396611306118,62.33660306605452 22.67363053135341,62.6455266952471 22.70916269122972,63.04133402217849 22.646981411409797,63.84259882382321 22.558151011675363,64.22874877176946 22.56703405166627,64.94312315154093 22.593683171609882,65.1651576320437 22.56703405166627,65.36788443521073 22.620332291495288,65.57061092224467 22.60256621154258,65.8409124132013 22.362724132282892,66.37186013421888 22.167297252832213,66.60354573291261 21.962987333448837,66.7869632057409 21.81197565389448,66.87384507622482 21.50106925482396,66.99934100887913 20.648297417355934,67.26963952930964 19.35137358121574,67.50132352809305 18.4719526238041,67.71370016429137 17.095081427891273,68.2349868005258 16.84635630864068,68.29290740887518 16.00246751110535,68.59216347426263 15.691561112034833,68.68869754195475 15.123046553722816,68.90107223862287 14.874321434443118,69.04587296929822 14.678894555021543,69.11344658840244 14.492350715619978,69.15206006927474 14.216976476396667,69.15206006927474 13.604046718246536,69.28720716202224 13.337555518985027,69.31616723504703 13.2576081592415,69.3451273016326 13.18654383943067,69.40304741542059" stroke="#4dd2ff" stroke-linecap="round" stroke-linejoin="round" stroke-width="0.5"><title>2023-11-03 17.1km</title></polyline><polyline fill="none" points="133.0,67.61443518698798 133.10645161289722,67.57236873983493 133.21290322585264,67.49875242725102 133.43548387096962,67.4251360764174 133.6580645161448,67.41461945172341 133.85161290323595,67.3725529452422 134.21935483877314,67.27790325994283 134.40322580648353,67.27790325994283 134.54838709678734,67.25686998797755 134.63548387098126,67.24635335078347 134.78064516134327,67.17273686877161 134.98387096775696,67.1517035811994 135.08064516133163,67.09912034850277 135.31290322582936,66.89930388635548 135.58387096779188,66.75207052331098 135.82580645161215,66.67845378439961 135.99032258067746,66.5627702602651 136.22258064517519,66.51018680898414 136.72580645157723,66.33140292853932 136.8612903226167,66.25778597098542 137.34516129037365,66.17365225841786 138.7096774193924,65.68988244108186 139.06774193549063,65.58471487084171 139.46451612905366,65.51109752522461 139.83225806453265,65.41644659605663 141.29354838712607,65.17456060081167 141.49677419359796,65.09042624475114 141.71935483871493,65.05887584835727 142.26129032258177,64.92215738273808 142.44516129035037,64.83802287676372 142.73548387101619,64.62768639315618 142.8612903226167,64.48045066878694 143.132258064521,64.00719194660633 143.3354838709929,63.41824555048515 143.3548387096962,63.06066975797148 143.3161290322896,61.96690290587867 143.38387096778024,61.598806392386905 143.45161290327087,60.79950781146181 143.47096774197416,60.14744510137825 143.4612903225934,59.9265844704496 143.47096774197416,59.863481369786314 143.55806451610988,59.768826666040695 143.90645161294378,59.54796544461715 144.8548387096962,59.074690238703624 145.24193548387848,58.95900050333148 145.31935483874986,58.95900050333148 145.48387096775696,58.90641422875342 145.90000000002328,58.84331067344465 146.29677419358632,58.8958969714804 146.48064516135491,58.8958969714804 146.65483870968455,58.9274487409275 146.94516129035037,59.01158675841725 147.82580645161215,59.30606942587474 148.10645161295542,59.453310529963346 149.73225806455594,60.41037397476612 149.89677419356303,60.48399397182948 150.14838709682226,60.53657966056926 150.3612903226167,60.5681310644577 151.83225806453265,60.93623025697161 152.2096774193924,60.98881577782595 152.77096774196252,60.99933287962631 153.3032258064486,60.97829867521796 153.5064516129205,60.94674736270099 153.89354838710278,60.94674736270099 154.21290322579443,60.92571315047098 154.8612903226167,60.72588797843491 155.56774193549063,60.58916532981675 155.77096774196252,60.58916532981675 155.91612903232453,60.53657966056926 156.49677419353975,60.399856829193595 156.70000000001164,60.33675393940939 157.15483870968455,60.263133865802956 157.50322580646025,60.24209955204424 158.2096774193924,60.15796226567181 158.4612903225934,60.16847942921595 158.71290322579443,60.15796226567181 158.92580645164708,60.20003091511899 159.6516129032243,60.25261670930922 160.10645161295542,60.22106523512775 160.75483870966127,60.0422734153326 161.16129032260505,59.895032923646795 161.98387096775696,59.726757888522116 162.74838709679898,59.59003427524294 162.9806451612967,59.52693102462217 163.3483870967757,59.33762110393582 163.6580645161448,59.085207482698024 163.8612903225585,58.88537971342885 164.09354838711442,58.78020709002158 164.28709677420557,58.7486552877599 164.8483870967757,58.61193073011236 165.3419354839134,58.58037889035768 165.53548387100454,58.59089617106656 165.9806451612967,58.73813801880897 166.28064516128507,58.86434519499744 166.75483870971948,59.16934540642251 166.91935483872658,59.30606942587474 167.30645161296707,59.52693102462217 168.0322580644861,60.22106523512775 168.22580645163544,60.3788225357348 168.47741935483646,60.72588797843491 168.68064516130835,60.94674736270099 169.15483870968455,61.3884650979453 169.42580645164708,61.58828933509358 170.09354838711442,61.98793696347275 170.8677419355372,62.334998462640215 171.42903225804912,62.503270398505265 171.58387096773367,62.534821364228264 171.8354838709929,62.54533835122129 172.1645161290653,62.52430437642033 172.37741935485974,62.534821364228264 172.68709677422885,62.576889307572856 173.08387096773367,62.68205911127734 174.1580645161448,63.228940831621 174.51612903224304,63.428762471892696 175.10645161289722,63.95460754651867 176.20000000001164,64.98525822941883 176.89677419356303,65.83711690822383 177.06129032257013,65.97383449066547 177.21612903225468,66.26830268155754 177.4677419354557,66.55225357157178 177.78709677420557,66.80465388483572 177.8741935483995,66.85723722682451 177.9612903225934,66.86775389287504 178.09677419357467,66.8362038923733 178.23225806455594,66.85723722682451 178.38709677418228,66.82568722397264 178.6774193548481,66.71000382006605 179.06451612903038,66.46812003386003 179.3354838709929,66.20520240649785 179.4612903225934,66.00538468325249 179.61612903227797,65.72143269691878 179.6258064516005,65.61626515012176 179.6645161290653,65.55316458454035 179.74193548387848,65.4690304534015 179.867741935479,65.41644659605663 179.9935483871377,65.22714454796369 180.14838709676405,65.04835904801439 180.24516129033873,64.91164057223068 180.35161290323595,64.65923688561452 180.56451612903038,64.33321479136066 180.72903225803748,64.12287755806028 180.99032258061925,63.84943868777191 181.37741935485974,63.31307629346702 181.4741935483762,63.09222059951571 181.61935483873822,62.6925760873346 181.71612903225468,62.52430437642033 181.77419354842277,62.35603246554092 181.94838709681062,61.56725521812041 182.0064516129205,60.93623025697161 182.0064516129205,60.66278523392248 181.91935483872658,60.052790587433265 181.8225806451519,59.63210309338319 181.76451612904202,59.4953793887471 181.71612903225468,59.30606942587474 181.3096774193691,58.50675790360401 181.22258064517519,58.18072164500336 181.21290322579443,58.07554849821463 181.25161290320102,57.833649964137294 181.22258064517519,57.49709479451849 181.23225806455594,57.044847525583464 181.39677419356303,56.60311624053429 181.45483870973112,56.54001165873342 181.73548387101619,56.48742448574194 181.83225806453265,56.43483729323634 181.9870967742172,56.17190103770554 182.23870967741823,55.667062058331794 182.69354838709114,55.036010802708915 183.08064516133163,54.62582597821893 183.5258064516238,54.247192777758755 184.07741935487138,53.95269958842255 184.56129032257013,53.63717049148545 184.91935483872658,53.42681736952363 185.32580645161215,53.21646393500123 185.56774193549063,53.111287100553454 185.73225806455594,53.016627882709145 185.867741935479,52.964039400998445 186.1580645161448,52.79575612829649 187.0,52.385564813012024 186.893548387161,52.459188982749765 186.56451612903038,52.5854017560996 186.08064516127342,52.806273838708876 185.77096774196252,52.95352170232945 185.63548387098126,53.00611018794007 185.11290322581772,53.26905232294666 184.4741935484344,53.6161351933697 183.99032258067746,53.95269958842255 183.57419354841113,54.18408714591351 183.16774193552556,54.47857985392329 182.89677419356303,54.69944898295216 182.5,55.1832563472708 182.40322580642533,55.34101926078438 182.25806451617973,55.51981701695331 181.9870967742172,56.077243866195204 181.79354838712607,56.39276752517617 181.76451612904202,56.43483729323634 181.6774193548481,56.46638961110148 181.4935483870795,56.48742448574194 181.37741935485974,56.57156395315542 181.33870967745315,56.66622079418448 181.29032258066582,56.84501687683951 181.23225806455594,57.18157359644829 181.2032258064719,57.94934061895037 181.21290322579443,58.22279088184587 181.28064516128507,58.44365417019435 181.60967741935747,59.01158675841725 181.78387096774532,59.35865555206692 181.83225806453265,59.64262029598467 181.91935483872658,60.02123906875204 181.9870967742172,60.694336609689344 181.95806451613316,61.39898217008158 181.87096774193924,61.68294282266288 181.8419354839134,61.977419935079524 181.75483870971948,62.46120243326732 181.70645161293214,62.587406291444495 181.46451612905366,63.00808500643325 181.3483870968339,63.29204243267304 180.86451612901874,63.99667506813421 180.55483870970784,64.38579905084771 180.41935483866837,64.61716956079181 180.1967741935514,64.84853969273536 179.9548387096729,65.23766133504978 179.81935483869165,65.40592982224189 179.75161290325923,65.42696336910012 179.70322580641368,65.47954722253053 179.645161290362,65.61626515012176 179.63548387098126,65.7634996937777 179.30645161296707,66.1841689751891 179.1709677419858,66.35243633794744 178.987096774159,66.49967011636181 178.6774193548481,66.68897046375787 178.26129032258177,66.86775389287504 178.17419354844606,66.87827055814705 178.0,66.82568722397264 177.8741935483995,66.84672055998817 177.79677419358632,66.8362038923733 177.70967741933418,66.78362054256286 177.4870967742172,66.59432032168843 177.0516129032476,66.05796832195483 176.93548387102783,65.8791838707184 176.60645161289722,65.51109752522461 176.39354838710278,65.20611097144865 176.16129032260505,64.94319100142457 174.632258064521,63.49186398393795 174.27419354836456,63.29204243267304 174.07096774195088,63.207906958356034 173.1709677419276,62.745160956008476 172.9677419355139,62.66102515675448 172.72580645157723,62.597923274559435 172.41612903226633,62.54533835122129 171.76774193550227,62.56637232288631 171.40967741934583,62.52430437642033 170.87741935485974,62.34551546448347 170.1516129032243,61.98793696347275 169.367741935479,61.535704036847164 169.09677419357467,61.346396801571245 168.59354838711442,60.87312760622444 168.07096774195088,60.263133865802956 167.4612903225934,59.67417189905245 167.23870967741823,59.484862175209855 166.3096774193691,58.84331067344465 166.21290322579443,58.78020709002158 165.73870967741823,58.61193073011236 165.43870967742987,58.56986160887027 165.24516129028052,58.58037889035768 164.8870967742405,58.622448008478386 163.99677419359796,58.84331067344465 163.8225806451519,58.93796599582856 163.60000000003492,59.13779369086842 163.3290322580724,59.33762110393582 163.08709677419392,59.463827745843446 162.80645161290886,59.568999861498014 162.49677419353975,59.64262029598467 161.2967741935281,59.83192980889726 160.21290322585264,60.18951375391771 159.82580645161215,60.231582393964345 159.56451612903038,60.24209955204424 159.25483870966127,60.22106523512775 158.91612903226633,60.17899659195973 158.6838709677104,60.20003091511899 158.0645161290886,60.16847942921595 157.62903225806076,60.21054807551991 157.367741935479,60.263133865802956 157.09677419357467,60.27365102152544 156.8548387096962,60.305202483992616 156.37096774193924,60.420891119552834 156.09032258065417,60.46295969085622 155.76129032258177,60.557613930614025 155.0258064516238,60.67330235995905 154.75483870971948,60.736405099778494 154.43548387096962,60.8520933830514 154.21290322579443,60.90467893512687 153.88387096772203,60.94674736270099 153.49677419359796,60.93623025697161 153.22580645163544,60.967781571816886 152.30645161290886,60.967781571816886 151.95806451613316,60.92571315047098 150.70967741933418,60.62071672198363 149.95483870973112,60.473476831713924 149.73225806455594,60.38933968284982 148.68709677422885,59.75830947284703 147.8741935483995,59.3165866526906 147.51612903224304,59.16934540642251 146.6645161290653,58.916931485211535 146.03548387100454,58.801241620974906 145.81290322582936,58.78020709002158 145.50322580646025,58.801241620974906 145.3290322580724,58.85382793460303 145.26129032258177,58.88537971342885 145.15483870968455,58.969517755904235 145.07741935487138,59.00106950895133 144.57419354841113,59.21141434956371 143.79032258066582,59.63210309338319 143.54838709678734,59.768826666040695 143.47096774197416,59.84244699663395 143.45161290327087,59.937101651164994 143.4806451612967,60.17899659195973 143.49032258067746,60.7679564591308 143.3161290322896,62.1772433411752 143.3548387096962,62.42965145118069 143.3548387096962,63.15532226148207 143.38387096778024,63.334110151117784 143.3741935483995,63.46031323142233 143.28709677420557,63.786337335041026 143.08387096779188,64.22804621376417 142.94838709681062,64.42786644442094 142.76451612904202,64.62768639315618 142.57096774195088,64.76440514303249 142.3096774193691,64.90112376094476 141.71935483871493,65.05887584835727 141.28387096774532,65.20611097144865 140.98387096775696,65.24817812135007 139.57096774195088,65.500580758453 139.00967741938075,65.63729866574431 138.3612903226167,65.85815039104637 137.6838709677686,66.12106866264367" stroke="#4dd2ff" stroke-linecap="round" stroke-linejoin="round" stroke-width="0.5"><title>2023-10-28 15.0km</title></polyline><polyline fill="none" points="13.0,131.0819055222164 13.13039278818178,131.05356551887235 13.234707018709742,130.9968854931867 13.55634256277699,130.95909879537066 14.034449452650733,130.83629194998502 14.469092079874827,130.80795189189666 14.860270444303751,130.65680480888113 15.147134578262921,130.47731741457392 15.547005795233417,130.32616993878037 15.746941403718665,130.231702675228 15.877334191900445,130.20336248249805 16.025112685136264,130.118341866415 16.89439793949714,129.8443861613705 17.04217643273296,129.81604588235496 18.198325820965692,129.4098345227976 18.676432710897643,129.28702618202078 19.902124919521157,129.02251550697838 20.48454603992286,128.91860044847272 20.649710238241823,128.84302580714575 21.27559562138049,128.68242954528978 21.579845460422803,128.5690673560457 21.849323889269726,128.33289580400015 21.971023824851727,128.19119266235066 22.162266580795404,127.82276375536458 22.310045074060326,127.29373576657963 22.327430779172573,127.0859027405022 22.27527366389404,126.03728547607898 22.362202189309755,125.40433213306096 22.405666452046717,124.80916417630215 22.3795878943929,124.1950990799669 22.405666452046717,124.04394414007402 22.51867353511625,123.94947221141047 22.909851899545174,123.77942256301321 23.466194462351268,123.5054532068607 23.83998712169705,123.28816674615518 23.98776561493287,123.25037775859528 24.13554410819779,123.1747997497514 24.265936896350468,123.1464579848689 24.63103670318378,123.1559052405355 24.89182227946003,123.20314150833292 25.152607855794486,123.28816674615518 25.378622021904448,123.28816674615518 26.360914359305752,123.60937268726411 27.317128139082342,124.15731036184297 28.064713457832113,124.62022138547036 28.273341918888036,124.70524567607936 28.838377334206598,124.8186113084812 30.107533805567073,125.13036627662223 30.91596909207874,125.14926049257338 32.06342562782811,125.08313072449528 32.21120412106393,125.05478938481247 32.66323245331296,124.89418834061507 33.445589182229014,124.74303423142555 33.62813908566022,124.6674571094918 34.87990985190845,124.45017263377667 35.28847392144962,124.42183115304942 35.7578879588109,124.43127831398306 35.957823567296145,124.40293682905758 36.39246619446203,124.4123839914173 36.94880875723902,124.48796126490197 37.36606567935087,124.45017263377667 37.54861558275297,124.4123839914173 38.34835801672307,124.12896881587221 39.52189311012626,123.91168342030142 39.89568576950114,123.82665859925328 40.312942691583885,123.62826712915557 40.738892466179095,123.27871950033295 40.99967804248445,123.16535249548906 41.49517063747044,123.06143265231367 41.88634900195757,123.01419633188198 42.31229877658188,123.00474906568707 42.78171281388495,123.1747997497514 43.22504829359241,123.47711151563999 43.46844816484372,123.59047824260051 43.85093367676018,123.85500021258486 44.563747585285455,124.50685557626275 45.033161622675834,125.07368361198314 45.18094011591165,125.21539022625075 45.61558274307754,125.57437960922107 46.302318094007205,125.99949730520166 47.049903412756976,126.37737850890699 47.47585318738129,126.50963666505413 47.76271732131136,126.55687168746226 48.22343850610196,126.54742468439508 48.44945267224102,126.55687168746226 48.68415969092166,126.58521269250923 48.858016741782194,126.63244768689765 49.50998068257468,126.91585728481004 50.01416613004403,127.17092538312863 50.335801674140384,127.35041744203045 50.61397295555798,127.58659081793303 51.7788151963905,128.69187638983567 52.474243399861734,129.52319596292364 52.58725048293127,129.62711052761006 52.691564713430125,129.82549264273985 52.99581455247244,130.19391575017653 53.1001287830004,130.2505961335628 53.24790727623622,130.39229698155395 53.34352865422261,130.430083847692 53.430457179638324,130.430083847692 53.51738570508314,130.40174369914166 53.69124275594368,130.4111904160236 53.934642627165886,130.34506338307983 54.369285254360875,130.09944838842785 54.63007083063712,129.88217319022806 54.71699935608194,129.76881206997496 54.89954925948405,129.45706846846588 54.90824211205472,129.42872810317203 54.87347070185933,129.3626005596161 54.890856406942476,129.31536657887773 54.92562781710876,129.27757938166906 55.047327752719866,129.2208985648249 55.177720540901646,129.10753685537202 55.55151320027653,128.68242954528978 55.690598840941675,128.4745987878414 56.03831294266274,127.86055138469237 56.33386992913438,127.5110153853384 56.559884095273446,127.07645577671792 56.646812620718265,126.74581160181697 56.820669671637006,126.51908367092983 56.90759819702362,126.14120288811682 56.924983902135864,125.83889745368651 56.97714101735619,125.66885033108701 57.02060528009315,124.7619285049077 56.985833869926864,124.4974084209316 56.76851255635847,123.65660878666677 56.38602704441291,122.87248726535472 56.38602704441291,122.55127946335415 56.33386992913438,122.14504490503896 56.35125563424663,121.61599330248282 56.39471989698359,121.46483529757825 56.50772698002402,121.22865055521106 56.56857694784412,121.16251874876616 56.61204121055198,121.14362394061754 56.777205408900045,121.13417653545912 56.91629104959429,121.06804467988695 56.994526722468436,120.86964890683885 57.2813908563985,120.34059199896728 57.455247907259036,120.07606271970144 57.93335479719099,119.48086982964014 58.376690276898444,119.15020590927452 58.89826142950915,118.84788385828142 59.03734707017429,118.72506531976978 60.115260785561986,118.12986610669032 60.749839021242224,117.84643693084945 60.97585318738129,117.73306508364476 61.17578879589564,117.54411178034206 61.47134578236728,117.36460588214686 61.601738570519956,117.24178591105738 62.1406954282138,116.9961456130186 62.392788151977584,116.82608666717715 63.122987765586004,116.37259503301902 63.39246619446203,116.1458486094416 64.31390856404323,115.30499375877116 64.43560849965434,115.17272395028704 64.60946555054397,115.04045400419272 64.80940115902922,114.82315307977115 64.87025112684933,114.72867430113547 64.96587250483572,114.47358124816674 65.35705086926464,113.6327153384409 65.89600772698759,112.37613007475011 66.34803605923662,111.53525029281445 66.45235028976458,111.41242469059216 66.91307147455518,111.12898054025572 67.0,111.04394717193645 67.0,110.94001742229011 66.94784288472147,110.82663941667852 66.63490019316669,110.3069889305043 66.53058596266783,110.06133523397148 66.33065035415348,109.74954332013294 65.95685769477859,109.04092249004316 65.89600772698759,108.96533603502758 65.80907920154277,108.9180944777836 65.63522215068224,108.95588772496558 64.70508692853036,109.47554373424646 64.35737282678019,109.7211985627655 64.38345138446311,109.7211985627655 64.67031551836408,109.54168161939742 64.91371538955718,109.4188540910036 65.14842240823782,109.26768158545019 65.56567933034967,109.04092249004316 65.74822923375177,108.96533603502758 65.85254346425063,108.96533603502758 65.89600772698759,108.99368096092076 65.95685769477859,109.06926739909977 66.57405022534658,110.22195501235547 66.70444301352836,110.41091919767496 66.92176432709675,110.90222476498457 66.94784288472147,110.99670638717362 66.91307147455518,111.09118793914968 66.40888602702762,111.42187281804945 66.25241468125023,111.62973144453281 65.93077913715388,112.23440915287938 65.60045074048685,113.05638830068347 65.37443657437689,113.5193397341427 65.27012234387803,113.7933306047853 65.00933676751447,114.31296684112749 64.92240824212786,114.56806021634839 64.80940115902922,114.79480945355317 63.14037347069825,116.32535622812429 62.37540244686534,116.80719121470611 61.584352865378605,117.24178591105738 61.47134578236728,117.35515819626744 61.158403090783395,117.54411178034206 61.04539600771386,117.66693145941827 60.819381841574796,117.77085571061616 60.55859626529855,117.93146574994171 59.99356084995088,118.17710424125107 59.454603992257034,118.47942788689397 59.106889890506864,118.68727497637155 58.8808757243969,118.8667790075342 58.33322601416148,119.15965346180019 57.93335479719099,119.4336321793453 57.87250482934178,119.49976488482207 57.78557630395517,119.66037274064001 57.57694784287014,119.85877040015475 57.41178364458028,120.12330013135215 57.26400515134446,120.31224960250256 57.17707662587054,120.52009369651933 56.994526722468436,120.8885437556819 56.85544108180329,121.09638690792781 56.777205408900045,121.13417653545912 56.559884095273446,121.17196615178545 56.455569864745485,121.27588753878808 56.40341274952516,121.4081509994212 56.37733419187134,121.59709856171685 56.342562781705055,122.73077804093191 56.39471989698359,122.86303998862422 56.646812620718265,123.30706123573327 56.81197681906633,123.64716156819486 56.994526722468436,124.45017263377667 57.00321957503911,124.72413995517127 57.02929813263472,124.98865956765076 57.01191242755158,125.50825006216473 56.985833869926864,125.67829739941953 56.91629104959429,125.85779156438366 56.81197681906633,126.42461358046421 56.429491307149874,127.1992662513585 56.25563425628934,127.46378071718209 56.0209272376087,127.70940080012224 55.92530585965142,127.92667970896582 55.7775273664156,128.15340513126284 55.33419188664993,128.69187638983567 55.05602060529054,129.08864322728914 54.93432066967944,129.14532410307584 54.80392788152676,129.24923897639383 54.71699935608194,129.4098345227976 54.699613650969695,129.60821697669599 54.551835157733876,129.8538329196599 54.41274951706873,130.01442770290305 54.24758531874977,130.146682078077 53.88248551188735,130.35451010417455 53.586928525415715,130.4584239899341 53.5,130.4395305624712 53.378300064388895,130.4489772765446 53.23921442369465,130.3828502632532 53.030585962638725,130.2128092141138 52.58725048293127,129.63655730201572 52.43077913715388,129.4854088274442 51.813586606585886,128.720216919246 50.535737282654736,127.49212152017571 50.16194462327985,127.26539491937001 49.58821635544882,126.95364518349379 49.15357372825383,126.73636461278511 48.9188667096023,126.65134167970245 48.68415969092166,126.58521269250923 48.46683837735327,126.55687168746226 47.88441725689336,126.56631868985278 47.58016741790925,126.53797768062213 47.345460399228614,126.47184863446455 47.0412105601863,126.34903745758493 46.43271088215988,126.04673251703207 45.58081133288215,125.53659130082815 45.05054732772987,125.06423649874341 44.676754668413196,124.6013270909607 44.20734063105192,124.16675754243624 43.91178364458028,123.8927890205232 43.48583386995597,123.59047824260051 42.91210560206673,123.20314150833292 42.70347714103991,123.09922169601487 42.468770122359274,123.0425381262321 42.01674179008114,123.01419633188198 41.582099162915256,123.0425381262321 40.860592401819304,123.2220360105348 40.74758531872067,123.28816674615518 40.51287830006913,123.51490043584636 40.25209272373468,123.70384486851253 39.86091435930575,123.87389461796556 39.04378622022341,124.01560256883386 38.22665808114107,124.1856519014982 37.470379909849726,124.45017263377667 36.98358016740531,124.4974084209316 36.349001931754174,124.45017263377667 35.92305215712986,124.44072547424003 35.11461687058909,124.46906695073267 34.74951706372667,124.5163027308954 33.610753380547976,124.70524567607936 33.0196394076047,124.8186113084812 32.619768190575996,124.9225297160956 32.10688989053597,125.08313072449528 31.81133290406433,125.12091916760255 31.437540244689444,125.12091916760255 31.220218931121053,125.14926049257338 30.942047649703454,125.14926049257338 30.281390856427606,125.13981338495796 30.08145524794236,125.11147205787711 28.707984546024818,124.7808227755595 28.377656149415998,124.73358709364402 28.108177720569074,124.62966853168473 27.204121056041913,124.09118007808866 26.134900193166686,123.55268934484775 25.248229233751772,123.27871950033295 24.639729555725353,123.1747997497514 24.170315518334974,123.19369425617333 23.92691564714187,123.26927225378313 23.605280103016412,123.42042811425927 23.422730199614307,123.5621365703555 22.466516419837717,124.05339132906374 22.405666452046717,124.11952163246315 22.396973599505145,124.2612293097045 22.475209272408392,124.89418834061507 22.42305215712986,125.13981338495796 22.414359304559184,125.39488504436304 22.327430779172573,126.197885077112 22.344816484226612,127.17092538312863 22.327430779172573,127.43543990785838 22.12749517065822,127.97391420524946 21.971023824851727,128.2100864236927 21.858016741782194,128.3423426744921 21.579845460422803,128.5690673560457 21.258209916297346,128.7013232336758 20.275917578896042,128.9658345764983 18.598197037994396,129.28702618202078 17.355119124258636,129.6932379336722" stroke="#4dd2ff" stroke-linecap="round" stroke-linejoin="round" stroke-width="0.5"><title>2023-10-21 18.0km</title></polyline><polyline fill="none" points="133.12995347342803,130.76683145127026 133.25990694685606,130.74800176556164 133.57179528317647,130.6538532949853 134.29953473445494,130.55028989661514 134.4814695972891,130.5597047545234 134.62875020052888,130.54087503803748 135.03593775065383,130.3902372055236 135.22653617837932,130.23018431241508 135.3391625220538,130.17369500778295 136.49141665329807,129.7594393382824 136.67335151610314,129.6652901337511 137.25381036417093,129.50523632562545 138.527354403981,129.04390363061248 138.986523343483,128.93092393926054 139.79223487887066,128.81794414720935 141.50762072834186,128.47900416710763 141.96678966790205,128.26245870548883 142.2266966147581,127.97059249817539 142.54724851594074,127.49042405006185 142.64254772980348,127.23621648841072 142.5732392106438,127.0008386620757 142.67720198939787,126.86902688847476 142.6858655542892,126.76546039876848 142.47793999678106,125.96517103493534 142.47793999678106,125.65446909706952 142.5732392106438,124.89183383947966 142.62522060002084,124.65645166065951 142.6078934702382,124.28925458902086 142.64254772980348,123.95971784997528 142.72051981388358,123.82790291446872 142.90245467671775,123.71491857499495 142.83314615752897,123.7337493052255 142.6858655542892,123.82790291446872 142.61655703512952,123.91264110303018 142.56457564575248,124.07270197127946 142.54724851594074,123.92205645378999 142.56457564575248,123.7996568390372 142.63388416494126,123.72433394046675 142.85913685226114,123.6019341348001 144.27129793036147,122.92402537896123 144.6698219155951,122.87694824742357 145.01636451145168,122.92402537896123 145.28493502322817,123.01817958962056 145.47553345095366,123.01817958962056 146.45451628428418,123.34771877619642 147.06962939191726,123.68667247438134 148.18722926359624,124.35516183403524 148.3691641264304,124.42106904479442 148.86298732552677,124.51522214357101 150.0065778918506,124.7976810203836 150.30113909833017,124.84475743865914 151.3234397561464,124.86358800108428 151.6353280923795,124.82592687344004 152.23311407025903,124.7976810203836 152.75292796405847,124.63762106746435 154.9794641424669,124.18568599191349 155.97577410558006,124.14802466287074 156.5389058238652,124.14802466287074 157.05871971763554,124.19510132241703 157.48323439754313,124.15743999619008 158.60949783411343,123.83731827157317 160.06497673672857,123.54544187692954 160.3162201186933,123.41362651070085 160.80137975292746,123.02759500684624 161.06128669984173,122.8863636751048 161.8323439756059,122.72630130896141 162.34349430451402,122.73571674786217 162.7680089844216,122.86753281899291 162.98459810687928,122.96168707161269 163.5390662602149,123.2912264050392 163.92026311569498,123.5548572550033 164.7519653457275,124.36457715195138 165.06385368201882,124.76001987318887 165.45371410239022,125.12721558126213 165.65297609497793,125.28727491607424 166.3373977217998,125.71096041513374 167.01315578373033,126.0593229869919 167.52430611263844,126.22879632448894 168.00080218192306,126.28528738665773 168.30402695329394,126.26645703540271 168.5206160757225,126.27587221139402 168.95379432055051,126.37943910100148 169.3783090004872,126.55832716559962 170.26199261992588,127.0008386620757 170.57388095618808,127.22680138376018 171.8994063854043,128.47900416710763 172.6011551419797,129.34518231546826 172.6877907909511,129.50523632562545 173.06032408153987,129.93832263431977 173.28557676880155,130.10779078725318 173.41553024225868,130.1642801212438 173.7360821434122,130.1642801212438 174.10861543397186,130.0230567391045 174.48981228945195,129.78768408601172 174.6630835873657,129.61821550527384 174.92299053425086,129.15688322133065 174.95764479384525,129.02507368905935 175.18289748116513,128.8932640197454 176.0319268409803,127.6598954746878 176.12722605487215,127.48100896428514 176.36980587200378,127.17031074108672 176.55174073477974,126.87844201971166 176.86362907110015,126.20055078397127 177.10620888820267,125.14604610174138 177.0802181934996,124.41165373106924 176.82031124661444,123.41362651070085 176.4910957805114,122.75454762355366 176.38713300178642,122.42500689497683 176.378469436866,121.77533837795636 176.4131236964604,121.37047080645425 176.56040429970017,120.9373552285906 176.62971281885984,120.8808617832401 176.86362907110015,120.87144620656909 176.94160115515115,120.82436831270024 177.26215305630467,120.20293847504945 177.68666773624136,119.59092126318865 177.94657468315563,119.28020370151353 178.43173431733157,118.87532816002931 178.89956682175398,118.62110332182056 179.66196053262684,118.14089945833257 180.59762554147164,117.68894121886115 181.02214022143744,117.46296149474074 181.14343012994505,117.34055564259324 181.49863629072206,117.10515944079816 181.5939355045848,117.01100083764322 181.8278517567669,116.90742629340821 182.30434782610973,116.66261339774792 183.01476014760556,116.22948173156328 183.4219476977305,115.83401239566592 183.82047168299323,115.51386964842095 184.83410877588904,114.58168469008524 186.05567142629297,111.81333742225979 186.40221402214956,111.29544261207047 186.52350393071538,111.18244709944702 186.93935504573165,110.93762314302876 187.0,110.8528762786882 186.99133643510868,110.75871302957967 186.6534574041434,110.18431569455424 185.91705438794452,108.80010158114601 185.7957644794078,108.71535328694154 185.64848387616803,108.75301920247148 184.7388095620263,109.28034084399405 184.270977057633,109.5910829263812 183.72517246913048,109.83590948481287 183.31798491897644,110.1089847033436 183.78581742336974,109.82649308745022 184.3576127065462,109.56283367766446 184.71281886735233,109.32742302667612 185.74378309000167,108.77185215605277 185.81309160916135,108.75301920247148 185.88240012832102,108.76243567962956 185.9863629071042,108.8848498186344 186.55815819028066,109.98657174712571 186.922027915949,110.65513337474113 186.98267287021736,110.84345995691547 186.922027915949,110.91879051140859 186.4195411519322,111.22952857527707 186.2549334189098,111.42727058276796 186.01235360180726,111.85100241677719 185.62249318146496,112.80203981813247 185.45788544844254,113.112773263485 184.84277234078036,114.5063563132062 184.61751965348958,114.77000543641043 184.3922669661697,114.90182979231759 184.29696775227785,114.90182979231759 184.24498636292992,114.8170855792705 183.95042515645036,113.69657343349536 183.8897802021529,113.55533170352282 183.74249959891313,113.36700915199617 183.60388256059377,113.30109619284485 183.52591047651367,113.30109619284485 183.78581742336974,113.4517543348411 183.91577089685597,113.63066064578015 184.14102358417585,114.49694026295037 184.3142948820896,114.90182979231759 184.29696775227785,115.0430700214929 184.21033210330643,115.17489409333211 184.0024065457983,115.33496599622595 183.0320872774173,116.1729861877102 181.905823840847,116.86976280176896 182.2956842612184,116.7002769509345 183.01476014760556,116.24831357392395 183.62987325523864,115.730436889462 184.13236001922633,115.25022207280563 184.45291192040895,114.97715793413954 184.61751965348958,114.87358172761742 184.8600994705921,114.6099328198834 185.35392266968847,113.4517543348411 185.55318466230528,113.07510864402866 185.674474570842,112.73612656509067 185.57917535700835,112.87736920817406 185.0940157227742,114.05438511148532 184.83410877588904,114.5628526000728 184.26231349271256,115.09956606907508 183.1880314455484,116.06941095855291 182.74618963582907,116.37072048101982 182.1743943526526,116.72852460848662 181.97513236000668,116.81326754335169 181.6719075886649,117.01100083764322 181.4379913364537,117.13340700809931 181.21273864913383,117.28406059402914 181.10011230545933,117.40646650073904 179.70527835714165,118.09382055026072 178.89090325686266,118.61168757728592 178.41440718757804,118.87532816002931 177.9812289426918,119.25195661268663 177.5133964382985,119.77923456621647 177.30547088081948,120.11819780659425 177.10620888820267,120.5324849805329 176.94160115515115,120.814952731831 176.8463019412593,120.87144620656909 176.6123856891063,120.91852408293198 176.5344136050262,121.01267978322721 176.4564415209461,121.22923762847495 176.4217872613517,121.48345723558305 176.4217872613517,122.5003305656137 176.47376865072874,122.64156232740788 176.8809562008828,123.41362651070085 177.06289106368786,124.1668553287891 177.08888175839093,124.66586695620208 177.0802181934996,125.29669016478147 176.90694689555676,126.20055078397127 176.54307716988842,126.9537630443665 176.40446013153996,127.1891409581076 176.21386170384358,127.42451843487652 175.5554307717248,128.41309906577226 175.20022461094777,128.88384903812403 175.07027113749064,128.94975389480533 174.98363548854832,129.04390363061248 174.94898122892482,129.14746825926704 174.9749719236279,129.20395802106214 174.9403176640626,129.2792776643255 174.63709289269173,129.6370453587515 174.42050377029227,129.8441735626111 174.22124177761725,129.97598224343528 173.9266805711668,130.1266205680513 173.70142788384692,130.2019396632386 173.43285737204133,130.17369500778295 173.32889459331636,130.1266205680513 173.08631477618474,129.9289077302965 172.83507139422,129.64646028445713 172.63580940157408,129.35459726281988 172.1419862024777,128.75203922203946 171.73479865232366,128.30011881234532 170.64318947537686,127.26446179821505 170.17535697095445,126.94434791873937 169.23102839727653,126.48300590599683 168.85849510671687,126.35119359404052 168.51195251083118,126.29470256122295 167.90550296808942,126.3041177351115 167.57628750201548,126.26645703540271 167.17776351678185,126.12522931183776 166.47601476011914,125.77686692106363 165.86090165248606,125.419088334158 165.54901331622386,125.1837071342743 165.04652655220707,124.71294342341571 164.5873576127342,124.18568599191349 163.95491737526027,123.59251876023336 163.16653296965524,123.05584125428868 162.81999037379865,122.85811738990014 162.4907749077247,122.74513218607171 162.2222043959482,122.73571674786217 161.8323439756059,122.78279393186676 161.00064174554427,122.96168707161269 160.818706882681,123.07467208243906 160.6281084549846,123.2535648103003 160.3941922027734,123.42304189853894 160.02165891224286,123.59251876023336 158.50553505535936,123.88439504647249 157.56120648162323,124.18568599191349 157.0847104123095,124.23276263743901 156.45227017486468,124.18568599191349 155.2480346542725,124.2045166522148 154.68490293598734,124.27983926550951 152.94352639178396,124.5999598726994 152.2157869405055,124.82592687344004 151.57468313814024,124.84475743865914 151.3234397561464,124.88241856071545 150.57837317502708,124.89183383947966 150.31846622814192,124.86358800108428 148.9149687148747,124.5246374496055 148.42980908069876,124.43048435780656 148.22188352319063,124.35516183403524 147.15626504088868,123.72433394046675 146.52382480344386,123.38538034295198 146.29857211612398,123.2912264050392 145.53617840525112,123.0464258391803 144.95571955718333,122.92402537896123 144.67848548051552,122.8957791021312 144.29728862503543,122.93344080318639 142.67720198939787,123.78082611859281 142.58190277556423,123.88439504647249 142.61655703512952,124.6093751724402 142.47793999678106,125.67329953920125 142.46061286699842,126.02166221455263 142.50393069148413,126.87844201971166 142.65987485964433,127.19855606557394 142.65987485964433,127.31153730056394 142.55591208086116,127.58457486947736 142.40863147762138,127.83878173269477 142.218033049925,128.0929880862459 142.07075244665612,128.24362864788418 141.88881758382195,128.34719393015985 141.49895716350875,128.4695891547235 140.78854484195472,128.6013992644439 139.99149687145837,128.7896991834932 138.73527996148914,129.0156587172096 138.49270014438662,129.08156350535864 137.14118402052554,129.5805557899148 136.71666934055975,129.71236474475882 135.74635007217876,130.06071632303792 135.34782608697424,130.22076943005231 134.9839563612768,130.42789668041223 134.76736723884824,130.4655561441541 134.57676881115185,130.5597047545234 134.29087116956362,130.55028989661514 133.87502005451825,130.63502359248378 133.44184180971934,130.68209784349165 133.25990694685606,130.75741660875065 133.06064495426835,130.79507597462361 133.01732712978264,130.81390565334732 133.0,130.8986391730432 133.11262634361628,131.19991345128074 133.1992619926168,131.2846467130512 133.44184180971934,131.2093282609203 134.247553345107,130.77624629309867 134.78469436865998,130.56911961171863 134.9059842772549,130.47497100832697 135.30450826245942,130.22076943005231 136.56072517248685,129.74060950298008 136.66468795121182,129.6841199802584 136.47408952348633,129.7970990005124 135.51243381996755,130.1266205680513" stroke="#ff0000" stroke-linecap="round" stroke-linejoin="round" stroke-width="0.5"><title>2023-10-14 21.5km</title></polyline><polyline fill="none" points="13.0,187.57101079681888 13.27091919007944,187.46586345226387 14.257839096942917,187.31865703876974 14.412650062760804,187.32917178765638 14.731947679596487,187.27659803537972 15.10929940873757,187.1293914251437 15.18670489161741,187.06630283103732 15.283461745246314,186.97166988721438 15.53502956457669,186.84549253042496 15.854327181528788,186.7508594390456 16.483246730000246,186.50901902934856 16.802544346894138,186.40387089631986 16.947679627337493,186.33026715675078 17.46049095148919,186.20408922847128 17.779788568383083,186.0779111877855 19.03762766526779,185.65731690689427 19.492384877288714,185.55216814148298 20.46962909871945,185.37341506107623 20.992116108187474,185.2472362802655 21.321089410514105,185.2156915674932 21.562981544528157,185.14208721036266 21.911306217545643,185.0684828149897 22.32736068806844,184.9948783813379 22.61763124889694,184.88972912405006 22.859523382910993,184.7635499122407 23.014334348670673,184.6058257393961 23.28525353880832,184.2272870077577 23.459415875317063,183.91183729176555 23.55617272888776,183.6699920335741 23.55617272888776,183.58587184698263 23.52714567282237,183.44917643714143 23.47876724600792,183.34402603207127 23.41103744850261,183.270420702087 23.343307650939096,182.98651407083526 23.33363196562277,182.31354793033825 23.304604909557384,181.99809395095508 23.32395628024824,181.70366960275715 23.36265902168816,181.57748755186185 23.37233470706269,181.41975983005977 23.469091560691595,181.20945592771022 23.459415875317063,181.02018214850978 23.507794302073307,180.64163383106643 23.440064504568,180.26308450150827 23.47876724600792,180.12638588376285 23.469091560691595,179.91608006029128 23.48844293138245,179.8529882523144 23.56584841426229,179.77938110750983 23.7593621215201,179.6847432936338 23.933524457970634,179.5690747685876 24.930120050208643,179.0748536424653 25.07525533059379,178.9696999887965 25.181687869597226,178.9171231326618 25.307471779291518,178.84351550127758 25.413904318236746,178.8014539804426 25.578390969370957,178.79093859830027 25.994445439893752,178.8014539804426 26.516932449419983,178.88557700960519 27.37806844653096,179.1484611535634 27.910231141373515,179.33773743496567 28.074717792507727,179.42186014547042 29.08098907006206,180.02123301106622 29.274502777319867,180.14741644893365 29.748611359973438,180.431328772931 29.690557247842662,180.41029824992438 29.748611359973438,180.45235929278715 29.903422325733118,180.51545083366364 30.445260705950204,180.62060333931004 31.248342590930406,180.80987765265309 31.906289195467252,180.99915171299654 32.09980290272506,181.0306973651168 33.41569611185696,181.0306973651168 33.754345099499915,181.0517277959516 34.12202114315005,181.02018214850978 34.5864540404873,180.89399948849314 35.26375201577321,180.78884718589688 35.64110374485608,180.6836948052005 35.74753628385952,180.63111858556658 35.970077047124505,180.58905759580375 36.647375022410415,180.56802709626209 36.840888729610015,180.5995728444177 36.898942841799,180.57854234641854 36.91829421254806,180.51545083366364 36.94732126861345,180.49442032314982 37.285970256256405,180.49442032314982 37.595592187775765,180.3787524595682 37.876187063229736,180.41029824992438 38.079376455862075,180.41029824992438 38.24386310699629,180.3787524595682 38.36964701663237,180.32617612672038 38.5051066117594,180.2210234024169 38.58251209463924,180.18947756988928 39.027593621227425,180.2105081256741 39.63716179894982,180.2735997743148 40.053216269472614,180.24205395350873 40.22737860598136,180.2105081256741 41.26267693960108,179.8740188580996 42.38505644147517,179.66371265975613 42.801110912056174,179.60062073934387 42.994624619255774,179.5480441175241 43.362300663022324,179.369283457243 43.6138684823527,179.19052257129078 43.875111987115815,178.94866924868256 43.991220211435575,178.8645462570057 44.07830137968995,178.83300012224208 44.79430209641578,178.7068155129018 45.20068088156404,178.64372316607478 45.54900555458153,178.63320777218178 45.655438093526755,178.65423855915287 46.14889804692939,178.8014539804426 46.35208743956173,178.98021535766748 46.58430388820125,179.13794579719251 46.89392581972061,179.27464536927437 46.99068267340772,179.40082947251358 47.19387206592364,179.50598280598206 47.35835871711606,179.61113606134313 47.56154810969019,179.77938110750983 48.006629636278376,180.2210234024169 48.30657588248141,180.5049355788069 48.47106253361562,180.7467862429985 48.645224870124366,180.94657561049098 49.07095502602169,181.34615349976957 49.48700949648628,181.65109376188775 50.24171295471024,182.07169994233846 50.76419996417826,182.33457817064482 51.141551693261135,182.4817897653047 51.38344382727519,182.5448804018888 51.67371438810369,182.59745591090905 52.244579824386165,182.58694081065187 52.59290449740365,182.59745591090905 52.98960759723559,182.71312196199142 53.62820283102337,182.98651407083526 54.518365884316154,183.44917643714143 54.83766350115184,183.72256712486706 55.43755599355791,184.2693469168007 56.19225945172366,184.9948783813379 56.3664217882324,185.18414684769232 56.898584483074956,185.8781290601255 57.05339544889284,186.03585181591188 57.19853072927799,186.24614855041 57.50815266079735,186.62468188549974 57.66296362661524,186.70880026702798 57.75972048018593,186.81394817366527 57.8758287045639,186.89806644275086 58.01128829957452,186.91909600222425 58.14674789464334,186.89806644275086 58.320910231152084,186.91909600222425 58.407991399406455,186.9085812228659 58.72728901630035,186.77188902035414 59.0949650600669,186.54056345405115 59.2884787672665,186.38284126036888 59.39491130626993,186.25666337894654 59.646479125658516,185.79401018518547 59.69485755241476,185.60474253392022 59.76258734992007,185.5416532606323 59.84966851823265,185.52062349663174 59.917398315737955,185.4680490729079 60.33345278626075,184.8371544661204 60.41085826914059,184.67943037524674 60.555993549583945,184.46913131413748 60.93334527860861,184.04853225497936 60.991399390797596,183.90132228913717 61.13653467124095,183.76462718380935 61.465507973509375,183.270420702087 61.581616197829135,182.9654839273644 61.61064325395273,182.81827283554594 61.75577853427967,182.55539550526737 61.80415696115233,182.41869910062815 61.939616556221154,181.94551821938512 61.94929224153748,181.76676058606245 62.03637340979185,181.44079020313075 62.00734635372646,180.7783319513328 62.01702203910099,180.5469965935481 61.96864361228654,180.13690116673388 61.85253538796678,179.63216670306429 61.707400107523426,179.22206862638996 61.42680523201125,178.68578473375237 61.35907543450594,178.49650758072676 61.349399749189615,178.01279815113958 61.2816699516261,177.68681912508328 61.262318580877036,177.39238581124664 61.29134563700063,177.04537433378573 61.39777817600407,176.72990861613653 61.465507973509375,176.6037221322331 61.542913456389215,176.56165994593175 61.746102849021554,176.55114439741737 61.862211073283106,176.46701998107164 62.28794122918043,175.69938237264432 62.63626590219792,175.236694680214 62.77172549726674,175.01586593022512 62.98459057521541,174.77400547542493 63.51675327005796,174.3323461872933 63.77799677476287,174.16409466743062 64.09729439171497,173.99584294759552 64.31015946966363,173.82759102775162 64.55205160367768,173.66985467126506 65.1035656692693,173.37541300219164 65.77118795918068,173.07045491354074 66.50654004659737,172.67085366486572 67.0,172.42898920317384 66.6129725855426,172.64982198896178 65.93567461031489,172.98632842861844 65.69378247630084,173.0914865269442 65.17129546677461,173.35438143097417 64.97778175957501,173.49108658809564 64.55205160367768,173.7224334762941 64.02956459420966,174.07996883250598 63.61351012362866,174.30079904256127 63.3038881921093,174.5111132080201 62.974914889840875,174.78452115595428 62.47177925106371,175.38391365547432 62.16215731948614,175.8360852650876 61.92026518541388,176.35134882698912 61.84285970259225,176.47753553583607 61.75577853427967,176.5406288480881 61.51388640032383,176.6037221322331 61.41712954669492,176.6983620056999 61.310697007749695,176.9822812464845 61.262318580877036,177.3187773870959 61.24296721018618,177.86558190972573 61.25264289556071,178.20207595083775 61.30102132237516,178.40186890933546 61.465507973509375,178.76990783161455 61.56226482713828,178.94866924868256 61.67837305145804,179.11691508206422 61.80415696115233,179.35876811727212 61.99767066835193,180.25256922788685 62.03637340979185,181.41975983005977 61.92994087084662,181.75624542413425 61.8912381294067,182.02963938049652 61.77512990508694,182.53436529774626 61.59129188314546,182.90239347819443 61.51388640032383,183.13372498772515 61.36875111988047,183.3860862034635 61.11718330049189,183.76462718380935 60.797885683598,184.14316715221503 60.672101773903705,184.41655650007306 60.459236695896834,184.63737058802508 59.8690198889235,185.4680490729079 59.80129009135999,185.5416532606323 59.685181867098436,185.6152574100779 59.62712775490945,185.67834665058035 59.60777638416039,185.7309209962259 59.598100698785856,185.92018847883446 59.45296541840071,186.1094557085089 59.29815445264103,186.29872268523468 59.046586633252446,186.51953383834916 58.64988353342051,186.76137423008913 58.282207489712164,186.89806644275086 58.23382906289771,186.89806644275086 58.059666726447176,186.85600731445447 57.86615301918937,186.87703688017064 57.76939616561867,186.84549253042496 57.69199068273883,186.7929185985704 57.411395807226654,186.4879894089754 57.11144956102362,186.14100022220373 57.05339544889284,186.03585181591188 56.666368034435436,185.5416532606323 56.27934061997803,185.0895126461255 55.74717792507727,184.56376593026653 55.418204622808844,184.27986189210787 54.74090664758114,183.62793194652477 54.28614943561843,183.3545410761144 53.03798602405004,182.73415214296983 52.51549901452381,182.59745591090905 52.09944454400102,182.58694081065187 51.91560652211774,182.60797101035132 51.431822254147846,182.57642570962344 50.860956817807164,182.38715375774336 50.28041569609195,182.13479076164367 49.45798244042089,181.65109376188775 48.93549543095287,181.2199711302601 48.50008958968101,180.78884718589688 48.18079197278712,180.38926772379637 47.290628919552546,179.60062073934387 46.88425013446249,179.31670674954512 46.661709371139295,179.18000721804128 46.4391686078161,179.0748536424653 46.16824941767845,178.89609238474804 45.97473571047885,178.8014539804426 45.5103028130834,178.64372316607478 45.1232753986842,178.65423855915287 44.85235620854655,178.67526934298803 44.06862569437362,178.8645462570057 43.8073821895523,179.0012460930957 43.53646299947286,179.2536146744751 43.37197634833865,179.37979879646446 42.97527324850671,179.5690747685876 42.29797527327901,179.71628923861863 41.649704354058485,179.82144233778672 40.95305500808172,179.98968713403156 40.25640566210495,180.23153867835936 39.99516215734184,180.28411504635733 39.83067550614942,180.30514558810683 39.511377889313735,180.31566085778468 39.027593621227425,180.2735997743148 38.62121483607916,180.26308450150827 38.03099802904762,180.28411504635733 37.721376097528264,180.30514558810683 37.45045690739062,180.29463031762134 36.337753090891056,180.46287455155834 35.660455115605146,180.64163383106643 34.983157140319236,180.75730147989088 34.51872424298199,180.88348426173616 34.24780505290255,180.94657561049098 34.025264289579354,180.9781212743328 33.49310159467859,180.98863649404666 33.28991220210446,181.0306973651168 33.00931732665049,181.00966693115333 32.73839813657105,181.0306973651168 32.361046407488175,181.0306973651168 31.867586454027332,180.96760605382588 31.519261781068053,180.88348426173616 31.006450456916355,180.7467862429985 30.803261064342223,180.7152405276065 30.38720659381943,180.5995728444177 29.91309801110765,180.51545083366364 29.79698978678789,180.47338980953646 29.613151764962822,180.347206662198 29.16807023831643,180.0948400301495 28.87779967748793,179.89504946074157 28.64558322884841,179.78989641623775 27.871528399933595,179.369283457243 27.36839276115643,179.18000721804128 26.671743415121455,178.9696999887965 25.878337215573993,178.8224847424426 25.462282745051198,178.83300012224208 25.29779609385878,178.8645462570057 25.172012184222694,178.9171231326618 25.07525533059379,178.99073072575993 24.72693065763451,179.19052257129078 23.594875470385887,179.76886579797429 23.507794302073307,179.82144233778672 23.459415875317063,179.90556476091297 23.507794302073307,180.5049355788069 23.517469987506047,180.98863649404666 23.352983336371835,182.18736642291333 23.41103744850261,183.280935751558 23.391686077753548,183.58587184698263 23.352983336371835,183.77514219658042 23.198172370553948,184.1747121038934 23.101415516983252,184.3114068133582 22.898226124350913,184.56376593026653 22.68536104640225,184.74252003269066 22.53055008064257,184.84766939927795 22.162874036934227,184.97384853610856 21.18562981544528,185.2472362802655 19.83103386493167,185.51010861343093 19.453682135848794,185.57319790078327 19.056979036075063,185.66783177912293 18.24422146572033,185.93070333157084" stroke="#4dd2ff" stroke-linecap="round" stroke-linejoin="round" stroke-width="0.5"><title>2023-09-30 15.0km</title></polyline><polyline fill="none" points="163.216520993039,156.09956662240438 163.87093793216627,155.73728235783346 164.47596491361037,155.2676535267383 164.83404210669687,155.17372761412116 165.06864440557547,155.01271165034268 165.56254398229066,154.87853157095378 165.94531615416054,154.58333504565235 166.08113853773102,154.50282681870158 166.2293084107805,154.47599073508172 166.41452075203415,154.31497414971818 166.74790296622086,154.24788386347063 167.01954773342004,154.06003092954052 167.36527743714396,153.93926822605135 167.58753224660177,153.77825116251188 168.29133914335398,153.49647095621913 168.55063642113237,153.4159622451407 168.83462867769413,153.2012721736537 169.09392595553072,153.0939270422823 169.2174008496222,153.0939270422823 169.3655707226717,153.17443589681352 169.8224278310663,153.61723395556328 169.945902725216,153.77825116251188 170.5509297066019,154.31497414971818 171.34116902935784,154.94562162309012 172.66235039691674,156.07273077584978 173.63780206086813,156.82413297313906 173.82301440206356,157.0254008884367 174.21813406341244,157.37426474412496 175.1195007908973,158.0988259853475 175.89739262411604,158.8099666017224 176.02086751832394,158.99781459929363 176.23077483841917,159.18566240169457 176.25546981720254,159.29300391545985 176.15668990189442,160.3798331522121 176.24312232778175,160.79577841519495 176.15668990189442,161.61424855771475 176.08260496536968,161.81551113988098 176.15668990189442,162.3790451779787 176.10729994421126,162.63397666574747 176.14434241241543,163.1035863601428 176.13199492305284,163.55977746665303 176.03321500768652,164.15014071934274 176.0455624971073,164.64658105338458 176.08260496536968,164.84784025991394 176.00852002890315,165.42478207709792 175.8109601982287,166.14931105381402 175.62574785697507,166.39082006753597 175.48992547340458,166.63232875870017 175.24297568504699,167.18243068433367 175.230628195568,167.45077247977315 175.1195007908973,167.58494322815386 175.0948058119975,167.67886269278824 175.9591300712782,168.1082081955974 176.09495245484868,168.20212738841656 176.13199492305284,168.29604653247225 176.28016479604412,168.7119735840679 176.26781730662333,168.8595603724243 176.3048597748857,169.12789967897697 176.26781730662333,169.23523529010708 176.11964743363205,169.36940471442358 176.0455624971073,169.47674018217367 176.0455624971073,169.66457709748647 176.0702574759489,169.83899691552506 176.24312232778175,170.13416853209492 176.21842734899838,170.48300709409523 176.44068215845618,170.64400928036775 176.6629369679722,171.07334774298943 176.69997943623457,171.36851734471566 177.0333616504795,172.186939629697 177.28031143877888,172.7638580310886 177.391438843566,173.5420241222746 177.76186352607328,173.68960696873546 177.94707586732693,173.6493571134488 178.04585578263504,173.66277373285266 178.4656704227673,174.17260453326162 178.79905263707042,174.8300158122729 178.823747615912,174.85684887497337 179.0583499148488,174.81659927945293 179.0583499148488,174.84343234410335 178.63853527465835,175.00443064847786 178.3298480391968,175.15201230156526 178.13228820858058,175.28617733625288 177.91003339906456,175.55450710700825 177.8729909308022,175.94358456753253 177.81125348375645,176.10458189256315 177.56430369539885,176.25216264795745 177.24326897057472,176.38632686653 177.07040411874186,176.6680714016111 176.99631918221712,176.6680714016111 176.72467441507615,176.4802417603205 176.6629369679722,176.50707457815588 176.4283346690354,177.7145472609118 176.50241960556014,178.13045265185065 176.4159871796146,179.25741729183937 176.52711458440172,179.59282207884826 176.37894471141044,179.78064848792565 176.34190224314807,179.9013939336437 176.4159871796146,180.04897159115353 176.5641570526641,180.1160523047729 176.67528445733478,180.25021365737484 176.82345433038427,180.31729429634288 176.87284428806743,180.42462326695386 176.87284428806743,180.55878439069784 176.81110684096348,180.9880993179977 176.71232692559715,181.36374904355034 176.4283346690354,182.1687101143907 176.36659722198965,182.6516850375483 175.56401040987112,184.23476046799624 175.19358572736382,184.7982246512256 174.89724598138127,185.54950749895943 174.79846606607316,185.6970805488818 174.60090623534052,185.88490062013443 174.5021263200324,186.03247339649533 174.44038887298666,186.52885366990813 174.00822674337542,187.42770096943423 173.77362444449682,187.7899217531667 173.4278947408311,187.9777396518184 173.32911482540658,188.08506407780806 173.11920750536956,188.40703697378922 172.89695269585354,188.83633327721327 171.41525396588258,190.24495461842162 170.77318451617612,191.0364608457021 170.1928525135736,191.5059968019923 169.945902725216,191.77430251572514 169.52608808508376,192.02919257531175 169.1186209343141,192.45848028508772 168.735848762386,192.7938605997624 168.60002637881553,192.98167330445722 168.32838161161635,193.22314649549662 167.76039709843462,193.8536583085952 167.40231990540633,194.05488502056687 167.10598015936557,194.43050761750783 166.61208058265038,194.77929933085397 166.43921573087573,194.85978963079106 166.1305284954724,194.94027989490132 165.53784900344908,195.22199553741666 165.24150925740832,195.27565561006486 164.98221197968815,195.50371074136638 164.82169461727608,195.59761571188574 164.29075257229852,195.66469066101126 163.90798040042864,195.87933033115405 163.3523433766677,196.0403099166724 163.10539358836832,196.14762956080085 162.79670635290677,196.21470430608315 162.37689171271631,196.080554790693 162.06820447725477,196.1744594619231 161.61134736886015,196.49641796473588 161.41378753824392,196.57690750095935 161.0680578345782,196.64398208711646 160.93223545100773,196.75130137328233 160.80876055679983,196.8854503915063 160.54946327902144,197.00618442284758 160.43833587429253,197.1403332521295 160.21608106477652,197.30131171601533 159.68513901985716,197.9318093208858 159.3023668479873,198.50864563115465 159.141849485517,198.6964524051873 158.9195946760592,199.0452358971088 158.46273756760638,199.6354833522637 158.215787779307,199.89036234011292 157.67249824490864,200.54768017868628 156.45009679265786,201.83547963673482 155.25239031924866,203.1903420928429 154.7337957637501,203.74033286924532 154.06703133526025,204.34397935889137 153.11627465015044,205.28298100837856 152.9187148194178,205.51102353104216 152.63472256291425,205.7390657664073 152.02969558147015,206.31587719720847 151.79509328253334,206.50367587109213 151.19006630114745,206.839030161369 150.9060740445275,206.9329292513139 150.51095438323682,206.95975755379186 149.6960200816975,206.9463434030331 148.88108578015817,206.82561600168992 148.28840628819307,206.59757513501972 147.33764960308326,206.30246299874852 146.36219793913187,205.91345081140753 145.9547307883622,205.6988230398856 144.13964984408813,204.66592333027802 141.86771179141942,203.76716164486425 141.37381221470423,203.70008969836636 141.0527774898801,203.75374725757865 140.86756514868466,203.80740480084205 141.26268480997533,203.71350408966828 141.62076200306183,203.72691847995156 141.9047542596236,203.7939904165105 142.81846847647103,204.19642151398875 144.11495486530475,204.69275196871604 145.65839104237966,205.56468055344885 146.49802032276057,205.99393616012821 147.72042177501135,206.43660493849893 148.8440433118958,206.7987876793195 149.1897730155615,206.8926867901464 149.88123242289294,207.0 150.62208178790752,207.0 150.95546400221065,206.973171703532 151.16537132224767,206.90610094484873 151.8568307296373,206.47684750104963 153.412614396133,205.05493819846015 154.43745601770934,203.95496296286 154.78318572137505,203.68667530608946 155.0795254674158,203.31107191859337 155.9068072583177,202.47937592989183 156.49948675034102,201.79523604235146 157.57371832960052,200.69524099807313 158.17874531104462,200.02450903166027 159.37645178445382,198.4684012970538 159.43818923155777,198.32083866217 159.70983399869874,197.98546859009366 159.84565638226923,197.86473521198786 159.96913127647713,197.70375724928454 160.20373357535573,197.354971172128 160.53711578965886,197.01959931026795 160.78406557795824,196.91228018316906 161.03101536631584,196.67081191462057 161.16683774988633,196.61715225563967 161.4261350276065,196.5903224201611 161.69777979480568,196.48300303856377 162.12994192441693,196.1744594619231 162.42628167039948,196.12079965574958 162.7596638846444,196.26836408438976 162.8831387787941,196.28177902648167 163.8462429533247,196.0537248756591 163.99441282631597,195.9732351067796 164.3154475511983,195.6915206336853 164.50065989239374,195.65127567316813 164.93282202200498,195.62444569454237 165.2662042362499,195.50371074136638 165.5255015140283,195.3695606989204 165.7477563235443,195.18175047247496 166.06879104836844,194.99394005109207 166.25400338956388,194.91344981084694 166.62442807212938,194.80612943481538 167.15537011704873,194.3768472942611 167.4270148841897,194.05488502056687 167.82213454553857,193.8268280634511 167.95795692910906,193.665846508884 168.66176382586127,192.98167330445722 168.83462867769413,192.7670301974431 169.25444331788458,192.538971617294 169.41496068029664,192.33774321964302 169.5754780427087,192.2035908302205 169.73599540517898,192.13651459821267 169.88416527811205,191.93528575303208 170.10642008768627,191.7877177909686 170.57562468550168,191.37184379594692 171.3905589869828,190.33886231791985 173.00808010058245,188.7826712949609 173.95883678569226,187.68259715210297 174.11935414810432,187.41428537090542 175.4405355156632,184.66406667155388 175.87269764527446,183.6712945298059 176.4283346690354,182.6785169399518 176.45302964787697,182.22237405841588 176.60119952086825,181.84672611586575 176.7987593516009,181.0954278906138 176.92223424569238,180.43803938383644 176.88519177743,180.26362978715042 176.67528445733478,180.1965491282608 176.60119952086825,180.08922002228792 176.45302964787697,179.9953070023621 176.4159871796146,179.9013939336437 176.5641570526641,179.56598971877247 176.47772462671855,179.17692005042045 176.47772462671855,178.4524432654871 176.5518095632433,178.0902037848573 176.52711458440172,177.82187777591753 176.5518095632433,177.3523063024768 176.61354701028904,176.90956636806368 176.73702190449694,176.4802417603205 176.7987593516009,176.46682534988213 177.07040411874186,176.65465500514256 177.19387901294976,176.6412386076554 177.34204888594104,176.45340893848334 177.55195620597806,176.29241192399058 177.81125348375645,176.17166406902834 177.94707586732693,176.03749969121418 177.9964658250101,175.9167516660964 178.107593229739,175.35325981627102 178.19402565562632,175.20567832737288 179.02130744658643,174.84343234410335 179.13243485131534,174.74951660037914 179.0583499148488,174.74951660037914 178.823747615912,174.84343234410335 178.76201016880805,174.8300158122729 178.26811059215106,173.55544074966747 178.15698318736395,173.46152433707903 177.9841183355893,173.47494097042363 177.89768590964377,173.36760787574167 177.67543110018596,173.27369136561174 177.23092148115393,172.60285773215583 176.99631918221712,172.11985597520834 176.84814930922585,171.51610196493857 176.68763194681378,171.03309730540786 176.44068215845618,170.76476082601584 176.24312232778175,170.63059243699536 176.1813848806778,170.53667450546345 176.24312232778175,170.21466979841352 176.14434241241543,169.9060814161785 176.13199492305284,169.55724174120405 176.14434241241543,169.46332325218827 176.2925122854649,169.1547335877258 176.3172072643065,168.6448886404687 176.28016479604412,168.48388467423501 176.14434241241543,168.3094635490561 175.36645057919668,167.85328442625178 175.24297568504699,167.71911387698492 175.28001815330936,167.45077247977315 175.25532317446778,167.20926488182158 175.48992547340458,166.69941444898723 175.79861270880792,166.22981409424392 175.99617253948236,165.59920598499593 176.11964743363205,163.49269061142695 176.09495245484868,163.14383856290078 176.11964743363205,162.05702594270406 176.09495245484868,161.82892863736197 176.16903739131521,161.48007337845047 176.20607985951938,159.8162928820966 176.26781730662333,159.23933316652256 176.24312232778175,159.1185739232751 176.02086751832394,158.9709791830246 175.99617253948236,158.83680204188568 176.02086751832394,158.64895387696743 176.23077483841917,158.4476877693669 176.25546981720254,158.2866747219232 176.24312232778175,157.99148376251105 176.1813848806778,157.95123041249462 176.0455624971073,157.99148376251105 175.7121802828624,157.96464819682296 175.31706062157173,157.77679912558233 174.6379487036029,157.26692209100293 173.98353176453384,156.66311847951147 173.68719201849308,156.47526805569942 173.1809449524153,156.07273077584978 173.02042759000324,155.99222321227717 172.90930018521613,155.85804386006203 171.55107634945307,154.78460545609414 170.674404600868,154.0197767040081 169.87181778874947,153.34887162520317 169.30383327556774,153.0 168.84697616717312,153.1341814740299 168.71115378354443,153.2549447154306 168.32838161161635,153.45621660517645 167.95795692910906,153.61723395556328 167.3282349688816,154.00635862682248 167.0565902016824,154.08686707490415 166.587385603867,154.32839220398455 166.03174858010607,154.51624485901266 165.84653623885242,154.61017111330875 165.648976408178,154.65042520735005" stroke="#4dd2ff" stroke-linecap="round" stroke-linejoin="round" stroke-width="0.5"><title>2023-03-18 15.0km</title></polyline><polyline fill="none" points="49.22213220980484,215.09735307273513 49.591353153577074,214.83290618002502 49.78435501054628,214.6414097988527 50.15357595437672,214.4590320154457 50.32140365612577,214.39519972728885 50.464057202567346,214.4134375273061 50.93397476739483,214.18546483263344 51.110193854226964,214.14898916224047 51.66402526991442,213.81158869749197 52.326944691711105,213.47418730597565 52.96468995825853,213.20061792976776 53.13251766000758,213.08207101086737 53.42621613803203,213.0 54.542270354460925,213.91189704056887 55.2807122420636,214.57757760547247 56.36320091818925,215.41651235755126 56.74081324710278,215.78126481053187 57.38694989870419,216.3192727018395 57.764562227617716,216.70225993458007 57.982738239865284,216.84815951873315 58.15056594158523,217.15819555968483 58.184131481917575,217.5320615096498 58.133783171419054,217.73267203814612 58.14217455650214,217.95151951382286 58.20091425208375,218.1794852197636 58.22608840739122,218.76307549953344 58.17574009683449,218.82690551819542 58.184131481917575,219.1095809165563 58.14217455650214,219.2919517961709 58.158957326668315,219.78435181897657 58.14217455650214,220.18556519335834 58.10860901614069,220.29498679535754 58.14217455650214,220.49559281261463 58.09182624600362,221.48949961237668 57.982738239865284,221.63539351183863 57.957564084616024,221.78128723807458 57.73938807233935,222.1642574452635 57.43729820923181,222.8572481195879 57.53799483028706,222.97578560668626 58.07504347580834,223.16726899809873 58.14217455650214,223.22197848371434 58.12539178633597,223.43169795292488 58.2344797924452,223.84201761836448 58.09182624600362,224.10644512127328 58.158957326668315,224.44381731617614 58.259653947723564,224.61706213739672 58.2344797924452,224.7811885848787 58.33517641350045,224.88148797265603 58.55335242571891,225.25533042411553 58.721180127438856,225.87535929996375 58.914181984437164,226.18537256485433 59.03166137568769,226.77804280655982 59.333751238766126,226.89657651195012 59.50997032556916,226.89657651195012 59.71136356762145,227.17923334811348 59.828842958813766,227.27953077888378 59.87919126934139,227.5348329605913 59.96310512025957,227.70807342476473 60.021844815812074,227.73542715992517 60.12254143686732,227.73542715992517 59.71136356762145,227.88131364472065 59.6777980272891,227.853959942011 59.68618941237219,227.9177852388675 59.62744971679058,227.98161050257477 59.4176650896261,228.14573245708743 59.37570816418156,228.44662213783886 59.325359853653936,228.54691853441182 59.19109769229544,228.66545053393202 58.90579059935408,228.81133591490652 58.80509397829883,228.97545676152367 58.72957151252194,228.99369239762746 58.52817827046965,228.8569250609362 58.47782995997113,228.91163201387099 58.360350568720605,229.7322333860866 58.40230749419425,229.9601772395108 58.360350568720605,230.73518317943672 58.42748164944351,230.9540075014229 58.31839364330517,231.17283143389795 58.33517641350045,231.23665500749485 58.44426441960968,231.27312560610153 58.511395500274375,231.37341969646513 58.637266276578885,231.45547843684471 58.57013519591419,232.05724085911788 58.36874195380369,232.63164769623108 58.29321948805591,233.09664174152567 57.781344997812994,234.09956408713333 57.529603445203975,234.4551436815018 57.319818818039494,235.01130457467661 57.026120340044145,235.32129480027652 56.9841634145705,235.66775353931007 56.66529078132589,236.34243354532373 56.50585446465993,236.55213063090923 56.30446122260764,236.6524204150046 56.237330141913844,236.72535838841577 55.910066123557044,237.2906262153483 54.91149129829137,238.23881157377764 54.4919220439333,238.76760407881375 54.11430971507798,239.05935069440602 53.92130785807967,239.26904314686544 53.6443921502796,239.44226707703638 53.49334721869673,239.63372482121486 52.746513946010964,240.31750004582864 52.42764131273725,240.68217861110315 52.15911698999116,240.82804973443854 51.98289790315903,241.0468560950103 51.52137172341463,241.356831106139 50.97593169281026,241.57563652595127 50.6906245998689,241.63033782009006 50.42210027712281,241.8491427533154 50.12001041401527,241.89472706540982 49.8347033210739,242.06794729728426 49.44869960710639,242.1408820587676 49.19695805455558,242.2411672851813 49.045913122972706,242.25940095395345 48.81934572564205,242.18646626273403 48.61795248358976,242.23205044980568 48.24873153978842,242.49643840165663 48.08929522315157,242.5511392862536 47.879510595987085,242.56937290904898 47.71168289426714,242.73347539253882 47.5438551925472,242.81552655218547 47.476724111824296,242.906694443147 47.33407056538272,242.9978622665294 47.25854809960583,243.13461387488496 47.05715485752444,243.27136533122393 46.88093577072141,243.4719338588111 46.70471668391838,243.78190275814268 46.620802833058406,243.88218664655142 46.57045452253078,244.03717067692924 45.446008920960594,245.40466836412816 44.94252581582987,245.94254662191088 44.62365318252705,246.22515967925574 43.49081619584467,247.46500283914065 43.2139004880155,247.74761239891086 42.72720015299274,248.20343290145684 42.52580691096955,248.440458895333 42.25728258819436,248.64101899503294 41.73701671283925,249.13330148989917 41.518840700620785,249.288278904678 41.082488676096546,249.51618651295576 40.94822651470895,249.56176798396336 40.73844188757357,249.56176798396336 39.798606757918606,249.48883762225887 39.54686520530959,249.4159072173352 39.26155811236822,249.297395217116 37.97767619419028,248.8689278023303 36.148354245349765,247.8752423098631 34.721818780730246,247.35560541591985 34.45329445795505,247.31913958655787 34.23511844567838,247.35560541591985 34.04211658870918,247.44676994203473 33.53863348352024,247.8296602139817 33.31206608621869,248.07580333096848 32.942845142417355,248.3584114875921 32.38062234164681,248.94185853149975 31.96105308731785,249.49795391984662 31.742877075099386,249.8534889984512 31.54987521810108,250.22725553740747 30.610040088446112,252.72508082030254 29.88838097100961,253.93751057972986 29.661813573678955,254.44800374677288 29.52755141229136,255.2775506265898 29.217070164100733,256.5628814510128 29.007285536965355,257.19186823918426 28.94854584132554,257.60207528225874 28.54575935722096,259.2884676513204 28.688412903662538,261.0659913528434 28.69680428877473,261.34856967921223 28.663238748413278,262.0139934984036 28.39471442566719,263.03491072147153 28.159755643224344,263.40863723082293 28.00031932661659,263.8826301961235 27.75696915909066,264.3748517285494 26.934613420657115,265.1678711692366 25.87729889980983,265.9426553448502 24.895506844710326,266.4439836839956 23.737495702778688,266.8541598977463 22.503962095128372,266.93619497651525 21.278819872502936,266.890619939506 20.59072629545699,266.93619497651525 20.263462277071085,266.7903547986789 20.053677649906604,266.5989393031268 19.82711025257595,266.42575359834154 19.85228440782521,266.49867392476153 20.045286264823517,266.58982427208684 20.204722581460373,266.79946981486137 20.33898474284797,266.890619939506 20.649465991009492,266.990884998675 20.993512779590674,266.96353999064013 22.48717932490399,267.0 23.796235398360295,266.89973494825244 24.710896372795105,266.5533641412694 24.95424654026283,266.4804438472129 25.99477829100215,265.9517704237951 26.993353116238723,265.1861014411261 27.496836221427657,264.7303438336239 27.84088300995063,264.3657365328618 28.26884364936268,263.6091729388718 28.537367972137872,262.51533783556806 28.54575935722096,262.342146386276 28.646455978247104,262.0595703407016 28.69680428877473,261.0659913528434 28.587716282636393,260.1453284349773 28.54575935722096,259.2884676513204 28.873023375548655,257.88466156103095 28.881414760660846,257.3377197889349 29.057633847463876,257.0186692993884 29.225461549212923,256.453492116234 29.460420331626665,255.52367884491832 29.653422188624972,254.53004709394736 29.779292964900378,254.14717767246475 30.651997013861546,252.67038445929938 31.5330924479058,250.3548828760322 31.72609430490411,249.91730287817336 32.01979278292856,249.4250235203217 32.90088821700192,248.42222614279308 33.849114731739974,247.61086591879575 33.97498550801538,247.51058507011476 34.285466756206006,247.36472187156323 34.54559969386901,247.3464889595998 34.78894986139494,247.37383832653722 36.31618194709881,247.97552286129212 37.876979573164135,248.83246242154564 38.27137467221473,249.0056728840791 39.90769476402784,249.5344191033946 40.27691570785828,249.5800005676283 40.696484962129034,249.59823314860841 40.97340066998731,249.58911685847124 41.158011141902534,249.54353539759177 41.75379948300542,249.1515341370541 43.1467694073217,247.83877663453313 44.01947345628287,246.94536421235534 46.0334058770095,244.748271371609 46.797021919861436,243.69073551589827 47.11589455316425,243.3716496358902 47.392810260964325,242.9522783632783 47.61937765829498,242.77905937688047 47.762031204794766,242.70612499382696 47.94664167668088,242.54202247383364 48.215165999456076,242.51467203255015 48.64312663883902,242.23205044980568 48.82773711072514,242.1955831015075 49.12143558874959,242.2867514519894 49.322828830830986,242.25940095395345 49.55778761327383,242.1408820587676 49.952182712295325,242.05883044905931 50.18714149467996,241.89472706540982 50.50601412798278,241.86737648017152 50.69901598498109,241.80355842432618 50.883626456867205,241.73062346280494 51.31997848136234,241.43888318417157 51.6724166549684,241.32036349830014 51.78989604616072,241.23831134118518 51.98289790315903,241.17449295891856 52.42764131273725,240.80981585347763 52.62903455484775,240.51807339055813 53.19125735561829,239.94370339412853 53.48495583361364,239.79783122184017 53.6443921502796,239.5881396710829 53.82900262213661,239.48785228125053 54.35765988260391,239.00464825671224 54.97023099390208,238.25704583596234 55.96880581913865,237.28150901296613 56.673682166379876,236.4883098166465 57.680648376757745,234.4551436815018 57.99112962494837,233.73486599897296 58.33517641350045,233.0875242281545 58.41909026433132,232.65900033582147 58.50300411522039,232.49488440702407 58.60370073624654,232.13929914303299 58.68761458710651,231.49194897052803 58.65404904677416,231.42812552947726 58.36874195380369,231.23665500749485 58.34356779855443,231.17283143389795 58.44426441960968,230.972242844 58.360350568720605,230.6166531757044 58.42748164944351,229.95105949346907 58.41069887924823,229.75958667082887 58.44426441960968,229.25810881703364 58.536569655523635,228.89339636560908 58.59530935116345,228.84780723309086 58.75474566780031,228.9572211227205 58.83026813357719,228.9572211227205 58.972921680047875,228.81133591490652 59.249837387906155,228.66545053393202 59.40927370454301,228.51044712695148 59.50997032556916,227.99072839470318 59.76171187814907,227.84484203975444 60.021844815812074,227.78101670502656 60.17288974739495,227.70807342476473 59.97988789039664,227.73542715992517 59.92114819478593,227.698955511667 59.60227556154132,226.8509866388049 59.36731677909847,226.77804280655982 59.15753215190489,226.79627876868472 58.964530294935685,226.54097505283426 58.620483506441815,225.55622718098311 58.55335242571891,225.19150374461606 58.45265580472187,225.04561406698485 58.217697022279026,224.89060609475564 58.184131481917575,224.8450154774764 58.22608840739122,224.6626528392444 58.133783171419054,224.38910837450385 58.133783171419054,224.15203601255052 58.15056594158523,224.06085421310127 58.26804533280665,223.93319958019129 58.27643671786063,223.86937221401604 58.133783171419054,223.1855054960397 57.73099668728537,223.02137691742246 57.5128206750378,222.9119577432357 57.49603790487163,222.87548466349108 57.5128206750378,222.57458134280023 57.61351729606395,222.4742800721433 57.73938807233935,222.1824940920269 57.9072157741175,221.97277249087347 58.066652090725256,221.4530261104519 58.049869320588186,221.12476410589443 58.133783171419054,220.15820977765543 58.15056594158523,219.06398815436842 58.09182624600362,218.81778694614331 58.15056594158523,218.717482608743 58.158957326668315,218.13389211241883 58.20930563719594,217.89680768144171 58.167348711780505,217.62324815411557 58.242871177528286,217.1946703366193 58.20930563719594,217.08524597337964 58.02469516528072,217.04877116400166 57.982738239865284,216.92110924582812 58.01630378019763,216.82992208020005 58.217697022279026,216.58371639491816 58.259653947723564,216.33751021618082 58.184131481917575,216.2919164252453 57.957564084616024,216.3192727018395 57.63030006623012,216.1916100255985 57.353384358400945,215.99099698058126 56.73242186201969,215.4347500059157 56.388375073467614,215.20677920665912 55.52406240956043,214.54110205150937 54.93666545356973,214.01220530174032" stroke="#ff0a00" stroke-linecap="round" stroke-linejoin="round" stroke-width="0.5"><title>2023-03-11 21.3km</title></polyline></svg>