<?xml version="1.0" encoding="utf-8" ?>
<svg baseProfile="full" height="200mm" version="1.1" viewBox="0,0,200,200" width="200mm" xmlns="http://www.w3.org/2000/svg" xmlns:ev="http://www.w3.org/2001/xml-events" xmlns:xlink="http://www.w3.org/1999/xlink"><defs /><rect fill="#1a1a1a" height="200" width="200" x="0" y="0" /><text alignment-baseline="middle" fill="#e1ed5e" style="dominant-baseline: central; font-size:9.0px; font-family:Arial;" text-anchor="middle" x="100.0" y="100.0">2023</text><line stroke="#e1ed5e" stroke-width="0.3" x1="100.0" x2="100.0" y1="15.0" y2="10.0" /><path d="M 100.0 14.0 a86.0,86.0 0 0,1 42.46469731375804,11.215312516191453" fill="none" id="id13" stroke="none" /><text fill="#e1ed5e" style="font-size:6.75px; font-family:Arial;" text-anchor="middle"><textPath startOffset="22.20632615414155" xlink:href="#id13">January</textPath></text><path d="M 102.52436894288641 79.15227682838746 l 1.1655145681151775 -9.62550467791909 a30.695811699550017,30.695811699550017 0 0,0 0.5239998281326296,0.06803021658737946 l -1.3310291247556532 9.604016138167573" fill="#ff0000" stroke="none" /><path d="M 104.66035177308747 79.52364482259891 l 3.345000151150637 -14.697047454433683 a36.072897196261685,36.072897196261685 0 0,0 0.6042662274419456,0.1430102929767135 l -3.5974900655551063 14.637291249316101" fill="#ff5908" stroke="none" /><path d="M 105.01212808612495 79.60689891045804 l 5.812842583419127 -23.651008989458866 a45.354863274489446,45.354863274489446 0 0,0 0.7565431171409358,0.19285968569440756 l -6.2190945892450875 23.54744630759559" fill="#ffe615" stroke="none" /><path d="M 106.0581310904928 79.89281104454417 l 7.169242799440213 -23.795014911795107 a45.851574939425404,45.851574939425404 0 0,0 0.7537444930162054,0.23419208302032232 l -7.577772665167137 23.668082693892263" fill="#ffed16" stroke="none" /><path d="M 107.4271985657038 80.35727306442388 l 11.413736898189564 -30.18593285507537 a53.27172031844929,53.27172031844929 0 0,0 0.8549269798450814,0.33169838609235464 l -11.931647043034312 29.98499176509247" fill="#abff21" stroke="none" /><path d="M 107.76421540070413 80.48803036053334 l 10.41553326154687 -26.174900912682947 a49.171062651436486,49.171062651436486 0 0,0 0.7837308485197992,0.3197034914208971 l -10.864547979655056 25.99173653507847" fill="#e2ff1b" stroke="none" /><path d="M 108.43124777332544 80.76684994638697 l 15.608363248350283 -35.60540509752052 a59.87628937348563,59.87628937348563 0 0,0 0.9403938531063367,0.4219273100659493 l -16.2189392199234 35.33145745693804" fill="#59ff2a" stroke="none" /><path d="M 108.76106565485865 80.91482961587045 l 16.637634661742077 -36.24354671194052 a60.879889235029424,60.879889235029424 0 0,0 0.9486298214937465,0.44539442092849735 l -17.25904269453542 35.95178730837202" fill="#4dff2c" stroke="none" /><path d="M 109.41281617654863 81.2277094730956 l 13.334985824637661 -26.594403138980375 a50.75036344755971,50.75036344755971 0 0,0 0.7775427233481572,0.3982875828221473 l -13.790789035574573 26.36092303084573" fill="#ccff1d" stroke="none" /><path d="M 110.05341064243156 81.56283822128135 l 18.606987436857573 -34.123746635793914 a59.86708203530633,59.86708203530633 0 0,0 0.9005032891667424,0.5011291054670676 l -19.19161481509635 33.79840213276667" fill="#59ff2a" stroke="none" /><path d="M 110.36928655335952 81.73862282372117 l 19.371076333846084 -34.114452274273745 a60.230529595015575,60.230529595015575 0 0,0 0.8971574506030771,0.5196915028958289 l -19.95543051691449 33.775956613987866" fill="#55ff2b" stroke="none" /><line stroke="#e1ed5e" stroke-width="0.3" x1="143.23703022742887" x2="145.7803849466894" y1="26.81831364943548" y2="22.513508569990506" /><path d="M 143.74570117128098 25.957352633546492 a86.0,86.0 0 0,1 28.547481713284135,27.462654790039103" fill="none" id="id14" stroke="none" /><text fill="#e1ed5e" style="font-size:6.75px; font-family:Arial;" text-anchor="middle"><textPath startOffset="19.985693538727396" xlink:href="#id14">February</textPath></text><path d="M 111.90073688211348 82.69761687909136 l 22.023572054874165 -32.01988962188506 a59.86272066458983,59.86272066458983 0 0,0 0.8439755946946352,0.5912588390106905 l -22.571478789152454 31.63604594011044" fill="#59ff2a" stroke="none" /><path d="M 112.19680574252982 82.90503203632743 l 22.74569876733696 -31.880231590728023 a60.162686050536514,60.162686050536514 0 0,0 0.8378504436293327,0.6087339794048648 l -23.291094527320084 31.483978376506485" fill="#55ff2b" stroke="none" /><path d="M 112.77801427241765 83.33499621200491 l 24.532843832125263 -31.99557667384774 a61.318449290411905,61.318449290411905 0 0,0 0.8320838959940344,0.6494546791194032 l -25.079960283278727 31.568543605505113" fill="#48ff2c" stroke="none" /><path d="M 113.06298171725822 83.55741782278167 l 26.40630433672135 -33.23803389233471 a63.45067497403946,63.45067497403946 0 0,0 0.8493223378091231,0.6867595974321261 l -26.974530073094968 32.77856819763846" fill="#30ff2f" stroke="none" /><path d="M 113.6212207817346 84.01681056812373 l 25.592241745675132 -30.030028465290545 a60.455867082035304,60.455867082035304 0 0,0 0.7862320099186093,0.6818126513425387 l -26.105367554240505 29.585050820528334" fill="#52ff2b" stroke="none" /><path d="M 113.89432698308785 84.25364557470407 l 41.67817155951514 -47.233612824373346 a83.99273104880581,83.99273104880581 0 0,0 1.0758629416159,0.9659203716409719 l -42.48504548872703 46.50919344396308" fill="#4dd2ff" stroke="none" /><path d="M 114.42810811169701 84.74124197986012 l 29.467167611070582 -31.163640903945538 a63.88923502942195,63.88923502942195 0 0,0 0.7925817275213749,0.762462993913883 l -29.999232582204375 30.651794823269356" fill="#30ff35" stroke="none" /><path d="M 114.68862486808459 84.99185889309783 l 30.95373050832705 -31.62705559070991 a65.25385946694358,65.25385946694358 0 0,0 0.795985842683028,0.7925676265110793 l -31.493552151177404 31.089552113548713" fill="#32ff48" stroke="none" /><path d="M 114.94478906791727 85.2469230424477 l 30.583449500889333 -30.19112428175039 a63.975008653513335,63.975008653513335 0 0,0 0.7668950432377214,0.7903527540339348 l -31.098608807830164 29.66020733216634" fill="#30ff36" stroke="none" /><path d="M 115.4437574822437 85.77008943001954 l 29.8344100063697 -27.489488020443403 a61.56801661474559,61.56801661474559 0 0,0 0.711422417439314,0.7855704021553893 l -30.30317606442505 26.971864831018465" fill="#45ff2d" stroke="none" /><path d="M 115.68641384162765 86.03803664274999 l 30.382811717942023 -27.042745918790356 a61.674627898926964,61.674627898926964 0 0,0 0.6990030119406313,0.7990812775366525 l -30.843806593460503 26.515749085050757" fill="#44ff2d" stroke="none" /><path d="M 116.15771136456269 86.58626213691792 l 33.655839767445514 -27.94025725651559 a64.74212530287296,64.74212530287296 0 0,0 0.7044606313278361,0.8635854376452687 l -34.131798890849765 27.35678764926222" fill="#31ff41" stroke="none" /><path d="M 116.38621287248628 86.86637796730983 l 30.24274386850013 -24.239692861995152 a59.75804776739356,59.75804776739356 0 0,0 0.6364115968975499,0.8081780994503536 l -30.655509545991645 23.71552236859176" fill="#5aff2a" stroke="none" /><path d="M 116.60985879189232 87.15038557335679 l 34.88894419134646 -26.99056543637241 a65.110418830045,65.110418830045 0 0,0 0.6781531019150366,0.8923699899071036 l -35.34837323348561 26.386010670584273" fill="#32ff46" stroke="none" /><path d="M 117.04232023915458 87.72973835380427 l 35.5837826209573 -25.61988725674588 a64.8472827968155,64.8472827968155 0 0,0 0.6444195028430553,0.9114856860528541 l -36.01951474360424 25.003575070361233" fill="#31ff43" stroke="none" /><path d="M 117.2510076193507 88.02491185347247 l 51.75302285805209 -35.92526443958259 a84.0,84.0 0 0,0 0.8143021373250665,1.1948879069183742 l -52.36374946104589 35.02909850939381" fill="#4dd2ff" stroke="none" /><path d="M 117.65298651832404 88.62581576622439 l 36.772472435885796 -23.693264354053866 a64.74454828660436,64.74454828660436 0 0,0 0.5955647629758646,0.9420404298406249 l -37.17486479510762 23.056776276499036" fill="#31ff41" stroke="none" /><line stroke="#e1ed5e" stroke-width="0.3" x1="172.23445277983987" x2="176.4835382374775" y1="55.19839476539836" y2="52.563006222186495" /><path d="M 173.08426987136738 54.67131705675599 a86.0,86.0 0 0,1 12.851231095245387,41.99856678651699" fill="none" id="id15" stroke="none" /><text fill="#e1ed5e" style="font-size:6.75px; font-family:Arial;" text-anchor="middle"><textPath startOffset="22.20632615414155" xlink:href="#id15">March</textPath></text><path d="M 117.84615892207809 88.93136811851018 l 33.875786010643154 -21.01060551377572 a60.86244375216337,60.86244375216337 0 0,0 0.5445281742249911,0.895061144382827 l -34.23242998315437 20.42437659618581" fill="#4dff2c" stroke="none" /><line stroke="#e1ed5e" stroke-width="0.3" x1="184.98032266829074" x2="189.97916517819016" y1="98.17113171792111" y2="98.06355123074" /><path d="M 185.9800911702706 98.14961562048488 a86.0,86.0 0 0,1 -9.607161424134198,41.387399972396054" fill="none" id="id16" stroke="none" /><text fill="#e1ed5e" style="font-size:6.75px; font-family:Arial;" text-anchor="middle"><textPath startOffset="21.466115282336823" xlink:href="#id16">April</textPath></text><line stroke="#e1ed5e" stroke-width="0.3" x1="174.80103733775053" x2="179.2010983576182" y1="140.37084112569926" y2="142.7455964860345" /><path d="M 175.68104954172406 140.8457921977663 a86.0,86.0 0 0,1 -30.038265399797805,32.042727171017184" fill="none" id="id17" stroke="none" /><text fill="#e1ed5e" style="font-size:6.75px; font-family:Arial;" text-anchor="middle"><textPath startOffset="22.206326154141568" xlink:href="#id17">May</textPath></text><line stroke="#e1ed5e" stroke-width="0.3" x1="143.8653032363475" x2="146.44561519142675" y1="172.8068346515853" y2="177.08958963109032" /><path d="M 144.38136562736335 173.6633856474863 a86.0,86.0 0 0,1 -40.68145358897372,12.25698825130547" fill="none" id="id18" stroke="none" /><text fill="#e1ed5e" style="font-size:6.75px; font-family:Arial;" text-anchor="middle"><textPath startOffset="21.466115282336833" xlink:href="#id18">June</textPath></text><line stroke="#e1ed5e" stroke-width="0.3" x1="102.19456741930631" x2="102.32365962044197" y1="184.97166512339345" y2="189.96999836594603" /><path d="M 102.22038585953345 185.97133177190398 a86.0,86.0 0 0,1 -42.740103519485714,-10.115201625700543" fill="none" id="id19" stroke="none" /><text fill="#e1ed5e" style="font-size:6.75px; font-family:Arial;" text-anchor="middle"><textPath startOffset="22.20632615414155" xlink:href="#id19">July</textPath></text><line stroke="#e1ed5e" stroke-width="0.3" x1="58.666819895761336" x2="56.23545636021788" y1="174.27360380694188" y2="178.64263932499728" /><path d="M 58.180547188652646 175.14741091055294 a86.0,86.0 0 0,1 -31.652253787137756,-30.449443065178592" fill="none" id="id20" stroke="none" /><text fill="#e1ed5e" style="font-size:6.75px; font-family:Arial;" text-anchor="middle"><textPath startOffset="22.20632615414155" xlink:href="#id20">August</textPath></text><line stroke="#e1ed5e" stroke-width="0.3" x1="26.63291911575756" x2="22.317208475507996" y1="142.92168965132927" y2="145.44649492493687" /><path d="M 25.769776987707644 143.4266507060508 a86.0,86.0 0 0,1 -11.730757126820373,-40.83630448921669" fill="none" id="id21" stroke="none" /><text fill="#e1ed5e" style="font-size:6.75px; font-family:Arial;" text-anchor="middle"><textPath startOffset="21.46611528233685" xlink:href="#id21">September</textPath></text><line stroke="#e1ed5e" stroke-width="0.3" x1="15.007084014347285" x2="10.007500721073583" y1="101.09737516637583" y2="101.16192664675087" /><path d="M 14.007167355692545 101.11028546245083 a86.0,86.0 0 0,1 10.666146001902534,-42.60595125391555" fill="none" id="id22" stroke="none" /><text fill="#e1ed5e" style="font-size:6.75px; font-family:Arial;" text-anchor="middle"><textPath startOffset="22.20632615414155" xlink:href="#id22">October</textPath></text><line stroke="#e1ed5e" stroke-width="0.3" x1="26.266209847984243" x2="21.928928074336255" y1="57.711370442889674" y2="55.22380399835377" /><path d="M 25.398753493254645 57.213857153982495 a86.0,86.0 0 0,1 29.58750427330803,-30.492523968695096" fill="none" id="id23" stroke="none" /><text fill="#e1ed5e" style="font-size:6.75px; font-family:Arial;" text-anchor="middle"><textPath startOffset="21.46611528233685" xlink:href="#id23">November</textPath></text><line stroke="#e1ed5e" stroke-width="0.3" x1="56.762969772571076" x2="54.21961505331055" y1="26.818313649435495" y2="22.513508569990535" /><path d="M 56.25429882871897 25.957352633546506 a86.0,86.0 0 0,1 42.265352541879196,-11.944610805530505" fill="none" id="id24" stroke="none" /><text fill="#e1ed5e" style="font-size:6.75px; font-family:Arial;" text-anchor="middle"><textPath startOffset="22.20632615414155" xlink:href="#id24">December</textPath></text></svg>