<?xml version="1.0" encoding="utf-8" ?>
<svg baseProfile="full" height="200mm" version="1.1" viewBox="0,0,200,200" width="200mm" xmlns="http://www.w3.org/2000/svg" xmlns:ev="http://www.w3.org/2001/xml-events" xmlns:xlink="http://www.w3.org/1999/xlink"><defs /><rect fill="#1a1a1a" height="200" width="200" x="0" y="0" /><text alignment-baseline="middle" fill="#e1ed5e" style="dominant-baseline: central; font-size:9.0px; font-family:Arial;" text-anchor="middle" x="100.0" y="100.0">2024</text><line stroke="#e1ed5e" stroke-width="0.3" x1="100.0" x2="100.0" y1="15.0" y2="10.0" /><path d="M 100.0 14.0 a86.0,86.0 0 0,1 42.35913384403234,11.155469271406648" fill="none" id="id25" stroke="none" /><text fill="#e1ed5e" style="font-size:6.75px; font-family:Arial;" text-anchor="middle"><textPath startOffset="22.145653131862478" xlink:href="#id25">January</textPath></text><path d="M 100.0 79.0 l 0.0 -30.078700405297653 a51.07870040529765,51.07870040529765 0 0,0 0.8768338145992445,0.007526563728963562 l -0.5163408897503897 30.074268239763125" fill="#99ff23" stroke="none" /><path d="M 100.72087961077811 79.0123766808444 l 0.5813399870491982 -16.925079425372765 a37.93506037000515,37.93506037000515 0 0,0 0.6506300721584745,0.02794085478738227 l -0.871795819808509 16.912606002159553" fill="#ffc312" stroke="none" /><path d="M 101.08105385017728 79.02784411241856 l 0.8469146928962503 -16.42991878710822 a37.45173230538399,37.45173230538399 0 0,0 0.6417722567864546,0.03860742530717435 l -1.1288313018151672 16.412959383976357" fill="#ffbd11" stroke="none" /><path d="M 101.44090949804482 79.04949213459386 l 1.13578623977726 -16.51408265554612 a37.5530944640776,37.5530944640776 0 0,0 0.6427498329773347,0.04975290210649181 l -1.4191050675298282 16.492151986444576" fill="#ffbe11" stroke="none" /><path d="M 101.80034050326958 79.07731436759882 l 2.4004313524765832 -27.89665092732002 a48.99973577801579,48.99973577801579 0 0,0 0.8374298364166128,0.07930547618117136 l -2.8789607522782092 27.851333695633667" fill="#b1ff20" stroke="none" /><path d="M 102.15924093988457 79.11130261209362 l 1.7002482764579891 -16.448359733832653 a37.53600260447384,37.53600260447384 0 0,0 0.6403715300286652,0.07175496562690303 l -1.982355708087451 16.41674900769878" fill="#ffbe11" stroke="none" /><path d="M 103.23170211078529 79.25015418208739 l 2.634050005817051 -16.912490577324377 a38.11638270667113,38.11638270667113 0 0,0 0.6456597538572294,0.10624306679485564 l -2.923987262727351 16.86478151203385" fill="#ffc612" stroke="none" /><path d="M 103.58742460773223 79.30868818359171 l 3.0048529722032042 -17.33119343506453 a38.589752905262266,38.589752905262266 0 0,0 0.6517354760163735,0.11876791418116553 l -3.3019231817706314 17.277057346952" fill="#ffcc13" stroke="none" /><path d="M 103.94208987418118 79.37332000966035 l 3.0305154190983483 -15.856937246646558 a37.14393020765017,37.14393020765017 0 0,0 0.6252623747427233,0.12506998644264739 l -3.3022742793720288 15.802577863541051" fill="#ffb911" stroke="none" /><path d="M 104.29559338865022 79.4440306129975 l 6.957388639817796 -33.293623244567115 a55.01280061148516,55.01280061148516 0 0,0 0.9227417115429978,0.20110726128210385 l -7.527892767979928 33.16928452515129" fill="#6dff28" stroke="none" /><path d="M 104.64783097203109 79.52079915486377 l 1.8366282054069971 -8.09252275366964 a29.298320774925333,29.298320774925333 0 0,0 0.4895161290160017,0.11552447356446031 l -1.9752764881628837 8.059802136458952" fill="#ff4c07" stroke="none" /><path d="M 104.9986988182912 79.60360301121754 l 3.8497266341101963 -15.708198389604727 a37.17306068140962,37.17306068140962 0 0,0 0.6184795541283683,0.1572150841139487 l -4.1188114814639585 15.63979807365551" fill="#ffb911" stroke="none" /><path d="M 105.3480935250658 79.69241777938227 l 4.60727168260984 -17.49456101857753 a39.09106457868389,39.09106457868389 0 0,0 0.6474571103680612,0.17646731454469833 l -4.906910193912593 17.41289320988869" fill="#ffd313" stroke="none" /><path d="M 106.04205211174951 79.88797359093562 l 5.037732672698065 -16.768973633657154 a38.50934685269152,38.50934685269152 0 0,0 0.6314787767009397,0.19563373921821442 l -5.324852082270636 16.680023306632293" fill="#ffcb12" stroke="none" /><path d="M 106.38641147887787 79.99465700312896 l 4.87444378579221 -15.269125733012363 a37.02830006180907,37.02830006180907 0 0,0 0.6038738492726811,0.1985053287146635 l -5.135840372712633 15.183199482895677" fill="#ffb711" stroke="none" /><path d="M 106.72888874123014 80.10723608172694 l 10.867776160517847 -32.128649141298624 a54.91693757283798,54.91693757283798 0 0,0 0.8904238219293045,0.3097356268885618 l -11.41770575449217 31.937355081841467" fill="#6eff28" stroke="none" /><path d="M 107.40779381753099 80.34994680014964 l 5.832742427787956 -15.472042261194892 a37.534962230411004,37.534962230411004 0 0,0 0.600966448958193,0.2324667326867507 l -6.097481139239675 15.369635640370102" fill="#ffbe11" stroke="none" /><path d="M 108.07796709384702 80.6158196554323 l 7.007367655872589 -16.815131431469677 a39.21680121542113,39.21680121542113 0 0,0 0.6191864641451094,0.2642938824404801 l -7.294989195188128 16.692362899369794" fill="#ffd413" stroke="none" /><path d="M 108.4095320186766 80.7573450057729 l 6.608396375179069 -15.121304161784188 a37.50226475986468,37.50226475986468 0 0,0 0.587690128334811,0.2628663192875094 l -6.866999906369512 15.005634091586826" fill="#ffbe11" stroke="none" /><path d="M 108.73861861582097 80.90454125486305 l 6.842199468999957 -14.951440660168009 a37.4426661885507,37.4426661885507 0 0,0 0.5821644330144572,0.27248234985623265 l -7.09785261588592 14.831782078741243" fill="#ffbd11" stroke="none" /><path d="M 109.06512990194946 81.05736502329252 l 15.311208552984574 -31.994537067698985 a56.46947292432399,56.46947292432399 0 0,0 0.8708123826721682,0.4259579733299366 l -15.858181184918811 31.726985344271828" fill="#5eff2a" stroke="none" /><path d="M 110.34350942703115 81.72400993836675 l 11.612638214723813 -20.518419023914504 a44.57665976229458,44.57665976229458 0 0,0 0.6627223302577484,0.38262291577228713 l -11.963153012841959 20.316049210866044" fill="#e6ff1a" stroke="none" /><line stroke="#e1ed5e" stroke-width="0.3" x1="143.13028292997686" x2="145.6673583964461" y1="26.7553504044142" y2="22.446841604673864" /><path d="M 143.63769802327073 25.89364864446614 a86.0,86.0 0 0,1 29.32050498858742,28.57503671076993" fill="none" id="id26" stroke="none" /><text fill="#e1ed5e" style="font-size:6.75px; font-family:Arial;" text-anchor="middle"><textPath startOffset="20.669276256404974" xlink:href="#id26">February</textPath></text><path d="M 110.65571695917076 81.90426304109057 l 9.128699018769737 -15.502526658099896 a38.990594169187005,38.990594169187005 0 0,0 0.5738435933361146,0.34457658993270757 l -9.393475368663285 15.343536067631268" fill="#ffd113" stroke="none" /><path d="M 110.96478420261332 82.08984904055464 l 8.349574812191346 -13.638402960806841 a36.991292470145275,36.991292470145275 0 0,0 0.5387268647524488,0.33620540767217244 l -8.582465805733507 13.493061756293123" fill="#ffb711" stroke="none" /><path d="M 111.27062007382361 82.28071324371311 l 4.00682580374186 -6.299395679558678 a28.465724274922973,28.465724274922973 0 0,0 0.4100614562559372,0.2657968817231349 l -4.114372892254805 6.229684956131648" fill="#ff4006" stroke="none" /><path d="M 111.5731344415666 82.4767994020092 l 12.76821812155663 -19.332709608845725 a44.16853587992998,44.16853587992998 0 0,0 0.6290939538575168,0.4232824877264643 l -13.098208363511148 19.11067744706214" fill="#ebff1a" stroke="none" /><path d="M 111.8722381534696 82.67804972795209 l 9.082436117656561 -13.251545727552752 a37.06530765347287,37.06530765347287 0 0,0 0.5217469947391121,0.3642199232415258 l -9.308578203569434 13.0936809885061" fill="#ffb811" stroke="none" /><path d="M 112.16784306229584 82.88440491214696 l 10.398983846983864 -14.627473081208345 a38.947195708280056,38.947195708280056 0 0,0 0.541586701880918,0.3920670061862999 l -10.648551559238749 14.44680530364897" fill="#ffd113" stroke="none" /><path d="M 112.7482090630111 83.31218511350987 l 9.929315220147624 -12.997792358473825 a37.356463766201294,37.356463766201294 0 0,0 0.5062513376883524,0.3936641022203037 l -10.150976502471202 12.825427204632732" fill="#ffbc11" stroke="none" /><path d="M 113.03279911837588 83.53348406188908 l 9.925085637656819 -12.54002147621211 a36.99248146907423,36.99248146907423 0 0,0 0.4945528892899965,0.3983768000498507 l -10.138889297302073 12.367796382368851" fill="#ffb711" stroke="none" /><path d="M 113.31354834802062 83.75963576809568 l 10.180348283490314 -12.418369604381644 a37.057876410166884,37.057876410166884 0 0,0 0.4885033957995589,0.40752690700132205 l -10.392026013451765 12.241780513468452" fill="#ffb811" stroke="none" /><path d="M 113.59037401385872 83.9905735841838 l 21.379912944809675 -25.185483689959376 a54.03648386594509,54.03648386594509 0 0,0 0.7020124590520451,0.6063816420945453 l -21.80910488362458 24.81475791540011" fill="#78ff26" stroke="none" /><path d="M 113.86319453409587 84.22622945171908 l 9.819449372002248 -11.172730853879361 a35.87452522612212,35.87452522612212 0 0,0 0.45908283687457446,0.4105147035784925 l -10.009797235700198 11.002520620417483" fill="#ffa80f" stroke="none" /><path d="M 114.13192950727249 84.46653392183569 l 12.20746986746887 -13.418147818311521 a39.1402594093695,39.1402594093695 0 0,0 0.49311178013179163,0.45641690195856777 l -12.436011418914626 13.206613170220578" fill="#ffd313" stroke="none" /><path d="M 114.39649973595853 84.71141617570332 l 13.474468400099825 -14.309418497623929 a40.65504404486112,40.65504404486112 0 0,0 0.5039822168207115,0.4828035631752726 l -13.71812310278585 14.076002804143076" fill="#ffe715" stroke="none" /><path d="M 115.6541949942343 86.00192230759917 l 11.09224424935769 -9.91875320594791 a35.88017297103467,35.88017297103467 0 0,0 0.4066230566837281,0.4626623957411008 l -11.260878370000007 9.726878532395512" fill="#ffa80f" stroke="none" /><path d="M 115.8921839302757 86.27271002978787 l 2.387168095215494 -2.0619789447713446 a24.154414158523753,24.154414158523753 0 0,0 0.2683502923087797,0.31611596958253235 l -2.422212951031386 2.02069619273926" fill="#ff0000" stroke="none" /><path d="M 116.1254893667686 86.54754324733833 l 11.43224254290973 -9.53718333109109 a35.88805008893901,35.88805008893901 0 0,0 0.3905870475785936,0.47645268948030056 l -11.594276409726952 9.339528359912293" fill="#ffa80f" stroke="none" /><path d="M 116.35404254752997 86.82634096563983 l 12.548583092215056 -10.10825027149913 a37.11346211009564,37.11346211009564 0 0,0 0.39540606424480684,0.4995826452763 l -12.720255587101422 9.891347682308153" fill="#ffb911" stroke="none" /><path d="M 116.57777611688842 87.10902102172516 l 11.85590661129342 -9.219224690751808 a36.01854272139207,36.01854272139207 0 0,0 0.3753612787217182,0.4913599631056514 l -12.012419867369445 9.014343814405276" fill="#ffaa0f" stroke="none" /><path d="M 116.7966241395341 87.39550010848427 l 21.909679054876403 -16.44143162198509 a48.39260319991696,48.39260319991696 0 0,0 0.49290857578778713,0.6687251488890835 l -22.188689650248016 16.06290016382713" fill="#b8ff1f" stroke="none" /><path d="M 117.01052211995028 87.68569379921539 l 13.375431257804669 -9.682780746804832 a37.51237125076082,37.51237125076082 0 0,0 0.3731318082201291,0.5248566168381532 l -13.539678164554758 9.451746903257176" fill="#ffbe11" stroke="none" /><path d="M 117.42321728460499 88.27688183743584 l 13.283144919494406 -8.937492709758574 a37.01001920327636,37.01001920327636 0 0,0 0.3501422062269379,0.5301599275906366 l -13.434611564642069 8.708152903828879" fill="#ffb711" stroke="none" /><path d="M 117.62189284568427 88.57770195909679 l 14.115689662269366 -9.149619498158764 a37.82165959715584,37.82165959715584 0 0,0 0.34846771454273934,0.5478491262101417 l -14.270675068437995 8.90595669726995" fill="#ffc212" stroke="none" /><path d="M 117.81537515405839 88.88188828441811 l 13.65940973709743 -8.524481921524998 a37.101126246207706,37.101126246207706 0 0,0 0.3325533578247988,0.5432009176517141 l -13.80373105937763 8.28874388774873" fill="#ffb811" stroke="none" /><line stroke="#e1ed5e" stroke-width="0.3" x1="172.87174338648825" x2="177.1583165268699" y1="56.24261187166439" y2="53.66864786411523" /><path d="M 173.72905801456457 55.72781907015455 a86.0,86.0 0 0,1 12.242430191666344,42.057860355516425" fill="none" id="id27" stroke="none" /><text fill="#e1ed5e" style="font-size:6.75px; font-family:Arial;" text-anchor="middle"><textPath startOffset="22.145653131862474" xlink:href="#id27">March</textPath></text><path d="M 118.00360718960297 89.18935116829356 l 15.38996112526823 -9.241229466224405 a38.951357204531405,38.951357204531405 0 0,0 0.3392965361350035,0.576199695665145 l -15.546331371533 8.975678602265704" fill="#ffd113" stroke="none" /><path d="M 118.18653347947321 89.5 l 16.484262344470924 -9.517193301972702 a40.0343866039454,40.0343866039454 0 0,0 0.33851291965218516,0.5981198933439252 l -16.645208629144484 9.232816638529659" fill="#ffdf14" stroke="none" /><path d="M 118.36410011445183 89.81374322990088 l 29.77408931683895 -16.515185442629555 a55.047727455023285,55.047727455023285 0 0,0 0.45127248926140534,0.8302905523612382 l -30.053207155715697 16.00164005679371" fill="#6dff28" stroke="none" /><path d="M 118.8641267826498 90.77261029715802 l 14.430532300356255 -7.058696471299457 a37.06441590427615,37.06441590427615 0 0,0 0.2746662812526617,0.5739468890633308 l -14.54957783956883 6.809937080171022" fill="#ffb811" stroke="none" /><path d="M 119.0197475246899 91.09779779509293 l 15.23837658322046 -7.13232967168744 a37.824929344210474,37.824929344210474 0 0,0 0.27020604844721924,0.5904489802849188 l -15.358567096522728 6.869691709187838" fill="#ffc212" stroke="none" /><path d="M 119.16976305983485 91.42560881287824 l 14.6457485430694 -6.5508570369141275 a37.044054297617755,37.044054297617755 0 0,0 0.25466220539522105,0.5827169630374335 l -14.756044630481592 6.298478004100845" fill="#ffb811" stroke="none" /><path d="M 119.71291397450082 92.76114493625339 l 21.75481890620041 -7.988670837997051 a44.175223998905366,44.175223998905366 0 0,0 0.2552903653703749,0.7140925876986277 l -21.888749441614728 7.614043293917507" fill="#ebff1a" stroke="none" /><path d="M 119.83427380445688 93.10060997987247 l 15.997087727048594 -5.5646175152781625 a37.93728974299694,37.93728974299694 0 0,0 0.20868143006425396,0.616929567724858 l -16.090254578685215 5.289186273079142" fill="#ffc312" stroke="none" /><path d="M 119.94978838288452 93.4421083053983 l 15.311580008647928 -5.033220475465669 a37.11762360634699,37.11762360634699 0 0,0 0.1937810101787924,0.6070162543908157 l -15.395725734603976 4.769635187383465" fill="#ffb911" stroke="none" /><path d="M 120.05942366710727 93.78553927170692 l 23.433957013992398 -7.259899785194816 a45.53276352604238,45.53276352604238 0 0,0 0.22489646634884422,0.7486071928637282 l -23.555129800344872 6.856554988740364" fill="#daff1c" stroke="none" /><path d="M 120.16314734710363 94.1308016681162 l 18.75177555153617 -5.458368571747054 a40.53005053245448,40.53005053245448 0 0,0 0.18871854558841847,0.6696955418367699 l -18.84271258919917 5.135665106007272" fill="#ffe515" stroke="none" /><path d="M 120.26092885502905 94.47779374421319 l 32.97779415748278 -8.988244443358719 a55.18074671020039,55.18074671020039 0 0,0 0.24124633357362713,0.9160516231639245 l -33.12722997186114 8.420812315821996" fill="#6bff28" stroke="none" /><path d="M 120.43855184770803 95.1765574152323 l 21.619581390929 -5.102162341191133 a43.213472490245024,43.213472490245024 0 0,0 0.16418884471895878,0.7234463447066932 l -21.703981097205627 4.730281662545413" fill="#f7ff19" stroke="none" /><path d="M 120.51834098615036 95.52812308129327 l 18.55018033801178 -4.042925465923164 a39.985637647858155,39.985637647858155 0 0,0 0.140411069252402,0.6719177957520057 l -18.616849118088552 3.7238912188857545" fill="#ffde14" stroke="none" /><path d="M 120.592083275326 95.88100663000786 l 15.867212410420153 -3.1738868692848596 a37.18153229877845,37.18153229877845 0 0,0 0.11981962615662263,0.6269469150061151 l -15.919358328858932 2.90103738924543" fill="#ffb911" stroke="none" /><path d="M 120.65975698304385 96.23510406497455 l 23.96610962081845 -4.367423526029297 a45.360804555941925,45.360804555941925 0 0,0 0.1330263536798463,0.7672606576475187 l -24.03755079199053 3.955369835461186" fill="#dcff1b" stroke="none" /><path d="M 120.86939407059847 97.66154086499901 l 23.216749186120076 -2.6014851718094105 a44.36204545561778,44.36204545561778 0 0,0 0.07830451855520616,0.7575251848887414 l -23.257986097156948 2.2025554646377374" fill="#e8ff1a" stroke="none" /><path d="M 120.9064616781168 98.02013634271609 l 18.094230232811835 -1.7135424155475247 a39.17518625290762,39.17518625290762 0 0,0 0.05765538510564956,0.670042969865844 l -18.120979240615224 1.4026783983060187" fill="#ffd413" stroke="none" /><path d="M 120.93736805541906 98.37931529534042 l 15.63241751088571 -1.2100479816606027 a36.67918025129398,36.67918025129398 0 0,0 0.043204648910930905,0.6281861130479219 l -15.650886120961708 0.9415184444583464" fill="#ffb310" stroke="none" /><path d="M 120.96210409425399 98.7389718711861 l 23.580994806906695 -1.4185740908077658 a44.62362521998839,44.62362521998839 0 0,0 0.03943540746517058,0.7650363695705388 l -23.601871803828438 1.0135659278604965" fill="#e5ff1a" stroke="none" /><path d="M 120.98066250479742 99.09900007780936 l 19.622244716891796 -0.8426636174659703 a40.640330183115275,40.640330183115275 0 0,0 0.02394937174130913,0.6972598271915307 l -19.633818775629955 0.5056975257103197" fill="#ffe715" stroke="none" /><path d="M 120.99303781780057 99.45929381324524 l 34.17223761853174 -0.8801556237814541 a55.183570582656664,55.183570582656664 0 0,0 0.016262252437171998,0.9471946763979666 l -34.18231130256758 0.293414031414421" fill="#6bff28" stroke="none" /><line stroke="#e1ed5e" stroke-width="0.3" x1="184.99686870605535" x2="189.99668451229388" y1="99.2704041080226" y2="99.22748670261217" /><path d="M 185.99683186730306 99.26182062694052 a86.0,86.0 0 0,1 -10.086455211305974,41.156179273409016" fill="none" id="id28" stroke="none" /><text fill="#e1ed5e" style="font-size:6.75px; font-family:Arial;" text-anchor="middle"><textPath startOffset="21.40746469413373" xlink:href="#id28">April</textPath></text><path d="M 120.99922638620191 100.18025310272382 l 20.764506828071127 0.17823831761484468 a41.76527179477501,41.76527179477501 0 0,0 -0.012307963871532011,0.7168771916103155 l -20.758387432600927 -0.5346624251942312" fill="#fff517" stroke="none" /><path d="M 120.99303781780057 100.54070618675476 l 16.366344353103116 0.4215389751157387 a37.37177212741162,37.37177212741162 0 0,0 -0.022023208455203457,0.6411816847449515 l -16.35669645765107 -0.7024269244248009" fill="#ffbc11" stroke="none" /><path d="M 120.98066250479742 100.90099992219065 l 18.27961615377545 0.7850053699906052 a39.29646414366127,39.29646414366127 0 0,0 -0.03472761497538749,0.6737064529656178 l -18.26344694934349 -1.0986836163329536" fill="#ffd513" stroke="none" /><path d="M 120.96210409425399 101.26102812881392 l 19.061605794130198 1.1466988704320666 a40.09606592338506,40.09606592338506 0 0,0 -0.047229421133758255,0.6867054178517326 l -19.039112411831375 -1.4737477124381426" fill="#ffe015" stroke="none" /><path d="M 120.9064616781168 101.97986365728391 l 23.759136305258533 2.2500149103888614 a44.86543787716509,44.86543787716509 0 0,0 -0.07919306868423566,0.7661211013594038 l -23.71701084409263 -2.6575405340311966" fill="#e2ff1b" stroke="none" /><path d="M 120.86939407059847 102.33845913500097 l 19.442853224249234 2.178612257688087 a40.56453150139424,40.56453150139424 0 0,0 -0.08348163920687679,0.6913477293804084 l -19.402589498782696 -2.512053663991904" fill="#ffe615" stroke="none" /><path d="M 120.82617615685814 102.69636545807757 l 16.495230034016043 2.135637773913581 a37.63290601718387,37.63290601718387 0 0,0 -0.08844715571002137,0.6399595588163681 l -16.45613836175081 -2.418485640930034" fill="#ffbf11" stroke="none" /><path d="M 120.77682067341334 103.0534771498775 l 17.865715014261195 2.6256448674111543 a39.05762398380696,39.05762398380696 0 0,0 -0.10318374758315359,0.6625136785099838 l -17.818009774539775 -2.931946727852589" fill="#ffd213" stroke="none" /><path d="M 120.7213421655516 103.40968896794604 l 15.892899778404997 2.615170610578882 a37.106625366254136,37.106625366254136 0 0,0 -0.10881991882990706,0.6276443740428146 l -15.845665042082857 -2.8876080175422847" fill="#ffb811" stroke="none" /><path d="M 120.65975698304385 103.76489593502545 l 23.815360059972953 4.339951934311159 a45.20757231897255,45.20757231897255 0 0,0 -0.14568400170225224,0.762280257105672 l -23.737349765988544 -4.7481347564501455" fill="#deff1b" stroke="none" /><path d="M 120.51834098615036 104.47187691870673 l 33.40446864534658 7.28034846567849 a55.188623828104724,55.188623828104724 0 0,0 -0.20968822605060225,0.9239250140531751 l -33.27456955773832 -7.852707813670682" fill="#6bff28" stroke="none" /><path d="M 120.35273937422433 105.17358676015961 l 20.645820818622738 5.248086917239612 a42.30240206093148,42.30240206093148 0 0,0 -0.18494311887719841,0.702259146204801 l -20.552688218940812 -5.601726567817217" fill="#fffc17" stroke="none" /><path d="M 120.26092885502905 105.52220625578681 l 17.345103744165908 4.727485155722726 a38.97781243070071,38.97781243070071 0 0,0 -0.1814909178622908,0.6440472408118078 l -17.26139433422904 -5.024540320437542" fill="#ffd113" stroke="none" /><path d="M 120.16314734710363 105.8691983318838 l 15.224892002537146 4.431744171985031 a36.85678696630698,36.85678696630698 0 0,0 -0.182043884618458,0.6059648853301589 l -15.146571797915058 -4.692446660905913" fill="#ffb510" stroke="none" /><path d="M 120.05942366710727 106.21446072829308 l 22.552193423807285 6.986727170977112 a44.60965448257315,44.60965448257315 0 0,0 -0.2328948642035888,0.7295398450306476 l -22.428933843826442 -7.372836049699143" fill="#e5ff1a" stroke="none" /><path d="M 119.71291397450082 107.23885506374661 l 19.234049668542543 7.06300945763695 a41.48986991785527,41.48986991785527 0 0,0 -0.2512494469562603,0.6664690082814643 l -19.109969537771843 -7.392146746112573" fill="#fff216" stroke="none" /><path d="M 119.4528033332814 107.91128576633889 l 16.66787207751881 6.778678469258361 a38.993566666509395,38.993566666509395 0 0,0 -0.2574952345708781,0.6178948251213604 l -16.549050998411442 -7.063805803820999" fill="#ffd113" stroke="none" /><line stroke="#e1ed5e" stroke-width="0.3" x1="174.33088141563837" x2="178.70328620479359" y1="141.23008692659167" y2="143.65538615756765" /><path d="M 175.20536237346943 141.71514677278685 a86.0,86.0 0 0,1 -30.301960400862466,31.631185727798858" fill="none" id="id29" stroke="none" /><text fill="#e1ed5e" style="font-size:6.75px; font-family:Arial;" text-anchor="middle"><textPath startOffset="22.145653131862474" xlink:href="#id29">May</textPath></text><path d="M 117.21940702142032 112.02048342749411 l 12.97896260632291 9.06032389624656 a36.828548241744244,36.828548241744244 0 0,0 -0.3663298890838732,0.5152888657453387 l -12.821517618709075 -9.281789988701401" fill="#ffb510" stroke="none" /><path d="M 116.79662413953412 112.60449989151573 l 17.007589415383936 12.762812167510763 a42.26375959574037,42.26375959574037 0 0,0 -0.4404447722428963,0.5765563453330862 l -16.785992665786736 -13.052889426084727" fill="#fffb17" stroke="none" /><path d="M 116.57777611688842 112.89097897827486 l 15.265433044981561 11.870493067923977 a40.337581330829515,40.337581330829515 0 0,0 -0.4297557643063235,0.5429823691878537 l -15.059410850033677 -12.130795381026514" fill="#ffe315" stroke="none" /><path d="M 116.35404254752997 113.17365903436017 l 16.413033245630817 13.221177765017794 a42.07574914009899,42.07574914009899 0 0,0 -0.457930776137486,0.5586010883850571 l -16.183655650254707 -13.500981135101345" fill="#fff917" stroke="none" /><path d="M 116.1254893667686 113.45245675266167 l 22.833899283384643 19.04885089796929 a50.73626871375794,50.73626871375794 0 0,0 -0.5636689199182678,0.6640005703383803 l -22.50353579995926 -19.438018250757228" fill="#9dff22" stroke="none" /><path d="M 115.6541949942343 113.99807769240083 l 16.219190132589404 14.50329982905087 a42.75793727558825,42.75793727558825 0 0,0 -0.4939606614436379,0.54294929609816 l -15.967831770303885 -14.779586700706702" fill="#fcff18" stroke="none" /><path d="M 115.41159269507618 114.26474011684316 l 12.98684989057845 12.02043437630823 a38.69601968453782,38.69601968453782 0 0,0 -0.455404548698113,0.4836238491601332 l -12.778589508144076 -12.241599685412861" fill="#ffcd13" stroke="none" /><path d="M 115.16444852881244 114.52719865689866 l 15.625586055261518 14.968957975884008 a42.63859150809416,42.63859150809416 0 0,0 -0.5108777335131239,0.5242055604563421 l -15.366321520597586 -15.234986228408088" fill="#feff18" stroke="none" /><path d="M 114.91283532996324 114.78537596483092 l 16.620814195976887 16.478756808596962 a44.40514666679249,44.40514666679249 0 0,0 -0.5413369683101351,0.5367101844171449 l -16.335485307536786 -16.76164700324277" fill="#e8ff1a" stroke="none" /><path d="M 114.65682725009322 115.03919595460226 l 15.57575319008292 15.98209492198856 a43.316618147332065,43.316618147332065 0 0,0 -0.5369765487150698,0.5144113867680853 l -15.299104155502539 -16.247118439062227" fill="#f5ff19" stroke="none" /><path d="M 114.39649973595853 115.28858382429668 l 20.380940928814237 21.64385298670443 a50.72943196991644,50.72943196991644 0 0,0 -0.6391189246377778,0.5915589351532027 l -20.006392232862492 -21.990529667990014" fill="#9dff22" stroke="none" /><path d="M 113.59037401385872 116.0094264158162 l 11.537771817180257 13.591466189323766 a38.82829581538432,38.82829581538432 0 0,0 -0.5118413734501271,0.42699627800136786 l -11.302756109568234 -13.787524651237005" fill="#ffcf13" stroke="none" /><path d="M 113.31354834802062 116.24036423190432 l 12.725553135573659 15.523105679403228 a41.07253129379126,41.07253129379126 0 0,0 -0.5490991200138895,0.4423153823959389 l -12.457203245204516 -15.73926935559257" fill="#ffec16" stroke="none" /><path d="M 112.7482090630111 116.68781488649013 l 14.628444037533482 19.149102824493454 a45.097292668311766,45.097292668311766 0 0,0 -0.6192223594821005,0.46467600263470044 l -14.297568689140615 -19.397397854392167" fill="#dfff1b" stroke="none" /><path d="M 112.45986205192187 116.90419585922612 l 6.34045385831498 8.602043378225869 a31.68627649886998,31.68627649886998 0 0,0 -0.4406187832481475,0.3189740195200243 l -6.191854064692865 -8.70961816911897" fill="#ff6e0a" stroke="none" /><path d="M 112.16784306229584 117.11559508785304 l 8.61801092710913 12.122311632055348 a35.87348485205928,35.87348485205928 0 0,0 -0.5049703913796448,0.35250855115994556 l -8.408645444555727 -12.268464999020416" fill="#ffa80f" stroke="none" /><path d="M 111.8722381534696 117.32195027204791 l 11.196234841088101 16.335641236679564 a40.80426341044526,40.80426341044526 0 0,0 -0.5811765070253242,0.3910414910100568 l -10.914162045965774 -16.52543240174674" fill="#ffe915" stroke="none" /><path d="M 111.27062007382361 117.71928675628689 l 9.465081021500426 14.880679473969442 a38.63582661375936,38.63582661375936 0 0,0 -0.5626772234451721,0.35115220285730026 l -9.20823966926554 -15.04096747366829" fill="#ffcd13" stroke="none" /><path d="M 110.96478420261333 117.91015095944535 l 8.728272010792528 14.256976374522509 a37.71658181680924,37.71658181680924 0 0,0 -0.5550933321046259,0.33331759680196005 l -8.482245922130467 -14.404707971860393" fill="#ffc111" stroke="none" /><line stroke="#e1ed5e" stroke-width="0.3" x1="143.1302829299769" x2="145.66735839644613" y1="173.24464959558577" y2="177.55315839532614" /><path d="M 143.63769802327073 174.10635135553383 a86.0,86.0 0 0,1 -40.68552437913181,11.842963189579606" fill="none" id="id30" stroke="none" /><text fill="#e1ed5e" style="font-size:6.75px; font-family:Arial;" text-anchor="middle"><textPath startOffset="21.407464694133747" xlink:href="#id30">June</textPath></text><path d="M 110.34350942703117 118.27599006163325 l 15.385032640067687 27.183878509644757 a52.23559636317312,52.23559636317312 0 0,0 -0.7841702542201288,0.4349660212685317 l -14.916118197691464 -27.44397744634643" fill="#8cff24" stroke="none" /><path d="M 109.71004243097381 118.62028667847754 l 10.123311270938324 19.41278417064858 a42.89378040322162,42.89378040322162 0 0,0 -0.6558107259652315,0.3348616295142718 l -9.78857332325951 -19.58370375183569" fill="#fbff18" stroke="none" /><path d="M 109.3889696526874 118.78422872680471 l 7.850182101998058 15.705622832511013 a38.558244433644894,38.558244433644894 0 0,0 -0.5946043936325601,0.2908508049318236 l -7.5794174591034285 -15.83806738754006" fill="#ffcc13" stroke="none" /><path d="M 109.06512990194946 118.94263497670748 l 8.509313653826933 17.781192789316002 a40.71241324318331,40.71241324318331 0 0,0 -0.6330029718774527,0.2962773530324281 l -8.202821968077973 -17.924646373918964" fill="#ffe815" stroke="none" /><path d="M 108.4095320186766 119.2426549942271 l 11.90449341884117 27.239810637626544 a50.72749984665688,50.72749984665688 0 0,0 -0.8009266511166073,0.3418679613190786 l -11.435131692554133 -27.440153248605025" fill="#9dff22" stroke="none" /><path d="M 107.407793817531 119.65005319985036 l 7.1007071174237595 18.835469243721185 a41.12945461751508,41.12945461751508 0 0,0 -0.662793029957922,0.24338678124061439 l -6.776324935811711 -18.95458687397052" fill="#ffed16" stroke="none" /><path d="M 107.06938296918513 119.77432235084164 l 5.017226245501726 14.034074758449552 a35.90395294961381,35.90395294961381 0 0,0 -0.5821470828624103,0.20250097449218285 l -4.775573390594293 -14.118134165510325" fill="#ffa80f" stroke="none" /><path d="M 106.72888874123015 119.89276391827305 l 6.492996811101101 19.195391342095643 a41.263811496487264,41.263811496487264 0 0,0 -0.67294843788271,0.22121151798644298 l -6.162525635570656 -19.304023781484105" fill="#ffef16" stroke="none" /><path d="M 105.69591212413111 120.21278271476187 l 6.391766220157234 22.6821234169411 a44.56551289733561,44.56551289733561 0 0,0 -0.7381292505989546,0.2011804095657276 l -6.001455568623585 -22.78850432065097" fill="#e6ff1a" stroke="none" /><path d="M 104.9986988182912 120.39639698878246 l 5.0773669503286385 20.717389813061082 a42.3304921606281,42.3304921606281 0 0,0 -0.7072575531205005,0.1669108567739639 l -4.720977243468259 -20.801496813481272" fill="#fffc17" stroke="none" /><path d="M 103.94208987418118 120.62667999033965 l 3.65750417840491 19.137607375569683 a40.483976823957384,40.483976823957384 0 0,0 -0.683726687008651,0.12459777850727237 l -3.3284427578452016 -19.197573328008318" fill="#ffe515" stroke="none" /><path d="M 102.875027216393 120.80226474461374 l 2.2043620701410376 15.949665837803531 a37.10127487107383,37.10127487107383 0 0,0 -0.6316442191683503,0.0817789901291626 l -1.930240029081912 -15.985156424133088" fill="#ffb811" stroke="none" /><path d="M 102.51750503828377 120.84855314841334 l 2.519993524836851 20.869161386876478 a42.02075793963471,42.02075793963471 0 0,0 -0.7168823312997279,0.0803281604955858 l -2.1613752919363236 -20.909345307879033" fill="#fff817" stroke="none" /><path d="M 102.15924093988457 120.88869738790638 l 1.9897153162986054 19.24869076096063 a40.35125481851253,40.35125481851253 0 0,0 -0.6896229986822215,0.06530801497353515 l -1.6589927542313687 -19.28001053143935" fill="#ffe315" stroke="none" /><path d="M 101.80034050326958 120.92268563240118 l 1.531359304521413 17.796716377022147 a38.86247953459185,38.86247953459185 0 0,0 -0.6651609564116749,0.05148766479816064 l -1.225629353334502 -17.820381808815362" fill="#ffd013" stroke="none" /><line stroke="#e1ed5e" stroke-width="0.3" x1="101.45913802915013" x2="101.54496967792366" y1="184.9874750549273" y2="189.98673829345242" /><path d="M 101.47630435890484 185.9873277026323 a86.0,86.0 0 0,1 -42.54439059252881,-10.42667462771756" fill="none" id="id31" stroke="none" /><text fill="#e1ed5e" style="font-size:6.75px; font-family:Arial;" text-anchor="middle"><textPath startOffset="22.145653131862474" xlink:href="#id31">July</textPath></text><path d="M 99.63950707515114 120.99690560180557 l -0.25539458318901465 14.875454092977412 a35.877646348310634,35.877646348310634 0 0,0 -0.6157060031623593,-0.015858402581907516 l 0.5107139004221178 -14.868877973045457" fill="#ffa80f" stroke="none" /><path d="M 98.91894614982273 120.97215588758144 l -0.9195917607128291 17.839834486915272 a38.86351990865469,38.86351990865469 0 0,0 -0.6659646254829763,-0.040062778133004316 l 1.2257007383282517 -17.821419730957576" fill="#ffd013" stroke="none" /><path d="M 98.55909050195518 120.95050786540614 l -1.367308170207462 19.880360711922002 a40.92732479959234,40.92732479959234 0 0,0 -0.7005023568513278,-0.054223312706827495 l 1.708379521834026 -19.85395963222012" fill="#ffea16" stroke="none" /><path d="M 97.84075906011543 120.88869738790638 l -1.8396637449653257 17.797077924123457 a38.891907258083535,38.891907258083535 0 0,0 -0.6635035280401251,-0.07434695425281827 l 2.14490317460625 -17.762875209363667" fill="#ffd013" stroke="none" /><path d="M 97.48249496171623 120.84855314841334 l -0.8695567857046547 7.201177589176083 a28.253487966104093,28.253487966104093 0 0,0 -0.48101183603922737,-0.06227661236772617 l 0.9930464436346761 -7.1851893806079605" fill="#ff3d05" stroke="none" /><path d="M 97.12497278360702 120.80226474461374 l -2.4417173435816975 17.667050358023022 a38.83498393435971,38.83498393435971 0 0,0 -0.6595935139769049,-0.09693753220448956 l 2.7446359631662873 -17.62253175251965" fill="#ffcf13" stroke="none" /><path d="M 96.41257539226777 120.69131181640829 l -3.4805515382124916 20.07489635183148 a41.37438839688029,41.37438839688029 0 0,0 -0.6987646897591236,-0.12733820355063227 l 3.8246509615226727 -20.012189974349482" fill="#fff016" stroke="none" /><path d="M 95.35216902796893 120.47920084513623 l -2.0732379177953693 9.135068803874637 a30.36737943692408,30.36737943692408 0 0,0 -0.5073779533141508,-0.11973981546359842 l 2.2297480248494077 -9.09813284476481" fill="#ff5b08" stroke="none" /><line stroke="#e1ed5e" stroke-width="0.3" x1="58.13341422392154" x2="55.67067388415222" y1="173.97424548756322" y2="178.32567169271397" /><path d="M 57.64086615596768 174.84453072859336 a86.0,86.0 0 0,1 -31.369924170532247,-30.572349798747897" fill="none" id="id32" stroke="none" /><text fill="#e1ed5e" style="font-size:6.75px; font-family:Arial;" text-anchor="middle"><textPath startOffset="22.145653131862474" xlink:href="#id32">August</textPath></text><path d="M 87.2517909369889 116.68781488649013 l -9.03447506864266 11.826417875399061 a35.88240234402646,35.88240234402646 0 0,0 -0.48627499379559536,-0.37813037638345914 l 9.236160007073483 -11.66958644739481" fill="#ffa80f" stroke="none" /><path d="M 86.68645165197938 116.24036423190432 l -9.43210780776124 11.505637886191717 a35.877646348310634,35.877646348310634 0 0,0 -0.4729453970988205,-0.3945478711457678 l 9.628227539021951 -11.34202783113408" fill="#ffa80f" stroke="none" /><path d="M 86.40962598614128 116.0094264158162 l -5.793749515899045 6.82502236155314 a29.952567435584097,29.952567435584097 0 0,0 -0.3891273823911426,-0.3361189649495942 l 5.91005637805305 -6.724559264138823" fill="#ff5507" stroke="none" /><path d="M 86.13680546590413 115.77377054828092 l -12.963447090614567 14.750023121959323 a40.63706043606064,40.63706043606064 0 0,0 -0.5200285402981815,-0.4650127273897391 l 13.21474065773612 -14.525314864686202" fill="#ffe715" stroke="none" /><path d="M 85.86807049272751 115.53346607816431 l -12.703253931350787 13.963101353102438 a39.87699287072468,39.87699287072468 0 0,0 -0.5023935772913775,-0.4650079948402944 l 12.941077279956131 -13.742975612129767" fill="#ffdd14" stroke="none" /><path d="M 85.34317274990678 115.03919595460226 l -13.82175122749043 14.1823343892295 a40.80352028611466,40.80352028611466 0 0,0 -0.4974300419231589,-0.49317852865030054 l 14.063173189543551 -13.942975850350539" fill="#ffe915" stroke="none" /><path d="M 84.83555147118756 114.52719865689866 l -14.20965415771862 13.61252724771325 a40.67778364937743,40.67778364937743 0 0,0 -0.4787274726420222,-0.5083919861575947 l 14.441237464096895 -13.366593801611165" fill="#ffe715" stroke="none" /><path d="M 84.3458050057657 113.99807769240083 l -13.29154848325934 11.885384613485657 a38.83052518837612,38.83052518837612 0 0,0 -0.44005882740527175,-0.500706165102443 l 13.493618374623205 -11.655466170571914" fill="#ffcf13" stroke="none" /><path d="M 84.1078160697243 113.72728997021213 l -12.800097903689412 11.05641970555777 a37.914104263882265,37.914104263882265 0 0,0 -0.4212174592629481,-0.4961931078755159 l 12.988009926459473 -10.8350598152327" fill="#ffc312" stroke="none" /><path d="M 83.8745106332314 113.45245675266167 l -13.696276679856611 11.425921131296587 a38.83647018302091,38.83647018302091 0 0,0 -0.4226761328511208,-0.5155961559005073 l 13.89039963194636 -11.189122693697584" fill="#ffcf13" stroke="none" /><path d="M 83.64595745247003 113.17365903436017 l -14.020958508580268 11.294291682935903 a39.004119032003885,39.004119032003885 0 0,0 -0.41554908431960125,-0.5250326931202539 l 14.212774023541431 -11.051939045900967" fill="#ffd213" stroke="none" /><path d="M 83.20337586046588 112.60449989151573 l -21.396015855995625 16.055969181390864 a47.75039515341389,47.75039515341389 0 0,0 -0.4863672898756802,-0.6598506382589799 l 21.668485165455134 -15.686312233863006" fill="#c0ff1e" stroke="none" /><path d="M 82.98947788004972 112.3143062007846 l -14.443770669526963 10.456176092905638 a38.83126831270672,38.83126831270672 0 0,0 -0.386250745497924,-0.5433100450488975 l 14.621136513554847 -10.206688821147237" fill="#ffcf13" stroke="none" /><path d="M 82.576782715395 111.72311816256416 l -13.709183163632996 9.224150253897745 a37.523518115719796,37.523518115719796 0 0,0 -0.3550002864432813,-0.5375156802246323 l 13.865507888997005 -8.987454695334053" fill="#ffbe11" stroke="none" /><path d="M 82.37810715431573 111.42229804090323 l -14.966881388382957 9.701351691218912 a38.83602430842255,38.83602430842255 0 0,0 -0.3578135062507927,-0.5625422630699441 l 15.13121258625964 -9.442995753470296" fill="#ffcf13" stroke="none" /><path d="M 82.18462484594161 111.11811171558189 l -16.39497339814628 10.231675967433086 a40.325691341539944,40.325691341539944 0 0,0 -0.3614565221886251,-0.5904120644828977 l 16.56819788479031 -9.948726786825631" fill="#ffe315" stroke="none" /><path d="M 81.99639281039703 110.81064883170644 l -12.739915907950161 7.649953455208497 a35.86025723897463,35.86025723897463 0 0,0 -0.3123706576436993,-0.5304736674276153 l 12.86936027572363 -7.430128619487323" fill="#ffa80f" stroke="none" /><line stroke="#e1ed5e" stroke-width="0.3" x1="26.387840678322732" x2="22.057713659400548" y1="142.50000000000003" y2="145.00000000000006" /><path d="M 25.521815274538298 143.00000000000003 a86.0,86.0 0 0,1 -11.493303480769221,-40.785679425670985" fill="none" id="id33" stroke="none" /><text fill="#e1ed5e" style="font-size:6.75px; font-family:Arial;" text-anchor="middle"><textPath startOffset="21.40746469413373" xlink:href="#id33">September</textPath></text><path d="M 81.81346652052679 110.50000000000001 l -23.19110592988004 13.389391251421385 a47.778782502842745,47.778782502842745 0 0,0 -0.4039960777335826,-0.7138223591987362 l 23.417535372635 -12.989312122123527" fill="#bfff1e" stroke="none" /><path d="M 81.4637452351635 109.86951160357371 l -15.743480503463672 8.382516613028537 a38.83602430842255,38.83602430842255 0 0,0 -0.3082691373955603,-0.591146717765339 l 15.885057709834182 -8.111023652158694" fill="#ffcf13" stroke="none" /><path d="M 81.29705330413844 109.54985784667822 l -17.04023114666472 8.70086343994098 a40.13307351504886,40.13307351504886 0 0,0 -0.308031060582634,-0.6162684629924504 l 17.187082120459092 -8.407063120784777" fill="#ffe015" stroke="none" /><path d="M 81.1358732173502 109.22738970284198 l -16.018348787520637 7.835377081670401 a38.832011437037316,38.832011437037316 0 0,0 -0.28776506832099674,-0.6013183161423525 l 16.150493113801545 -7.559246263462945" fill="#ffcf13" stroke="none" /><path d="M 80.5471966667186 107.91128576633889 l -16.518907970141274 6.718096063617385 a38.83275456136792,38.83275456136792 0 0,0 -0.24583227838588223,-0.6196579310623653 l 16.63179892349328 -6.433537115341454" fill="#ffcf13" stroke="none" /><path d="M 80.41425534168474 107.57618678355246 l -18.021836674918788 6.9712335790047755 a40.3231647188159,40.3231647188159 0 0,0 -0.24418425160617524,-0.6477277382196641 l 18.1388516103394 -6.660837560590966" fill="#ffe315" stroke="none" /><path d="M 80.28708602549918 107.23885506374661 l -16.745090005059232 6.1490289935222595 a38.83840230628046,38.83840230628046 0 0,0 -0.224448661888339,-0.6278228539522294 l 16.848178836991515 -5.860671183189109" fill="#ffcf13" stroke="none" /><path d="M 80.16572619554312 106.89939002012753 l -21.05969714154498 7.325655868108167 a43.297445539602634,43.297445539602634 0 0,0 -0.2381660080238373,-0.7040954833962133 l 21.182348571141183 -6.963058710237792" fill="#f6ff19" stroke="none" /><path d="M 79.94057633289273 106.21446072829308 l -21.324453683359543 6.606370261018229 a43.324346640370294,43.324346640370294 0 0,0 -0.21398860318940907,-0.7122984639962112 l 21.434718606552583 -6.2393341934312945" fill="#f5ff19" stroke="none" /><path d="M 79.83685265289637 105.86919833188381 l -21.401040899995277 6.229531103876616 a43.28927117196605,43.28927117196605 0 0,0 -0.20156620058035563,-0.715287336985081 l 21.504825592650207 -5.86123584298854" fill="#f6ff19" stroke="none" /><path d="M 79.64726062577567 105.17358676015961 l -19.31283801072813 4.90924790006152 a40.92702754986011,40.92702754986011 0 0,0 -0.16724045078044258,-0.6823981101279694 l 19.394265988024866 -4.576993965325451" fill="#ffea16" stroke="none" /><path d="M 79.48165901384964 104.47187691870673 l -17.423739943451206 3.7974230247592082 a38.83275456136792,38.83275456136792 0 0,0 -0.13636267696908486,-0.6525447731418205 l 17.486360331244658 -3.4977618003319786" fill="#ffcf13" stroke="none" /><path d="M 79.407916724674 104.11899336999214 l -22.959546664868796 4.5925523525799035 a44.41436140849191,44.41436140849191 0 0,0 -0.14312783392537767,-0.7489053071633489 l 23.03500079107633 -4.19774448038324" fill="#e8ff1a" stroke="none" /><path d="M 79.2786578344484 103.40968896794605 l -26.394552990351027 4.343213650256882 a47.74950340421717,47.74950340421717 0 0,0 -0.12614624761927065,-0.8099494009279341 l 26.465220730108566 -3.8894760673974975" fill="#c0ff1e" stroke="none" /><path d="M 79.17382384314188 102.69636545807758 l -17.718900415587278 2.2940664035424985 a38.86678965570932,38.86678965570932 0 0,0 -0.07998769346211108,-0.6624128464507897 l 17.75567019530905 -1.9895598801683094" fill="#ffd013" stroke="none" /><path d="M 79.13060592940153 102.33845913500099 l -20.66034860265718 2.3150351542910403 a41.789646272818636,41.789646272818636 0 0,0 -0.07376391458908799,-0.7135989604204149 l 20.697044909727936 -1.9600316715876942" fill="#fff517" stroke="none" /><path d="M 79.0935383218832 101.97986365728391 l -17.758058614032155 1.681706613732773 a38.837510557083746,38.837510557083746 0 0,0 -0.05715841689322406,-0.6642674459252386 l 17.78431065362312 -1.3766181204318726" fill="#ffcf13" stroke="none" /><path d="M 79.06263194458094 101.62068470465958 l -22.254949416630105 1.7226738349842243 a43.32152276791402,43.32152276791402 0 0,0 -0.05102870807502833,-0.7419462161489339 l 22.2812420858702 -1.3403841946809472" fill="#f5ff19" stroke="none" /><path d="M 79.03789590574601 101.26102812881392 l -14.831957343411032 0.8922537227804513 a35.85877099031343,35.85877099031343 0 0,0 -0.031689609220046606,-0.6147699529217646 l 14.84508854208765 -0.637511976481956" fill="#ffa80f" stroke="none" /><path d="M 79.01933749520258 100.90099992219065 l -26.731553536277364 1.1479679276435524 a47.756191523192555,47.756191523192555 0 0,0 -0.028142753235141704,-0.8193455540039218 l 26.747320976509354 -0.6889161090755106" fill="#bfff1e" stroke="none" /><path d="M 79.00696218219943 100.54070618675478 l -17.825356668000055 0.459117956874514 a38.83126831270672,38.83126831270672 0 0,0 -0.011443331431606567,-0.6665166866737309 l 17.830611431030327 -0.15305435423173075" fill="#ffcf13" stroke="none" /><line stroke="#e1ed5e" stroke-width="0.3" x1="15.003131293944662" x2="10.003315487706104" y1="100.72959589197737" y2="100.7725132973878" /><path d="M 14.003168132696942 100.73817937305945 a86.0,86.0 0 0,1 10.791469493833604,-42.45332614584628" fill="none" id="id34" stroke="none" /><text fill="#e1ed5e" style="font-size:6.75px; font-family:Arial;" text-anchor="middle"><textPath startOffset="22.145653131862435" xlink:href="#id34">October</textPath></text><path d="M 79.00077361379809 100.18025310272382 l -20.30066570886925 0.17425679946891656 a41.30141358761554,41.30141358761554 0 0,0 0.0,-0.7090198043854608 l 20.30066570886925 0.1742567994689091" fill="#ffef16" stroke="none" /><path d="M 79.03789590574601 98.7389718711861 l -17.799832378719238 -1.0707937150207345 a38.832011437037316,38.832011437037316 0 0,0 0.04574048299739255,-0.6650565841259491 l 17.77882793455678 1.3761937233010084" fill="#ffcf13" stroke="none" /><path d="M 79.2786578344484 96.59031103205396 l -14.668789689448113 -2.4137437612695485 a35.8660536087533,35.8660536087533 0 0,0 0.1051817836823038,-0.6066605773082234 l 14.625193088273575 2.6651973714983646" fill="#ffa80f" stroke="none" /><path d="M 79.34024301695615 96.23510406497455 l -17.541634155804417 -3.1966700857660046 a38.83052518837612,38.83052518837612 0 0,0 0.12513360057754377,-0.6547518746482502 l 17.484174262944713 3.4973245254475693" fill="#ffcf13" stroke="none" /><path d="M 79.407916724674 95.88100663000787 l -21.863597757164 -4.373331877199669 a43.29670241527203,43.29670241527203 0 0,0 0.15203799761230125,-0.7275568569495616 l 21.785302048727335 4.748005185434639" fill="#f6ff19" stroke="none" /><path d="M 79.48165901384962 95.52812308129327 l -17.422287783602602 -3.7971065332790355 a38.83126831270672,38.83126831270672 0 0,0 0.14753873539495901,-0.6500828908738011 l 17.35453818664998 4.095623758091845" fill="#ffcf13" stroke="none" /><path d="M 79.56144815229197 95.17655741523228 l -20.209954596772675 -4.769494255985014 a41.76512316990889,41.76512316990889 0 0,0 0.17066516783625457,-0.6963721244032451 l 20.125101902420123 5.115722204996377" fill="#fff517" stroke="none" /><path d="M 79.73907114497095 94.47779374421319 l -17.210886789076746 -4.6909037277768935 a38.8386995560127,38.8386995560127 0 0,0 0.18084317183091345,-0.641748618659427 l 17.127825125171253 4.985660270339333" fill="#ffcf13" stroke="none" /><path d="M 79.83685265289637 94.1308016681162 l -22.357858791803423 -6.508046847368591 a44.285800899298394,44.285800899298394 0 0,0 0.2187374400410379,-0.7281057973998027 l 22.242845031758755 6.890890248359117" fill="#e9ff1a" stroke="none" /><path d="M 80.05021161711548 93.44210830539832 l -22.776125279496732 -7.486964770702132 a44.975123028361395,44.975123028361395 0 0,0 0.24739439887391362,-0.7313775811668566 l 22.644245459050452 7.87684402634315" fill="#e1ff1b" stroke="none" /><path d="M 80.16572619554312 93.10060997987247 l -16.847617338650807 -5.860475864919001 a38.83780780681599,38.83780780681599 0 0,0 0.2244452262524382,-0.6278132438671513 l 16.744531942354424 6.148824065167075" fill="#ffcf13" stroke="none" /><path d="M 80.28708602549916 92.7611449362534 l -18.16256927529413 -6.669547015686226 a40.348430946056254,40.348430946056254 0 0,0 0.2443372558366869,-0.6481336001190924 l 18.045401335643007 6.980348895999463" fill="#ffe315" stroke="none" /><path d="M 80.41425534168474 92.42381321644754 l -16.63318508000647 -6.434073310458783 a38.834240810029115,38.834240810029115 0 0,0 0.24584168714140972,-0.6196816472725489 l 16.52028471789893 6.718655974944914" fill="#ffcf13" stroke="none" /><path d="M 80.5471966667186 92.08871423366112 l -19.524623674638715 -7.940494473926104 a42.07753263849243,42.07753263849243 0 0,0 0.2778603001253189,-0.6667635688102115 l 19.385437529976915 8.27449055217758" fill="#fff917" stroke="none" /><path d="M 80.68587082218212 91.75594674310238 l -16.403882685326018 -7.001842083206317 a38.83572705869031,38.83572705869031 0 0,0 0.26697919783387386,-0.6109006521579581 l 16.281269605475167 7.282404805140143" fill="#ffcf13" stroke="none" /><path d="M 81.1358732173502 90.77261029715801 l -12.078246191943794 -5.908075461114841 a34.44579438811378,34.44579438811378 0 0,0 0.26437981566507623,-0.5289367323475939 l 11.975046463066974 6.114544049626205" fill="#ff940d" stroke="none" /><path d="M 81.29705330413844 90.45014215332179 l -17.3256160360662 -8.846582997917212 a40.45350872640286,40.45350872640286 0 0,0 0.32110826125443864,-0.6157674306666719 l 17.17119970583682 9.14269667168837" fill="#ffe415" stroke="none" /><path d="M 81.46374523516351 90.13048839642627 l -13.135462701094987 -6.99389403045413 a35.88136196996362,35.88136196996362 0 0,0 0.2941496821554353,-0.541202284396837 l 13.0134676693242 7.218351148325587" fill="#ffa80f" stroke="none" /><path d="M 81.63589988554816 89.8137432299009 l -15.596483803435369 -8.651106656049004 a38.835132559225826,38.835132559225826 0 0,0 0.3283725622614667,-0.5802028534648054 l 15.445677876152534 8.917566279612915" fill="#ffcf13" stroke="none" /><line stroke="#e1ed5e" stroke-width="0.3" x1="26.387840678322718" x2="22.05771365940052" y1="57.49999999999999" y2="54.99999999999999" /><path d="M 25.521815274538284 56.99999999999999 a86.0,86.0 0 0,1 29.574782752854787,-30.34633250058573" fill="none" id="id35" stroke="none" /><text fill="#e1ed5e" style="font-size:6.75px; font-family:Arial;" text-anchor="middle"><textPath startOffset="21.40746469413373" xlink:href="#id35">November</textPath></text><path d="M 81.81346652052679 89.5 l -24.236898321141286 -13.993179770032516 a48.986359540065024,48.986359540065024 0 0,0 0.4267091907101325,-0.7246454933653426 l 23.993115420301375 14.40717643169143" fill="#b1ff20" stroke="none" /><path d="M 81.99639281039701 89.18935116829357 l -12.741190090668372 -7.650718565320519 a35.86174348763583,35.86174348763583 0 0,0 0.32144423689791646,-0.5250550035004952 l 12.607977889315062 7.868310684945557" fill="#ffa80f" stroke="none" /><path d="M 82.18462484594161 88.88188828441811 l -26.480473107015953 -16.525773706101116 a52.21404575758577,52.21404575758577 0 0,0 0.48107114774900495,-0.7563237480552235 l 26.19288426764106 16.97791112883501" fill="#8cff24" stroke="none" /><path d="M 82.37810715431573 88.57770195909679 l -14.966631954910103 -9.70119001145537 a38.83572705869031,38.83572705869031 0 0,0 0.36741475539555823,-0.5563127685041066 l 14.797892760593816 9.956682658298538" fill="#ffcf13" stroke="none" /><path d="M 82.78059297857968 87.97951657250589 l -16.077948898493656 -11.223657007586036 a40.607929962301185,40.607929962301185 0 0,0 0.4039230213846223,-0.5681683142432808 l 15.882910778579063 11.498002548538839" fill="#ffe615" stroke="none" /><path d="M 82.98947788004972 87.6856937992154 l -16.851567405434775 -12.199235245713407 a41.80376563510001,41.80376563510001 0 0,0 0.42579719253044057,-0.577675668386149 l 16.639668193320517 12.48671722336842" fill="#fff617" stroke="none" /><path d="M 83.2033758604659 87.39550010848427 l -20.812215816721483 -15.617874748213795 a47.02049843590022,47.02049843590022 0 0,0 0.4900163384053179,-0.6414471167083392 l 20.54104750096186 15.972842778163018" fill="#c8ff1d" stroke="none" /><path d="M 83.42222388311158 87.10902102172516 l -14.072216120321947 -10.942640370200612 a38.82606644239253,38.82606644239253 0 0,0 0.4136521156811602,-0.5226359352146557 l 13.882297573999226 11.18259624932995" fill="#ffcf13" stroke="none" /><path d="M 83.64595745247003 86.82634096563983 l -30.095557219390567 -24.242850543225988 a59.64528906356898,59.64528906356898 0 0,0 0.6491485968052406,-0.7918557380169937 l 29.674961803346697 24.75590856294147" fill="#3dff2e" stroke="none" /><path d="M 83.8745106332314 86.54754324733833 l -9.14595381090767 -7.62987995617846 a32.910648145963776,32.910648145963776 0 0,0 0.365630149093231,-0.4307113962678932 l 9.013629098307325 7.78575813489591" fill="#ff7f0b" stroke="none" /><path d="M 84.10781606972428 86.27271002978789 l -15.80295381238068 -13.650215119594016 a41.882090939545066,41.882090939545066 0 0,0 0.47464163151865724,-0.5400550479056854 l 15.56630111690343 13.919482445311" fill="#fff717" stroke="none" /><path d="M 84.58840730492382 85.73525988315684 l -15.272705626158615 -14.13618831931661 a41.81075100380763,41.81075100380763 0 0,0 0.49206110465220865,-0.5225518412896627 l 15.027788687770135 14.396281620550782" fill="#fff617" stroke="none" /><path d="M 85.08716467003674 85.21462403516908 l -12.666724208562275 -12.558462259026372 a38.837064682485384,38.837064682485384 0 0,0 0.4734572551024279,-0.46941063621222806 l 12.44927503332987 12.774052905467276" fill="#ffcf13" stroke="none" /><path d="M 85.34317274990677 84.96080404539775 l -28.018078189023207 -28.74901647990748 a61.14372496378743,61.14372496378743 0 0,0 0.7579711392742169,-0.7261192054238655 l 27.52043456388369 29.225747815636915" fill="#30ff32" stroke="none" /><path d="M 85.86807049272753 84.46653392183569 l -12.00223506837956 -13.192558822267362 a38.835281184091954,38.835281184091954 0 0,0 0.4969713451101421,-0.44439484127487366 l 11.773998696446027 13.396649193425636" fill="#ffcf13" stroke="none" /><path d="M 86.40962598614128 83.9905735841838 l -18.755527933499067 -22.093964745557734 a49.981254393870046,49.981254393870046 0 0,0 0.6588616203336232,-0.5496457969078575 l 18.373491979003532 22.412672726377473" fill="#a5ff21" stroke="none" /><path d="M 86.68645165197937 83.75963576809568 l -11.304640608940437 -13.789823434055764 a38.83126831270672,38.83126831270672 0 0,0 0.5191356507105321,-0.41817893252785465 l 11.066254187874659 13.981850660377019" fill="#ffcf13" stroke="none" /><path d="M 86.96720088162412 83.53348406188908 l -27.670477964746976 -34.96074498525944 a65.58597358723807,65.58597358723807 0 0,0 0.8888150406830221,-0.6911479515848312 l 27.066252979428707 35.43059398846508" fill="#35ff68" stroke="none" /><path d="M 87.83215693770416 82.88440491214696 l -10.33095190429729 -14.531777633946076 a38.82978206404552,38.82978206404552 0 0,0 0.5465844850849874,-0.38155842047966193 l 10.079972328038536 14.706980870230863" fill="#ffcf13" stroke="none" /><path d="M 88.12776184653039 82.6780497279521 l -15.804546284686444 -23.05930535394553 a48.95559419277825,48.95559419277825 0 0,0 0.6972761876894022,-0.46915853752497616 l 15.406373808900053 23.327213565527614" fill="#b1ff20" stroke="none" /><path d="M 88.4268655584334 82.4767994020092 l -9.827250748780287 -14.879710165565287 a38.832011437037316,38.832011437037316 0 0,0 0.5593924470506324,-0.3625914257904104 l 9.57037266947263 15.046215433059604" fill="#ffcf13" stroke="none" /><path d="M 88.72937992617638 82.28071324371311 l -11.166099501051225 -17.55496305548299 a41.8052518837612,41.8052518837612 0 0,0 0.6088355062398191,-0.37995838517299796 l 10.863099866021708 17.744057237497522" fill="#fff617" stroke="none" /><path d="M 89.03521579738668 82.08984904055464 l -7.7582484488018 -12.672515786111472 a35.85877099031343,35.85877099031343 0 0,0 0.5277510239625912,-0.3168993263709883 l 7.539564668281774 12.803829113018384" fill="#ffa80f" stroke="none" /><line stroke="#e1ed5e" stroke-width="0.3" x1="56.869717070023135" x2="54.33264160355391" y1="26.7553504044142" y2="22.446841604673864" /><path d="M 56.362301976729285 25.89364864446614 a86.0,86.0 0 0,1 42.16139366436587,-11.88097634709845" fill="none" id="id36" stroke="none" /><text fill="#e1ed5e" style="font-size:6.75px; font-family:Arial;" text-anchor="middle"><textPath startOffset="22.145653131862474" xlink:href="#id36">December</textPath></text><path d="M 89.34428304082924 81.90426304109057 l -24.143499786570654 -41.00094091080929 a68.5813591390138,68.5813591390138 0 0,0 1.0196008041700533,-0.588666798753536 l 23.4361065145402 41.409354606838995" fill="#39ff8b" stroke="none" /><path d="M 89.97174638481275 81.54914285379989 l -8.515070520013102 -15.666770684443637 a38.83126831270672,38.83126831270672 0 0,0 0.58840685115696,-0.3132935060933845 l 8.24487485306958 15.810634658259596" fill="#ffcf13" stroke="none" /><path d="M 90.28995756902619 81.37971332152246 l -8.593155959594743 -16.47850960260683 a39.584499134201174,39.584499134201174 0 0,0 0.6052145292425841,-0.30902685095551774 l 8.309014208638576 16.62359440523518" fill="#ffd914" stroke="none" /><path d="M 90.93487009805054 81.0573650232925 l -8.981062427098756 -18.766966287264015 a41.8052518837612,41.8052518837612 0 0,0 0.6499945980710393,-0.3042302920485261 l 8.657579115156194 18.91837281088308" fill="#fff617" stroke="none" /><path d="M 91.26138138417902 80.90454125486306 l -6.18341079353728 -13.511868511855486 a35.85951411464403,35.85951411464403 0 0,0 0.5619469273923386,-0.2513517129462404 l 5.950550463289322 13.61602397571157" fill="#ffa80f" stroke="none" /><path d="M 91.5904679813234 80.7573450057729 l -17.85552002139541 -40.85692411315613 a65.58820296022986,65.58820296022986 0 0,0 1.0355594087721485,-0.44201873343603115 l 17.15152553745283 41.15741749625157" fill="#35ff68" stroke="none" /><path d="M 92.25597844496254 80.48000691201159 l -6.576058843282186 -16.575964084652167 a38.83275456136792,38.83275456136792 0 0,0 0.6217452003482292,-0.2405044001028346 l 6.290541380440428 16.68640837289304" fill="#ffcf13" stroke="none" /><path d="M 92.592206182469 80.34994680014964 l -9.311846699205445 -24.70077968358254 a47.397708346111926,47.397708346111926 0 0,0 0.7638046995741905,-0.28047966548112124 l 8.886452847977127 24.85699019807238" fill="#c4ff1e" stroke="none" /><path d="M 92.93061703081487 80.22567764915836 l -6.003670392893626 -16.793334602859566 a38.834240810029115,38.834240810029115 0 0,0 0.6296588020394881,-0.219028016740421 l 5.714505818809133 16.893921052168572" fill="#ffcf13" stroke="none" /><path d="M 93.27111125876988 80.10723608172694 l -6.667725106856833 -19.711944501314004 a41.809116130280316,41.809116130280316 0 0,0 0.6818415063650113,-0.22413484623535923 l 6.32836086284406 19.823500268951392" fill="#fff617" stroke="none" /><path d="M 93.95794788825049 79.88797359093562 l -10.263831365167414 -34.1649564844052 a56.67338624064017,56.67338624064017 0 0,0 0.9341392957917435,-0.2719143347130126 l 9.675832056994047 34.33611451342073" fill="#5bff2a" stroke="none" /><path d="M 94.6519064749342 79.69241777938228 l -4.542509543581514 -17.248648628127196 a38.83676743275315,38.83676743275315 0 0,0 0.646160046154332,-0.16425135694322757 l 4.245744204201804 17.324085216905686" fill="#ffcf13" stroke="none" /><path d="M 95.00130118170881 79.60360301121753 l -4.555935561586411 -18.589771808095147 a40.13991025889037,40.13991025889037 0 0,0 0.6706573267433484,-0.15827330300620432 l 4.236146081103157 18.66524125474758" fill="#ffe015" stroke="none" /><path d="M 95.70440661134978 79.44403061299748 l -3.656269618336578 -17.496573708241684 a38.87451814874754,38.87451814874754 0 0,0 0.6543942280415278,-0.13089717298753803 l 3.3553789047640734 17.556760277892085" fill="#ffd013" stroke="none" /><path d="M 96.05791012581881 79.37332000966035 l -1.3988324840525264 -7.319282646907302 a28.451753537507727,28.451753537507727 0 0,0 0.4805166071104934,-0.0875661326659036 l 1.2729811433909946 7.3422169535045665" fill="#ff4006" stroke="none" /><path d="M 96.41257539226777 79.30868818359171 l -10.762273823196677 -62.07393544922487 a84.0,84.0 0 0,0 1.4228899877877086,-0.23413600601732654 l 9.695106332355897 62.24953745373786" fill="#4dd2ff" stroke="none" /><path d="M 98.1996594967304 79.07731436759882 l -0.765291030895417 -8.893841819167983 a29.926706708879273,29.926706708879273 0 0,0 0.5122183940685585,-0.03964894319643478 l 0.6125036420516413 8.905668529359472" fill="#ff5507" stroke="none" /><path d="M 98.5590905019552 79.04949213459386 l -1.022263704008902 -14.863489900246103 a35.8986024544335,35.8986024544335 0 0,0 0.6151578497037417,-0.03700636866647944 l 0.7669615021726766 14.878848246737277" fill="#ffa80f" stroke="none" /><path d="M 98.9189461498227 79.02784411241856 l -0.9184823623726678 -17.818312455493857 a38.84196930306734,38.84196930306734 0 0,0 0.6661846071665987,-0.028608833447679064 l 0.612471994605249 17.831453857367364" fill="#ffcf13" stroke="none" /><path d="M 99.63950707515114 79.00309439819443 l -0.3061152912048211 -17.829681055159895 a38.83230868676956,38.83230868676956 0 0,0 0.6666082160536689,-0.005722029804098991 l 4.3676559509319764e-15 17.832308686769558" fill="#ffcf13" stroke="none" /></svg>