<?xml version="1.0" encoding="utf-8" ?>
<svg baseProfile="full" height="200mm" version="1.1" viewBox="0,0,200,200" width="200mm" xmlns="http://www.w3.org/2000/svg" xmlns:ev="http://www.w3.org/2001/xml-events" xmlns:xlink="http://www.w3.org/1999/xlink"><defs /><rect fill="#1a1a1a" height="200" width="200" x="0" y="0" /><text alignment-baseline="middle" fill="#e1ed5e" style="dominant-baseline: central; font-size:9.0px; font-family:Arial;" text-anchor="middle" x="100.0" y="100.0">2023</text><line stroke="#e1ed5e" stroke-width="0.3" x1="100.0" x2="100.0" y1="15.0" y2="10.0" /><path d="M 100.0 14.0 a86.0,86.0 0 0,1 42.46469731375804,11.215312516191453" fill="none" id="id13" stroke="none" /><text fill="#e1ed5e" style="font-size:6.75px; font-family:Arial;" text-anchor="middle"><textPath startOffset="22.20632615414155" xlink:href="#id13">January</textPath></text><path d="M 102.52436894288641 79.15227682838746 l 0.7124278695150746 -5.883648285741219 a26.926623880386487,26.926623880386487 0 0,0 0.45965705105368876,0.059676677472466064 l -0.8135996490766095 5.870513285104616" fill="#ff0000" stroke="none" /><path d="M 104.66035177308747 79.52364482259891 l 2.04465168982457 -8.983659657773943 a30.213400098737573,30.213400098737573 0 0,0 0.5061123090980967,0.11978043173063742 l -2.1989876858851902 8.947133313902437" fill="#ff3304" stroke="none" /><path d="M 105.01212808612495 79.60689891045804 l 3.553135388285039 -14.45682311246491 a35.88705832569293,35.88705832569293 0 0,0 0.5986151210824905,0.15260032308559354 l -3.8014593980525544 14.39351979321045" fill="#ff880c" stroke="none" /><path d="M 106.0581310904928 79.89281104454417 l 4.38224327122846 -14.544847608472264 a36.19067635235207,36.19067635235207 0 0,0 0.594930992777345,0.18484795543160168 l -4.631959636716523 14.46725951815814" fill="#ff8d0c" stroke="none" /><path d="M 107.4271985657038 80.35727306442388 l 6.976716108090061 -18.4513350768699 a40.72628535157628,40.72628535157628 0 0,0 0.6535925614527933,0.2535837596740069 l -7.293291834542521 18.328508613305345" fill="#ffcd13" stroke="none" /><path d="M 107.76421540070413 80.48803036053334 l 6.366558063179823 -15.99956740321765 a38.21973340856196,38.21973340856196 0 0,0 0.6091791081846327,0.24849945380499514 l -6.641021040952843 15.887607063229076" fill="#ffaa0f" stroke="none" /><path d="M 108.43124777332544 80.76684994638697 l 9.540706980284355 -21.764020451386575 a44.763368361661605,44.763368361661605 0 0,0 0.7030361582540183,0.3154318311964498 l -9.913925257005154 21.596568289673595" fill="#fbff18" stroke="none" /><path d="M 108.76106565485865 80.91482961587045 l 10.169855392715887 -22.154088394977673 a45.37682488186755,45.37682488186755 0 0,0 0.7070612287328385,0.3319747275460604 l -10.549694832748322 21.97574868479161" fill="#f3ff19" stroke="none" /><path d="M 109.41281617654863 81.2277094730956 l 8.151091201222554 -16.255990690848645 a39.185090626983566,39.185090626983566 0 0,0 0.6003519977198151,0.3075236110301889 l -8.429703686531125 16.113274554505956" fill="#ffb711" stroke="none" /><path d="M 110.05341064243156 81.56283822128135 l 11.373634255959134 -20.858347703817323 a44.75774032019183,44.75774032019183 0 0,0 0.6732329521294237,0.37465340896617266 l -11.730991297160593 20.65947889729097" fill="#fbff18" stroke="none" /><path d="M 110.36928655335952 81.73862282372117 l 11.840688242149943 -20.852666468801086 a44.97989985189365,44.97989985189365 0 0,0 0.6699933165264109,0.388103374008336 l -12.19787829114168 20.6457589374027" fill="#f8ff18" stroke="none" /><line stroke="#e1ed5e" stroke-width="0.3" x1="143.23703022742887" x2="145.7803849466894" y1="26.81831364943548" y2="22.513508569990506" /><path d="M 143.74570117128098 25.957352633546492 a86.0,86.0 0 0,1 28.547481713284135,27.462654790039103" fill="none" id="id14" stroke="none" /><text fill="#e1ed5e" style="font-size:6.75px; font-family:Arial;" text-anchor="middle"><textPath startOffset="19.985693538727396" xlink:href="#id14">February</textPath></text><path d="M 111.90073688211348 82.69761687909136 l 13.462042386599505 -19.572352306430485 a44.75507440581141,44.75507440581141 0 0,0 0.6309801846274998,0.44204194261872076 l -13.796953710810657 19.33772552104783" fill="#fbff18" stroke="none" /><path d="M 112.19680574252982 82.90503203632743 l 13.903446732245536 -19.48698548535438 a44.93843007264264,44.93843007264264 0 0,0 0.6258311595453376,0.45469295276059324 l -14.236823208144662 19.244773297777115" fill="#f9ff18" stroke="none" /><path d="M 112.77801427241765 83.33499621200491 l 14.995850024192798 -19.55749086904848 a45.644897383454406,45.644897383454406 0 0,0 0.6193957036844289,0.4834481714175511 l -15.330278283036657 19.296464308407707" fill="#f0ff19" stroke="none" /><path d="M 113.06298171725822 83.55741782278167 l 16.141014153774172 -20.316950401640803 a46.948233302771705,46.948233302771705 0 0,0 0.6284280392766906,0.5081451035210067 l -16.488345591615353 20.036099200855666" fill="#dfff1b" stroke="none" /><path d="M 113.6212207817346 84.01681056812373 l 15.64341344310363 -18.35603757025694 a45.11763876154877,45.11763876154877 0 0,0 0.5867574731520998,0.5088302987133475 l -15.957064714902494 18.08404227812392" fill="#f7ff19" stroke="none" /><path d="M 113.89432698308785 84.25364557470407 l 25.47603589155214 -28.871833158110153 a59.50469003455815,59.50469003455815 0 0,0 0.7621956098001205,0.6843067441057858 l -25.96924248894825 28.42902740523507" fill="#4aff2c" stroke="none" /><path d="M 114.42810811169701 84.74124197986012 l 18.01198544926643 -19.048965069080747 a47.216305804358555,47.216305804358555 0 0,0 0.5857447065121734,0.563485943579788 l -18.337213399391022 18.73609603873866" fill="#dbff1b" stroke="none" /><path d="M 114.68862486808459 84.99185889309783 l 18.920656062886703 -19.332230115289004 a48.05044079272163,48.05044079272163 0 0,0 0.58613346272738,0.5836164193658275 l -19.250625325781407 19.003677845273057" fill="#d1ff1c" stroke="none" /><path d="M 114.94478906791727 85.2469230424477 l 18.69431954469341 -18.454508368004138 a47.26873545384019,47.26873545384019 0 0,0 0.5666299963474007,0.5839620194188506 l -19.009213804743922 18.129982153035172" fill="#dbff1b" stroke="none" /><path d="M 115.4437574822437 85.77008943001954 l 18.23646459730631 -16.80311676939015 a45.79744692855631,45.79744692855631 0 0,0 0.529192463845895,0.5843475359370198 l -18.52300070176824 16.486716446183582" fill="#eeff19" stroke="none" /><path d="M 115.68641384162765 86.03803664274999 l 18.571678479399356 -16.530042942249523 a45.86261372452218,45.86261372452218 0 0,0 0.5197940582867869,0.59421446411027 l -18.85346440126399 16.207912921936305" fill="#edff1a" stroke="none" /><path d="M 116.15771136456269 86.58626213691792 l 20.57233678429017 -17.078652206941296 a47.73764017208548,47.73764017208548 0 0,0 0.5194344173350158,0.6367651770358764 l -20.863269693701593 16.722002860297316" fill="#d5ff1c" stroke="none" /><path d="M 116.38621287248628 86.86637796730983 l 18.48606115440374 -14.816659710481133 a44.69109246068129,44.69109246068129 0 0,0 0.4759514506013918,0.6044100086372147 l -18.738366685599097 14.49625730789088" fill="#fcff18" stroke="none" /><path d="M 116.60985879189232 87.15038557335679 l 21.326079364299293 -16.49814730496083 a47.962761830876644,47.962761830876644 0 0,0 0.49955285646253667,0.6573530021770653 l -21.60690816098594 16.128609526902732" fill="#d2ff1c" stroke="none" /><path d="M 117.04232023915458 87.72973835380427 l 21.750803581059102 -15.6603119299116 a47.80191832992454,47.80191832992454 0 0,0 0.47503129069622385,0.6718980725856015 l -22.017147491559207 15.283587356994206" fill="#d4ff1c" stroke="none" /><path d="M 117.2510076193507 88.02491185347247 l 31.63435003249436 -21.959536419907067 a59.50913322519219,59.50913322519219 0 0,0 0.5768858854242396,0.8465088528806735 l -32.007660383587336 21.411749543755988" fill="#4aff2c" stroke="none" /><path d="M 117.65298651832404 88.62581576622439 l 22.47739746116244 -14.482651961110436 a47.73912123563016,47.73912123563016 0 0,0 0.4391371810567819,0.6946095614096898 l -22.723362238465178 14.09359475198654" fill="#d5ff1c" stroke="none" /><line stroke="#e1ed5e" stroke-width="0.3" x1="172.23445277983987" x2="176.4835382374775" y1="55.19839476539836" y2="52.563006222186495" /><path d="M 173.08426987136738 54.67131705675599 a86.0,86.0 0 0,1 12.851231095245387,41.99856678651699" fill="none" id="id15" stroke="none" /><text fill="#e1ed5e" style="font-size:6.75px; font-family:Arial;" text-anchor="middle"><textPath startOffset="22.20632615414155" xlink:href="#id15">March</textPath></text><path d="M 117.84615892207809 88.93136811851018 l 20.706780263364426 -12.842860426538834 a45.36616122434586,45.36616122434586 0 0,0 0.40588499935498495,0.6671682186648232 l -20.924781061005632 12.48452443466693" fill="#f3ff19" stroke="none" /><path d="M 118.03404312379186 89.2402003453031 l 23.239864303401152 -13.865791613697846 a48.06199308837013,48.06199308837013 0 0,0 0.4177738982836173,0.7141110155655367 l -23.475097876155097 13.463701185778415" fill="#d1ff1d" stroke="none" /><path d="M 118.3937258080291 89.86733742301442 l 38.91494370472226 -21.437309541181584 a65.42894421327316,65.42894421327316 0 0,0 0.5349342761002807,0.991151971177232 l -39.27818608004101 20.764276586671894" fill="#34ff5b" stroke="none" /><path d="M 118.56541770881063 90.18545643968196 l 23.75441202293833 -12.557687373671628 a47.86945482756189,47.86945482756189 0 0,0 0.37883103962422454,0.7317809890558851 l -23.96705249572267 12.146933662355398" fill="#d3ff1c" stroke="none" /><path d="M 119.04729006885535 91.15688171328212 l 24.1264778642106 -11.201241584699424 a47.59990126243035,47.59990126243035 0 0,0 0.33863404578002615,0.746135232232523 l -24.315714226953975 10.784284343624838" fill="#d7ff1c" stroke="none" /><path d="M 119.196687751892 91.48605970444005 l 24.980470111443648 -11.079110825402113 a48.327103462867626,48.327103462867626 0 0,0 0.33071684447657296,0.7633400742040449 l -25.167477665762902 10.647471606611466" fill="#cdff1d" stroke="none" /><path d="M 119.47837535516314 92.15188598940014 l 58.435126065489385 -23.54434203179955 a84.0,84.0 0 0,0 0.5288258004731983,1.3458039804168624 l -58.83174541584429 22.534989046486903" fill="#4dd2ff" stroke="none" /><path d="M 119.7369772167798 92.82701384747503 l 25.203308377672265 -9.159608384062137 a47.81613653995345,47.81613653995345 0 0,0 0.2744803784508991,0.7759929918059629 l -25.357241836932975 8.72441776582956" fill="#d4ff1c" stroke="none" /><path d="M 119.97218684219823 93.5106431181261 l 25.683113870409557 -8.344949557088617 a48.004824035545525,48.004824035545525 0 0,0 0.24858387459703746,0.7880788141420645 l -25.8229532287748 7.901620576520133" fill="#d1ff1c" stroke="none" /><path d="M 120.08093135843002 93.85539295169968 l 26.507282591381003 -8.111019978857302 a48.720473940334294,48.720473940334294 0 0,0 0.23848463861854052,0.8040516443572079 l -26.642973127111244 7.653538947753564" fill="#c8ff1d" stroke="none" /><path d="M 120.28053869075195 94.5502522615342 l 42.91624594121843 -11.53237188754996 a65.43871923266803,65.43871923266803 0 0,0 0.28295598781122044,1.0903448460483682 l -43.10839826089995 10.791930615952742" fill="#34ff5c" stroke="none" /><path d="M 120.37134235888165 94.90015583598534 l 28.741135154276307 -7.19517191363618 a50.62808378588052,50.62808378588052 0 0,0 0.20436194717570014,0.8472122064353991 l -28.860729901712826 6.699374475541375" fill="#b1ff20" stroke="none" /><path d="M 120.53481517161879 95.60439243477599 l 26.16128790888792 -5.599989777713989 a47.753931871076944,47.753931871076944 0 0,0 0.16513924549070844,0.8052776090220123 l -26.253806450293627 5.148836512528566" fill="#d5ff1c" stroke="none" /><path d="M 120.6074358757038 95.95851677861258 l 23.258977311040137 -4.561497467039396 a44.70205233091191,44.70205233091191 0 0,0 0.14158688812067585,0.7563628178851785 l -23.334049923070673 4.160456571691654" fill="#fcff18" stroke="none" /><path d="M 120.91429891909075 98.10471618934814 l 26.224368466218674 -2.3764899407278013 a47.3318287608435,47.3318287608435 0 0,0 0.06654746075862802,0.8120475797922367 l -26.2613904107968 1.9247284437277958" fill="#daff1c" stroke="none" /><line stroke="#e1ed5e" stroke-width="0.3" x1="184.98032266829074" x2="189.97916517819016" y1="98.17113171792111" y2="98.06355123074" /><path d="M 185.9800911702706 98.14961562048488 a86.0,86.0 0 0,1 -9.607161424134198,41.387399972396054" fill="none" id="id16" stroke="none" /><text fill="#e1ed5e" style="font-size:6.75px; font-family:Arial;" text-anchor="middle"><textPath startOffset="21.466115282336823" xlink:href="#id16">April</textPath></text><path d="M 120.99824983174949 100.27111621757518 l 26.234261687672582 0.338720315103842 a47.236448268566186,47.236448268566186 0 0,0 -0.01749533969599028,0.8129396890553913 l -26.224544285291586 -0.7902498199493481" fill="#dbff1b" stroke="none" /><path d="M 120.9764740272857 100.99374915477107 l 17.622960286891377 0.8348782482166495 a38.64272515692221,38.64272515692221 0 0,0 -0.03719573747960332,0.6641548793814235 l -17.605978198524245 -1.1381048439334962" fill="#ffb010" stroke="none" /><path d="M 120.89721153311464 102.0752229133903 l 29.471862545150827 2.926739022432176 a50.61682770294097,50.61682770294097 0 0,0 -0.09356327413076033,0.8662797167124175 l -29.417116969519014 -3.433615061029385" fill="#b1ff20" stroke="none" /><path d="M 120.8583938346157 102.4346265915055 l 29.414174816499113 3.43327164801133 a50.61386557585161,50.61386557585161 0 0,0 -0.10845464581410623,0.8644902366163034 l -29.35071866143816 -3.9390796389150284" fill="#b1ff20" stroke="none" /><path d="M 120.76222939487914 103.15116336523771 l 14.75745118044087 2.239795093274465 a35.926454615981385,35.926454615981385 0 0,0 -0.09805911193365925,0.610614183615628 l -14.716710314145923 -2.493488506583298" fill="#ff890c" stroke="none" /><path d="M 120.64145759157962 103.86396538481128 l 26.53298582862898 4.96682651128926 a47.9938641653149,47.9938641653149 0 0,0 -0.1589969688922776,0.810722118933863 l -26.44355892676104 -5.422812357291067" fill="#d2ff1c" stroke="none" /><path d="M 120.49622156327973 104.57218783832717 l 13.786054379645874 3.075319515771648 a35.12490302560124,35.12490302560124 0 0,0 -0.13671855690746942,0.5889799649003057 l -13.73107525680785 -3.3121681380205183" fill="#ff7d0b" stroke="none" /><line stroke="#e1ed5e" stroke-width="0.3" x1="174.80103733775053" x2="179.2010983576182" y1="140.37084112569926" y2="142.7455964860345" /><path d="M 175.68104954172406 140.8457921977663 a86.0,86.0 0 0,1 -30.038265399797805,32.042727171017184" fill="none" id="id17" stroke="none" /><text fill="#e1ed5e" style="font-size:6.75px; font-family:Arial;" text-anchor="middle"><textPath startOffset="22.206326154141568" xlink:href="#id17">May</textPath></text><line stroke="#e1ed5e" stroke-width="0.3" x1="143.8653032363475" x2="146.44561519142675" y1="172.8068346515853" y2="177.08958963109032" /><path d="M 144.38136562736335 173.6633856474863 a86.0,86.0 0 0,1 -40.68145358897372,12.25698825130547" fill="none" id="id18" stroke="none" /><text fill="#e1ed5e" style="font-size:6.75px; font-family:Arial;" text-anchor="middle"><textPath startOffset="21.466115282336833" xlink:href="#id18">June</textPath></text><line stroke="#e1ed5e" stroke-width="0.3" x1="102.19456741930631" x2="102.32365962044197" y1="184.97166512339345" y2="189.96999836594603" /><path d="M 102.22038585953345 185.97133177190398 a86.0,86.0 0 0,1 -42.740103519485714,-10.115201625700543" fill="none" id="id19" stroke="none" /><text fill="#e1ed5e" style="font-size:6.75px; font-family:Arial;" text-anchor="middle"><textPath startOffset="22.20632615414155" xlink:href="#id19">July</textPath></text><line stroke="#e1ed5e" stroke-width="0.3" x1="58.666819895761336" x2="56.23545636021788" y1="174.27360380694188" y2="178.64263932499728" /><path d="M 58.180547188652646 175.14741091055294 a86.0,86.0 0 0,1 -31.652253787137756,-30.449443065178592" fill="none" id="id20" stroke="none" /><text fill="#e1ed5e" style="font-size:6.75px; font-family:Arial;" text-anchor="middle"><textPath startOffset="22.20632615414155" xlink:href="#id20">August</textPath></text><line stroke="#e1ed5e" stroke-width="0.3" x1="26.63291911575756" x2="22.317208475507996" y1="142.92168965132927" y2="145.44649492493687" /><path d="M 25.769776987707644 143.4266507060508 a86.0,86.0 0 0,1 -11.730757126820373,-40.83630448921669" fill="none" id="id21" stroke="none" /><text fill="#e1ed5e" style="font-size:6.75px; font-family:Arial;" text-anchor="middle"><textPath startOffset="21.46611528233685" xlink:href="#id21">September</textPath></text><line stroke="#e1ed5e" stroke-width="0.3" x1="15.007084014347285" x2="10.007500721073583" y1="101.09737516637583" y2="101.16192664675087" /><path d="M 14.007167355692545 101.11028546245083 a86.0,86.0 0 0,1 10.666146001902534,-42.60595125391555" fill="none" id="id22" stroke="none" /><text fill="#e1ed5e" style="font-size:6.75px; font-family:Arial;" text-anchor="middle"><textPath startOffset="22.20632615414155" xlink:href="#id22">October</textPath></text><line stroke="#e1ed5e" stroke-width="0.3" x1="26.266209847984243" x2="21.928928074336255" y1="57.711370442889674" y2="55.22380399835377" /><path d="M 25.398753493254645 57.213857153982495 a86.0,86.0 0 0,1 29.58750427330803,-30.492523968695096" fill="none" id="id23" stroke="none" /><text fill="#e1ed5e" style="font-size:6.75px; font-family:Arial;" text-anchor="middle"><textPath startOffset="21.46611528233685" xlink:href="#id23">November</textPath></text><line stroke="#e1ed5e" stroke-width="0.3" x1="56.762969772571076" x2="54.21961505331055" y1="26.818313649435495" y2="22.513508569990535" /><path d="M 56.25429882871897 25.957352633546506 a86.0,86.0 0 0,1 42.265352541879196,-11.944610805530505" fill="none" id="id24" stroke="none" /><text fill="#e1ed5e" style="font-size:6.75px; font-family:Arial;" text-anchor="middle"><textPath startOffset="22.20632615414155" xlink:href="#id24">December</textPath></text></svg>