<?xml version="1.0" encoding="utf-8" ?>
<svg baseProfile="full" height="200mm" version="1.1" viewBox="0,0,200,200" width="200mm" xmlns="http://www.w3.org/2000/svg" xmlns:ev="http://www.w3.org/2001/xml-events" xmlns:xlink="http://www.w3.org/1999/xlink"><defs /><rect fill="#1a1a1a" height="200" width="200" x="0" y="0" /><text alignment-baseline="middle" fill="#e1ed5e" style="dominant-baseline: central; font-size:9.0px; font-family:Arial;" text-anchor="middle" x="100.0" y="100.0">2024</text><line stroke="#e1ed5e" stroke-width="0.3" x1="100.0" x2="100.0" y1="15.0" y2="10.0" /><path d="M 100.0 14.0 a86.0,86.0 0 0,1 42.35913384403234,11.155469271406648" fill="none" id="id25" stroke="none" /><text fill="#e1ed5e" style="font-size:6.75px; font-family:Arial;" text-anchor="middle"><textPath startOffset="22.145653131862478" xlink:href="#id25">January</textPath></text><path d="M 100.0 79.0 l 0.0 -55.713087175005455 a76.71308717500546,76.71308717500546 0 0,0 1.3168821509477566,0.011303849449707847 l -0.9563892260989018 55.70487772375018" fill="#41ffd1" stroke="none" /><path d="M 100.72087961077811 79.0123766808444 l 1.076783402885455 -31.349373901260904 a52.367861044352196,52.367861044352196 0 0,0 0.8981692628862213,0.03857125273281486 l -1.6147784263725127 31.326270080102258" fill="#eaff1a" stroke="none" /><path d="M 101.08105385017728 79.02784411241856 l 1.568692512619707 -30.432215665248663 a51.47261961983832,51.47261961983832 0 0,0 0.8820339467017261,0.05306097195006985 l -2.0908708114538954 30.4008027154739" fill="#f8ff18" stroke="none" /><path d="M 101.44090949804482 79.04949213459386 l 2.1037530523671566 -30.588107671089467 a51.66036705265458,51.66036705265458 0 0,0 0.8842065552388592,0.06844317948857187 l -2.628528602381249 30.54748672460584" fill="#f5ff19" stroke="none" /><path d="M 101.80034050326958 79.07731436759882 l 4.4461841567659555 -51.671399497391185 a72.8623377758357,72.8623377758357 0 0,0 1.2452535638350524,0.11792680718042825 l -5.332537283986021 51.587460934705575" fill="#3bff9b" stroke="none" /><path d="M 102.15924093988457 79.11130261209362 l 3.1492743758561117 -30.466372794998417 a51.62870876119729,51.62870876119729 0 0,0 0.8807958474212094,0.09869501186787409 l -3.6718061248781177 30.40782202262357" fill="#f5ff19" stroke="none" /><path d="M 103.23170211078529 79.25015418208739 l 4.878902865482921 -31.326056285163734 a52.70371422329036,52.70371422329036 0 0,0 0.8927569915183928,0.14690282322047346 l -5.415937360054384 31.23768746344759" fill="#e5ff1a" stroke="none" /><path d="M 103.58742460773223 79.30868818359171 l 5.565720371314518 -32.10159606910973 a53.58051125191173,53.58051125191173 0 0,0 0.9049117285538114,0.16490506113819278 l -6.115966833419383 32.001322834040174" fill="#d7ff1c" stroke="none" /><path d="M 103.94208987418118 79.37332000966035 l 5.613253480183189 -29.370914143465253 a50.90249508411624,50.90249508411624 0 0,0 0.8568671860703942,0.17139743517922407 l -6.116617151784539 29.27022731162317" fill="#fffd17" stroke="none" /><path d="M 104.29559338865022 79.4440306129975 l 12.88678016595065 -61.66790816100754 a84.0,84.0 0 0,0 1.4089503335234634,0.30707416746512495 l -13.943492916093248 61.4376025354087" fill="#4dd2ff" stroke="none" /><path d="M 104.64783097203109 79.52079915486377 l 3.401883257492463 -14.98932532209748 a36.37051343674896,36.37051343674896 0 0,0 0.6076782722346039,0.14341041762521495 l -3.658693683466952 14.928718760826037" fill="#ff0000" stroke="none" /><line stroke="#e1ed5e" stroke-width="0.3" x1="143.13028292997686" x2="145.6673583964461" y1="26.7553504044142" y2="22.446841604673864" /><path d="M 143.63769802327073 25.89364864446614 a86.0,86.0 0 0,1 29.32050498858742,28.57503671076993" fill="none" id="id26" stroke="none" /><text fill="#e1ed5e" style="font-size:6.75px; font-family:Arial;" text-anchor="middle"><textPath startOffset="20.669276256404974" xlink:href="#id26">February</textPath></text><line stroke="#e1ed5e" stroke-width="0.3" x1="172.87174338648825" x2="177.1583165268699" y1="56.24261187166439" y2="53.66864786411523" /><path d="M 173.72905801456457 55.72781907015455 a86.0,86.0 0 0,1 12.242430191666344,42.057860355516425" fill="none" id="id27" stroke="none" /><text fill="#e1ed5e" style="font-size:6.75px; font-family:Arial;" text-anchor="middle"><textPath startOffset="22.145653131862474" xlink:href="#id27">March</textPath></text><line stroke="#e1ed5e" stroke-width="0.3" x1="184.99686870605535" x2="189.99668451229388" y1="99.2704041080226" y2="99.22748670261217" /><path d="M 185.99683186730306 99.26182062694052 a86.0,86.0 0 0,1 -10.086455211305974,41.156179273409016" fill="none" id="id28" stroke="none" /><text fill="#e1ed5e" style="font-size:6.75px; font-family:Arial;" text-anchor="middle"><textPath startOffset="21.40746469413373" xlink:href="#id28">April</textPath></text><line stroke="#e1ed5e" stroke-width="0.3" x1="174.33088141563837" x2="178.70328620479359" y1="141.23008692659167" y2="143.65538615756765" /><path d="M 175.20536237346943 141.71514677278685 a86.0,86.0 0 0,1 -30.301960400862466,31.631185727798858" fill="none" id="id29" stroke="none" /><text fill="#e1ed5e" style="font-size:6.75px; font-family:Arial;" text-anchor="middle"><textPath startOffset="22.145653131862474" xlink:href="#id29">May</textPath></text><line stroke="#e1ed5e" stroke-width="0.3" x1="143.1302829299769" x2="145.66735839644613" y1="173.24464959558577" y2="177.55315839532614" /><path d="M 143.63769802327073 174.10635135553383 a86.0,86.0 0 0,1 -40.68552437913181,11.842963189579606" fill="none" id="id30" stroke="none" /><text fill="#e1ed5e" style="font-size:6.75px; font-family:Arial;" text-anchor="middle"><textPath startOffset="21.407464694133747" xlink:href="#id30">June</textPath></text><line stroke="#e1ed5e" stroke-width="0.3" x1="101.45913802915013" x2="101.54496967792366" y1="184.9874750549273" y2="189.98673829345242" /><path d="M 101.47630435890484 185.9873277026323 a86.0,86.0 0 0,1 -42.54439059252881,-10.42667462771756" fill="none" id="id31" stroke="none" /><text fill="#e1ed5e" style="font-size:6.75px; font-family:Arial;" text-anchor="middle"><textPath startOffset="22.145653131862474" xlink:href="#id31">July</textPath></text><line stroke="#e1ed5e" stroke-width="0.3" x1="58.13341422392154" x2="55.67067388415222" y1="173.97424548756322" y2="178.32567169271397" /><path d="M 57.64086615596768 174.84453072859336 a86.0,86.0 0 0,1 -31.369924170532247,-30.572349798747897" fill="none" id="id32" stroke="none" /><text fill="#e1ed5e" style="font-size:6.75px; font-family:Arial;" text-anchor="middle"><textPath startOffset="22.145653131862474" xlink:href="#id32">August</textPath></text><line stroke="#e1ed5e" stroke-width="0.3" x1="26.387840678322732" x2="22.057713659400548" y1="142.50000000000003" y2="145.00000000000006" /><path d="M 25.521815274538298 143.00000000000003 a86.0,86.0 0 0,1 -11.493303480769221,-40.785679425670985" fill="none" id="id33" stroke="none" /><text fill="#e1ed5e" style="font-size:6.75px; font-family:Arial;" text-anchor="middle"><textPath startOffset="21.40746469413373" xlink:href="#id33">September</textPath></text><line stroke="#e1ed5e" stroke-width="0.3" x1="15.003131293944662" x2="10.003315487706104" y1="100.72959589197737" y2="100.7725132973878" /><path d="M 14.003168132696942 100.73817937305945 a86.0,86.0 0 0,1 10.791469493833604,-42.45332614584628" fill="none" id="id34" stroke="none" /><text fill="#e1ed5e" style="font-size:6.75px; font-family:Arial;" text-anchor="middle"><textPath startOffset="22.145653131862435" xlink:href="#id34">October</textPath></text><line stroke="#e1ed5e" stroke-width="0.3" x1="26.387840678322718" x2="22.05771365940052" y1="57.49999999999999" y2="54.99999999999999" /><path d="M 25.521815274538284 56.99999999999999 a86.0,86.0 0 0,1 29.574782752854787,-30.34633250058573" fill="none" id="id35" stroke="none" /><text fill="#e1ed5e" style="font-size:6.75px; font-family:Arial;" text-anchor="middle"><textPath startOffset="21.40746469413373" xlink:href="#id35">November</textPath></text><line stroke="#e1ed5e" stroke-width="0.3" x1="56.869717070023135" x2="54.33264160355391" y1="26.7553504044142" y2="22.446841604673864" /><path d="M 56.362301976729285 25.89364864446614 a86.0,86.0 0 0,1 42.16139366436587,-11.88097634709845" fill="none" id="id36" stroke="none" /><text fill="#e1ed5e" style="font-size:6.75px; font-family:Arial;" text-anchor="middle"><textPath startOffset="22.145653131862474" xlink:href="#id36">December</textPath></text></svg>