<?xml version="1.0" encoding="utf-8" ?>
<svg baseProfile="full" height="300mm" version="1.1" viewBox="0,0,200,300" width="200mm" xmlns="http://www.w3.org/2000/svg" xmlns:ev="http://www.w3.org/2001/xml-events" xmlns:xlink="http://www.w3.org/1999/xlink"><defs /><rect fill="#222222" height="300" width="200" x="0" y="0" /><text fill="#FFFFFF" style="font-size:12px; font-family:Arial; font-weight:bold;" x="10" y="20">Over 10km Runs</text><text fill="#FFFFFF" style="font-size:4px; font-family:Arial" x="10" y="280">ATHLETE</text><text fill="#FFFFFF" style="font-size:9px; font-family:Arial" x="10" y="290">Tian</text><text fill="#FFFFFF" style="font-size:4px; font-family:Arial" x="120" y="280">STATISTICS</text><text fill="#FFFFFF" style="font-size:3px; font-family:Arial" x="120" y="285">Number: 7</text><text fill="#FFFFFF" style="font-size:3px; font-family:Arial" x="120" y="290">Weekly: 1.0</text><text fill="#FFFFFF" style="font-size:3px; font-family:Arial" x="141" y="285">Total: 91.6 km</text><text fill="#FFFFFF" style="font-size:3px; font-family:Arial" x="141" y="290">Avg: 13.1 km</text><text fill="#FFFFFF" style="font-size:3px; font-family:Arial" x="167" y="285">Min: 12.4 km</text><text fill="#FFFFFF" style="font-size:3px; font-family:Arial" x="167" y="290">Max: 13.8 km</text><polyline fill="none" points="13.0,57.71788225507771 13.15171817591181,58.047623898804886 13.513507672410924,59.125620985170826 13.67689647723455,59.51877117107506 13.700237734999973,59.721687042110716 13.793602766352706,60.00069597127731 13.805273395322729,60.127518061199225 13.945320942322724,60.45725505441078 14.038685973617248,60.88844862388214 14.167062891705427,61.167455647781026 14.17873352067545,61.332323220485705 14.237086665234528,61.43378010921879 14.377134212234523,61.59864742496575 14.668899935146328,62.435663650918286 14.948995029146317,63.08244610816473 15.030689431587234,63.17121997984941 15.509185217204504,63.41217739910644 16.04603414738085,63.615088646503864 16.489518046262674,63.71654417987156 16.711259995645378,63.74190805378021 16.991355089703575,63.90677314251661 17.76161659823265,64.10968380262784 18.006699805497192,64.19845714065013 18.310136157320812,64.26186663955741 18.566889993555378,64.38868556682428 18.78863194299629,64.4774587599386 18.91700886102626,64.54086815532355 19.010373892378993,64.55355003157456 19.34882213099627,64.73109620035393 19.52388156473171,64.78182364326494 20.060730494908057,65.09886982025637 20.317484331084415,64.94668772869045 20.515885022643488,64.88327848385961 20.78430948778987,64.71841433725785 20.982710179348942,64.62964126931911 21.46120596502442,64.33795800723601 21.50788848067168,64.3506398985628 21.65960665658349,64.51550439996936 21.83466609037714,64.6423231390072 22.33650313381804,65.32714270344877 22.54657445428893,65.74564219739113 22.76831640372984,66.07536834952771 22.92003457964165,66.35436690448842 23.340177220699843,66.89968094669166 23.5969310568762,67.12795142443792 23.958720553317107,67.59717311563145 24.28549816296436,68.0410302864475 24.71731143287616,68.75119936204283 25.219148476375267,68.92874116986059 25.61594985955162,69.10628279323282 25.69764426193433,69.15700893747271 25.76766803546343,69.23309812559455 25.80267992214067,69.34723184422182 25.80267992214067,69.6642695517512 25.84936243784614,69.93058077152818 25.861033066757955,70.12080281735689 25.709314890846144,70.36175043809635 25.69764426193433,70.47588340307993 25.74432677758159,70.83096325112274 25.89604495355161,71.05922847817419 25.89604495355161,71.14799820639018 25.84936243784614,71.31285615071829 25.89604495355161,71.37626301003911 26.082775016198866,71.49039529754373 26.257834449992515,71.87083570554387 26.339528852375224,71.98496766276367 26.386211368080694,72.14982479983883 26.43289388366975,72.66975780601206 26.50291765719885,72.85997680336004 26.70131834881613,73.2150516986585 26.79468338022707,73.46867617231328 26.969742813904304,74.07737337370054 26.969742813904304,74.15346037148265 26.934730927168857,74.19150385762623 27.02809595852159,74.1788226965291 27.168143505463377,74.21686617708474 27.284849794697948,74.2041850178357 27.436567970609758,74.24222849273065 27.50659174408065,74.28027195915638 27.63496866216883,74.44512688247778 27.915063756227028,74.68606840755092 28.171817592403386,75.20599369921547 28.346877026138827,75.39620987423405 28.405230170756113,75.42157201490772 28.545277717756107,75.42157201490772 28.907067214197014,75.3454855815944 29.280527339549735,75.32012342964299 29.61897557816701,75.19331261335174 30.015776961343363,74.76215513439092 30.27253079751972,74.62266277598974 30.37756645778427,74.60998164683406 30.669332180696074,74.64802503141982 30.7626972119906,74.58461938575783 30.87940350122517,74.45780802387162 30.98443916143151,74.43244574019627 31.112816079577897,74.43244574019627 31.322887400048785,74.49585144231969 31.38124054466607,74.48317030374892 31.906418845930602,74.26759080460761 32.09314890857786,74.21686617708474 32.36157337366603,74.26759080460761 32.68835098337149,74.3944023076183 32.956775448459666,74.41976459693979 33.22519991354784,74.40708345278108 33.66868381242966,74.24222849273065 33.85541387507692,74.22954733534425 34.33390966069419,74.38172116158239 35.03414739575237,74.53389485228399 36.01448022475233,74.54657598707126 36.7030473308987,74.6987495310168 37.00648368272232,74.66070615773788 37.12318997189868,74.67338728311006 37.368273179163225,74.76215513439092 37.695050788868684,74.93969069860759 37.81175707804505,74.96505290702044 39.18889129027957,75.066501703026 39.93581154092681,75.16795043881575 40.12254160363227,75.1045449860103 40.82277933869045,74.77483625222521 41.0795331748086,74.71143065359502 41.91981845686678,74.40708345278108 42.29327858227771,74.35635886658565 42.433326129219495,74.29295311273017 42.69007996545406,74.06469220410509 43.02852820401313,73.92519927656394 43.238599524484016,73.67157548028626 43.42532958718948,73.60816947242711 43.63540090766037,73.57012585640769 43.68208342336584,73.54476344102295 43.78711908363039,73.31650153332157 44.20726172463037,72.91070183354896 44.40566241624765,72.89802057742781 44.895828830776736,73.02483309649688 44.98919386212947,73.01215184881585 45.05921763560036,72.98678935064527 45.479360276658554,72.6443952570553 45.677760968217626,72.39076956032659 46.03955046465853,72.01033030961116 46.436351847834885,71.6679342599964 46.57639939483488,71.50307665813307 46.996542035834864,71.07190987074864 47.34666090342216,70.80560042931756 47.615085368510336,70.69146768451901 48.43202939268667,70.23493594319734 49.07391398312757,69.7149955303612 49.47071536630392,69.41063943279732 49.75081046036212,69.14432740282791 50.07758807006758,68.76388092586421 50.27598876162665,68.61170209795819 50.42770693753846,68.57365736980864 50.719472660450265,68.57365736980864 51.13961530150846,68.63706524533336 51.384698508773,68.64974681765307 51.93321806786116,68.77656248876883 52.37670196668478,68.83997028901649 52.71515020530205,68.9160596182628 53.205316619889345,68.99214891364682 53.415387940302026,68.99214891364682 53.77717743680114,69.10628279323282 54.13896693318384,69.18237200393924 54.47741517180111,69.20773506663681 54.699157121242024,69.22041659661045 54.95591095741838,69.19505353577551 55.25934730930021,69.10628279323282 55.50443051656475,68.96678581894957 55.77285498165293,68.70047309737129 56.052950075652916,68.34538882307243 56.37972768530017,67.86348755646031 56.76485843962291,67.35622159729246 57.19667170953471,66.69677359938214 57.663496866240166,66.11341363385145 57.7568618975929,65.93586890127335 57.920250702416524,65.79636933913571 58.71385346876923,64.80718735905248 58.94726604712196,64.57891378126806 59.28571428573923,64.16041142999893 59.437432461592834,64.02091041847598 60.07931705209194,63.22194788583147 60.534471579885576,62.72735016018851 60.67451912682736,62.537119884524145 61.65485195588553,61.535236937736045 62.413442835561,60.81235572010337 62.90360925003188,60.241657861639396 63.52215258264914,59.68364033465332 63.62718824285548,59.531453420073376 64.01231899717823,59.125620985170826 64.72422736109002,58.047623898804886 64.86427490809001,57.920800265012076 65.17938188894186,57.54032879869919 65.30775880703004,57.43886959791416 65.54117138532456,57.312045512211625 66.31143289391184,57.00766732239572 66.61486924573546,56.715971048295614 66.94164685544092,56.18330700173101 67.0,56.01843446028943 66.98832937102998,55.878926800884074 66.84828182408819,55.485768238810124 66.48649232764728,55.00383070255339 66.34644478058908,54.85163961912622 66.29976226494182,54.737496217596345 65.89129025279544,54.344335028581554 65.76291333476547,54.116047471310594 65.61119515879545,53.951172934655915 65.40112383832457,53.583375317946775 65.30775880703004,53.32972132778377 65.13269937323639,53.05070150355459 65.02766371297184,52.923874160056585 64.7825805057073,52.416563844439224 64.61919170088368,52.22632208764844 64.25740220438456,51.65559554599167 63.767235789913684,51.13559859228553 63.37043440673733,50.869258076068945 63.38210503564915,50.76779491304478 63.33542251994368,50.64096587449603 62.81024421873735,50.19706349799526 61.876593905326445,49.58828121992701 61.68986384267919,49.512183282582555 61.02463799435645,49.15705912672274 60.767884158180095,49.09364402122446 60.37108277500374,48.916081600487814 59.09898422303377,48.763885092921555 58.702182839857414,48.649737623287365 58.02528636268107,48.59900539003138 56.636481521476526,48.370710154034896 56.54311649012379,48.3326609183714 56.14631510694744,47.952168095478555 56.06462070456473,47.77460448804777 55.86622001300566,47.55899128796591 55.13097039121203,46.98824915026489 54.58245083206566,46.45555476764275 54.17397881997749,46.08774100989103 53.98724875727203,45.8974922036723 53.84720121027203,45.7960260870459 53.68381240544841,45.5930936729128 53.287011022213846,45.26332798565272 52.77350334991934,44.93356166158628 52.36503133777296,44.74331156958942 51.90987681003753,44.578427985092276 51.629781715979334,44.578427985092276 51.37302787986118,44.62916141268215 50.917873352067545,44.65452812080912 49.809163604921196,44.90819499491772 49.34233844827395,45.04771161505778 48.42035876377486,45.250644677260425 48.15193429868668,45.314061209748616 47.5217203371576,45.580410388996825 46.84482385998126,45.74529300611175 46.62308191054035,45.82139262185956 46.459693105658516,45.84675915291882 46.19126864057034,45.9355419818894 45.981197320099454,45.97359175160818 45.07088826451218,46.25262313718849 44.5106980765122,46.3667722090031 42.90015128592495,46.87410049387836 42.07153663277859,47.05166503756482 41.63972336286679,47.19117990664381 41.196239464043174,47.24191255804908 40.61270801816136,47.35606096863921 40.134212232602295,47.36874412065663 39.912470283103175,47.34337781566137 38.34860600816319,47.53362501123047 36.74972984654596,47.63509009552945 36.457964123634156,47.63509009552945 34.96412362222327,47.44484301299963 34.40393343422329,47.318011506911716 34.03047330881236,47.330694661752204 33.89042576181237,47.29264519439312 33.4819537497242,47.19117990664381 33.24854117137147,47.10239773041394 33.015128593018744,47.064348212166806 32.70002161228331,46.82336773320276 32.39658526040148,46.68385256364127 31.696347525401507,46.48092120447836 31.322887400048785,46.341405755170854 30.13248325046152,45.85944241700054 29.653987464902457,45.707243185519474 29.15215042140335,45.49162737542065 28.708666522579733,45.32674451339699 28.533607088786084,45.28869459957059 27.564944888697937,45.14917817628884 27.30819105252158,45.1999114342907 27.098119731992483,45.21259474646649 27.00475470063975,45.26332798565272 26.92306029825704,45.39016101762536 26.54960017290432,45.71992646000581 26.43289388366975,45.96090849596658 26.386211368080694,46.18920695321867 26.39788199699251,46.404821882606484 26.351199481345247,46.70921896661457 26.362870110198855,47.013615508025396 26.269505078846123,47.34337781566137 26.234493192110676,47.622406963288086 26.281175707816146,48.12973151828919 26.246163821022492,48.3326609183714 26.281175707816146,49.00486283394275 26.257834449992515,49.195108178741066 26.141128160757944,49.65169614179467 26.07110438728705,49.77852591490955 25.499243570375256,50.66633168976114 25.137454073876143,51.693644041442894 25.137454073876143,51.858520757072256 25.020747784757987,52.37851551003405 25.032418413669802,52.84777770876826 25.125783445022535,53.45654836994072 25.31251350766979,53.73556753124285 25.405878538964316,53.925807607214665 25.755997406551614,54.3950655554072 25.931056840287056,54.68676579244493 26.012751242727973,54.87700480912463 26.129457531904336,55.25748220690002 26.106116274022497,56.15794200570963 25.98940998490434,57.37545756682812 26.001080613816157,58.44077656530135 25.954398098168895,58.74515220194007 25.91938621137524,59.32853732310468 25.872703695727978,59.44267765729455 25.779338664375246,59.48072441841941 25.674303004110698,59.4934066702408 25.405878538964316,59.42999540173332 25.020747784757987,59.290490528117516 24.65895828831708,59.0368450115493 24.052085584611632,58.51687052530178 23.80700237734709,58.26322386022366 23.433542251994368,58.03494153964857 23.15344715799438,57.79397653705382 22.698292630258948,57.464234403771115 22.511562567495275,57.35009274780168 21.974713637377135,56.84279557647824 21.484547222789843,56.462321709419484 21.192781499878038,56.18330700173101 20.52755565161351,55.66332383049303 20.02571860817261,55.206751936129876 19.757294143084437,55.05456103353936 19.52388156473171,54.87700480912463 19.31381024426082,54.77554402659007 19.22044521284988,54.78822662768653 18.76529068511445,54.9784655313706 18.578560622467194,55.01651328668231 18.33347741520265,55.14333907653054 18.170088610379025,55.27016477222787 17.995029176585376,55.30821246256528 17.56321590661537,55.47308568948938 17.294791441527195,55.62527621923073 16.921331316174474,55.777466613435536 16.57121244870359,55.980386928116786 16.39615301490994,56.09452949916886 16.057704776292667,56.22135448871995 15.847633455821779,56.28476694819983 15.672574022086337,56.386226834365516" stroke="#4dd2ff" stroke-linecap="round" stroke-linejoin="round" stroke-width="0.5"><title>2023-02-12 13.0km</title></polyline><polyline fill="none" points="186.24590163934045,48.990665726800216 185.16393442614935,48.95503598669893 184.63934426219203,48.990665726800216 183.26229508197866,49.489481809781864 182.54098360647913,49.59637090296019 181.95081967208534,49.810149017954245 181.32786885241512,49.845778694492765 180.63934426230844,49.77451933876728 179.98360655736178,49.810149017954245 177.36065573769156,50.558371670456836 176.3114754097769,50.98592694819672 175.36065573757514,51.27096358840936 174.213114754064,51.69851823124918 173.95081967196893,51.91229540994391 173.29508196713869,52.624885317578446 173.16393442626577,52.66051478518057 171.393442622968,53.266215329873376 170.1147540983511,53.80065635225037 169.45901639340445,53.94317385769682 168.9016393442871,54.26383809023537 167.0,55.118941662920406 166.606557377032,55.22582950236392 165.9180327868089,55.29708804877009 165.62295081967022,55.368346584640676 164.83606557373423,55.79589757754002 163.52459016395733,56.25907738992828 163.0,56.579740075278096 162.0163934425218,56.72225675548543 160.77049180318136,57.114177408016985 159.72131147538312,57.25669392955024 158.24590163922403,57.54172684569494 157.4918032786809,57.54172684569494 154.9016393441707,58.00490497346618 153.29508196713869,58.076163107238244 152.67213114746846,57.89801775288652 151.9180327868089,58.11179217026802 151.7213114752667,58.2899374452536 151.68852459010668,58.39682457857998 151.7213114752667,58.539340719318716 152.1147540983511,59.2162918097747 152.27868852450047,59.67946832161397 152.3114754097769,60.14264438650571 152.18032786878757,60.89085093169706 151.98360655736178,61.1402528542676 151.2950819672551,61.35402582763345 150.2131147539476,61.95971540178289 149.72131147538312,62.529775479313685 149.45901639340445,63.06420618703123 149.39344262285158,63.42049299491919 149.39344262285158,64.1330658174993 149.5901639343938,66.0213786814711 149.72131147538312,66.80520448109019 149.72131147538312,66.94771812536055 149.65573770483024,67.05460333076189 149.06557377055287,67.44651554696611 148.83606557373423,67.5177722791559 147.26229508197866,67.83842744320282 141.26229508186225,69.26355891415733 137.6885245902231,70.15426393502275 136.96721311472356,70.36803289409727 135.9836065574782,70.58180175800226 135.4918032786809,70.75994240530417 135.393442622968,70.72431428107666 135.32786885253154,70.65305802488001 135.393442622968,70.54617362064891 135.5901639345102,70.4392891926691 137.65573770494666,69.86923850813764 148.18032786878757,67.33963042878895 150.34426229505334,66.84083289612317 150.5081967212027,66.87646130847861 150.54098360659555,66.94771812536055 150.3114754097769,67.09023172722664 141.26229508186225,69.29918714676751 139.26229508197866,69.83361031793174 135.819672131096,70.61742989276536 135.42622950812802,70.79557052673772 135.32786885253154,70.75994240530417 135.2950819672551,70.6886861542298 135.45901639340445,70.54617362064891 137.393442622968,69.97612306306837 147.13114754087292,67.55340064133634 150.24590163934045,66.84083289612317 150.4754098361591,66.87646130847861 150.37704918032978,67.01897493159049 150.04918032779824,67.1614885123563 146.9016393442871,67.90968411730137 146.57377049175557,67.94531245026155 146.08196721307468,67.90968411730137 145.75409836065955,67.98094078074791 144.77049180318136,68.23033901953022 144.21311475418042,68.55099370749667 143.8852459016489,68.65787855596864 137.4918032786809,70.15426393502275 135.4918032786809,70.6886861542298 135.32786885253154,70.6886861542298 135.26229508186225,70.61742989276536 135.42622950812802,70.47491733793868 136.3114754097769,70.29677658504806 137.55737704923376,69.9048666957824 139.72131147549953,69.40607182859094 149.68852459010668,66.98334652974154 150.4098360654898,66.80520448109019 150.5081967212027,66.84083289612317 150.5081967212027,66.91208971827291 150.3114754097769,67.05460333076189 149.55737704923376,67.26837367017288 145.42622950812802,68.23033901953022 143.26229508197866,68.8003916501475 138.4098360656062,69.97612306306837 137.4918032786809,70.11863576597534 136.0163934425218,70.47491733793868 135.75409836065955,70.58180175800226 135.36065573757514,70.79557052673772 135.22950819681864,70.79557052673772 135.13114754098933,70.75994240530417 135.06557377055287,70.65305802488001 135.0983606557129,70.54617362064891 135.32786885253154,70.4392891926691 136.27868852461688,70.22552026528865 138.4098360656062,69.6554693269718 139.65573770483024,69.40607182859094 150.01639344263822,66.87646130847861 150.4098360654898,66.80520448109019 150.606557377032,66.87646130847861 150.37704918032978,67.01897493159049 149.9180327868089,67.1614885123563 139.26229508197866,69.72672573127784 136.96721311472356,70.22552026528865 135.786885245936,70.54617362064891 135.26229508186225,70.83119864555192 135.16393442626577,70.79557052673772 135.06557377055287,70.72431428107666 135.06557377055287,70.61742989276536 135.13114754098933,70.54617362064891 135.72131147538312,70.58180175800226 135.95081967208534,70.51054548061802 137.2295081965858,70.11863576597534 138.4098360656062,69.94049488077872 138.99999999988358,69.58421291213017 140.57377049175557,69.15667420058162 145.0,68.15908239301643 148.8032786884578,67.1971169009339 149.52459016395733,67.05460333076189 149.52459016395733,67.1614885123563 149.22950819670223,67.30400205083424 148.50819672143552,67.5177722791559 137.5245901638409,70.11863576597534 135.786885245936,70.54617362064891 135.2950819672551,70.83119864555192 135.16393442626577,70.75994240530417 135.13114754098933,70.58180175800226 135.32786885253154,70.4392891926691 137.55737704923376,69.94049488077872 139.68852459010668,69.40607182859094 140.47540983604267,69.40607182859094 142.04918032791466,69.08541771169985 143.03278688516002,68.6222502758319 147.5901639343938,67.5177722791559 148.96721311483998,67.12586012110114 149.06557377055287,67.12586012110114 149.09836065559648,67.1971169009339 148.86885245901067,67.37525880421163 147.95081967220176,67.62465735766455 136.08196721307468,70.47491733793868 135.65573770483024,70.61742989276536 135.0983606557129,70.97371109461528 134.96721311472356,70.93808298633667 134.86885245901067,70.86682676180499 134.83606557385065,70.72431428107666 134.83606557385065,70.61742989276536 135.0983606557129,70.4392891926691 136.0163934425218,70.29677658504806 137.45901639352087,69.9048666957824 140.4098360654898,69.19230244110804 142.18032786878757,68.8003916501475 146.213114754064,67.80279910220997 148.37704918032978,67.30400205083424 148.77049180329777,67.26837367017288 148.77049180329777,67.33963042878895 148.7049180327449,67.44651554696611 148.47540983604267,67.5177722791559 145.0,68.26596732874168 136.3114754097769,70.40366104475106 135.72131147538312,70.58180175800226 135.13114754098933,70.86682676180499 134.93442622956354,70.83119864555192 134.63934426230844,70.61742989276536 133.91803278692532,69.51295648657833 133.8852459016489,69.29918714676751 133.95081967220176,69.26355891415733 134.180327868904,69.44170005060732 134.83606557385065,70.33240474088234 135.06557377055287,70.4392891926691 135.36065573757514,70.4392891926691 139.91803278692532,69.33481537672924 140.4098360654898,69.26355891415733 140.93442622944713,69.29918714676751 141.5245901638409,69.19230244110804 141.786885245936,69.12104595746496 142.37704918021336,68.76476338063367 144.86885245901067,68.12345407588873 150.0819672131911,66.87646130847861 150.5081967212027,66.84083289612317 150.57377049175557,66.91208971827291 150.54098360659555,66.98334652974154 150.44262295076624,67.05460333076189 150.24590163934045,67.09023172722664 135.8852459017653,70.54617362064891 135.52459016395733,70.6886861542298 135.393442622968,70.83119864555192 135.2950819672551,71.04496730319806 135.1967213114258,71.11622350133257 134.96721311472356,71.04496730319806 134.83606557385065,70.86682676180499 133.98360655736178,69.6198411208461 133.45901639340445,68.65787855596864 133.0983606557129,67.66028571189963 133.0,67.41088717695675 133.0,67.26837367017288 133.0983606557129,67.1971169009339 133.16393442626577,67.23274528683396 133.22950819670223,67.33963042878895 133.62295081967022,68.5153654194728 134.180327868904,69.58421291213017 134.8032786884578,70.33240474088234 135.06557377055287,70.47491733793868 135.1967213114258,70.51054548061802 140.1147540983511,69.33481537672924 142.04918032791466,68.8003916501475 145.95081967208534,67.83842744320282 148.31147540989332,67.33963042878895 149.29508196713869,67.05460333076189 150.34426229505334,66.87646130847861 150.27868852461688,66.98334652974154 150.04918032779824,67.12586012110114 135.9836065574782,70.51054548061802 135.45901639340445,70.6886861542298 135.36065573757514,70.72431428107666 135.2950819672551,70.65305802488001 135.32786885253154,70.54617362064891 135.55737704911735,70.40366104475106 142.37704918021336,68.76476338063367 143.45901639340445,68.55099370749667 149.65573770483024,66.91208971827291 149.72131147538312,66.69831922015874 149.52459016395733,65.80760778664262 149.29508196713869,63.74115089600673 149.39344262285158,62.850433975312626 149.62295081978664,62.422889266337734 150.14754098351113,61.888457844470395 151.0,61.38965464726789 151.8852459017653,60.997737485857215 152.18032786878757,60.71270662196912 152.27868852450047,60.14264438650571 152.213114754064,59.394436674920144 152.0163934425218,58.82437287381617 151.7213114752667,58.25430839561159 151.75409836065955,58.11179217026802 151.8852459017653,58.00490497346618 152.70491803286131,57.89801775288652 153.1967213114258,58.00490497346618 153.95081967208534,58.00490497346618 155.29508196713869,57.89801775288652 155.9836065574782,57.75550142177963 157.32786885241512,57.68424324027728 157.88524590153247,57.719872332323575 160.54098360659555,57.07854827097617 161.06557377043646,57.00728998906561 162.70491803286131,56.437223352724686 163.42622950812802,56.11656057217624 164.213114754064,55.938414490490686 165.03278688527644,55.617751376732485 165.75409836054314,55.43960510994657 166.24590163934045,55.22582950236392 166.83606557373423,55.0833123777993 167.39344262285158,54.83390730799874 168.1147540983511,54.620131430681795 169.1967213115422,54.2282087415806 170.24590163934045,53.693768195429584 172.54098360647913,52.90992098438437 174.1147540982347,51.69851823124918 174.77049180318136,51.377852284844266 176.63934426219203,50.879038164479425 177.4918032786809,50.59400129155256 180.08196721307468,49.810149017954245 180.93442622956354,49.703259972360684 181.59016393427737,49.489481809781864 182.213114754064,49.45385210675886 182.9344262293307,49.275703552004416 183.59016393427737,49.24007383309072 184.80327868834138,48.919406244094716 185.39344262285158,48.883776498696534 187.0,48.883776498696534" stroke="#4dd2ff" stroke-linecap="round" stroke-linejoin="round" stroke-width="0.5"><title>2022-12-18 13.0km</title></polyline><polyline fill="none" points="13.0,123.52819920837646 13.22090909088729,123.64822529540106 13.846818181802519,123.7682513022155 14.902272727282252,124.15500122330559 15.11090909090126,124.26169071022014 15.650909090880305,124.46173332748003 15.871818181825802,124.56842263227736 16.117272727249656,124.66177572202287 16.473181818204466,124.76846490807657 16.93954545451561,124.99517921810912 17.099090909061488,125.03518759607687 17.442727272689808,125.23522935221263 17.491818181821145,125.23522935221263 17.63909090909874,125.1152043252514 17.79863636364462,125.04852372004825 17.945909090922214,124.92849856837711 18.400000000023283,124.68844802447711 18.731363636325113,124.56842263227736 19.06272727274336,124.48840565960563 19.099545454548206,124.50174182422052 19.97090909088729,125.541959612543 20.118181818223093,125.87536147562787 20.584545454534236,126.47548327039112 20.71954545454355,126.75553942208353 21.026363636367023,127.19562677876092 21.259545454522595,127.36899422944407 21.701363636297174,127.95577512917225 22.09409090905683,128.55588997679297 22.37636363634374,129.0759878904937 22.400909090880305,129.11599535997084 22.5481818181579,129.1560028205422 22.904090909054503,129.3427041854593 23.431818181823473,129.52940535647213 23.57909090910107,129.6360916528065 23.7018181818421,129.91614287935954 23.7018181818421,129.96948592066474 23.615909090905916,130.12951494959998 23.664999999979045,130.59626547004154 23.65272727276897,130.64960830952623 23.493181818223093,130.80963673283986 23.45636363630183,131.06301477841043 23.45636363630183,131.30305680788297 23.65272727276897,131.5697697979631 23.65272727276897,131.67645488318522 23.554545454564504,131.83648239226022 23.56681818177458,131.87648924728273 23.664999999979045,132.02318097278476 23.81227272725664,132.16987257859728 23.93499999999767,132.38324197330803 24.08227272721706,132.5566044200241 24.14363636361668,132.68996003447683 24.26636363635771,133.13003286022285 24.339999999967404,133.29005907516694 24.36454545450397,133.43674964706588 24.49954545451328,133.70345947107126 24.634545454522595,134.2368779318058 24.683636363595724,134.34356143399782 24.72045454540057,134.87697799527086 24.781818181741983,134.97032573074102 24.83090909087332,134.97032573074102 25.01500000001397,134.93031956431514 25.162272727233358,134.98366111758514 25.29727272730088,135.01033188826113 25.554999999934807,134.95699034295103 25.591818181797862,134.97032573074102 25.677727272734046,135.18369180124137 25.87409090908477,135.47706973466848 25.960000000020955,135.7171058694803 26.131818181835115,136.03715355067106 26.131818181835115,136.13050068366283 26.193181818176527,136.18384188076016 26.315909090917557,136.19717717755702 26.54909090907313,136.15717128418328 26.868181818164885,136.07715947074757 27.199545454524923,136.13050068366283 27.494090909080114,136.09049477543158 27.69045454543084,135.99714762165968 28.009545454522595,135.62375852178957 28.304090909077786,135.39705761848018 28.45136363635538,135.37038690516783 28.696818181779236,135.3837222623115 28.807272727251984,135.34371618792647 28.929999999993015,135.21036254226055 29.05272727267584,135.1703564292693 29.138636363612022,135.1703564292693 29.40863636363065,135.23703327929252 29.531363636313472,135.22369791129313 29.97318181814626,135.01033188826113 30.120454545482062,134.97032573074102 30.279999999969732,134.9436549541424 30.476363636378665,134.98366111758514 30.832272727275267,135.1170149314421 31.13909090909874,135.15702105626406 31.48272727272706,135.1170149314421 31.81409090902889,134.95699034295103 31.98590909090126,134.93031956431514 32.182272727251984,134.97032573074102 32.46454545453889,135.05033803687547 32.710000000020955,135.09034417658404 32.95545454544481,135.1703564292693 33.13954545452725,135.1970271722239 33.66727272729622,135.23703327929252 34.403636363567784,135.2637040123809 34.73499999998603,135.37038690516783 35.054090909077786,135.4237283278053 35.385454545437824,135.35705154703464 35.508181818178855,135.37038690516783 35.6186363636516,135.41039297365933 35.949999999953434,135.610423182472 36.21999999997206,135.7037705370749 37.09136363636935,135.78378251670802 37.75409090908943,135.9171357369778 38.29409090906847,135.95714168377162 38.5640909090871,135.93047105357982 38.67454545450164,135.90380041941535 39.58272727270378,135.47706973466848 40.62590909091523,135.1170149314421 40.98181818181183,135.07700879767071 41.116818181821145,135.03700265499356 41.362272727245,134.7702948096412 41.73045454546809,134.62360532600724 41.804090909077786,134.54359282998485 41.89000000001397,134.39690316135238 42.024999999965075,134.30355512809183 42.12318181816954,134.25021337303042 42.33181818184676,134.2368779318058 42.45454545452958,134.18353615698288 42.51590909087099,134.02351073746104 42.712272727279924,133.77013686519058 42.95772727270378,133.54343362413056 43.006818181835115,133.53009813047538 43.227727272722404,133.54343362413056 43.681818181765266,133.69012398923223 43.78000000002794,133.6767885064619 44.086818181793205,133.3434011151403 44.209545454534236,133.23671701934654 44.602272727293894,132.82331555000565 45.21590909088263,132.26322171995707 45.89090909087099,131.5697697979631 46.57818181818584,131.12969315209193 47.1795454545063,130.82297242834466 47.43727272725664,130.66294401690539 48.541818181809504,129.79612097852805 49.008181818178855,129.28936095816607 49.37636363634374,129.00930875488848 49.634090909094084,128.96930126169173 49.92863636359107,128.98263709373714 50.18636363634141,129.03598041209625 50.82454545452492,129.12933118116052 51.04545454541221,129.1960102722369 51.487272727245,129.2626893385459 51.60999999998603,129.2626893385459 51.86772727267817,129.35603998984152 52.7022727272124,129.47606218451983 53.009090909094084,129.54274114695727 53.917272727238014,129.6494274353754 54.23636363632977,129.59608429908985 54.57999999995809,129.4493905926356 54.7886363635771,129.38271159556461 54.92363636364462,129.31603257376992 55.230454545409884,129.00930875488848 55.42681818181882,128.76926366191765 55.54954545455985,128.56922583954292 55.78272727271542,128.3025083966786 56.150909090880305,127.8090800838545 56.64181818184443,127.04893111296406 56.81363636365859,126.84889137571736 57.16954545449698,126.35545907172491 58.01636363635771,125.35525429906556 58.37227272725431,124.88849016664608 59.022727272706106,124.16833741264418 59.40318181819748,123.6615615223127 59.94318181811832,123.08810287011147 60.323636363609694,122.59466023938148 61.48954545450397,121.38105232879752 61.94363636360504,120.96762358637352 62.48363636358408,120.39415633646422 62.71681818179786,120.19410919076472 63.68636363634141,119.23387979100517 64.01772727270145,118.83378269313835 64.54545454547042,117.99357588750718 64.80318181810435,117.66015939948556 65.02409090904985,117.46010920962726 65.15909090905916,117.35341568398871 65.46590909088263,117.16670186161355 66.10409090906614,116.91330422087049 66.4231818181579,116.68657971303037 66.61954545450862,116.41984463162953 66.9263636363321,115.96639408436022 66.98772727273172,115.84636286555906 67.0,115.73966838153137 66.95090909086866,115.40624771045987 66.74227272724966,115.15284758662165 66.16545454546576,114.60603557516879 66.04272727272473,114.40598198438238 65.67454545450164,114.05922189926787 65.44136363634607,113.7791459572909 65.18363636365393,113.33902573760133 65.10999999998603,113.1656447489222 65.04863636364462,112.96558955407818 64.9136363635771,112.71218598738778 64.75409090908943,112.31207436483237 64.56999999994878,111.97864733192546 64.33681818185141,111.72524237299513 64.04227272723801,111.19175708036346 63.882727272750344,111.01837401911325 63.784545454604086,110.87166514426644 63.710909090877976,110.77830488880863 63.18318181816721,110.3915261705697 63.17090909089893,110.3515145315032 63.19545454537729,110.31150288353092 63.17090909089893,110.1914678861067 63.10954545455752,110.11144450990832 62.65545454545645,109.75133887586708 62.13999999995576,109.40456980516319 61.89454545453191,109.3645579462318 61.75954545446439,109.31120878714137 61.415909090894274,109.03112544187752 60.961818181793205,108.83106564210902 60.630454545491375,108.63100561957981 60.42181818181416,108.56431889583473 60.164090909063816,108.45762008642487 59.79590909089893,108.33758385002147 58.666818181809504,108.15086065619835 58.507272727263626,108.15086065619835 57.83227272727527,108.01748682749167 57.635909090866335,108.03082421483123 56.875,107.93746248270327 56.384090909094084,107.81742589869827 56.11409090907546,107.77741368621355 56.01590909087099,107.7374014647794 55.62318181816954,107.39062850578921 55.463636363565456,107.1772294290131 55.304090909077786,107.01717995508807 54.9359090909129,106.68374309285718 54.46954545454355,106.31029307226709 53.868181818164885,105.6834287919337 53.4263636363321,105.28330151150294 53.19318181811832,105.01654949596559 52.73909090907546,104.64309600855631 52.23590909090126,104.29631707488443 51.86772727267817,104.08291432131955 51.20499999995809,103.84283592044085 50.947272727265954,103.80282282244298 50.57909090910107,103.84283592044085 50.35818181815557,103.84283592044085 50.14954545447836,103.86951131418755 49.65863636357244,104.00288822333096 49.020454545505345,104.20295340141456 48.774999999965075,104.22962874161021 48.382272727263626,104.32299240125576 48.210454545449466,104.3896806998091 47.73181818181183,104.4830442762177 47.37590909091523,104.5764078040811 46.40636363631347,104.9231861969165 45.854090909066144,105.08323753700824 45.32636363635538,105.17660075284948 44.774090909108054,105.3233142796671 43.792272727238014,105.60340340716357 43.227727272722404,105.73677902862255 42.479090909066144,105.99019243654038 42.18454545451095,106.11023024178576 41.92681818176061,106.16358035169833 41.26409090904053,106.35030561161693 40.23318181821378,106.55036817463406 39.71772727271309,106.68374309285718 39.349545454548206,106.73709303241048 38.772727272706106,106.7904429561022 38.62545454542851,106.81711791201087 38.073181818122976,106.80378043456585 37.15272727271076,106.91048022650648 35.40999999997439,107.07052979557193 34.69818181818118,107.05719233691343 34.133636363607366,107.01717995508807 33.0290909090545,106.81711791201087 32.697727272694465,106.73709303241048 32.50136363640195,106.73709303241048 32.19454545452027,106.68374309285718 32.010454545437824,106.59038066049106 31.715909090882633,106.53703067736933 31.274090909108054,106.40365565021057 31.13909090909874,106.32363058635383 30.967272727226373,106.16358035169833 30.574545454524923,106.00352997440496 30.451818181783892,105.97685489765718 30.022272727277596,105.9235047322436 29.76454545452725,105.8701545510412 28.242727272736374,105.2032759484282 27.23636363632977,104.80314759822795 26.684090909082443,104.61642072972609 26.463181818195153,104.56307016022038 25.960000000020955,104.49638192603015 25.46909090911504,104.37634304209496 25.383181818120647,104.3896806998091 25.199090909096412,104.49638192603015 24.916818181809504,104.50971957485308 24.744999999995343,104.60308308883396 24.622272727254312,104.72312182124006 24.511818181781564,104.8965109596902 24.37681818183046,105.04322471535124 24.229545454494655,105.34998945347616 24.205000000016298,105.65675366763026 24.205000000016298,106.36364312273508 24.09454545454355,106.7904429561022 24.106818181811832,107.68405182236165 24.08227272721706,107.91078769322485 24.168181818153244,108.33758385002147 24.106818181811832,108.87107761991501 23.9840909090708,109.23118501875433 23.75090909091523,109.60462896611716 23.59136363636935,109.79135064863658 23.505454545433167,109.97807213703345 23.39499999996042,110.16479343132232 23.23545454547275,110.48488662709133 23.039090909063816,110.9916996871325 22.928636363591067,111.47183705656789 22.83045454544481,112.33874850074062 22.867272727249656,112.76553413641523 22.95318181818584,113.15230774287193 23.112727272731718,113.44572164746933 23.56681818177458,114.04588495957432 23.76318181818351,114.40598198438238 23.82454545458313,114.56602487483178 23.9840909090708,115.27287926877034 24.008636363607366,115.60630018735537 23.885909090924542,117.39342576354102 23.898181818134617,117.60681270397617 23.861363636387978,117.87354602311098 23.873636363598052,118.22029874596046 23.836818181793205,119.15386044270417 23.79999999998836,119.30056255400996 23.73863636358874,119.40725492338242 23.64045454544248,119.4739376220532 23.431818181823473,119.48727415880421 23.088181818195153,119.3805818369583 22.940909090917557,119.36724529229105 22.744545454508625,119.27388945178245 22.49909090908477,119.08717762526067 21.431363636336755,118.16695221677946 20.89136363635771,117.80686273044557 20.510909090924542,117.51345594871964 20.167272727238014,117.27339549815224 19.516818181844428,116.64656947607 18.976818181748968,116.19311950108386 17.921363636327442,115.36623718834016 17.18499999999767,114.69939384126337 16.865909090905916,114.51267726052902 16.743181818164885,114.51267726052902 16.387272727210075,114.65938316176471 15.871818181825802,114.96613147715107 15.63863636367023,115.07282642059727 15.46681818185607,115.12617386855709 15.27045454538893,115.2862161174271 15.098636363632977,115.33956350201333 14.816363636346068,115.48626872795285 14.583181818190496,115.57962653663708" stroke="#4dd2ff" stroke-linecap="round" stroke-linejoin="round" stroke-width="0.5"><title>2022-12-11 13.0km</title></polyline><polyline fill="none" points="134.0343926860951,121.72508954179648 134.3047453199979,122.50425204365456 134.5750979538425,123.0407225353847 134.69264257722534,123.1556802803243 135.06878537219018,123.3472763512691 135.28036569443066,123.42391471991141 135.53896386589622,123.56441830714175 135.69177187635796,123.6282835361344 136.161950370064,123.66660266216786 136.5616020897287,123.81987908096926 136.85546364827314,123.83265210967511 137.1493252068176,123.90929026219237 137.37265999126248,124.06256646482507 137.81932956032688,124.20306953070394 138.06617326952983,124.38189144860371 138.27775359159568,124.44575637426169 138.60687853721902,124.63735100904887 138.85372224642197,124.70121583991568 139.17109272966627,124.88003724029113 139.44144536356907,125.00776669818151 139.65302568569314,125.05885845482408 139.82934262079652,125.03331257836544 140.0879407923785,124.82894543054863 140.5346103613265,124.57348615449155 140.78145407058764,124.45852935657604 141.00478885503253,124.2797075182607 141.11057901615277,124.26693452271866 141.20461471483577,124.31802649924066 141.41619503701804,124.57348615449155 141.60426643450046,124.86726428924885 141.9333913800656,125.27599825127982 142.5681323465542,126.38723880379985 142.73269481933676,126.5532856265927 142.99129299091874,126.91092439307249 143.16760992602212,127.08974349766504 143.40269917284604,127.38351733764284 143.48498040926643,127.5367904464365 143.99042228999315,128.11156338873843 144.2842838484794,128.73742507655697 144.90727035264717,129.03119610444992 145.20113191124983,129.13337721399148 145.3304309969535,129.22278563510918 145.37744884635322,129.32496663095662 145.3304309969535,129.54210104573576 145.30692207231186,129.84864328267577 145.34218545933254,130.0274593354552 145.40095777105307,130.16795753232145 145.25990422291216,130.3595457978372 145.25990422291216,130.71717665623873 145.27165868523298,130.81935676505964 145.4127122333739,131.0875792620791 145.42446669569472,131.43243614415405 145.47148454509443,131.50907091300178 145.71832825423917,131.73897501493047 145.9181541140424,132.07105817564297 145.98868088808376,132.45423025741184 146.05920766218333,132.59472647373332 146.11797997384565,132.8374014863366 146.40008707012748,133.55265216519183 146.49412276881048,133.94859322752745 146.59991292993072,134.216810849146 146.67043970397208,134.30621663018246 146.79973878973396,134.293444378578 146.9525468001957,134.2040385909204 147.1758815846988,134.33176113051013 147.23465389641933,134.34453337924788 147.32868959510233,134.2806721260131 147.37570744450204,134.293444378578 147.48149760562228,134.45948357532325 147.69307792768814,134.95760020475427 147.77535916416673,135.21304407108983 147.92816717462847,135.5195762104122 147.986939486349,135.5323483710381 148.23378319549374,135.49403188632277 148.45711797999684,135.37908238098316 148.80975185026182,135.40462672212743 149.00957771006506,135.32799368730048 149.29168480628869,135.31522151152603 149.94993469741894,134.9448280015058 150.77274706138996,134.68938373721903 151.17239878105465,134.59997815519455 151.63082281238167,134.54888923031103 152.21854592947057,134.5105725267058 152.51240748801501,134.53611699670728 153.34697431436507,134.53611699670728 153.68785372225102,134.59997815519455 153.80539834569208,134.56166146295436 153.92294296913315,134.42116685182555 154.757509795425,134.59997815519455 155.6626033957582,134.61275038402528 156.14453635184327,134.71492818070692 156.30909882456763,134.79156148839684 156.5206791467499,134.77878927283746 156.7910317805945,134.72770040102478 156.90857640397735,134.7532448388083 157.34349151072092,134.99591680886806 157.5080539835035,135.04700560108176 158.29560296039563,135.12363876099698 158.78929037880152,135.14918314003444 159.49455811927328,135.27690497846925 159.67087505443487,135.28967715708131 159.8236830648966,135.23858843685593 160.11754462344106,135.05977779679233 160.52895080542658,134.85542255212204 160.78754897700856,134.77878927283746 161.69264257728355,134.44671133508382 162.15106660866877,134.3700778739003 162.33913800609298,134.16572181056836 162.44492816721322,134.10186049103504 162.7505441880785,133.9996823305264 162.7975620374782,133.93582094939484 162.90335219854023,133.6420582911378 162.99738789733965,133.53987985772255 163.13844144542236,133.51433523990272 163.31475838052575,133.5271075492783 163.3852851545671,133.48879061825573 163.49107531568734,133.32275048535666 163.71441010013223,133.06730381434318 163.9259904223145,132.9012632749218 164.04353504575556,132.8629462046083 164.1140618197387,132.87571856232535 164.49020461476175,133.01621443466865 164.61950370046543,133.0417591263831 164.70178493694402,133.01621443466865 165.01915542013012,132.8246291257674 165.13670004357118,132.7352225753275 165.53635176323587,132.262644323142 166.0065302568837,131.841154517213 166.6412712233723,131.15144169975247 166.71179799741367,131.03648929485644 166.7235524597927,130.88321930225356 166.7705703091342,130.83212927439308 166.8998693948961,130.75549420416064 167.2172398781404,130.62776901130565 167.66390944714658,130.41063596594904 167.851980844629,130.2318203111936 168.1693513278733,130.04023190353473 168.68654767092085,129.56764625298092 169.1567261646269,129.23555826292431 169.38006094907178,129.01842346144258 169.59164127125405,128.750197740359 169.95602960383985,128.5458350056433 170.0618197649601,128.5202896467381 170.35568132350454,128.50751696585212 170.63778841972817,128.57138036075048 171.16673922509653,128.6480164033128 171.39007400959963,128.699107079432 171.62516325648176,128.71187974607165 171.84849804098485,128.7629704032297 172.29516760993283,128.80128838610835 172.636047017877,128.92901493418321 172.96517196344212,129.00565081754758 173.69394862861373,129.1078319422959 174.24640835879836,129.22278563510918 174.64606007840484,129.22278563510918 174.83413147588726,129.19724037668493 175.15150195913156,129.0950593049929 175.38659120595548,128.95456023246516 175.6569438398583,128.699107079432 175.97431432304438,128.2137450442242 176.0801044841064,128.11156338873843 176.82063561171526,127.14083463630232 177.09098824555986,126.71933228915441 177.27905964298407,126.50219431355072 177.61993905092822,126.01682608343253 177.84327383548953,125.76136857047095 178.25468001741683,125.19936070732365 179.33609055291163,123.97315536323003 179.9473225947586,123.23231873429904 180.24118415330304,122.83635302144103 180.8994340444333,122.12105781144055 182.00435350456974,121.07365588998073 182.38049629953457,120.69045847233792 182.63909447105834,120.39667320759327 182.89769264258211,120.16675395489438 183.9791031780769,119.08102000011422 184.30822812370025,118.63395108646364 184.67261645628605,117.98250573289988 185.1427949499921,117.50988697195135 185.27209403575398,117.39492545544636 185.44841097085737,117.2927373762941 186.0949063996668,117.03726691288466 186.38876795826945,116.82011672078806 186.91771876369603,116.13034370449896 186.98824553773738,115.97706043650396 187.0,115.79822978453012 186.91771876369603,115.55553074534691 186.76491075317608,115.41502061877691 186.4592947323108,115.03181059953931 186.23595994780771,114.87852635288436 186.0949063996668,114.67414714489132 185.9538528515841,114.43144652007322 185.80104484112235,114.26538800061098 185.68350021768128,114.11210307110741 185.5071832825779,113.97159176580317 185.377884196816,113.8183065745834 185.22507618635427,113.43509299900325 185.17805833701277,113.2179382606555 185.0957771005924,113.01355708007759 184.9664780148305,112.83472334787075 184.7901610796689,112.37486432582955 184.59033521986566,112.15770824925858 184.21419242490083,111.5828820175957 183.70875054423232,111.0591497788555 183.3326077493257,110.80367005940934 183.30909882462583,110.73980007026694 183.3443622116465,110.70147806538444 183.30909882462583,110.56096397449437 182.99172834138153,110.27993544843048 182.4392686112551,109.84561773245514 181.01697866787435,109.09194615232991 180.3117109273444,108.84923765245185 179.61819764913525,108.70872204864281 179.1832825424499,108.64485128171509 178.61906835006084,108.58098049103864 178.39573356555775,108.59375465105404 177.5141488899244,108.36381962540327 176.7030909882742,108.2488519972976 176.53852851549163,108.2488519972976 176.49151066615013,108.22330362508364 176.18589464522665,107.96781969406584 175.9860687854234,107.68678693170659 175.69220722687896,107.40575371017621 175.29255550727248,107.12472002953291 174.5402699172846,106.42213381909824 173.87026556377532,105.77064222331683 173.70570309099276,105.55347780972079 173.47061384416884,105.38741072021367 173.07096212456236,105.06805048200476 172.62429255555617,104.78701298192027 172.2363952982705,104.6209451523755 171.83674357860582,104.50597502263554 171.6016543317819,104.4676516289619 171.4253373966203,104.51874948525801 170.89638659125194,104.55707286755205 169.81497605575714,104.838110743367 169.59164127125405,104.85088518135308 169.30953417503042,104.94030622071296 168.41619503701804,105.15747140847088 167.17022202874068,105.60457534348825 166.676534610393,105.71954473892401 166.3591641271487,105.77064222331683 166.10056595562492,105.86006278454443 165.50108837615699,106.01335506701434 165.24249020469142,106.10277550204773 164.6077492381446,106.24329323459824 164.3844144536415,106.26884190090641 163.973008271656,106.39658517557837 163.54984762734966,106.56265129077656 163.3382673052256,106.66484574350761 163.24423160642618,106.67762004581164 162.99738789733965,106.76704013554263 162.2098389203311,106.94588017550996 161.91597736178664,107.03530012576084 160.9873748368118,107.18859136090032 160.4466695690644,107.31633395250537 160.14105354814092,107.31633395250537 159.8707009142381,107.26523692725459 159.08315193734597,107.38020521272847 158.20156726171263,107.46962493720639 157.6138441445073,107.49517342135368 157.22594688727986,107.55904461519094 156.4736612974084,107.59736732012243 156.0269917284022,107.57181885112368 155.27470613847254,107.4440764492465 154.92207226820756,107.41852795748855 154.24031345237745,107.2780111849861 153.73487157165073,107.22691414834117 153.47627340012696,107.15026856490294 152.92381367000053,107.04807440056175 152.8180235089385,107.00975157327775 152.55942533741472,106.79258872405626 152.17152808012906,106.60097421768296 151.63082281238167,106.48600541135238 151.2899434044375,106.37103652821679 150.8315193731687,106.16664721288544 150.64344797562808,106.11554984611575 149.89116238575662,105.78341659205034 148.41010013059713,105.24689228845818 147.363952982123,105.02972721357946 146.9525468001957,105.01695278887928 146.62342185463058,105.10637374190264 146.40008707012748,105.1446969932731 146.32956029602792,105.22134347035899 146.20026121032424,105.54070342391788 146.2237701349659,105.61734972456179 146.10622551158303,105.87283714664227 146.01218981278362,106.83091159972537 145.89464518940076,107.54627037834143 145.9181541140424,108.65762543700112 145.81236395298038,109.33465430975775 145.6830648672185,109.71787701906578 145.5537657815148,109.9222621149238 145.40095777105307,110.25438737784862 145.2363952982705,110.47154585691169 144.9660426643677,111.04637580187409 144.8249891162268,111.44236864664708 144.7309534175438,111.88945624683402 144.7309534175438,112.08106486266479 144.6956900305231,112.33654268518148 144.6956900305231,112.86027103528613 144.80148019158514,113.33290256805776 144.98955158900935,113.72889014994144 145.61253809317714,114.63582601636881 145.70657379197655,114.89130004531762 145.78885502828052,115.3000577026396 145.71832825423917,115.75990890635876 145.6830648672185,116.50077770513599 145.71832825423917,117.45879297411011 145.6478014801978,117.82922411483014 145.65955594251864,118.07191994706227 145.57727470615646,118.69781814521411 145.58902916847728,119.25984724036243 145.49499346973607,119.4131275841064 145.38920330867404,119.46422100166092 145.22464083589148,119.46422100166092 144.97779712668853,119.40035422732763 144.6016543317819,119.27262060757494 143.9669133652351,118.74891177518293 143.39094471052522,118.21242790401448 143.05006530258106,118.02082611608785 142.82673051813617,117.84199758818431 142.69743143231608,117.77813021180918 142.5328689594753,117.62484841165133 142.1567261646269,117.34383142343722 141.36917718761833,116.61573981904075 140.92250761867035,116.28362683599698 139.38267305184854,114.96794218002469 139.17109272966627,114.81465787647176 138.92424902046332,114.71246826488641 138.8302133217221,114.738015673458 138.55986068787752,114.85297896516568 138.12494558119215,115.14677369494166 137.84283848502673,115.3000577026396 137.50195907708257,115.38947331072995 137.17283413145924,115.60662530835543 136.82020026125247,115.72158801968908 136.54984762734966,115.90041875127645 136.32651284284657,115.96428682465921 136.0208968219813,116.11757010404835 135.0335219851695,116.47523055829515 134.64562472794205,116.70515474343847 134.4810622551595,116.75624896505906 134.2224640835775,116.85843736281095 133.75228558992967,117.20332275725377 133.2703526339028,117.36937844133354 133.0,117.52266046905424 133.05877231172053,117.44601947226329 133.14105354814092,117.39492545544636 133.89333913801238,117.07558750659518 133.74053112760885,117.21609627708676 133.43491510668537,117.33105791310663" stroke="#4dd2ff" stroke-linecap="round" stroke-linejoin="round" stroke-width="0.5"><title>2022-12-04 13.0km</title></polyline><polyline fill="none" points="13.074792243773118,183.2513354052644 13.064107637503184,183.20489101346175 13.032053818751592,183.2165021127148 13.053423031233251,183.23972430860158 13.0,183.23972430860158 13.10684606252471,183.29777978324273 13.074792243773118,183.2281132110802 13.021369212481659,183.2165021127148 13.096161456254777,183.20489101346175 13.032053818751592,183.23972430860158 13.064107637503184,183.2281132110802 13.363276612537447,183.05394664495543 13.502176493871957,182.9146132523747 13.683814800111577,182.7985019970656 13.950929956452455,182.65916837695113 14.22872971900506,182.55466808036726 14.38899881276302,182.4733900236606 14.891175306693185,182.29922261698812 14.987336762947962,182.1947220799193 15.179659675515722,182.1250550163968 15.446774831798393,181.91605363963754 16.0344281757134,181.67221834701195 17.04946576966904,181.31227031550952 17.220419469696935,181.23099161309074 17.573011476022657,181.12649036216317 17.76533438853221,181.10326785249345 19.45350217644591,180.47625878748659 20.126632370403968,180.31370047134988 21.141669964359608,180.15114198626543 22.039176889578812,179.9885833321896 22.263553620898165,179.9073039417708 22.57340720220236,179.87246990438143 23.182429758599028,179.74474503421516 23.609814008697867,179.57057458856434 23.791452314995695,179.47768360492773 23.951721408753656,179.30351286183577 24.28294420259772,178.8390565985319 24.49663632764714,178.4674905946158 24.550059358938597,178.2933187263552 24.539374752610456,178.2120384547743 24.464582508895546,178.10753518635465 24.44321329635568,178.0146433335758 24.464582508895546,177.9101399332576 24.560743965150323,177.8520824584557 24.58211317763198,177.80563646307564 24.592797783901915,177.64307537066634 24.432528690085746,177.08572177073802 24.368421052582562,176.92315992985095 24.325682627561036,176.65609368149308 24.475267115107272,175.5646007942123 24.528690146340523,174.9491812325432 24.507320933858864,174.82145234067866 24.42184408387402,174.72855853564397 24.368421052582562,174.5776059847267 24.357736446370836,174.24086515363888 24.38979026512243,174.1015239078988 24.453897902625613,174.0202414572268 24.550059358938597,173.9621825380018 24.84922833397286,173.82284104391874 25.127028096525464,173.67188761851867 26.120696477999445,173.17257909613545 26.345073209318798,173.09129616249993 26.4839730905951,172.99840132943064 26.686980609432794,172.9403420307499 27.253264740749728,172.9287301684235 28.06529481592588,173.09129616249993 28.70637119107414,173.27708566300862 29.229916897485964,173.46287494270655 29.45429362874711,173.57899313043163 29.475662841286976,173.61382856992714 29.41155520378379,173.75317025031836 29.41155520378379,173.7996174495056 29.475662841286976,173.8692882224277 30.53343886026414,174.3221474896127 31.33478432922857,174.71694680614746 31.751483973057475,174.85628750336764 32.11476058559492,174.9143460905616 33.0015829046024,175.1349685252644 33.77087455475703,175.34397896571318 33.952512861054856,175.37881401198683 34.98891966755036,175.39042569234152 35.40561931137927,175.36720233074448 35.82231895526638,175.39042569234152 36.07874950527912,175.37881401198683 36.24970320536522,175.34397896571318 36.9335180054768,175.18141531397123 37.863078749447595,175.00723978523456 38.19430154329166,174.9143460905616 38.611001187120564,174.87951094082382 39.26276216853876,174.9027343748603 39.40166204981506,174.92595780540432 39.871784724935424,174.9143460905616 40.08547684998484,174.86789922254684 40.63039176882012,174.82145234067866 41.752275425358675,174.62405293899064 42.40403640671866,174.64727641096397 42.745943806832656,174.58921772458416 43.96398891962599,174.26408868249564 44.89354966359679,174.04346501886903 45.22477245744085,173.9737943235814 45.43846458249027,173.90412359723996 46.036802532617,173.81122924713418 46.43213296396425,173.66027581055823 46.59240205772221,173.53254586570256 46.91294024529634,173.1958027836954 47.1052631578641,173.07968431137851 47.28690146416193,173.01001318657654 48.18440838938113,172.78938775324787 48.63316185196163,172.77777587973105 49.017807677038945,172.8126114977349 49.3490304708248,172.9287301684235 49.637514839705545,173.07968431137851 49.851206964754965,173.25386198752676 50.26790660858387,173.48609858719283 50.51365255238488,173.67188761851867 50.86624455876881,173.90412359723996 51.379105658852495,174.38020627514925 51.58211317763198,174.54277075995924 52.19113573402865,175.25108547112904 52.885635140468366,175.9245620565489 53.11001187172951,176.0871249356569 53.94341115944553,176.53997777907352 54.30668777204119,176.7257631815737 54.50969529082067,176.77220949770708 55.01187178475084,176.98121774959145 55.27898694103351,177.05088710476412 55.86664028489031,177.09733332434553 56.229916897485964,177.08572177073802 56.50771666003857,177.09733332434553 56.70003957260633,177.13216797992936 57.04194697266212,177.22506035697006 57.415908191527706,177.38762188395776 58.516422635526396,177.93336291713058 58.772853185539134,178.08431222834042 59.050652948149946,178.2817072615435 60.225959635863546,179.3964039489656 60.67471309850225,179.84924720846175 61.04867431730963,180.31370047134988 61.10209734860109,180.32531178525824 61.25168183614733,180.25564388895873 61.305104867438786,180.25564388895873 61.33715868619038,180.27886652450252 61.593589236203115,180.65042822439864 61.753858330019284,180.75492979341652 61.77522754250094,180.87104256598104 61.83933518000413,180.9523214555229 62.08508112380514,181.24260285886703 62.234665611351375,181.38193774111278 62.39493470516754,181.49805004816153 62.50178076769225,181.5328837234265 62.71547289274167,181.56771739097894 62.907795805251226,181.55610616931517 63.27107241784688,181.43999390538374 63.57024139293935,181.27743659107364 63.80530273047043,181.05682282279304 64.08310249302303,180.7200959448528 64.2433715868392,180.69687337480718 64.2754254055908,180.6620395132777 64.47843292442849,180.37175703224784 64.5211713493918,180.33692309830803 64.63870201818645,180.32531178525824 64.7241788681713,180.23242124993703 65.08745548076695,179.74474503421516 65.25840918079484,179.45446085036383 65.53620894340565,179.0596734955907 65.73921646212693,178.8158337491477 65.9635931935045,178.4442676900362 66.2093391373055,178.11914666407392 66.40166204987327,177.73596744416864 66.48713889985811,177.46890258407802 66.57261574990116,177.34117575065466 66.6901464186376,177.1205564289121 66.77562326868065,176.79543265060056 66.85041551245376,176.31935732689453 66.95726157497847,175.82005725930503 66.98931539367186,174.87951094082382 66.94657696870854,174.48471203479858 66.80767708743224,173.91573538712692 66.70083102490753,173.57899313043163 66.26276216853876,172.6732689790806 66.2413929560571,172.58037389761012 66.23070834978716,172.24362876467058 66.16660071222577,172.1971811031981 66.14523149980232,172.22040493565146 66.15591610601405,172.3713597625465 66.3802928373334,172.85905897637713 66.73288484365912,173.5093222281721 66.88246933120536,174.066688577077 66.95726157497847,174.4150415361364 67.0,175.03046320026624 66.98931539367186,175.85489219948067 66.86110011866549,176.31935732689453 66.8290462999139,176.62125891982578 66.75425405614078,177.0044408714166 66.66877720615594,177.1786141753546 66.50850811233977,177.41084494547977 66.44440047483658,177.61985234364693 66.31618519983022,177.89852843999688 66.2093391373055,178.04947778482165 66.11317768099252,178.3049301902647 65.9315393747529,178.50232494498778 65.69647803716362,178.87389086613257 65.25840918079484,179.40801533096237 64.92718638700899,179.91891528583074 64.67075583687983,180.2672552071599 64.63870201818645,180.30208915661206 64.489117530582,180.30208915661206 64.33953304309398,180.5227039896563 64.11515631183283,180.6852620885038 63.98694103676826,180.90587638095894 63.55955678666942,181.30065907489916 63.23901859903708,181.47482759361446 63.05738029279746,181.5328837234265 62.854372774017975,181.5793286117696 62.71547289274167,181.56771739097894 62.57657301140716,181.5444949468074 62.30945785512449,181.4167714422656 61.999604273820296,181.1729353712144 61.860704392543994,180.998766516248 61.77522754250094,180.83620874329063 61.77522754250094,180.65042822439864 61.90344281750731,180.49948139028857 62.24535021762131,180.20919860748108 62.56588840519544,180.06986268034962 62.54451919265557,180.12791933174594 62.405619311437476,180.2440325698699 61.080728136061225,181.18454662132717 60.94182825484313,181.26582534787303 60.84566679853015,181.2542141037993 60.77087455475703,181.19615787053772 60.30075187969487,180.53431528800866 60.1404827858787,180.38336834183428 59.96952908585081,180.16275331222278 59.41392956068739,179.79119045361585 59.15749901061645,179.66346551703464 59.14681440440472,179.60540869321267 59.25366046692943,179.4660722280678 59.18955282942625,179.3615697977657 58.28136129793711,178.7693880400475 57.918084685341455,178.63005082997552 57.39453897898784,178.36298749691923 56.742777997627854,178.09592370777682 56.5184012663085,178.0727007480309 56.3474475662224,178.02625481820724 56.155124653712846,178.02625481820724 55.428571428579744,177.92175142563065 55.19351009099046,177.87530545097252 55.0332409972325,177.87530545097252 54.50969529082067,177.7824134602124 54.328056984522846,177.7708019575075 54.14641867822502,177.72435593800037 53.88998812815407,177.63146385760047 53.4519192717853,177.59662931322237 53.36644242180046,177.5734062793199 53.120696477999445,177.41084494547977 52.885635140468366,177.07411021627195 52.66125840914901,176.86510208858817 51.85991294024279,176.20324117440032 51.432528690085746,175.7619990084204 50.96240601502359,175.32075559724763 50.77008310245583,175.1001334247121 50.438860308611766,174.84467578334443 49.75504550844198,174.4150415361364 49.25286901462823,174.20602985384176 49.08191531454213,174.1595827753772 48.84685397701105,174.14797100362193 48.60110803321004,174.18280631634116 48.526315789378714,174.18280631634116 48.28056984563591,174.29892396934156 47.99208547681337,174.3221474896127 47.56470122671453,174.46148853868362 47.24416303919861,174.47310028715583 46.977047882799525,174.60082946358307 46.69924812024692,174.58921772458416 46.43213296396425,174.69372334452055 46.335971507651266,174.70533507574874 46.21844083891483,174.65888814564096 46.13296398887178,174.67049987944483 45.74831816385267,174.78661717027717 45.03244954487309,175.08852172277693 43.686189157073386,175.42526072823966 43.04511278192513,175.61104745525518 42.19034428172745,175.79683396153268 41.26078353775665,176.1335714415036 40.98298377520405,176.19162955439242 40.651760981359985,176.29613410327875 39.583300356112886,176.53997777907352 38.70716264343355,176.70254001833382 38.19430154329166,176.71415160039032 37.60664819943486,176.7838210745831 36.442026117874775,176.8767136585666 36.2069647803437,176.9115483633359 35.426988523919135,176.96960618735466 34.92481203004718,176.96960618735466 34.401266323635355,176.9115483633359 33.37554412346799,176.7605979199725 33.012267510872334,176.67931685164513 32.84131381078623,176.69092843541875 32.745152354531456,176.65609368149308 32.21092204190791,176.56320096645504 31.76216857932741,176.41225018679688 31.68737633555429,176.3658037637506 31.569845666759647,176.24968764572986 31.270676691725384,176.11034819029737 30.009893153968733,175.71555239219742 28.813217253657058,175.2162503964064 28.236248516011983,174.99562807641632 27.77681044716155,174.85628750336764 27.466956865799148,174.79822889460775 26.71903442812618,174.62405293899064 26.558765334368218,174.64727641096397 26.494657696865033,174.61244120173797 26.13138108426938,174.69372334452055 25.94974277797155,174.79822889460775 25.84289671544684,174.9143460905616 25.768104471673723,175.05368661184912 25.789473684155382,175.12335682593402 25.682627621630672,175.36720233074448 25.671943015418947,175.6458824420115 25.70399683417054,175.85489219948067 25.671943015418947,176.31935732689453 25.59715077158762,176.65609368149308 25.54372774035437,177.06249866096186 25.533043134084437,177.2366719001875 25.607835377915762,177.95658589758386 25.54372774035437,178.4442676900362 25.362089434056543,178.90872512594797 25.073605065292213,179.33834702595777 24.76375148392981,179.96536065351393 24.518005540187005,180.77815235483286 24.44321329635568,181.1497128684423 24.432528690085746,181.60255105076067 24.49663632764714,182.20633325415838 24.731697665236425,182.63594609484426 25.11634349025553,183.14683550436166 25.244558765320107,183.40227958328614 25.340720221574884,183.6693343105726 25.394143252866343,184.18022034442401 25.40482785907807,184.96976820514828 25.340720221574884,185.75931208013208 25.35140482778661,186.02636278291175 25.2766125840717,187.059728597902 25.287297190341633,187.23389070344274 25.244558765320107,187.4544957587641 25.255243371531833,187.6518789655529 25.148397309007123,187.76798661790963 25.00949742773082,187.80281889681646 24.699643846426625,187.76798661790963 24.379105658852495,187.6286574247206 23.876929164980538,187.19905829784693 23.64186782744946,187.02489615353988 23.278591214795597,186.67657128312567 23.10763751482591,186.58368452001014 22.904629996046424,186.4559651306481 22.733676295960322,186.29341302973626 22.562722595932428,186.21213691592857 22.338345864613075,185.9915301084111 22.178076770855114,185.91025383773376 22.039176889578812,185.75931208013208 21.95370003953576,185.712868433111" stroke="#4dd2ff" stroke-linecap="round" stroke-linejoin="round" stroke-width="0.5"><title>2022-11-26 13.8km</title></polyline><polyline fill="none" points="133.7283818537835,207.0 133.5880170194432,206.84746362472652 133.7283818537835,206.8983090869733 134.00911152223125,206.49154528370127 134.00911152223125,206.5932362570893 133.63480529747903,206.74577268899884 133.5880170194432,206.4406997912447 133.63480529747903,206.74577268899884 133.82195840985514,206.79661815887084 135.5531246990431,206.08478123875102 137.0971378760878,205.27125242422335 137.89253860362805,204.71195080352481 139.7172814491205,204.00011171668302 140.6530470107682,203.49165477300994 140.93377667944878,203.28827188990545 142.05669535323977,202.881505942496 142.71173124667257,202.37304816837423 143.13282574922778,202.118819139665 145.47223965381272,201.30528561380925 150.47858540900052,199.32229359581834 153.56661176285706,198.35621848131996 155.43814288638532,197.59352663852042 156.74821467278525,197.23760348802898 160.07018241705373,195.96644786873367 161.28667764738202,195.61052387254313 162.7839025463909,195.2545996911358 171.3461574362591,193.78005468391348 172.70301750092767,193.3732830886147 176.68002113816328,192.55973917321535 179.11301159881987,191.54280791972997 180.09556543873623,190.729261829576 181.77994344988838,188.44115826912457 182.7157090115361,186.81405775231542 182.9028621239122,186.30558804789325 182.85607384587638,185.797117965878 182.43497934308834,185.23780043970328 182.38819106505252,184.83102376997704 182.43497934308834,184.67848245654022 183.0900152362883,184.17001116625033 183.13680351432413,183.25476189225446 182.06067311833613,179.54290507308906 182.0138848403003,178.5768020527903 182.24782623071223,176.13611466629663 182.62213245546445,174.25474553462118 182.80928556784056,171.81404274125816 182.85607384587638,169.9326617330662 183.0432269582525,168.20382057281677 183.0900152362883,168.0512755549862 183.4175331830047,167.74618541728705 185.99088847776875,166.27158116863575 186.27161814644933,165.96649023791542 186.36519470252097,165.610550646903 186.22482986818068,165.2037623162032 185.66337053128518,164.28848768863827 185.00833463785239,163.5766065767384 184.58724013506435,162.81387599243317 183.93220424186438,161.03416799136903 183.4175331830047,159.0510593401268 182.85607384587638,157.77983282430796 181.6863668935839,156.15265943936538 180.0019888826646,154.37293412123108 178.4579757056199,153.30509670934407 177.99009292479604,153.20339782134397 177.00753908487968,153.15254837163957 176.44607974775136,153.20339782134397 175.88462041085586,153.4576450130553 175.32316107372753,153.9152897199965 174.7149134585634,154.98312618007185 173.6855713406112,156.05096097441856 173.35805339412764,156.3052071084967 171.95440505142324,156.91539744503098 170.12966220616363,157.5255872377893 168.25813108263537,157.8306819301797 165.45083439722657,158.49171996396035 164.37470400123857,158.94936130568385 163.15820877091028,159.71209619543515 162.7839025463909,159.66124722932 162.22244320926256,159.35615335265175 161.0995245350059,159.61039825924672 159.92981758271344,159.71209619543515 158.15186301548965,159.55954928550636 154.97026010556147,158.69511615356896 154.22164765605703,158.13577648665523 153.75376487523317,157.5255872377893 153.47303520678543,156.559453148162 153.47303520678543,155.94926249433775 153.6601883189287,155.33907129667932 154.08128282194957,154.7288795550121 155.53171944245696,153.5084944399423 154.1748593780212,154.678030218638 153.800553153269,155.18652341217967 153.47303520678543,156.45775474363472 153.75376487523317,157.6272854837589 154.36201249039732,158.44087090709945 155.01704838359728,158.89851228275802 157.77755679073744,159.66124722932 158.99405202106573,159.86464307148708 160.0233941390179,159.86464307148708 162.40959632140584,159.61039825924672 163.2049970489461,159.66124722932 163.7196681080386,159.45785132655874 164.65543366991915,158.8476632562233 165.26368128485046,158.59341806633165 168.25813108263537,157.93238013074733 169.61499114730395,157.8306819301797 171.58009882667102,157.16964325809386 172.65622922289185,156.71200072666397 173.63878306234255,156.05096097441856 174.66812518052757,154.98312618007185 175.55710246413946,153.66104269830976 176.72680941643193,153.15254837163957 178.73870537406765,153.55934386322042 179.06622332078405,153.7627415182651 180.32950682914816,154.93227686261525 182.24782623071223,157.2204924094258 182.6689207337331,157.8306819301797 183.27716834866442,159.10190835164394 183.74505112948827,161.18671457277378 184.25972218858078,162.457934762293 185.8973119216971,164.6952765629394 186.31840642425232,165.7122476916993 186.22482986818068,166.11903572024312 185.8973119216971,166.4241265830933 183.23038007086143,167.94957885757321 182.99643867998384,168.50891050661448 182.9028621239122,171.86489080492174 182.6689207337331,173.44117890350753 182.5285558993928,175.47509366861777 182.1542496746406,177.3056117912056 182.06067311833613,178.62764961412176 182.06067311833613,179.4412100824993 182.38819106505252,180.966633355245 182.94965040194802,182.79713679663837 183.13680351432413,183.5598451195401 183.0432269582525,184.22085831227014 182.57534417742863,184.42424685851438 182.48176762112416,184.67848245654022 182.85607384587638,185.797117965878 182.7157090115361,186.7123638417106 182.20103795267642,187.8818429026287 180.84417788824067,189.81402132299263 179.39374126726761,191.39026810141513 178.3176108712796,191.8478874542634 176.58644458209164,192.50889264635043 174.05987756536342,192.9156647551572 171.43973399256356,193.62751536397263 162.87747910246253,195.20375336444704 161.19310109131038,195.61052387254313 154.5023773247376,197.94944960426074 151.74186891736463,198.81383317901054 149.07493706676178,199.8815996182384 146.6419466061052,200.69513483525952 142.71173124667257,202.3222023700946 141.26129462569952,203.13573468796676 140.18516422971152,203.38996333896648 139.2493986680638,203.7967289846274 138.45399794052355,203.7967289846274 138.82830416527577,203.8475746732438 140.09158767363988,203.54250048432732 142.00990707520396,202.83066018199315 142.89888435904868,202.16966495284578 145.14472170709632,201.2544397364254 147.48413561144844,200.542597055668 150.57216196530499,199.37313961674226 153.0519407039974,198.50875674793497 154.4555890467018,197.94944960426074 160.81879486655816,195.7122164616594 162.73711426812224,195.2545996911358 169.00674353190698,194.08513322181534 171.67367538274266,193.678361807717 172.65622922289185,193.3732830886147 174.15345412143506,193.01735774450935 176.8671742505394,192.50889264635043 178.3176108712796,191.94958060228964 179.39374126726761,191.39026810141513 179.8616240483243,190.9326484426856 180.9377544443123,189.71232785773464 182.10746139660478,187.98353663960006 182.80928556784056,186.66151688055834 182.94965040194802,186.10220006038435 182.9028621239122,185.746270936972 182.57534417742863,185.28864750632783 182.48176762112416,184.93271796003683 182.57534417742863,184.57678822864546 183.0432269582525,184.22085831227014 183.13680351432413,183.61069231084548 182.94965040194802,182.5429005001788 182.38819106505252,180.81409118091688 182.10746139660478,178.4242593460367 182.29461450874805,176.08526691992301 182.9028621239122,172.3733712331159 182.94965040194802,169.8309653151664 183.0900152362883,168.3055172325112 183.27716834866442,167.89873050310416 183.60468629538082,167.59364029747667 186.0844650338404,166.16988420684356 186.31840642425232,165.81394472159445 186.36519470252097,165.15291375789093 185.66337053128518,163.7800012556254 184.35329874465242,161.8985981697333 183.3707449049689,158.8476632562233 182.94965040194802,157.93238013074733 182.24782623071223,156.81369909341447 180.51665994152427,154.62718087836402 179.76804749201983,153.9152897199965 179.25337643316016,153.61019328259863 177.568998422008,153.0 177.14790391921997,153.0 176.25892663560808,153.20339782134397 175.2295845176559,153.96613911312306 174.66812518052757,154.88142754137516 173.35805339412764,156.25435788929462 172.23513471987098,156.86454827117268 170.27002704050392,157.5255872377893 166.29302340280265,158.2374746418791 164.98295161640272,158.64426711190026 162.92426738049835,159.66124722932 162.17565493122675,159.4070023414679 161.0527362569701,159.61039825924672 159.0876285773702,159.71209619543515 157.40325056598522,159.35615335265175 154.92347182752565,158.59341806633165 154.26843593432568,158.08492740330985 153.84734143153764,157.6272854837589 153.56661176285706,156.91539744503098 153.56661176285706,156.15265943936538 153.75376487523317,155.44076986733126 153.98770626587793,154.88142754137516 155.53171944245696,153.40679558221018 154.31522421212867,154.42378348013153 153.70697659719735,155.23737271077698 153.47303520678543,156.25435788929462 153.56661176285706,157.27134155697422 154.03449454391375,158.13577648665523 154.73631871514954,158.64426711190026 155.3913546083495,158.89851228275802 158.66653407458216,159.76294515794143 160.91237142286263,159.76294515794143 162.12886665319093,159.55954928550636 162.97105565853417,159.71209619543515 163.34536188351922,159.61039825924672 165.17010472877882,158.59341806633165 168.3049193606712,157.8306819301797 169.84893253748305,157.7289837144781 172.0011933296919,157.06794494425412 173.35805339412764,156.3052071084967 173.63878306234255,156.05096097441856 174.94885484897532,154.678030218638 175.51031418633647,153.61019328259863 176.53965630405582,153.10169891809346 176.91396252880804,153.0508494609967 178.87907020840794,153.61019328259863 179.25337643316016,153.81359092274215 180.14235371677205,154.678030218638 180.89096616627648,155.59331769507844 181.4524255034048,156.10181020881282 182.43497934308834,157.32219070062274 183.23038007086143,158.89851228275802 183.93220424186438,161.44095879944507 184.25972218858078,162.30538846412674 185.00833463785239,163.37321183725726 186.27161814644933,164.79697374394163 186.4119829805568,165.2037623162032 186.31840642425232,165.76309620862594 185.94410019973293,166.2207326896023 185.00833463785239,166.88176262227353 183.4175331830047,167.69533704785863 183.13680351432413,168.00042720808415 183.0432269582525,168.3055172325112 182.76249728980474,172.11913106625434 182.06067311833613,177.86493579705711 182.06067311833613,179.13612502015894 182.10746139660478,179.54290507308906 182.43497934308834,180.5090067302226 182.5285558993928,181.37341232056497 183.0900152362883,183.5598451195401 183.0432269582525,184.17001116625033 182.7157090115361,184.37339972768677 182.62213245546445,184.67848245654022 182.99643867998384,185.3903416285175 183.0432269582525,185.797117965878 182.57534417742863,187.01744552823948 181.9670965622645,188.288617759943 180.70381305390038,190.06825491960626 179.58089437987655,191.23772824922344 178.03688120259903,192.0512737352401 176.63323286012746,192.50889264635043 173.96630100929178,192.9665112516377 169.70856770314276,193.98344039084623 162.5031728777103,195.2545996911358 159.88302930467762,196.01729413878638 157.5436154003255,196.88168015243718 147.9520183922723,200.1358294772799 143.17961402749643,201.96628167718882 142.15027190954424,202.62727710255422 140.7934118451085,203.18658042571042 140.23195250798017,203.33911761635682 139.4365517804399,203.7458832921111 139.10903383372352,203.7967289846274 138.59436277486384,203.7458832921111 138.5007862187922,203.7967289846274 139.2493986680638,203.7458832921111 140.51268217642792,203.33911761635682 141.02735323552042,203.0848889463814 141.77596568479203,202.881505942496 142.05669535323977,202.77981441782322 142.7585195247084,202.2713565682061 144.34932097955607,201.50866908591706 145.7997576002963,201.10190208134009 152.49048136686906,198.66129498038208 153.4262469287496,198.45791066274978 161.19310109131038,195.61052387254313 163.7196681080386,195.05121436173795 171.25258087995462,193.678361807717 174.38739551207982,192.9665112516377 176.53965630405582,192.61058569618035 178.59834053972736,191.89873403019737 179.3469529892318,191.49196131736971 180.70381305390038,190.06825491960626 181.6395786155481,188.79708599188598 182.80928556784056,186.9665985899628 183.13680351432413,186.05135305412114 182.7157090115361,184.67848245654022 183.18359179259278,184.27170545444824 183.27716834866442,183.86492821096908 182.20103795267642,179.79714248346863 182.10746139660478,178.7801922755898 182.20103795267642,177.15306880132994 182.62213245546445,175.06831119890558 182.94965040194802,171.86489080492174 183.13680351432413,168.35636555671226 183.27716834866442,168.0512755549862 183.46432146104053,167.84788214502623 185.05512291612104,167.0343079006998 186.0844650338404,166.37327811529394 186.27161814644933,166.0681872300338 184.21293391031213,167.44109514373122 183.3707449049689,167.84788214502623 183.0432269582525,168.40721387707163 182.85607384587638,169.8309653151664 182.9028621239122,171.96658692072378 182.34140278678387,176.84798271942418 182.10746139660478,177.91578341135755 182.1542496746406,179.5937525627087 182.9028621239122,182.08527492865687 183.23038007086143,183.96662254451076 183.13680351432413,184.17001116625033 182.76249728980474,184.37339972768677 182.57534417742863,184.62763534439728 182.62213245546445,184.98356504942058 182.99643867998384,185.8988120125723 182.80928556784056,186.7123638417106 182.43497934308834,187.47506780357799 181.49921378144063,188.94962638773723 180.51665994152427,190.22079503245186 179.25337643316016,191.49196131736971 177.84972809045576,192.10212029598188 176.77359769446775,192.40719958144473 169.61499114730395,194.03428680816432 165.3104695631191,194.74613625416532 164.09397433279082,195.0003680199152 163.5325149956625,195.20375336444704 161.0527362569701,195.55967757216422 159.50872308015823,196.16983292641817 158.5729575182777,196.62744908517925" stroke="#4dd2ff" stroke-linecap="round" stroke-linejoin="round" stroke-width="0.5"><title>2022-11-20 13.4km</title></polyline><polyline fill="none" points="13.806183190550655,267.0 14.085335767362267,266.9494402053533 15.434573222650215,266.03936325752875 16.737285248935223,265.3315247906139 17.62126840953715,264.7753654792323 20.738472186028957,263.460805300856 21.203726481180638,263.00576464802725 21.994658782612532,262.80352426011814 22.971692802151665,262.09568242990645 23.76262510358356,261.6912010537344 24.92576084122993,261.2361592183588 25.670167713193223,261.03391830506735 26.693727162433788,260.5283157589147 28.647795201512054,259.92159220803296 30.694914099294692,259.06206625222694 32.369829561561346,258.5564622421516 37.115423370851204,256.9385268869228 41.34923745552078,255.168905690487 49.16550961160101,253.75320542231202 51.02652679174207,253.399279895355 52.37576424749568,252.9442325188429 56.47000204352662,252.23638044006657 57.21440891548991,252.0341368537629 58.00534121715464,251.62964950100286 58.889324377756566,251.32628382876283 59.8198329678271,250.61843006807612 61.12254499364644,249.10159810289042 62.47178244940005,246.5229760070215 62.70440959674306,245.6128717593965 62.564833308337256,245.05669634253718 62.285680731292814,244.3993975368212 62.285680731292814,244.24771310703363 62.797460455680266,243.94434414588613 62.8905113148503,243.38816736615263 61.91347729531117,239.5960408494575 61.82042643614113,238.1803082022234 61.91347729531117,236.76457261113683 62.099579013185576,235.70276898588054 62.518307878635824,232.46678581932792 62.518307878635824,230.74766350607388 62.70440959674306,228.52291053917725 62.797460455680266,228.27009724196978 63.07661303272471,227.96672116144327 64.33279962930828,227.20828036864987 65.72856251429766,226.29815030208556 66.10076595027931,225.74195910681738 66.14729137998074,225.3880190186901 66.05424052104354,224.93295292078983 65.54246079642326,224.0733827946242 64.10017248173244,222.40480239270255 63.49534189840779,221.09016040764982 63.26271475083195,219.8766424758942 62.750935026211664,218.51143221679376 61.866951865609735,216.99452871782705 61.26212128228508,216.13494856806938 60.09898554487154,214.97198546119034 59.40110410214402,214.11240275739692 58.84279894805513,213.6573291218374 57.63313778094016,213.30338275054237 56.609578332165256,213.20225518208463 56.05127317784354,213.3539465292124 55.26034087641165,213.75845662271604 54.93466287013143,214.0618390351883 54.37635771604255,215.123676413903 53.53889998490922,216.03382142010378 52.934069401351735,216.43832992127864 51.63135737529956,217.09565572289284 49.956441913265735,217.65185398241738 46.56008555972949,218.30917861231137 45.164322674507275,218.66312238085084 43.0241529175546,219.77551588392816 42.884576628915966,219.77551588392816 42.23322061588988,219.4215726936236 40.790932301431894,219.67438927694457 39.209067698335275,219.7249525822699 36.65016907546669,219.3204460340785 35.16135533154011,218.81481251103105 34.32389760063961,218.41030542191584 33.67254158761352,217.75298088981071 33.30033815163188,216.74171113938792 33.30033815163188,216.13494856806938 33.486439869506285,215.52818545571063 33.85864330572076,214.97198546119034 35.068304472602904,214.0618390351883 35.44050790858455,213.6573291218374 34.37042303010821,214.61803977342788 33.76559244655073,215.4270582179306 33.53296529920772,216.6405840817606 33.76559244655073,217.65185398241738 34.23084674170241,218.41030542191584 35.02177904336713,218.8653758802102 36.929321652511135,219.47213601780823 38.37160996743478,219.77551588392816 40.18610171787441,219.92720576614374 42.00059346831404,219.67438927694457 42.79152576997876,219.8766424758942 43.070678347023204,219.8260791816865 44.18728865496814,219.11819266993552 45.30389896314591,218.6125589965377 47.444068720098585,218.15748836938292 48.51415359880775,218.00579809275223 49.16550961160101,218.00579809275223 51.538306516362354,217.24734620237723 52.32923881779425,216.89340169774368 53.21322197839618,216.23607570084278 54.46940857497975,214.97198546119034 55.35339173581451,213.70789287419757 55.58601888292469,213.55620160594117 56.33042575488798,213.30338275054237 57.9122903579846,213.55620160594117 58.889324377756566,213.9101478458615 59.9128838267643,214.76973080507014 62.19262987235561,217.2979096880881 62.65788416727446,217.95523465960287 63.216189321363345,219.3204460340785 63.63491818681359,221.14072360791033 64.19322334090248,222.55649168917444 64.84457935392857,223.51718978170538 65.44940993748605,224.12394577322993 65.8681388029363,224.68013829027768 66.14729137998074,225.23633035313105 66.19381680944934,225.69139624823583 66.05424052104354,226.04533617879497 65.9146642324049,226.19702466391027 63.07661303272471,227.7644703660626 62.8439858853817,228.06784653675277 62.70440959674306,228.42178523156326 62.564833308337256,229.78697561682202 62.61135873780586,231.6072252052254 62.285680731292814,234.893774636148 62.099579013185576,236.00614161923295 61.91347729531117,238.33199398382567 61.96000272477977,239.5454790199292 62.750935026211664,242.47805892827455 62.93703674408607,243.69153657503193 62.8905113148503,244.04546714789467 62.42525701969862,244.24771310703363 62.285680731292814,244.44995900598587 62.332206160761416,244.9555734906462 62.65788416727446,245.6128717593965 62.518307878635824,246.37129205022939 61.68085014773533,248.14093611045973 60.471188980853185,249.91057557135355 59.354578672442585,251.1240399722592 58.70322265964933,251.47796668182127 56.609578332165256,252.23638044006657 55.81864603050053,252.4386239661835 54.46940857497975,252.59030657145195 50.37517077871598,253.55096228647744 42.79152576997876,254.9161022871849 39.99999999976717,255.62395158031723 36.88279622327536,256.73628469731193 35.71966048562899,257.24189005891094 33.067711003823206,258.20253921166295 32.090676984516904,258.4553413951071 30.927541246870533,258.8598246932961 29.25262578483671,259.5676698870375 26.647201732965186,260.4271952045383 25.670167713193223,260.88223758054664 23.669574244646356,261.48896027560113 21.529404487693682,262.65184393001255 20.645421327091753,262.9046444615815 19.156607582932338,263.6124854509835 18.598302429076284,263.5619254047633 19.156607582932338,263.5113653547014 20.645421327091753,263.00576464802725 21.575929917162284,262.75296415382763 22.13423507125117,262.4496034369804 22.925167372683063,261.8934417718556 23.80915053305216,261.48896027560113 27.484659463865682,260.1238334517111 30.41576152248308,258.9609454803285 32.46288042049855,258.30366009642603 33.021185574587435,258.20253921166295 35.25440619071014,257.39357159408974 36.09186392161064,257.1913295395789 41.53533917339519,255.27002702571917 42.74500034051016,254.966662975261 49.16550961160101,253.85432696755743 51.584831945830956,253.34871909068897 53.631950843846425,252.8431108383229 56.33042575488798,252.38806309032952 58.37754465313628,251.68021043320186 59.354578672442585,251.1240399722592 60.65729069872759,249.6577702158247 61.49474842962809,248.44430320186075 62.47178244940005,246.7252212302992 62.70440959674306,245.8656786167994 62.332206160761416,244.55108193302294 62.47178244940005,244.29827458731597 62.797460455680266,244.096028643311 62.8439858853817,243.48929045064142 62.42525701969862,241.41626421321416 61.72737557720393,239.19154610781698 61.634324718266726,238.38255590345943 62.564833308337256,232.06228684203234 62.564833308337256,230.24203847016906 62.750935026211664,228.27009724196978 62.8905113148503,227.9161584682297 63.16966389189474,227.61278223001864 65.72856251429766,226.19702466391027 66.0077150913421,225.84308481239714 66.19381680944934,225.28689324535662 65.54246079642326,224.2756346866372 64.75152849475853,223.26437462569447 64.19322334090248,222.4553654952324 63.681443616515025,221.09016040764982 63.16966389189474,219.01706596533768 62.65788416727446,218.10692494752584 61.68085014773533,216.5394570089411 60.75034155789763,215.52818545571063 60.19203640380874,214.71916713163955 59.40110410214402,214.0112753091962 58.00534121715464,213.20225518208463 57.16788348625414,213.0 56.609578332165256,213.0505638012546 55.81864603050053,213.3539465292124 55.35339173581451,213.6573291218374 55.07423915853724,213.9101478458615 54.515934004448354,214.97198546119034 53.95762885035947,215.57874906918732 52.98059483082034,216.3372028185404 51.9570353818126,216.84283818205586 49.723814765922725,217.55072705989005 48.46762816933915,217.7024174379767 45.30389896314591,218.51143221679376 44.28033951413818,218.91593924560584 43.0241529175546,219.67438927694457 42.14016975695267,219.3710093657719 39.62779656378552,219.7249525822699 38.92991512129083,219.7249525822699 37.9528811017517,219.57326265488518 35.25440619071014,218.81481251103105 34.50999931851402,218.46086882124655 33.76559244655073,217.65185398241738 33.39338901056908,216.6911476124078 33.39338901056908,215.98325784067856 33.53296529920772,215.4270582179306 33.85864330572076,214.87085814063903 35.39398247911595,213.50563784246333 34.32389760063961,214.46634870802518 33.719067017082125,215.27536733279703 33.43991444027051,216.28663926164154 33.486439869506285,216.84283818205586 33.719067017082125,217.65185398241738 34.27737217093818,218.35974201897625 35.114829902071506,218.91593924560584 37.53415223630145,219.57326265488518 38.743813403183594,219.7249525822699 40.51177972438745,219.7249525822699 42.09364432748407,219.4215726936236 42.79152576997876,219.67438927694457 43.117203776491806,219.67438927694457 43.44288178300485,219.57326265488518 44.41991580254398,218.8653758802102 45.164322674507275,218.56199560849927 48.42110273987055,217.75298088981071 49.67728933622129,217.7024174379767 51.67788280476816,216.99452871782705 52.7479676832445,216.48889346700162 53.166696548927575,216.1855121362605 54.60898486338556,214.71916713163955 55.446442594518885,213.55620160594117 55.7721206007991,213.3539465292124 56.563052902696654,213.10112759866752 57.307459774427116,213.30338275054237 58.23796836473048,213.40451030404074 58.84279894805513,213.6573291218374 61.12254499364644,215.88213067041943 61.54127385932952,216.5394570089411 62.14610444265418,217.24734620237723 62.70440959674306,218.2080517873983 63.12313846242614,219.26988269865979 63.63491818681359,221.29241318593267 64.14669791120104,222.607054780412 64.47237591794692,223.11268548684893 65.72856251429766,224.7307012239471 65.9611896618735,225.48914477683138 65.9146642324049,225.8936476596864 65.68203708482906,226.19702466391027 63.07661303272471,227.7644703660626 62.797460455680266,228.01728385093156 62.750935026211664,228.21953457128257 62.61135873780586,229.68585049698595 62.65788416727446,232.06228684203234 61.82042643614113,238.78705112577882 61.82042643614113,239.49491718661739 62.8905113148503,243.33760581817478 62.8439858853817,244.04546714789467 62.37873159023002,244.1971516229096 62.285680731292814,244.3993975368212 62.37873159023002,245.00613491842523 62.797460455680266,245.71399451367324 62.750935026211664,246.21960805979325 61.91347729531117,247.93869130779058 60.703816128196195,249.6577702158247 59.121951525099576,251.2251619080198 57.7727140695788,251.83189320738893 56.28390032541938,252.33750221057562 52.28271338832565,253.09591501147952 49.956441913265735,253.75320542231202 45.164322674507275,254.5621773644816 40.97703401953913,255.47226965083973 38.55771168530919,256.2306789602153 33.67254158761352,258.0002973974915 33.067711003823206,258.30366009642603 30.60186324059032,259.0115058682277 29.299151214538142,259.6182302299421 25.437540565850213,260.93279782577883 23.018218231620267,261.842881597986 21.575929917162284,262.70240404381184 20.505845038453117,262.9552045566379 18.97050586505793,263.5113653547014 18.365675281500444,263.5619254047633 18.644827858544886,263.6124854509835 19.063556723995134,263.5619254047633 21.436353628523648,262.80352426011814 22.041184212081134,262.5001635659137 22.83211651374586,261.9440019419417 24.181353969266638,261.3878398639499 26.368049155920744,260.57887603039853 28.461693483404815,259.92159220803296 30.36923609301448,259.11262663273374 33.53296529920772,258.1014183120569 38.976440550759435,256.0284365603002 40.88398316060193,255.4217090002494 42.93110205838457,254.9161022871849 46.14135669427924,254.4104951986228 51.584831945830956,253.399279895355 52.51534053590149,253.09591501147952 56.74915462057106,252.23638044006657 58.79627351858653,251.42740573454648 59.9128838267643,250.61843006807612 60.88991784630343,249.35440366499824 61.91347729531117,247.73644644510932 62.518307878635824,246.57353731855983 62.750935026211664,245.71399451367324 62.70440959674306,245.41062620584853 62.332206160761416,244.85445062379586 62.23915530182421,244.1971516229096 62.332206160761416,244.04546714789467 62.8905113148503,243.84322112886002 62.983562173787504,243.69153657503193 62.93703674408607,243.08479802194051 61.96000272477977,239.74772631563246 61.77390100667253,237.97806044080062 62.564833308337256,232.31509873090545 62.564833308337256,230.34316350746667 62.797460455680266,228.16897189681185 62.983562173787504,227.8655957711744 63.216189321363345,227.66334494575858 65.7750879439991,226.19702466391027 66.0077150913421,225.8936476596864 66.14729137998074,225.3880190186901 66.05424052104354,225.18576745706378 65.63551165536046,224.6295753530576 65.40288450778462,224.02281981217675 64.93763021286577,223.4666267579887 64.10017248173244,222.10142369841924 63.7279690457508,221.03959720372222 63.26271475083195,219.219319359574 62.70440959674306,217.95523465960287 62.00652815424837,216.6911476124078" stroke="#4dd2ff" stroke-linecap="round" stroke-linejoin="round" stroke-width="0.5"><title>2022-11-13 12.4km</title></polyline></svg>