<?xml version="1.0" encoding="utf-8" ?>
<svg baseProfile="full" height="300mm" version="1.1" viewBox="0,0,200,300" width="200mm" xmlns="http://www.w3.org/2000/svg" xmlns:ev="http://www.w3.org/2001/xml-events" xmlns:xlink="http://www.w3.org/1999/xlink"><defs /><rect fill="#222222" height="300" width="200" x="0" y="0" /><text fill="#FFFFFF" style="font-size:12px; font-family:Arial; font-weight:bold;" x="10" y="20">Over 15km Runs</text><text fill="#FFFFFF" style="font-size:4px; font-family:Arial" x="10" y="280">ATHLETE</text><text fill="#FFFFFF" style="font-size:9px; font-family:Arial" x="10" y="290">Tian</text><text fill="#FFFFFF" style="font-size:4px; font-family:Arial" x="120" y="280">STATISTICS</text><text fill="#FFFFFF" style="font-size:3px; font-family:Arial" x="120" y="285">Number: 5</text><text fill="#FFFFFF" style="font-size:3px; font-family:Arial" x="120" y="290">Weekly: 1.0</text><text fill="#FFFFFF" style="font-size:3px; font-family:Arial" x="141" y="285">Total: 90.8 km</text><text fill="#FFFFFF" style="font-size:3px; font-family:Arial" x="141" y="290">Avg: 18.2 km</text><text fill="#FFFFFF" style="font-size:3px; font-family:Arial" x="167" y="285">Min: 15.0 km</text><text fill="#FFFFFF" style="font-size:3px; font-family:Arial" x="167" y="290">Max: 21.5 km</text><polyline fill="none" points="14.0,84.77587402962672 14.173857050889637,84.73808735850616 14.312942691612989,84.66251399091561 14.741790083702654,84.61213172716089 15.379265936848242,84.4483892666467 15.9587894398137,84.41060252253374 16.480360592424404,84.20907307851303 16.862846104311757,83.96975655277492 17.396007726958487,83.76822658504534 17.662588538310956,83.6422702336422 17.836445589200594,83.60448331000225 18.033483580162283,83.49112248854362 19.192530585976783,83.12584821516066 19.389568576938473,83.08806117647327 20.931101094640326,82.54644603039196 21.56857694784412,82.38270157603256 23.202833226008806,82.03002067597117 23.979394719877746,81.89146726463514 24.199613650969695,81.79070107619918 25.03412749513518,81.57657272704819 25.439793947211,81.42542314139428 25.799098518968094,81.11052773866686 25.961365099821705,80.9215902164724 26.216355441021733,80.43035167381458 26.413393432099838,79.72498102211102 26.436574372230098,79.44787032066961 26.367031551839318,78.04971396811015 26.482936252374202,77.20577617740491 26.540888602670748,76.4122189017362 26.506117192504462,75.59346543996071 26.540888602670748,75.39192552010354 26.691564713430125,75.26596294855699 27.21313586604083,75.03923008401762 27.95492594980169,74.67393760914274 28.453316162223928,74.38422232821176 28.650354153243825,74.33383701146522 28.847392144263722,74.23306633300672 29.02124919509515,74.19527731316339 29.50804893753957,74.20787365405704 29.855763039260637,74.27085534443904 30.20347714103991,74.38422232821176 30.50482936250046,74.38422232821176 31.814552479074337,74.81249691636185 33.08950418542372,75.5430804824573 34.08628461038461,76.16029518062714 34.36445589183131,76.27366090143914 35.11783644556999,76.42481507797493 36.81004507408943,76.84048836883449 37.88795878941892,76.8656806567742 39.417900837084744,76.77750763266522 39.61493882810464,76.73971917974995 40.21764327108394,76.52558445415343 41.26078557630535,76.32404564190074 41.50418544752756,76.22327614598908 43.17321313585853,75.93356351170223 43.71796522854129,75.89577487073257 44.343850611767266,75.9083710853156 44.61043142300332,75.87058243874344 45.18995492591057,75.88317865521822 45.93174500961322,75.98394835321233 46.48808757244842,75.93356351170223 46.73148744367063,75.88317865521822 47.79781068896409,75.50529175449628 49.362524146796204,75.21557789374492 49.860914359334856,75.10221146566619 50.41725692211185,74.83768950554077 50.98518995492486,74.37162600044394 51.33290405664593,74.22046999399026 51.99356084992178,74.08191020308004 52.51513200259069,74.01892844251415 53.083065035461914,74.0063320875779 53.70895041851327,74.23306633300672 54.300064391456544,74.63614868752484 54.62459755310556,74.78730432345765 55.13457823568024,75.14000028345617 56.08499678038061,76.00914076835033 56.710882163548376,76.76491148264904 56.907920154510066,76.953853635001 57.487443657417316,77.43250614563294 58.40309079200961,77.99932974026888 59.399871216970496,78.50317134520446 59.96780424984172,78.67951555340551 60.35028976172907,78.74249558328302 60.96458467480261,78.72989957919344 61.265936896321364,78.74249558328302 61.578879587876145,78.78028359002201 61.81068898906233,78.8432635825302 62.6799742433941,79.22114304640854 63.35222150670597,79.56123384417151 63.781068898853846,79.80055658938363 64.15196394070517,80.1154544239107 65.70508692850126,81.58916851978574 66.63232453312958,82.69759461723152 66.78300064388895,82.8361473701516 66.9220862845541,83.10065685698646 67.32775273662992,83.59188766690204 67.46683837735327,83.66746151141706 67.66387636831496,83.85639597541012 67.79137153894408,83.90677846358449 67.90727623953717,83.90677846358449 68.02318094007205,83.8689915988507 68.25499034125824,83.88158722135995 68.57952350284904,83.79341784410644 69.1590470058145,83.46593118457531 69.50676110753557,83.17623092030408 69.62266580807045,83.02508275996661 69.86606567929266,82.60942462462117 69.8776561493869,82.5716374709009 69.83129426912637,82.48346741282148 69.85447520925663,82.42048877183697 69.90083708945895,82.37010584223026 70.06310367025435,82.29453141977137 70.23696072114399,82.14338247383421 70.73535093368264,81.57657272704819 70.9207984545501,81.29946505045518 71.38441725686425,80.48073517958983 71.77849323884584,80.0146871804609 72.0798454603646,79.43527436896693 72.19575016095769,78.99441546908929 72.42755956214387,78.69211156124948 72.54346426267875,78.18827051749395 72.56664520280901,77.7851966049202 72.63618802314159,77.55846710811602 72.69414037343813,76.3492380065436 72.64777849323582,75.99654456124699 72.3580167418113,74.87547838222235 71.84803605917841,73.82998302046326 71.84803605917841,73.40170595113887 71.77849323884584,72.86005987339013 71.8016741789761,72.15465773665346 71.85962652927265,71.95311373010918 72.01030264003202,71.63820074028627 72.09143593045883,71.55002499835973 72.14938828069717,71.52483192081854 72.36960721184732,71.51223538062186 72.55505473277299,71.4240595731826 72.65936896327185,71.15953187578998 73.0418544751592,70.45412266529456 73.27366387634538,70.10141695960192 73.91113972954918,69.30782643951534 74.50225370249245,68.86694121237088 75.1976819059928,68.46384514437523 75.38312942686025,68.30008709302638 76.82034771406325,67.5064881422586 77.66645202832296,67.12858257447078 77.96780424984172,66.9774201115215 78.23438506113598,66.72548237378942 78.62846104311757,66.48614117619582 78.8023180940072,66.32238121474802 79.5209272375796,65.99486081735813 79.85705086926464,65.76811555623135 80.83065035409527,65.16346004403022 81.18995492591057,64.86113147926517 82.41854475205764,63.73999167836155 82.58081133285305,63.5636319337209 82.81262073403923,63.38727200559515 83.07920154533349,63.09753743969486 83.1603348358185,62.97156573484244 83.28783000644762,62.63144166422717 83.80940115900012,61.510287117926055 84.52801030263072,59.83484009966196 85.13071474561002,58.71366705709079 85.26980038633337,58.549899587451364 85.88409529940691,58.17197405367915 86.0,58.05859622925345 86.0,57.9200232297153 85.93045717960922,57.76885255557136 85.51320025755558,57.075985240677255 85.37411461689044,56.748446978628635 85.10753380553797,56.332724426843924 84.60914359299932,55.38789665339573 84.52801030263072,55.2871147133701 84.41210560203763,55.22412597038783 84.18029620090965,55.27451696661592 82.94011590466835,55.967391645666794 82.47649710235419,56.29493141702551 82.51126851257868,56.29493141702551 82.89375402446603,56.0555754925299 83.21828718605684,55.89180545466661 83.53122987761162,55.69024211393844 84.08757244044682,55.38789665339573 84.33097231166903,55.2871147133701 84.47005795233417,55.2871147133701 84.52801030263072,55.32490794789919 84.60914359299932,55.42568986547121 85.43206696712878,56.96260668314062 85.60592401801841,57.214558930223575 85.89568576944293,57.869633019989124 85.93045717960922,57.99560851624119 85.88409529940691,58.121583918866236 85.21184803603683,58.56249709073745 85.0032195749809,58.839641926038894 84.57437218283303,59.64587887050584 84.13393432059092,60.741851067577954 83.83258209913038,61.359119645523606 83.69349645846523,61.724440806385246 83.34578235668596,62.41728912149847 83.22987765615107,62.7574136218027 83.07920154533349,63.059745938080596 80.85383129422553,65.10047497083724 79.83386992913438,65.74292161961785 78.77913715381874,66.32238121474802 78.62846104311757,66.47354426168022 78.21120412100572,66.72548237378942 78.06052801024634,66.88924194590072 77.75917578872759,67.02780761415488 77.41146168706473,67.24195433325076 76.65808113326784,67.56947232167295 75.93947198963724,67.97257051586348 75.47585318732308,68.2496999684954 75.17450096586253,68.48903867670742 74.44430135219591,68.87953794906207 73.91113972954918,69.24484290579858 73.83000643912237,69.33301984643913 73.71410173858749,69.54716365417698 73.43593045714078,69.81169386686815 73.21571152604884,70.16440017514105 73.01867353508715,70.41633280334645 72.90276883449405,70.69345826203062 72.65936896327185,71.18472500758071 72.47392144234618,71.46184921056556 72.36960721184732,71.51223538062186 72.0798454603646,71.56262153571879 71.94075981964124,71.70118338504108 71.87121699930867,71.87753466589493 71.83644558914239,72.1294647489558 71.79008370894007,73.64103738790436 71.85962652927265,73.81738665149896 72.19575016095769,74.40941498098255 72.41596909204964,74.86288209093618 72.65936896327185,75.93356351170223 72.67095943336608,76.29885327356169 72.70573084347416,76.65154609020101 72.6825499034021,77.3443334162148 72.64777849323582,77.57106319922605 72.55505473277299,77.8103887525067 72.41596909204964,78.5661514406238 71.90598840953317,79.59902166847314 71.67417900834698,79.95170762290945 71.3612363167922,80.2792010668345 71.23374114616308,80.56890627862595 71.0367031552014,80.87120684169349 70.44558918219991,81.58916851978574 70.07469414034858,82.11819096971885 69.91242755955318,82.19376547077263 69.73857050866354,82.33231863519177 69.62266580807045,82.54644603039196 69.59948486794019,82.81095596893283 69.4024468769785,83.13844389287988 69.21699935605284,83.3525702705374 68.99678042496089,83.52890943743114 68.50998068251647,83.80601347223273 68.11590470053488,83.94456531992182 67.99999999994179,83.91937408329977 67.83773341914639,83.93196970205463 67.65228589822073,83.84380035100912 67.37411461683223,83.61707895215659 66.78300064388895,82.84874306934944 66.57437218289124,82.64721176991588 65.75144880876178,81.62695589233772 64.04764971020631,79.98949536023429 63.54925949766766,79.68719322582183 62.78428847389296,79.27152691132505 62.20476497098571,78.98181948371348 61.891822279430926,78.86845557294146 61.578879587876145,78.78028359002201 61.289117836451624,78.74249558328302 60.512556342524476,78.75509158647037 60.106889890506864,78.717303574158 59.79394719895208,78.62913151261455 59.38828074687626,78.4653832767799 58.576947842899244,78.06231002270943 57.441081777156796,77.38212173443753 56.73406310362043,76.75231533165788 56.23567289119819,76.13510278794274 55.60978750808863,75.55567672324833 55.21571152610704,75.19038536069274 54.64777849323582,74.78730432345765 53.882807469402906,74.27085534443904 53.60463618801441,74.13229559469619 53.29169349645963,74.05671750164765 52.68898905342212,74.01892844251415 52.10946555051487,74.05671750164765 51.147456535720266,74.29604801404639 50.99678042496089,74.38422232821176 50.68383773340611,74.68653391445696 50.33612363162683,74.93845982468338 49.81455247907434,75.16519282394438 48.72504829359241,75.35413675844029 47.63554410816869,75.58086920199275 46.627173213113565,75.93356351170223 45.97810688987374,75.99654456124699 45.13200257567223,75.93356351170223 44.56406954280101,75.9209672989964 43.48615582747152,75.95875593430537 42.999356084968895,76.0217369745369 41.481004507339094,76.27366090143914 40.69285254343413,76.42481507797493 40.1596909207874,76.56337295479898 39.47585318738129,76.77750763266522 39.0817772053997,76.82789222347492 38.58338699291926,76.82789222347492 38.29362524149474,76.8656806567742 37.9227301995852,76.8656806567742 37.041854475217406,76.85308451327728 36.77527366386494,76.81529607716948 34.943979394680355,76.37443036741752 34.503541532554664,76.31144945818232 34.14423696073936,76.17289137557964 32.93882807472255,75.45490677078487 31.51320025755558,74.73691912647337 30.33097231166903,74.37162600044394 29.519639407575596,74.23306633300672 28.893754024407826,74.25825900823111 28.56922086281702,74.35902967171569 28.140373470669147,74.56057081901236 27.896973599505145,74.74951542714552 26.622021893097553,75.40452177208499 26.540888602670748,75.49269550995086 26.52929813263472,75.68163907960115 26.633612363191787,76.52558445415343 26.564069542859215,76.85308451327728 26.55247907276498,77.19318005915557 26.436574372230098,78.26384676947782 26.45975531230215,79.56123384417151 26.436574372230098,79.91391987714451 26.16999356087763,80.63188560699928 25.961365099821705,80.94678189826664 25.810688989062328,81.12312356597977 25.439793947211,81.42542314139428 25.01094655506313,81.60176431156287 23.70122343848925,81.95444610199775 21.464262717287056,82.38270157603256 19.80682549899211,82.92431724490598" stroke="#4dd2ff" stroke-linecap="round" stroke-linejoin="round" stroke-width="0.5"><title>2023-10-21 18.0km</title></polyline><polyline fill="none" points="114.17327129794285,84.3557752683555 114.34654259582749,84.33066902073915 114.76239371090196,84.20513772664708 115.73271297931205,84.067053195482 115.97529279644368,84.07960633935 116.17166693409672,84.0545000507118 116.71458366751904,83.85364960735023 116.96871490450576,83.64024574987707 117.11888336273842,83.56492667703424 118.65522220439743,83.01258578436682 118.89780202147085,82.88705351165845 119.67174715222791,82.67364843415271 121.36980587197468,82.05853817414027 121.98203112464398,81.90789858567587 123.05631317186635,81.75725886294094 125.34349430445582,81.30533888946229 125.95571955724154,81.01661160730873 126.30226215306902,80.62745666422416 126.72966468794039,79.98723206674913 126.85673030640464,79.64828865120944 126.76431894750567,79.33445154942456 126.90293598588323,79.1587025179615 126.91448740573833,79.02061386501009 126.63725332904141,77.95356137990893 126.63725332904141,77.53929212941148 126.76431894750567,76.52244511929166 126.83362746669445,76.20860221420298 126.81052462698426,75.71900611868477 126.85673030640464,75.27962379995733 126.96069308515871,75.10387055261526 127.20327290229034,74.95322476665024 127.11086154339137,74.97833240695763 126.91448740573833,75.10387055261526 126.82207604683936,75.21685480403539 126.75276752765058,75.43026929502958 126.72966468794039,75.22940860505332 126.75276752765058,75.06620911871141 126.84517888660775,74.9657785872696 127.14551580301486,74.80257884638559 129.02839724050136,73.89870050527679 129.5597625541268,73.83593099654536 130.02181934862165,73.89870050527679 130.37991336430423,74.02423945281771 130.63404460129095,74.02423945281771 131.93935504573165,74.463625034914 132.75950585590908,74.91556329916057 134.24963901814772,75.80688244536577 134.49221883522114,75.89475872638286 135.15064976736903,76.02029619141831 136.67543718917295,76.39690802716359 137.06818546447903,76.45967658486916 138.4312530081952,76.48478400144086 138.84710412321147,76.43456916458672 139.6441520936787,76.39690802716359 140.3372372854501,76.18349475660943 143.30595219001407,75.58091465587495 144.63436547410674,75.53069955049432 145.3852077651536,75.53069955049432 146.0782929568668,75.59346842988452 146.6443125300575,75.54325332824374 148.14599711215124,75.11642436208786 150.08663564897142,74.72725583589636 150.42162682494381,74.55150201426295 151.0685063372366,74.0367933424568 151.41504893318051,73.84848490012519 152.44312530080788,73.63506841193885 153.12465907266596,73.64762233047804 153.6906786459149,73.823377091976 153.9794641425251,73.94891609546903 154.71875501365867,74.3883018733759 155.2270174876321,74.73980967332318 156.33595379436156,75.81943620259699 156.75180490937782,76.34669316423242 157.27161880320637,76.836287441678 157.53730145998998,77.04969988808443 158.4498636291246,77.61461388683529 159.3508743783459,78.0790973159892 160.032408150204,78.30506176597555 160.6677362425835,78.3803831822006 161.07203593774466,78.35527604719391 161.36082143429667,78.36782961517747 161.9383924274589,78.5059188013256 162.50441200070782,78.7444362207898 163.68265682656784,79.33445154942456 164.0985079415841,79.6357351783372 165.86587518051965,81.30533888946229 166.80154018930625,82.46024308727647 166.9170543879154,82.67364843415271 167.41376544203376,83.25109684575 167.71410235844087,83.47705438299454 167.8873736563255,83.55237349498202 168.31477619125508,83.55237349498202 168.81148724531522,83.36407565213449 169.31974971928867,83.05024544800108 169.550778116507,82.82428734035057 169.89732071233448,82.20917762842146 169.94352639181307,82.03343158539792 170.24386330827838,81.85768535964598 171.3759024546598,80.21319396623585 171.50296807318227,79.97467861903715 171.82640782935778,79.56041432144411 172.068987646373,79.17125602626766 172.48483876150567,78.26740104529017 172.80827851762297,76.86139480231213 172.77362425799947,75.88220497475413 172.427081662172,74.55150201426295 171.98812770738732,73.67273016473337 171.84951066906797,73.23334252662607 171.83795924915466,72.3671178372606 171.88416492863325,71.82729440859111 172.0805390662863,71.24980697144929 172.17295042518526,71.17448237765348 172.48483876150567,71.1619282754109 172.58880154020153,71.09915775025729 173.0162040751311,70.27058463338471 173.58222364832181,69.45456168425153 173.9287662442075,69.04027160200349 174.5756457565003,68.50043754669605 175.1994224290247,68.16147109575104 176.21594737685518,67.52119927776221 177.4635007220204,66.91858829181001 178.02952029526932,66.61728199297795 178.19124017329887,66.45407419011462 178.66484838764882,66.14021258772118 178.79191400611307,66.0146677835146 179.10380234237527,65.87656839120609 179.73913043481298,65.55015119699237 180.68634686351288,64.97264230874134 181.2292635969934,64.4453498608782 181.76062891067704,64.01849286454672 183.11214503453812,62.77557958677062 184.7408952350961,59.08444989634154 185.20295202959096,58.39392348275578 185.3646719076205,58.24326279925299 185.91914006101433,57.91683085737168 186.0,57.80383503824123 185.9884485801449,57.678284039429855 185.53794320550514,56.91242092606262 184.55607251729816,55.06680210818013 184.3943526392104,54.953804382588714 184.19797850155737,55.00402560328075 182.98507941607386,55.707121125306 182.36130274354946,56.121443901836756 181.63356329221278,56.44787931306928 181.09064655861584,56.811979604448425 181.71442323119845,56.43532411658089 182.4768169421004,56.08377823687624 182.95042515645036,55.769897368896636 184.32504412002163,55.02913620806066 184.4174554789206,55.00402560328075 184.50986683781957,55.0165809061582 184.64848387613893,55.17979975817434 185.4108775870409,56.64876232948154 185.89603722130414,57.54017783298332 185.97689716034802,57.791279942539404 185.89603722130414,57.891720681858715 185.22605486924294,58.30603810035973 185.00657789193792,58.56969411035243 184.68313813576242,59.134669889026554 184.1633242419921,60.40271975750511 183.94384726462886,60.817031017970294 183.1236964543932,62.675141750922194 182.8233595379861,63.02667391519935 182.523022621579,63.20243972308526 182.39595700305654,63.20243972308526 182.32664848392596,63.08944743902248 181.9339002086199,61.59543124465563 181.853040269576,61.40710893801588 181.65666613192298,61.15601220265671 181.47184341412503,61.06812825711677 181.36788063537097,61.06812825711677 181.71442323119845,61.26900577977358 181.8876945291413,61.50754752769717 182.1880314455484,62.662587017257465 182.41905984282494,63.20243972308526 182.39595700305654,63.39076002864749 182.28044280444738,63.56652545777615 182.00320872775046,63.779954661629745 180.70944970322307,64.89731491693237 179.20776512118755,65.82635040234891 179.72757901495788,65.60036926789326 180.68634686351288,64.9977514318889 181.50649767369032,64.30724918593478 182.1764800256933,63.666962763731135 182.60388256056467,63.302877245499985 182.8233595379861,63.164775636818376 183.1467992941034,62.81324375983968 183.8052302262513,61.26900577977358 184.07091288309311,60.766811525361845 184.23263276118087,60.314835420111194 184.1055671426584,60.50315894422238 183.4586876304238,62.07251348196587 183.11214503453812,62.75047013342555 182.34975132363616,63.466088092085556 180.9173752607312,64.75921461138933 180.3282528477721,65.1609606413549 179.56585913687013,65.63803281130095 179.3001764800283,65.75102339113073 178.89587678486714,66.0146677835146 178.58398844860494,66.17787601078453 178.28365153219784,66.37874745870067 178.13348307396518,66.54195533430902 176.27370447618887,67.45842740032822 175.1878710091696,68.14891676970001 174.55254291679012,68.50043754669605 173.9749719236279,69.0026088168961 173.3511952511035,69.70564608827408 173.07396117446478,70.1575970754493 172.80827851762297,70.70997997403902 172.58880154020153,71.08660364242678 172.46173592167906,71.1619282754109 172.14984758547507,71.22469877723779 172.045884806721,71.35023971095507 171.94192202790873,71.63898350462841 171.89571634848835,71.9779429807677 171.89571634848835,73.33377408747037 171.96502486767713,73.52208310320566 172.50794160121586,74.55150201426295 172.75052141828928,75.55580710504728 172.78517567785457,76.22115594158822 172.77362425799947,77.0622535530274 172.54259586078115,78.26740104529017 172.0574362265761,79.27168405914563 171.87261350877816,79.58552127746225 171.61848227179144,79.89935791316384 170.74057436233852,81.21746542101027 170.26696614793036,81.84513205081748 170.09369484998751,81.93300519305922 169.97818065143656,82.05853817414027 169.93197497195797,82.19662434568454 169.96662923152326,82.271944028078 169.92042355210287,82.37237021909095 169.5161238569417,82.84939381165896 169.2273383603897,83.12556475013844 168.96165570354788,83.30130965789431 168.5689074282418,83.50216075740173 168.2685705117765,83.6025862176466 167.9104764960939,83.56492667703424 167.77185945777455,83.50216075740173 167.44841970159905,83.23854364038561 167.11342852562666,82.861947045938 166.84774586878484,82.47279635041195 166.18931493669515,81.66938562937139 165.64639820309822,81.06682508312224 164.19091930054128,79.68594906428189 163.56714262795867,79.25913055831916 162.30803786305478,78.64400787465274 161.81132680893643,78.46825812537281 161.34927001449978,78.39293674829241 160.54067062411923,78.405490313482 160.10171666939277,78.35527604719391 159.57035135570914,78.16697241576912 158.63468634686433,77.70248922807514 157.8145355366869,77.22545111220097 157.39868442167062,76.91160951236088 156.72870206960943,76.28392456454458 156.11647681699833,75.58091465587495 155.2732231670525,74.79002501362993 154.22204395954031,74.07445500569884 153.75998716510367,73.81082318651897 153.321033210319,73.66017624808592 152.96293919463642,73.64762233047804 152.44312530080788,73.71039190914598 151.33418899407843,73.94891609546903 151.0916091769468,74.09956277658057 150.8374779400183,74.33808641372889 150.5255896037561,74.56405586469918 150.02887854963774,74.79002501362993 148.00738007383188,75.1791933952918 146.74827530881157,75.58091465587495 146.11294721643208,75.6436835165805 145.26969356648624,75.58091465587495 143.66404620569665,75.60602220293367 142.913203914708,75.70645235400298 140.59136852243682,76.13327983026102 139.62104925402673,76.43456916458672 138.7662441842258,76.45967658486916 138.4312530081952,76.50989141427272 137.4378309000749,76.52244511929166 137.09128830418922,76.48478400144086 135.2199582864996,76.03284993280249 134.573078774265,75.90731247706572 134.2958446975681,75.80688244536577 132.87502005457645,74.9657785872696 132.03176640463062,74.51384045726445 131.7314294881653,74.3883018733759 130.71490454033483,74.06190111889737 129.94095940957777,73.89870050527679 129.5713139740401,73.8610388028319 129.06305150006665,73.91125440424366 126.90293598588323,75.04110149144253 126.77587036741897,75.1791933952918 126.82207604683936,76.14583356323419 126.63725332904141,77.56439938559197 126.61415048938943,78.02888295272714 126.67190758866491,79.17125602626766 126.87983314617304,79.59807475408888 126.87983314617304,79.74871640074707 126.74121610785369,80.11276649263164 126.54484197020065,80.45170897692151 126.29071073321393,80.7906507816515 126.09433659556089,80.99150486383587 125.85175677842926,81.12959190686524 125.33194288465893,81.2927855396265 124.38472645595903,81.46853235257731 123.32199582864996,81.71959891130973 121.64703994867159,82.02087828959338 121.3236001925543,82.10875134046364 119.52157869405346,82.77407438654336 118.95555912080454,82.94981965966872 117.66180009627715,83.41428843070753 117.13043478265172,83.62769257339824 116.64527514838846,83.90386224053509 116.35648965183645,83.95407485886244 116.10235841490794,84.07960633935 115.72116155945696,84.067053195482 115.16669340600492,84.18003145663533 114.58912241295911,84.24279712465068 114.34654259582749,84.34322214499116 114.08085993904388,84.39343463283149 114.02310283971019,84.41854087112006 114.0,84.53151889739092 114.15016845817445,84.93321793503128 114.26568265684182,85.04619561739673 114.58912241295911,84.9457710145507 115.66340446012327,84.36832839078852 116.37959249154665,84.09215948227211 116.5413123696926,83.96662801108323 117.07267768331803,83.62769257339824 118.74763356335461,82.98747933730192 118.88625060167396,82.91215997366817 118.63211936468724,83.0627986673353 117.34991175995674,83.50216075740173" stroke="#ff0000" stroke-linecap="round" stroke-linejoin="round" stroke-width="0.5"><title>2023-10-14 21.5km</title></polyline><polyline fill="none" points="14.0,160.09468106243003 14.361225586791988,159.95448460303305 15.677118795923889,159.75820938503603 15.883533416956197,159.77222905021335 16.309263572795317,159.70213071384933 16.812399211572483,159.50585523352493 16.91560652211774,159.42173710805946 17.04461566027021,159.29555984963372 17.380039419454988,159.1273233739048 17.805769575352315,159.00114591873717 18.64432897331426,158.67869203914597 19.07005912915338,158.53849452843133 19.263572836411186,158.4403562090156 19.94732126861345,158.27211897130474 20.373051424510777,158.1038815837237 22.050170220376458,157.5430892091972 22.656513169698883,157.4028908553155 23.959505464939866,157.16455341478286 24.656154810916632,156.9963150403637 25.09478588064667,156.95425542333396 25.417308725998737,156.8561162804981 25.881741623335984,156.75797708665777 26.43648091738578,156.65983784178388 26.823508331843186,156.51963883207645 27.146031177195255,156.3513998829876 27.352445798227564,156.14110098587116 27.713671385019552,155.63638267701026 27.94588783371728,155.2157830556971 28.07489697181154,154.89332271143212 28.07489697181154,154.78116246264835 28.036194230429828,154.59890191619343 27.97168966132449,154.45870137610473 27.88138326461194,154.3605609361257 27.7910768679576,153.98201876111852 27.77817595412489,153.08473057379888 27.73947321268497,152.66412526795466 27.76527504035039,152.2715594703477 27.81687869556481,152.1033167358255 27.82977960939752,151.89301310676092 27.95878874754999,151.61260790361848 27.94588783371728,151.36024286468455 28.01039240276441,150.8555117747601 27.92008600605186,150.35077933534922 27.97168966132449,150.1685145116935 27.95878874754999,149.88810674706474 27.9845905751572,149.80398433642404 28.087797885702457,149.70584147669433 28.345816161949188,149.57965772485477 28.578032610588707,149.42543302479316 29.906826733611524,148.7664715232968 30.100340440752916,148.62626665172866 30.242250492738094,148.55616417688725 30.409962372330483,148.45802066837496 30.55187242431566,148.40193864059984 30.77118795912247,148.38791813107673 31.325927253172267,148.40193864059984 32.02257659914903,148.51410267948813 33.170757928688545,148.86461487141787 33.88030818849802,149.11698324662575 34.09962372336304,149.22914686062722 35.44131876004394,150.02831068143132 35.69933703634888,150.19655526525457 36.331481813278515,150.57510503058438 36.254076330398675,150.54706433323736 36.331481813278515,150.6031457237259 36.537896434310824,150.68726777822303 37.26034760795301,150.82747111908975 38.33112345455447,151.07983687020896 39.208385593956336,151.33220228400023 39.466403870261274,151.37426315349876 41.220928149065,151.37426315349876 41.67246013262775,151.4023037279403 42.162694857514,151.36024286468455 42.781938720610924,151.19199931799085 43.68500268767821,151.0517962478625 44.18813832645537,150.91159307360067 44.33004837844055,150.84149144742696 44.6267693961272,150.78541012774804 45.529833363194484,150.75736946168763 45.787851639441215,150.79943045922846 45.86525712237926,150.77138979523443 45.89105894998647,150.68726777822303 45.9297616914846,150.65922709753795 46.38129367493093,150.65922709753795 46.79412291699555,150.50500327943882 47.168249417620245,150.54706433323736 47.4391686078161,150.54706433323736 47.65848414262291,150.50500327943882 47.82619602215709,150.43490150230355 48.0068088156404,150.2946978698892 48.11001612612745,150.25263675986207 48.703458161617164,150.2806775009085 49.51621573191369,150.36479969909124 50.070955025963485,150.32273860469286 50.30317147466121,150.2806775009085 51.683569252782036,149.83202514414734 53.180075255280826,149.5516168796894 53.73481454933062,149.46749431913486 53.99283282563556,149.39739215670852 54.483067550638225,149.15904460966703 54.818491309764795,148.92069676172105 55.16681598278228,148.59822566491493 55.32162694854196,148.48606167601247 55.43773517286172,148.44400016299915 56.39240279520163,148.27575401720242 56.93424117541872,148.19163088810456 57.398674072755966,148.17761036290904 57.54058412468294,148.20565141220868 58.19853072921978,148.40193864059984 58.46944991935743,148.64028714355663 58.779071850935,148.8505943962664 59.191901092999615,149.03286049237067 59.320910231152084,149.20110596335144 59.59182942123152,149.34131040798093 59.81114495609654,149.48151474846236 60.08206414623419,149.70584147669433 60.675506181723904,150.2946978698892 61.07543450995581,150.6732474384189 61.29475004476262,150.9957149906695 61.52696649346035,151.26210081399768 62.094606701342855,151.79487133304065 62.64934599533444,152.20145834919822 63.655617272888776,152.7622665897943 64.35226661892375,153.11277089420764 64.85540225764271,153.30905302042083 65.17792510305298,153.39317386918992 65.56495251745218,153.46327454788843 66.32610643253429,153.4492544142122 66.79053932987154,153.46327454788843 67.31947679625591,153.6174959493219 68.17093710805057,153.98201876111852 69.35782117903,154.59890191619343 69.78355133486912,154.96342283317063 70.58340799139114,155.692462555744 71.58967926894547,156.65983784178388 71.8218957176432,156.9121957969328 72.53144597739447,157.83750541351037 72.73786059848499,158.0478024212207 72.93137430568459,158.32819806721818 73.344203547691,158.83290918068087 73.55061816883972,158.94506702270883 73.67962730693398,159.08526423155854 73.83443827269366,159.19742192367266 74.01505106611876,159.22546133630385 74.19566385948565,159.19742192367266 74.42788030818338,159.22546133630385 74.54398853256134,159.21144163049757 74.96971868840046,159.02918536048674 75.45995341340313,158.7207512720779 75.71797168970807,158.51045501383487 75.85988174163504,158.3422178385954 76.19530550081981,157.72534691359033 76.25981006986694,157.47299004523666 76.3501164665795,157.38887101419095 76.46622469089925,157.36083132884232 76.5565310876118,157.29073209721537 77.1112703816616,156.4495392881654 77.21447769214865,156.23924050033384 77.40799139940646,155.95884175218816 77.91112703812541,155.398043006644 77.98853252106346,155.20176305218774 78.18204622832127,155.01950291176036 78.6206772979931,154.3605609361257 78.77548826375278,153.9539785698289 78.8141910052509,153.7576971140661 79.0077047123923,153.407194007028 79.07220928149763,153.22493213418056 79.25282207492273,152.5940242925135 79.26572298869723,152.35568078143115 79.381831213017,151.92105360417918 79.34312847157707,151.0377759351104 79.35602938540978,150.72932879140717 79.29152481630445,150.18253488898335 79.13671385060297,149.50955560409056 78.94320014334517,148.9627581685345 78.56907364266226,148.2477129783365 78.47876724600792,147.995343440969 78.46586633217521,147.35039753485762 78.37555993546266,146.91575883344922 78.34975810785545,146.5231810816622 78.38846084929537,146.06049911172886 78.53037090128055,145.63987815486325 78.6206772979931,145.47162950964412 78.72388460848015,145.41554659458052 78.9948037986178,145.40152586322802 79.14961476437747,145.2893599747622 79.71725497220177,144.26584316353546 80.18168786953902,143.64892624029017 80.36230066296412,143.35448790696682 80.64612076693447,143.03200730057142 81.35567102668574,142.44312824973895 81.70399569970323,142.2187928899075 82.12972585560055,141.9944572634704 82.4135459595127,141.77012137034035 82.73606880486477,141.55980622836796 83.47142089233967,141.16721733626036 84.36158394557424,140.76060655139736 85.34205339546315,140.22780488649732 86.0,139.90531893756997 85.48396344739012,140.19976265195874 84.58089948038105,140.64843790483428 84.25837663502898,140.78864870259713 83.561727288994,141.13917524130375 83.30370901274728,141.32144878413237 82.73606880486477,141.62991130173032 82.039419458888,142.10662511001283 81.48468016483821,142.4010653900914 81.07185092277359,142.68148427736014 80.63321985304356,143.0460282079439 79.96237233473221,143.8452182073088 79.54954309260938,144.44811368678347 79.2270202471991,145.13513176931883 79.12381293671206,145.30338071445294 79.0077047123923,145.38750513078412 78.68518186704023,145.47162950964412 78.55617272888776,145.5978160076047 78.41426267696079,145.97637499531265 78.34975810785545,146.42503651614243 78.32395628024824,147.15410921297735 78.33685719402274,147.6027679344552 78.40136176312808,147.86915854578547 78.6206772979931,148.3598771088291 78.74968643614557,148.59822566491493 78.90449740190525,148.822553442762 79.07220928149763,149.14502415637253 79.33022755780257,150.3367589705158 79.381831213017,151.89301310676092 79.23992116109002,152.34166056552203 79.1883175058174,152.70618584066688 79.03350654005772,153.3791537303332 78.78838917752728,153.86985797093075 78.68518186704023,154.17829998364323 78.49166815978242,154.51478160462284 78.15624440065585,155.01950291176036 77.73051424475852,155.52422286962974 77.56280236516614,155.8887420000974 77.27898226119578,156.18316078404314 76.49202651856467,157.29073209721537 76.40172012179391,157.38887101419095 76.24690915609244,157.48700988010387 76.1695036731544,157.57112886745017 76.14370184554718,157.64122799497272 76.13080093171448,157.89358463845565 75.93728722451488,158.1459409446834 75.73087260348257,158.39829691365594 75.395448844356,158.69271178447525 74.86651137791341,159.01516564012854 74.37627665291075,159.19742192367266 74.31177208386362,159.19742192367266 74.0795556352241,159.1413430859393 73.82153735886095,159.16938250689418 73.69252822076669,159.1273233739048 73.58932091027964,159.05722479810356 73.21519440959673,158.65065254530055 72.81526608130662,158.18800029627164 72.73786059848499,158.0478024212207 72.22182404587511,157.38887101419095 71.70578749326523,156.78601686151524 70.99623723345576,156.08502124036022 70.55760616378393,155.70648252281535 69.65454219671665,154.8372425953712 69.04819924745243,154.47272143482405 67.38398136536125,153.645536190641 66.68733201938448,153.46327454788843 66.13259272533469,153.4492544142122 65.88747536280425,153.47729468047328 65.24242967215832,153.43523427950277 64.48127575701801,153.182871676996 63.7072209281032,152.8463876822061 62.61064325389452,152.20145834919822 61.91399390785955,151.62662817368982 61.33345278626075,151.0517962478625 60.90772263036342,150.5190236317285 59.7208385594422,149.46749431913486 59.17900017922511,149.08894233273168 58.882279161480255,148.9066762907314 58.5855581437354,148.7664715232968 58.2243325568852,148.5281231796689 57.966314280580264,148.40193864059984 57.34707041742513,148.19163088810456 56.83103386487346,148.20565141220868 56.46980827808147,148.23369245733193 55.42483425914543,148.48606167601247 55.07650958606973,148.66832812414214 54.715283999277744,149.0048195659765 54.49596846441273,149.17306506195746 53.96703099797014,149.42543302479316 53.063967031019274,149.6217189848394 52.19960580539191,149.7619231170538 51.270740010775626,149.98624951204692 50.34187421610113,150.30871823782218 49.993549543083645,150.37882006181462 49.77423400821863,150.40686078414728 49.34850385237951,150.42088114372746 48.703458161617164,150.36479969909124 48.16161978140008,150.35077933534922 47.37466403871076,150.37882006181462 46.961834796646144,150.40686078414728 46.60060920979595,150.39284042349027 45.11700412112987,150.61716606875416 44.213940154062584,150.8555117747601 43.31087618705351,151.00973530653573 42.69163232395658,151.1779790156579 42.330406737164594,151.26210081399768 42.033685719419736,151.30416169912496 41.32413545961026,151.3181819920719 41.053216269414406,151.37426315349876 40.679089768847916,151.3462225748808 40.31786418205593,151.37426315349876 39.81472854327876,151.37426315349876 39.156781938741915,151.29014140511572 38.69234904134646,151.1779790156579 38.008600609202404,150.9957149906695 37.73768141906476,150.95365403681353 37.18294212501496,150.79943045922846 36.55079734814353,150.68726777822303 36.395986382325646,150.63118641272013 36.150869019911624,150.46294221626886 35.55742698442191,150.12645337353752 35.170399569906294,149.86006594766513 34.86077763844514,149.7198618883267 33.82870453322539,149.15904460966703 33.157857014855836,148.9066762907314 32.22899122018134,148.62626665172866 31.17111628735438,148.4299796566047 30.616376993362792,148.44400016299915 30.397061458497774,148.48606167601247 30.229349578963593,148.55616417688725 30.100340440752916,148.65430763435143 29.635907543473877,148.92069676172105 28.126500627142377,149.69182106397056 28.01039240276441,149.7619231170538 27.94588783371728,149.8740863478888 28.01039240276441,150.6732474384189 28.023293316655327,151.3181819920719 27.80397778179031,152.9164885638893 27.88138326461194,154.37458100209187 27.85558143700473,154.78116246264835 27.80397778179031,155.03352292878844 27.597563160699792,155.5662828052009 27.46855402260553,155.74854241781577 27.197634832409676,156.08502124036022 26.913814728555735,156.3233600435924 26.707400107523426,156.46355919903726 26.21716538257897,156.63179804815445 24.91417308722157,156.9963150403637 23.10804515320342,157.34681148457457 22.604909514426254,157.4309305343777 22.075972048041876,157.55710903884028 20.992295287549496,157.90760444209445" stroke="#4dd2ff" stroke-linecap="round" stroke-linejoin="round" stroke-width="0.5"><title>2023-09-30 15.0km</title></polyline><polyline fill="none" points="154.28869465738535,118.13275549652462 155.1612505762023,117.64970981044462 155.96795321814716,117.0235380356462 156.44538947561523,116.89830348549003 156.7581925407867,116.68361553379509 157.41672530968208,116.50470876126201 157.92708820552798,116.11111339420313 158.1081847169553,116.0037690915924 158.30574454768794,115.96798764675623 158.55269433604553,115.75329886628606 158.99720395496115,115.66384515129903 159.3593969779322,115.41337457270129 159.82036991615314,115.25235763473029 160.1167096621357,115.0376682166825 161.0551188578247,114.66196127494914 161.40084856149042,114.55461632684455 161.77950490359217,114.26836289819039 162.1252346073161,114.12523605638125 162.28986779949628,114.12523605638125 162.4874276301707,114.23258119575621 163.09657044138294,114.82297860742256 163.26120363362134,115.0376682166825 164.067906275508,115.75329886628606 165.12155870581046,116.59416216411046 166.88313386251684,118.09697436778515 168.1837360811187,119.09884396419511 168.43068586941808,119.36720118457743 168.95751208456932,119.83235299216176 170.15933438780485,120.7984346471203 171.1965234988602,121.74662213562988 171.36115669109859,121.99708613239636 171.641033117834,122.2475498689164 171.67395975627005,122.39067188727495 171.5422532025259,123.83977753628278 171.65749643702293,124.39437122024538 171.5422532025259,125.48566474360996 171.44347328715958,125.75401485316979 171.5422532025259,126.50539357062371 171.47639992559562,126.84530222100148 171.52578988322057,127.47144848019525 171.50932656408986,128.07970328886586 171.3776200102875,128.866854292457 171.39408332947642,129.5287747378461 171.44347328715958,129.79712034654221 171.34469337185146,130.56637610279722 171.08128026430495,131.53241473842354 170.83433047594735,131.85442675670492 170.65323396452004,132.176438344919 170.32396758004325,132.90990757910185 170.30750426079612,133.26769663968298 170.15933438780485,133.44659097086696 170.1264077493688,133.5718169237225 171.2788400949794,134.14427759412501 171.4599366064067,134.26950318455056 171.50932656408986,134.39472870995814 171.7068863947061,134.94929811207112 171.69042307551717,135.1460804965609 171.73981303320033,135.50386623863596 171.69042307551717,135.64698038680945 171.49286324484274,135.82587295255507 171.39408332947642,135.96898690956004 171.39408332947642,136.2194361299771 171.42700996797066,136.45199588735704 171.65749643702293,136.84555804278352 171.6245697986451,137.3106761254603 171.92090954462765,137.52534570715216 172.2172492906102,138.09779699065257 172.26663924829336,138.49135645960632 172.71114886726718,139.5825861729245 173.04041525174398,140.35181070811814 173.18858512473525,141.38936549634673 173.68248470145045,141.58614262497576 173.92943448974984,141.5324761512602 174.061141043494,141.55036497712717 174.62089389702305,142.23013937767246 175.0654035161133,143.10668774969236 175.09833015449112,143.14246516663115 175.411133219779,143.08879903926572 175.411133219779,143.12457645879476 174.85138036619173,143.3392408646323 174.43979738559574,143.53601640208217 174.17638427810743,143.71490311498928 173.88004453206668,144.0726761426631 173.83065457438352,144.59144609003852 173.74833797832252,144.8061091900745 173.41907159384573,145.00288353060023 172.99102529406082,145.18176915537333 172.76053882495034,145.5574285354669 172.66175890958402,145.5574285354669 172.2995658867294,145.3069890137558 172.2172492906102,145.34276610420784 171.90444622538052,146.95272968120116 172.00322614068864,147.50727020244813 171.8879829061334,149.0098897224525 172.03615277918288,149.4570961051213 171.83859294856666,149.7075313172245 171.7892029908835,149.86852524484857 171.8879829061334,150.06529545485682 172.08554273686605,150.154736406359 172.2337126097991,150.33361820982827 172.43127244047355,150.4230590617808 172.49712571740383,150.56616435592878 172.49712571740383,150.74504585425893 172.41480912122643,151.3174657573254 172.28310256748227,151.81833205807197 171.90444622538052,152.89161348585912 171.82212962926133,153.5355800500547 170.75201387982816,155.64634729066165 170.25811430317117,156.3976328682911 169.8629946418223,157.39934333194105 169.73128808807814,157.5961073984945 169.46787498047343,157.84653416016954 169.33616842667107,158.04329786197923 169.25385183061007,158.70513822653447 168.67763565777568,159.90360129257897 168.36483259260422,160.38656233756046 167.90385965438327,160.63698620241485 167.7721531005227,160.780085437058 167.49227667378727,161.20938263169955 167.19593692774652,161.78177770294133 165.22033862111857,163.65993949121912 164.36424602154875,164.71528112758824 163.59047001809813,165.3413290693279 163.26120363362134,165.6990700209717 162.70145078009227,166.03892343373445 162.15816124575213,166.61130704676907 161.64779834984802,167.05848079967836 161.4667018384207,167.30889773926174 161.10450881550787,167.63086199398094 160.34719613124616,168.47154441144085 159.8697598738363,168.73984669407946 159.47464021242922,169.24067682333407 158.81610744353384,169.70573244114348 158.58562097448157,169.81305284105474 158.17403799394378,169.92037319320661 157.38379867124604,170.29599404986948 156.98867900989717,170.36754081341496 156.64294930623146,170.67161432180728 156.4289261563099,170.79682094918098 155.72100342973135,170.88625421468168 155.21064053388545,171.17244044152903 154.46979116887087,171.387079888882 154.14052478445228,171.53017274771992 153.7289418038563,171.6196057414345 153.16918895026902,171.44073972091428 152.75760596967302,171.56594594921626 152.1484631584608,171.99522395296663 151.8850500509725,172.10254333460762 151.42407711275155,172.19197611615527 151.24298060132423,172.33506849770492 151.07834740902763,172.5139338553272 150.7326177053037,172.67491256378707 150.58444783237064,172.8537776694866 150.2881080863881,173.06841562133923 149.58018535980955,173.9090790945047 149.06982246390544,174.67819417486317 148.8557993140421,174.9286032069067 148.55945956805954,175.39364786280203 147.95031675684731,176.18064446968492 147.62105037237052,176.52048312014085 146.89666432654485,177.3969069049199 145.2667957235244,179.1139728489652 143.66985375899822,180.92045612377115 142.9783943516668,181.65377715899376 142.08937511366094,182.45863914517395 140.82169953355333,183.7106413444999 140.5582864258904,184.01469804137014 140.17963008384686,184.31875435520487 139.372927441902,185.08783626293007 139.06012437667232,185.3382344947895 138.25342173478566,185.7853735484823 137.8747653926839,185.9105723350658 137.3479391775909,185.9463434050558 136.2613601089106,185.9284578707011 135.1747810402303,185.76748800223868 134.38454171753256,185.46343351334508 133.11686613742495,185.06995066499803 131.8162639188231,184.55126774852397 131.27297438448295,184.2650973865093 128.85286645876477,182.88789777370403 125.82361572183436,181.68954885982384 125.16508295293897,181.60011959781696 124.73703665315406,181.67166301010002 124.49008686491288,181.74320640112273 125.0169130799477,181.61800545288133 125.49434933741577,181.63589130660694 125.87300567951752,181.72532055534248 127.09129130200017,182.261895351985 128.81993982038694,182.92366929161653 130.87785472313408,184.0862407379318 131.99736043030862,184.65858154682792 133.62722903332906,185.24880658465554 135.12539108254714,185.7317169057642 135.5863640207681,185.8569157201855 136.50830989720998,186.0 137.49610905058216,186.0 137.940618669556,185.9642289380281 138.22049509634962,185.87480125979346 139.14244097279152,185.30246333472314 141.21681919478578,183.40658426460868 142.5832746902597,181.93995061713213 143.04424762848066,181.5822337414429 143.43936728988774,181.08142922478146 144.54240967769874,179.97250123984122 145.3326490004547,179.06031472311588 146.7649577728007,177.5936546640878 147.57166041468736,176.69934537552763 149.16860237927176,174.62453506272868 149.25091897533275,174.42778488289332 149.61311199824559,173.98062478678185 149.7942085097311,173.8196469493123 149.9588417019113,173.60500966569816 150.27164476714097,173.13996156283247 150.716154386173,172.69279908035242 151.0454207706498,172.54970691089693 151.3746871550684,172.2277492194844 151.5557836664957,172.1562030075147 151.9015133701614,172.12042989354813 152.26370639307424,171.97733738475654 152.83992256585043,171.56594594921626 153.2350422271411,171.49439954099944 153.67955184617313,171.69115211250028 153.84418503841152,171.70903870195616 155.12832393776625,171.4049665008788 155.3258837684407,171.29764680903463 155.7539300682256,170.92202751158038 156.000879856525,170.86836756420962 156.57709602935938,170.83259425939468 157.0216056483332,170.67161432180728 157.36733535199892,170.49274759856053 157.66367509803968,170.2423339632951 158.09172139782459,169.9919200681179 158.33867118606577,169.88459974777652 158.83257076283917,169.74150591307261 159.5404934894177,169.1691297256766 159.90268651227234,168.73984669407946 160.42951272742357,168.43577075125359 160.61060923885088,168.22112867851683 161.5490184344817,167.30889773926174 161.77950490359217,167.02270692991442 162.33925775717944,166.71862882305868 162.5532809070428,166.45032429284765 162.76730405696435,166.27145444029884 162.9813272068859,166.1820194642787 163.17888703750214,165.9137143373664 163.4752267835429,165.71695705461025 164.10083291394403,165.1624583945959 165.18741198262433,163.7851497572119 167.344106800796,161.71022839327634 168.6117823809036,160.24346286946093 168.82580553082516,159.88571382786904 170.58738068753155,156.21875556206214 171.16359686036594,154.89505937306967 171.90444622538052,153.57135591993574 171.93737286381656,152.96316541121632 172.1349326944328,152.46230148781615 172.39834580209572,151.4605705208087 172.5629789942759,150.58405251176737 172.51358903659275,150.35150638286723 172.2337126097991,150.2620655043429 172.1349326944328,150.11896002972207 171.93737286381656,149.99374266980158 171.8879829061334,149.86852524484857 172.08554273686605,149.42131962502026 171.9702995023108,148.90256006721756 171.9702995023108,147.93659102063975 172.06907941761892,147.4536050464667 172.03615277918288,147.095837034547 172.06907941761892,146.46974173662602 172.15139601373812,145.87942182408005 172.31602920597652,145.3069890137558 172.39834580209572,145.28910046651436 172.76053882495034,145.53954000683734 172.92517201724695,145.52165147685446 173.12273184786318,145.27121191797778 173.4026082746568,145.0565492319729 173.74833797832252,144.89555209202808 173.92943448974984,144.7166662549571 173.99528776668012,144.55566888811882 174.1434576396132,143.80434642168984 174.25870087416843,143.607571103159 175.36174326209584,143.12457645879476 175.50991313508712,142.99935546716733 175.411133219779,142.99935546716733 175.09833015449112,143.12457645879476 175.01601355843013,143.10668774969236 174.35748078953475,141.40725433288026 174.20931091648526,141.2820324494387 173.978824447433,141.29992129390303 173.86358121287776,141.1568105009792 173.5672414668952,141.03158848747262 172.9745619748719,140.13714364287443 172.66175890958402,139.49314130027778 172.4641990789678,138.68813595324173 172.25017592904624,138.04412974054867 171.92090954462765,137.68634776800172 171.65749643702293,137.50745658265078 171.57517984090373,137.38223267394642 171.65749643702293,136.95289306454652 171.52578988322057,136.5414418882283 171.50932656408986,136.07632232159085 171.52578988322057,135.95109766958922 171.7233497139532,135.53964478363923 171.75627635238925,134.8598515206104 171.7068863947061,134.64517956564669 171.52578988322057,134.41261806541297 170.48860077228164,133.80437923499267 170.32396758004325,133.62548516930838 170.3733575377264,133.26769663968298 170.34043089923216,132.9456865090906 170.65323396452004,132.26588593197812 171.06481694499962,131.639752125644 171.32823005260434,130.79894131333276 171.49286324484274,127.99025414854987 171.4599366064067,127.52511808385316 171.49286324484274,126.07603459026723 171.4599366064067,125.77190484981111 171.55871652177302,125.30676450458122 171.60810647939797,123.08839050945244 171.69042307551717,122.31911088869674 171.65749643702293,122.15809856435226 171.36115669109859,121.96130557736615 171.32823005260434,121.78240272249968 171.36115669109859,121.53193850262323 171.641033117834,121.26358369247464 171.67395975627005,121.04889962921152 171.65749643702293,120.65531168333837 171.57517984090373,120.60164054998313 171.39408332947642,120.65531168333837 170.9495737105026,120.61953092907788 170.42274749540957,120.36906550078129 169.51726493809838,119.68922945467057 168.64470901939785,118.88415797267226 168.24958935799077,118.6336907409277 167.57459326990647,118.09697436778515 167.3605701199849,117.98963094969804 167.21240024699364,117.81072514674452 165.40143513254588,116.37947394145885 164.2325394678046,115.35970227200596 163.16242371831322,114.46516216693271 162.40511103410972,114.0 161.7959682228975,114.17890863202047 161.61487171141198,114.33992628724081 161.10450881550787,114.60828880689223 160.61060923885088,114.82297860742256 159.7709799585282,115.34181150242512 159.40878693555715,115.4491560998722 158.783180805156,115.77118960530788 158.04233144008322,116.02165981201688 157.79538165178383,116.1468948177353 157.53196854423732,116.2005669431237" stroke="#4dd2ff" stroke-linecap="round" stroke-linejoin="round" stroke-width="0.5"><title>2023-03-18 15.0km</title></polyline><polyline fill="none" points="62.29617627977859,196.79647076365654 62.7884708714555,196.44387490670488 63.04580668074777,196.18854639847996 63.5381012725411,195.94537602059427 63.76187154150102,195.8602663030615 63.9520762701286,195.884583369756 64.5786330231931,195.5806197768543 64.81359180563595,195.53198554966366 65.55203369323863,195.08211826333718 66.43592625565361,194.6322497413057 67.28625327767804,194.26749057302368 67.51002354669617,194.10942801448982 67.90162151737604,194.0 69.38969380600611,195.2158627207682 70.37428298941813,196.10343680730148 71.81760122429114,197.222016476735 72.32108432950918,197.708353080714 73.18259986495832,198.4256969357957 73.68608297017636,198.93634657944494 73.97698431985918,199.13087935831572 74.20075458881911,199.54426074624644 74.24550864257617,200.0427486795379 74.17837756191147,200.31022938419483 74.1895660753944,200.60202601844503 74.2678856694838,200.90598029302782 74.30145120987436,201.6841006660543 74.23432012909325,201.7692073576036 74.24550864257617,202.14610788875143 74.1895660753944,202.38926906157576 74.21194310224382,203.04580242531665 74.1895660753944,203.580753591159 74.14481202157913,203.72664906048158 74.1895660753944,203.99412375016254 74.1224349946715,205.31933281650709 73.97698431985918,205.51385801579454 73.94341877952684,205.708382984114 73.65251742984401,206.21900992702285 73.24973094568122,207.1429974927887 73.38399310706882,207.30104747560108 74.10005796776386,207.5563586641365 74.1895660753944,207.6293046449573 74.16718904848676,207.90893060390954 74.31263972329907,208.45602349116234 74.1224349946715,208.8085934950359 74.21194310224382,209.25842308823485 74.34620526363142,209.48941618320532 74.31263972329907,209.70825144651462 74.44690188468667,209.84198396354623 74.73780323431129,210.34044056548737 74.96157350327121,211.167145733285 75.21890931262169,211.58049675314396 75.37554850091692,212.37072374208947 75.7783349850215,212.528768682605 76.01329376746435,212.528768682605 76.28181809018133,212.905644464161 76.43845727847656,213.0393743718596 76.50558835914126,213.3797772807884 76.61747349367943,213.61076456635783 76.69579308776883,213.6472362132481 76.83005524915643,213.6472362132481 76.28181809018133,213.84175152629905 76.23706403642427,213.80527992268617 76.24825254984898,213.89038031849486 76.16993295575958,213.9754806701094 75.89022011950146,214.1943099427881 75.83427755226148,214.5954961837997 75.76714647153858,214.7292247125588 75.58813025639392,214.88726737858087 75.20772079919698,215.0817812198802 75.07345863775117,215.3006090153649 74.97276201675413,215.32492319685116 74.70423769397894,215.14256674791977 74.63710661331424,215.21550935183768 74.48046742501901,216.30964451479667 74.536409992259,216.61356965269079 74.48046742501901,217.64691090592532 74.56997553259134,217.9386766685784 74.42452485777903,218.23044191187364 74.44690188468667,218.31554001000768 74.59235255949898,218.3641674748069 74.6818606670713,218.49789292862988 74.84968836879125,218.60730458245962 74.76018026121892,219.40965447883354 74.49165593844373,220.17553026165115 74.39095931744669,220.79552232204878 73.70845999708399,222.13275211618748 73.3728045936441,222.6068582420121 73.09309175738599,223.34840609958337 72.70149378676433,223.7617264003784 72.64555121946614,224.22367138575646 72.22038770845393,225.12324472710316 72.00780595291872,225.40284084122686 71.73928163014352,225.53656055334432 71.6497735225712,225.63381118455436 71.21342149807606,226.38750162046927 69.88198839774122,227.6517487650417 69.3225627252832,228.35680543842318 68.81907962012338,228.7458009258844 68.5617438108311,229.02539086248726 68.19252286705887,229.25635610272002 67.99112962494837,229.5116330949677 66.99535192805342,230.42333339444303 66.570188416983,230.90957148149027 66.21215598669369,231.10406631258957 65.97719720425084,231.3958081266901 65.36182896461105,231.80910814153322 64.63457559043309,232.1008487012732 64.25416613317793,232.17378376012493 63.89613370288862,232.4655236710969 63.49334721872583,232.52630275388947 63.112937761470675,232.75726306306024 62.598266142827924,232.85450941169984 62.262610739446245,232.98822304692294 62.06121749733575,233.01253460528096 61.75912763422821,232.9152883503266 61.490603311453015,232.97606726641243 60.998308719776105,233.32858453555673 60.785726964240894,233.40151904834784 60.50601412804099,233.4258305454132 60.28224385908106,233.64463385671843 60.05847359006293,233.75403540291882 59.9689654824906,233.87559259086265 59.778760753863025,233.99714968871558 59.678064132865984,234.17948516651813 59.409539810032584,234.3618204416416 59.174581027647946,234.62924514508632 58.93962224526331,235.04253701087146 58.827737110783346,235.1762488620734 58.760606030060444,235.3828942359105 57.261345228005666,237.2062244855042 56.59003442112589,237.92339549589087 56.16487091005547,238.30021290568402 54.65442159451777,239.95333711885905 54.28520065074554,240.33014986521448 53.63626687071519,240.93791053528548 53.367742547998205,241.25394519379188 53.009710117592476,241.52135866004392 52.31602228380507,242.1777353198704 52.02512093418045,242.38437187291856 51.4433182348148,242.68824868394586 51.26430201967014,242.74902397862752 50.984589183470234,242.74902397862752 49.731475677283015,242.65178349634516 49.39582027378492,242.55454295645177 49.015410816529766,242.3965269561595 47.30356825893978,241.82523706978827 44.864472327171825,240.50032307981746 42.962425041012466,239.8074738879077 42.60439261060674,239.75885278207716 42.31349126092391,239.8074738879077 42.05615545163164,239.9290265893942 41.384844644751865,240.43954695198045 41.082754781644326,240.7677377746295 40.59046018990921,241.1445486501325 39.84082978888182,241.9224780420045 39.2814041164238,242.66393855981005 38.99050276679918,243.13798533128283 38.73316695750691,243.63634071654815 37.48005345131969,246.96677442707005 36.51784129469888,248.58334743964951 36.21575143159134,249.26400499571173 36.03673521644669,250.37006750212458 35.622760218859185,252.08384193468373 35.34304738265928,252.92249098558386 35.264727788453456,253.46943370968802 34.72767914296128,255.7179568684369 34.917883871588856,258.08798847046273 34.92907238507178,258.4647595722927 34.88431833125651,259.3519913312193 34.52628590090899,260.7132142953051 34.21300752431853,261.21151630776876 34.000425768841524,261.8435069281695 33.67595887882635,262.4998023047374 32.57948456087615,263.557161558987 31.16973186645191,264.5902071264718 29.860675792966504,265.258644911999 28.31666093703825,265.80554653033323 26.671949460171163,265.9149266353634 25.03842649672879,265.8541599193413 24.120968393981457,265.9149266353634 23.684616369428113,265.72047306491004 23.404903533228207,265.46525240417395 23.102813670120668,265.2343381311366 23.136379210453015,265.3315652330202 23.393715019803494,265.4530990294588 23.606296775338706,265.73262641982 23.785312990483362,265.8541599193413 24.199287988070864,265.98784666490974 24.658017039473634,265.95138665419654 26.64957243320532,266.0 28.394980531185865,265.86631326434144 29.614528497098945,265.40448552169255 29.93899538705591,265.30725846295536 31.326371054688934,264.60236056506983 32.65780415502377,263.5814685881778 33.32911496196175,262.9737917781749 33.78784401330631,262.48764871049207 34.358458199189045,261.4788972518436 34.716490629536565,260.02045044743863 34.72767914296128,259.78952851504437 34.861941304348875,259.41276045427367 34.92907238507178,258.08798847046273 34.78362171020126,256.86043791330303 34.72767914296128,255.7179568684369 35.16403116739821,253.8462154147128 35.17521968088113,253.1169597185799 35.41017846332397,252.69155906586093 35.633948732342105,251.93798948831682 35.94722710887436,250.69823845989595 36.20456291816663,249.37339612527285 36.37239061988657,248.86290356329118 37.535996018501464,246.8938459457422 38.710789930599276,243.80651050138113 38.96812573989155,243.22307050423115 39.35972371062962,242.5666980271053 40.53451762266923,241.22963485706714 41.79881964233937,240.14782122506585 41.96664734405931,240.01411342683423 42.38062234164681,239.81962916209886 42.72746625851141,239.79531861279975 43.05193314852659,239.83178443538782 45.08824259613175,240.63403048172768 47.16930609755218,241.77661656207056 47.695166229619645,242.0075638454582 49.87692635203712,242.712558804531 50.36922094383044,242.77333409017592 50.928646616172045,242.79764419814455 51.29786756000249,242.78548914463317 51.544014855870046,242.7247138634557 52.3383993107127,242.20204551608185 54.195692543115,240.4517021793872 55.35929794172989,239.2604856164835 58.0445411693654,236.33102849549323 59.062695893167984,234.92098068786436 59.48785940423841,234.49553284786816 59.85708034801064,233.93637115103775 60.15917021111818,233.705412502517 60.34937493974576,233.6081666584505 60.595522235613316,233.38936329845455 60.95355466596084,233.35289604340505 61.52416885184357,232.97606726641243 61.77031614765292,232.9274441353482 62.161914118390996,233.04900193600042 62.43043844110798,233.01253460528096 62.74371681769844,232.85450941169984 63.269576949765906,232.74510726542212 63.58285532629816,232.52630275388947 64.00801883736858,232.4898353069002 64.26535464666085,232.40474456577795 64.51150194252841,232.3074979504163 65.09330464183586,231.91851091223361 65.56322220666334,231.7604846644099 65.71986139490036,231.65108178825176 65.97719720425084,231.56599061189627 66.570188416983,231.0797544713132 66.8387127398164,230.69076452075387 67.58834314084379,229.9249378588429 67.97994111152366,229.73044162912993 68.19252286705887,229.4508528947772 68.43867016286822,229.3171363750007 69.14354651013855,228.67286434229754 69.96030799188884,227.676061114631 71.29174109222367,226.3753453506215 72.23157622187864,225.3177464222099 73.5741978356964,222.6068582420121 73.9881728332839,221.64648799864517 74.44690188468667,220.7833656375442 74.55878701916663,220.21200044777652 74.67067215364659,219.99317920937028 74.80493431503419,219.51906552405853 74.91681944951415,218.65593196070404 74.87206539569888,218.570834039303 74.49165593844373,218.31554001000768 74.45809039811138,218.23044191187364 74.59235255949898,217.96299045867636 74.48046742501901,217.48887090095377 74.56997553259134,216.60141265796847 74.54759850568371,216.34611556111486 74.59235255949898,215.67747842271638 74.71542620740365,215.19119515415514 74.79374580160948,215.13040964413085 75.00632755708648,215.27629483029887 75.10702417814173,215.27629483029887 75.2972289067693,215.0817812198802 75.66644985054154,214.88726737858087 75.87903160607675,214.68059616927349 76.01329376746435,213.9876378596091 76.34894917090423,213.7931227196823 76.69579308776883,213.70802227337845 76.89718632987933,213.61076456635783 76.63985052058706,213.6472362132481 76.56153092643945,213.5986073489039 76.13636741542723,212.4679821850732 75.82308903883677,212.37072374208947 75.54337620257866,212.395038358256 75.28604039328638,212.05463340379356 74.82731134194182,210.74163624132052 74.73780323431129,210.25533832615474 74.6035410729819,210.06081875598466 74.29026269639144,209.8541414596839 74.24550864257617,209.7933539699734 74.30145120987436,209.55020378566405 74.17837756191147,209.1854778326815 74.17837756191147,208.86938135007222 74.20075458881911,208.7478056174732 74.35739377711434,208.57759944026475 74.36858229053905,208.49249628536927 74.17837756191147,207.5806739947293 73.6413289164193,207.3618358898966 73.35042756673647,207.21594365764759 73.32805053982884,207.16731288465962 73.35042756673647,206.76610845707182 73.48468972812407,206.6323734295438 73.65251742984401,206.24332545604557 73.87628769886214,205.96369665450766 74.08886945433915,205.27070148060739 74.06649242748972,204.83301880786894 74.17837756191147,203.54427970355027 74.20075458881911,202.0853175391676 74.1224349946715,201.75704926153412 74.20075458881911,201.62331014500523 74.21194310224382,200.8451894832251 74.27907418296672,200.52907690859865 74.22313161572674,200.16433087216865 74.32382823672378,199.59289378215908 74.27907418296672,199.44699463117286 74.03292688704096,199.39836155201192 73.97698431985918,199.228145661109 74.02173837361624,199.10656277360977 74.29026269639144,198.7782885265624 74.34620526363142,198.45001362157927 74.24550864257617,198.3892219003319 73.94341877952684,198.4256969357957 73.5070667549735,198.25548003414588 73.13784581125947,197.9879959741229 72.30989581608446,197.24633334123064 71.85116676462349,196.9423722755455 70.69874987943331,196.05480273535068 69.91555393813178,195.3496070689871" stroke="#ff0a00" stroke-linecap="round" stroke-linejoin="round" stroke-width="0.5"><title>2023-03-11 21.3km</title></polyline></svg>