<?xml version="1.0" encoding="utf-8" ?>
<svg baseProfile="full" height="300mm" version="1.1" viewBox="0,0,200,300" width="200mm" xmlns="http://www.w3.org/2000/svg" xmlns:ev="http://www.w3.org/2001/xml-events" xmlns:xlink="http://www.w3.org/1999/xlink"><defs /><rect fill="#222222" height="300" width="200" x="0" y="0" /><text fill="#FFFFFF" style="font-size:12px; font-family:Arial; font-weight:bold;" x="10" y="20">Over 15km Runs</text><text fill="#FFFFFF" style="font-size:4px; font-family:Arial" x="10" y="280">ATHLETE</text><text fill="#FFFFFF" style="font-size:9px; font-family:Arial" x="10" y="290">Tian</text><text fill="#FFFFFF" style="font-size:4px; font-family:Arial" x="120" y="280">STATISTICS</text><text fill="#FFFFFF" style="font-size:3px; font-family:Arial" x="120" y="285">Number: 6</text><text fill="#FFFFFF" style="font-size:3px; font-family:Arial" x="120" y="290">Weekly: 1.0</text><text fill="#FFFFFF" style="font-size:3px; font-family:Arial" x="141" y="285">Total: 105.8 km</text><text fill="#FFFFFF" style="font-size:3px; font-family:Arial" x="141" y="290">Avg: 17.6 km</text><text fill="#FFFFFF" style="font-size:3px; font-family:Arial" x="167" y="285">Min: 15.0 km</text><text fill="#FFFFFF" style="font-size:3px; font-family:Arial" x="167" y="290">Max: 21.5 km</text><polyline fill="none" points="14.0,80.15258024931245 14.141935483843554,80.09649165310839 14.283870967745315,79.99833656966803 14.580645161273424,79.90018143520865 14.877419354801532,79.88615926896455 15.135483870923053,79.83007059364172 15.62580645160051,79.70387101324741 15.870967741881032,79.70387101324741 16.064516128972173,79.67582665063674 16.18064516125014,79.66180446770159 16.37419354839949,79.5636491583573 16.645161290303804,79.53560477492283 16.774193548364565,79.46549379799399 17.083870967733674,79.19907184847398 17.44516129035037,79.00276069773827 17.767741935444064,78.90460504585644 17.987096774159,78.75036034701043 18.29677419352811,78.68024907863582 18.9677419353975,78.44187057137606 19.148387096764054,78.34371462797571 19.793548387067858,78.2315363445523 21.612903225817718,77.58650992142793 22.090322580654174,77.44628649445076 22.61935483868001,77.34813003362797 23.109677419357467,77.22192879473732 25.05806451610988,76.89941413440101 25.329032258072402,76.78723499299667 25.625806451542303,76.74516779779515 26.348387096717488,76.56287651031744 26.593548387056217,76.45069716901344 26.9806451612385,76.17024852419854 27.148387096764054,75.97393422503956 27.509677419322543,75.3429225954751 27.780645161285065,74.55766073397535 27.80645161285065,74.08089301062864 27.75483870966127,72.62253720783337 27.845161290315446,72.13174185650132 27.935483870911412,71.06601041527756 27.961290322593413,70.19659346849949 27.948387096752413,69.90211262725643 27.961290322593413,69.81797515970538 28.077419354813173,69.69176888804941 28.541935483866837,69.39728725947498 29.80645161285065,68.76625365159998 30.322580645093694,68.61200067109894 30.42580645158887,68.61200067109894 30.645161290303804,68.54188563833304 31.20000000001164,68.45774756457831 31.729032258037478,68.52786262863083 31.974193548376206,68.52786262863083 32.206451612873934,68.56993165456515 32.59354838705622,68.68211567788967 33.767741935444064,69.07475923449965 34.141935483843554,69.27108070660324 36.30967741936911,70.54716529967845 36.529032258025836,70.64532529575808 36.86451612901874,70.71543954742083 37.148387096764054,70.75750808593875 39.10967741935747,71.24830700928578 39.61290322575951,71.31842103709641 40.36129032255849,71.33244383949204 41.07096774189267,71.30439823360939 41.341935483855195,71.26232981693465 41.85806451609824,71.26232981693465 42.28387096768711,71.23428420061828 43.148387096764054,70.96785063789866 44.090322580595966,70.7855537730793 44.36129032255849,70.7855537730793 44.55483870970784,70.71543954742083 45.329032258014195,70.53314243891509 45.59999999997672,70.44900525253615 46.206451612873934,70.35084515438939 46.67096774186939,70.3227994027111 47.61290322581772,70.21061635421938 47.94838709675241,70.22463923894975 48.28387096768711,70.21061635421938 48.56774193543242,70.26670788681076 49.53548387088813,70.33682227907411 50.141935483843554,70.2947536468273 51.00645161286229,70.0563645537768 51.54838709672913,69.86004389819573 52.645161290303804,69.6356771846913 53.6645161290071,69.4533790336427 53.974193548376206,69.3692413661629 54.464516128995456,69.11682813857624 54.87741935480153,68.78027664359252 55.14838709670585,68.51383961789543 55.458064516074955,68.3736094533524 55.71612903219648,68.33154038367502 56.464516128995456,68.1492409734783 57.12258064514026,68.10717185380054 57.38064516126178,68.12119489474571 57.974193548376206,68.31751735840226 58.37419354834128,68.48579359332507 59.0064516129205,68.89246054188698 59.22580645157723,69.07475923449965 59.74193548387848,69.3692413661629 60.70967741927598,70.2947536468273 60.967741935455706,70.50509671430336 61.3032258063904,70.96785063789866 61.57419354835292,71.26232981693465 62.206451612873934,71.85128679724585 62.56774193549063,72.1177191134484 63.45806451613316,72.65058261794911 64.49032258067746,73.11333128351544 65.23870967736002,73.33769386466884 65.44516129029216,73.37976181895647 65.78064516122686,73.39378446829505 66.21935483865673,73.36573916855559 66.50322580640204,73.37976181895647 66.91612903226633,73.43585241008259 67.44516129023395,73.5760788150219 68.87741935474332,74.30525444216619 69.35483870957978,74.57168329584238 70.14193548384355,75.2728100620152 71.59999999991851,76.64701097254874 72.52903225802584,77.7828225442936 72.74838709674077,77.96511265421577 72.95483870967291,78.35773690874339 73.2903225805494,78.73633809541934 73.71612903225468,79.07287184643792 73.83225806447444,79.14298296908964 73.94838709675241,79.1570051904855 74.12903225800255,79.1149385231547 74.30967741936911,79.14298296908964 74.51612903224304,79.10091629863018 74.90322580642533,78.94667176007351 75.41935483861016,78.62416004514671 75.78064516122686,78.2736032086541 75.94838709675241,78.00717957766028 76.15483870962635,77.62857692921534 76.16774193540914,77.48835353348113 76.21935483871493,77.40421944604896 76.3225806451519,77.29204060453048 76.49032258056104,77.22192879473732 76.6580645160866,76.96952606394188 76.86451612896053,76.73114539733797 76.99354838702129,76.54885409629787 77.13548387098126,76.21231584748602 77.41935483866837,75.77761972180451 77.6387096773833,75.49717007740401 77.987096774159,75.13258491702436 78.50322580640204,74.41743505795603 78.6322580644628,74.12296079934458 78.82580645161215,73.59010144977947 78.9548387096147,73.36573916855559 79.03225806448609,73.14137662071153 79.26451612898381,72.0896736241557 79.3419354838552,71.24830700928578 79.3419354838552,70.88371364522027 79.22580645157723,70.07038744990132 79.09677419351647,69.50947079117759 79.01935483864509,69.32717251831491 78.9548387096147,69.07475923449965 78.41290322574787,68.00901053813868 78.2967741934699,67.57429552666144 78.28387096768711,67.43406466428132 78.3354838709347,67.11153328551154 78.2967741934699,66.66279305935313 78.3096774193109,66.05979670077795 78.52903225802584,65.47082165404572 78.60645161289722,65.38668221163971 78.9806451612967,65.3165659809747 79.10967741929926,65.24644972430542 79.3161290322314,64.8958680502692 79.6516129031661,64.22274941111391 80.25806451612152,63.38134773694037 80.77419354836456,62.834434637610684 81.36774193547899,62.329590370340156 82.10322580643697,61.936932784563396 82.74838709674077,61.51622732197575 83.22580645157723,61.235756492693326 83.76774193544406,60.955285246658605 84.09032258059597,60.815049467404606 84.30967741936911,60.688837176930974 84.49032258061925,60.61871920133126 84.87741935474332,60.39434150439047 86.0,59.847419750673 85.85806451615645,59.94558531032817 85.41935483866837,60.11386900812795 84.77419354836456,60.40836511827365 84.36129032255849,60.604695603091386 84.18064516125014,60.67481358391524 83.48387096769875,61.02540309725737 82.63225806452101,61.488180257816566 81.987096774159,61.936932784563396 81.43225806450937,62.24544952787983 80.89032258064253,62.63810647188802 80.52903225802584,62.93259864393622 80.0,63.57767512967985 79.87096774188103,63.788025681031286 79.6774193548481,64.02642268926138 79.3161290322314,64.76965848825057 79.05806451610988,65.19035670023004 79.01935483864509,65.24644972430542 78.90322580642533,65.28851948145893 78.65806451602839,65.3165659809747 78.50322580640204,65.42875193753571 78.45161290321266,65.5549610589078 78.38709677418228,65.79335583577631 78.3096774193109,66.24209812858317 78.27096774190431,67.26578749192413 78.28387096768711,67.63038784245146 78.37419354834128,67.9248722269258 78.81290322577115,68.68211567788967 79.04516129032709,69.14487406941771 79.10967741929926,69.52349372797471 79.22580645157723,70.02831875832635 79.3161290322314,70.9257821462379 79.27741935482481,71.86530956010392 79.16129032254685,72.2439237635408 79.12258064514026,72.63655991342966 79.00645161286229,73.28160324435157 78.94193548389012,73.44987505524477 78.61935483868001,74.01078000856796 78.46451612905366,74.38938991022587 77.81935483863344,75.32890009084076 77.40645161288558,75.8477320677921 77.22580645151902,76.15622608104604 76.92903225799091,76.46471959030896 76.60645161283901,76.98354844671849 76.42580645158887,77.20790642965585 76.3354838709929,77.23595115880016 76.2709677418461,77.30606296336919 76.19354838709114,77.48835353348113 76.18064516125014,77.68466625835572 75.74193548387848,78.24555863358546 75.56129032257013,78.46991511725355 75.3161290321732,78.66622682180605 74.90322580642533,78.91862728500564 74.34838709671749,79.1570051904855 74.23225806449773,79.17102741086273 73.99999999994179,79.10091629863018 73.83225806447444,79.12896074664604 73.72903225803748,79.1149385231547 73.61290322575951,79.04482739006926 73.3161290322314,78.79242709557002 72.73548387095798,78.07729109593492 72.58064516127342,77.83891182762454 72.14193548384355,77.34813003362797 71.85806451604003,76.94148129526002 71.54838709678734,76.5909213352279 69.50967741932254,74.65581864524574 69.03225806448609,74.38938991022587 68.76129032252356,74.2772092778032 67.56129032251192,73.6602146080113 67.29032258060761,73.54803354233445 66.9677419353975,73.46389769940288 66.55483870964963,73.39378446829505 65.69032258063089,73.42182976384356 65.21290322579443,73.36573916855559 64.50322580640204,73.12735395264463 63.53548387094634,72.65058261794911 62.49032258061925,72.04760538245318 62.12903225806076,71.79519573542348 61.458064516074955,71.16417014162289 60.761290322523564,70.35084515438939 59.94838709675241,69.56556253206509 59.6516129031661,69.31314956693677 58.412903225806076,68.45774756457831 58.28387096768711,68.3736094533524 57.6516129031661,68.1492409734783 57.25161290320102,68.09314881182218 56.99354838702129,68.10717185380054 56.51612903224304,68.16326401129481 55.3290322580724,68.45774756457831 55.09677419351647,68.58395466109505 54.79999999993015,68.85039158781001 54.43870967737166,69.11682813857624 54.11612903221976,69.2851036611246 53.74193548387848,69.42533314865432 53.329032258014195,69.52349372797471 51.72903225803748,69.77590641185816 50.283870967745315,70.25268500520906 49.767741935444064,70.30877652527124 49.41935483866837,70.3227994027111 49.00645161286229,70.2947536468273 48.55483870964963,70.23866212260327 48.24516129028052,70.26670788681076 47.419354838726576,70.22463923894975 46.838709677394945,70.28073076735018 46.49032258061925,70.35084515438939 46.12903225806076,70.36486802868603 45.80645161285065,70.40693664531864 45.16129032254685,70.56118815939408 44.78709677414736,70.6172795878083 44.34838709671749,70.7434852408187 43.36774193547899,70.8977364799357 43.0064516129205,70.98187346635677 42.580645161273424,71.1361245107255 42.28387096768711,71.20623858016916 41.84516129025724,71.26232981693465 41.3290322580724,71.24830700928578 40.967741935455706,71.29037542908918 39.74193548382027,71.29037542908918 39.277419354824815,71.23428420061828 37.61290322575951,70.82762229596847 36.60645161289722,70.63130244228523 36.30967741936911,70.5191195771331 34.916129032266326,69.67774596379604 33.832258064474445,69.08878220357292 33.35483870963799,68.89246054188698 32.21935483865673,68.55590864694386 31.380645161261782,68.40165549462836 31.083870967733674,68.3736094533524 30.67096774186939,68.40165549462836 30.438709677371662,68.47177057946101 30.348387096775696,68.51383961789543 30.206451612873934,68.62602367452928 30.103225806436967,68.66809267859207 29.43225806450937,68.94855246608495 28.387096774124075,69.50947079117759 28.06451612903038,69.69176888804941 27.961290322593413,69.78992932883557 27.935483870911412,69.91613553487696 27.974193548376206,70.23866212260327 27.987096774159,71.02394194550288 27.75483870966127,72.90299112156208 27.80645161285065,73.23953526823607 27.80645161285065,74.20709634863306 27.845161290315446,74.44548020148068 27.832258064474445,74.61375097522978 27.716129032254685,75.04844978004985 27.445161290292162,75.63739495167101 27.264516129042022,75.90382192588004 27.019354838645086,76.17024852419854 26.76129032258177,76.35254019069544 26.412903225806076,76.53483168124512 25.625806451542303,76.74516779779515 25.04516129026888,76.94148129526002 24.645161290303804,76.9975708284619 22.761290322523564,77.33410767793248 22.012903225841,77.51639822099241 21.148387096764054,77.81086718806182 20.24516129028052,78.16142488352489" stroke="#4dd2ff" stroke-linecap="round" stroke-linejoin="round" stroke-width="0.5"><title>2023-10-28 15.0km</title></polyline><polyline fill="none" points="114.0,84.77587402962672 114.17385705088964,84.73808735850616 114.31294269161299,84.66251399091561 114.74179008370265,84.61213172716089 115.37926593684824,84.4483892666467 115.9587894398137,84.41060252253374 116.4803605924244,84.20907307851303 116.86284610431176,83.96975655277492 117.39600772695849,83.76822658504534 117.66258853831096,83.6422702336422 117.8364455892006,83.60448331000225 118.03348358016228,83.49112248854362 119.19253058597678,83.12584821516066 119.38956857693847,83.08806117647327 120.93110109464033,82.54644603039196 121.56857694784412,82.38270157603256 123.2028332260088,82.03002067597117 123.97939471987775,81.89146726463514 124.1996136509697,81.79070107619918 125.03412749513518,81.57657272704819 125.439793947211,81.42542314139428 125.7990985189681,81.11052773866686 125.9613650998217,80.9215902164724 126.21635544102173,80.43035167381458 126.41339343209984,79.72498102211102 126.4365743722301,79.44787032066961 126.36703155183932,78.04971396811015 126.4829362523742,77.20577617740491 126.54088860267075,76.4122189017362 126.50611719250446,75.59346543996071 126.54088860267075,75.39192552010354 126.69156471343013,75.26596294855699 127.21313586604083,75.03923008401762 127.95492594980169,74.67393760914274 128.45331616222393,74.38422232821176 128.65035415324382,74.33383701146522 128.84739214426372,74.23306633300672 129.02124919509515,74.19527731316339 129.50804893753957,74.20787365405704 129.85576303926064,74.27085534443904 130.2034771410399,74.38422232821176 130.50482936250046,74.38422232821176 131.81455247907434,74.81249691636185 133.08950418542372,75.5430804824573 134.0862846103846,76.16029518062714 134.3644558918313,76.27366090143914 135.11783644557,76.42481507797493 136.81004507408943,76.84048836883449 137.88795878941892,76.8656806567742 139.41790083708474,76.77750763266522 139.61493882810464,76.73971917974995 140.21764327108394,76.52558445415343 141.26078557630535,76.32404564190074 141.50418544752756,76.22327614598908 143.17321313585853,75.93356351170223 143.7179652285413,75.89577487073257 144.34385061176727,75.9083710853156 144.61043142300332,75.87058243874344 145.18995492591057,75.88317865521822 145.93174500961322,75.98394835321233 146.48808757244842,75.93356351170223 146.73148744367063,75.88317865521822 147.7978106889641,75.50529175449628 149.3625241467962,75.21557789374492 149.86091435933486,75.10221146566619 150.41725692211185,74.83768950554077 150.98518995492486,74.37162600044394 151.33290405664593,74.22046999399026 151.99356084992178,74.08191020308004 152.5151320025907,74.01892844251415 153.0830650354619,74.0063320875779 153.70895041851327,74.23306633300672 154.30006439145654,74.63614868752484 154.62459755310556,74.78730432345765 155.13457823568024,75.14000028345617 156.0849967803806,76.00914076835033 156.71088216354838,76.76491148264904 156.90792015451007,76.953853635001 157.48744365741732,77.43250614563294 158.4030907920096,77.99932974026888 159.3998712169705,78.50317134520446 159.96780424984172,78.67951555340551 160.35028976172907,78.74249558328302 160.9645846748026,78.72989957919344 161.26593689632136,78.74249558328302 161.57887958787614,78.78028359002201 161.81068898906233,78.8432635825302 162.6799742433941,79.22114304640854 163.35222150670597,79.56123384417151 163.78106889885385,79.80055658938363 164.15196394070517,80.1154544239107 165.70508692850126,81.58916851978574 166.63232453312958,82.69759461723152 166.78300064388895,82.8361473701516 166.9220862845541,83.10065685698646 167.32775273662992,83.59188766690204 167.46683837735327,83.66746151141706 167.66387636831496,83.85639597541012 167.79137153894408,83.90677846358449 167.90727623953717,83.90677846358449 168.02318094007205,83.8689915988507 168.25499034125824,83.88158722135995 168.57952350284904,83.79341784410644 169.1590470058145,83.46593118457531 169.50676110753557,83.17623092030408 169.62266580807045,83.02508275996661 169.86606567929266,82.60942462462117 169.8776561493869,82.5716374709009 169.83129426912637,82.48346741282148 169.85447520925663,82.42048877183697 169.90083708945895,82.37010584223026 170.06310367025435,82.29453141977137 170.236960721144,82.14338247383421 170.73535093368264,81.57657272704819 170.9207984545501,81.29946505045518 171.38441725686425,80.48073517958983 171.77849323884584,80.0146871804609 172.0798454603646,79.43527436896693 172.1957501609577,78.99441546908929 172.42755956214387,78.69211156124948 172.54346426267875,78.18827051749395 172.566645202809,77.7851966049202 172.63618802314159,77.55846710811602 172.69414037343813,76.3492380065436 172.64777849323582,75.99654456124699 172.3580167418113,74.87547838222235 171.8480360591784,73.82998302046326 171.8480360591784,73.40170595113887 171.77849323884584,72.86005987339013 171.8016741789761,72.15465773665346 171.85962652927265,71.95311373010918 172.01030264003202,71.63820074028627 172.09143593045883,71.55002499835973 172.14938828069717,71.52483192081854 172.36960721184732,71.51223538062186 172.555054732773,71.4240595731826 172.65936896327185,71.15953187578998 173.0418544751592,70.45412266529456 173.27366387634538,70.10141695960192 173.91113972954918,69.30782643951534 174.50225370249245,68.86694121237088 175.1976819059928,68.46384514437523 175.38312942686025,68.30008709302638 176.82034771406325,67.5064881422586 177.66645202832296,67.12858257447078 177.96780424984172,66.9774201115215 178.23438506113598,66.72548237378942 178.62846104311757,66.48614117619582 178.8023180940072,66.32238121474802 179.5209272375796,65.99486081735813 179.85705086926464,65.76811555623135 180.83065035409527,65.16346004403022 181.18995492591057,64.86113147926517 182.41854475205764,63.73999167836155 182.58081133285305,63.5636319337209 182.81262073403923,63.38727200559515 183.0792015453335,63.09753743969486 183.1603348358185,62.97156573484244 183.28783000644762,62.63144166422717 183.80940115900012,61.510287117926055 184.52801030263072,59.83484009966196 185.13071474561002,58.71366705709079 185.26980038633337,58.549899587451364 185.8840952994069,58.17197405367915 186.0,58.05859622925345 186.0,57.9200232297153 185.93045717960922,57.76885255557136 185.51320025755558,57.075985240677255 185.37411461689044,56.748446978628635 185.10753380553797,56.332724426843924 184.60914359299932,55.38789665339573 184.52801030263072,55.2871147133701 184.41210560203763,55.22412597038783 184.18029620090965,55.27451696661592 182.94011590466835,55.967391645666794 182.4764971023542,56.29493141702551 182.51126851257868,56.29493141702551 182.89375402446603,56.0555754925299 183.21828718605684,55.89180545466661 183.53122987761162,55.69024211393844 184.08757244044682,55.38789665339573 184.33097231166903,55.2871147133701 184.47005795233417,55.2871147133701 184.52801030263072,55.32490794789919 184.60914359299932,55.42568986547121 185.43206696712878,56.96260668314062 185.6059240180184,57.214558930223575 185.89568576944293,57.869633019989124 185.93045717960922,57.99560851624119 185.8840952994069,58.121583918866236 185.21184803603683,58.56249709073745 185.0032195749809,58.839641926038894 184.57437218283303,59.64587887050584 184.13393432059092,60.741851067577954 183.83258209913038,61.359119645523606 183.69349645846523,61.724440806385246 183.34578235668596,62.41728912149847 183.22987765615107,62.7574136218027 183.0792015453335,63.059745938080596 180.85383129422553,65.10047497083724 179.83386992913438,65.74292161961785 178.77913715381874,66.32238121474802 178.62846104311757,66.47354426168022 178.21120412100572,66.72548237378942 178.06052801024634,66.88924194590072 177.7591757887276,67.02780761415488 177.41146168706473,67.24195433325076 176.65808113326784,67.56947232167295 175.93947198963724,67.97257051586348 175.47585318732308,68.2496999684954 175.17450096586253,68.48903867670742 174.4443013521959,68.87953794906207 173.91113972954918,69.24484290579858 173.83000643912237,69.33301984643913 173.7141017385875,69.54716365417698 173.43593045714078,69.81169386686815 173.21571152604884,70.16440017514105 173.01867353508715,70.41633280334645 172.90276883449405,70.69345826203062 172.65936896327185,71.18472500758071 172.47392144234618,71.46184921056556 172.36960721184732,71.51223538062186 172.0798454603646,71.56262153571879 171.94075981964124,71.70118338504108 171.87121699930867,71.87753466589493 171.8364455891424,72.1294647489558 171.79008370894007,73.64103738790436 171.85962652927265,73.81738665149896 172.1957501609577,74.40941498098255 172.41596909204964,74.86288209093618 172.65936896327185,75.93356351170223 172.67095943336608,76.29885327356169 172.70573084347416,76.65154609020101 172.6825499034021,77.3443334162148 172.64777849323582,77.57106319922605 172.555054732773,77.8103887525067 172.41596909204964,78.5661514406238 171.90598840953317,79.59902166847314 171.67417900834698,79.95170762290945 171.3612363167922,80.2792010668345 171.23374114616308,80.56890627862595 171.0367031552014,80.87120684169349 170.4455891821999,81.58916851978574 170.07469414034858,82.11819096971885 169.91242755955318,82.19376547077263 169.73857050866354,82.33231863519177 169.62266580807045,82.54644603039196 169.5994848679402,82.81095596893283 169.4024468769785,83.13844389287988 169.21699935605284,83.3525702705374 168.9967804249609,83.52890943743114 168.50998068251647,83.80601347223273 168.11590470053488,83.94456531992182 167.9999999999418,83.91937408329977 167.8377334191464,83.93196970205463 167.65228589822073,83.84380035100912 167.37411461683223,83.61707895215659 166.78300064388895,82.84874306934944 166.57437218289124,82.64721176991588 165.75144880876178,81.62695589233772 164.04764971020631,79.98949536023429 163.54925949766766,79.68719322582183 162.78428847389296,79.27152691132505 162.2047649709857,78.98181948371348 161.89182227943093,78.86845557294146 161.57887958787614,78.78028359002201 161.28911783645162,78.74249558328302 160.51255634252448,78.75509158647037 160.10688989050686,78.717303574158 159.79394719895208,78.62913151261455 159.38828074687626,78.4653832767799 158.57694784289924,78.06231002270943 157.4410817771568,77.38212173443753 156.73406310362043,76.75231533165788 156.2356728911982,76.13510278794274 155.60978750808863,75.55567672324833 155.21571152610704,75.19038536069274 154.64777849323582,74.78730432345765 153.8828074694029,74.27085534443904 153.6046361880144,74.13229559469619 153.29169349645963,74.05671750164765 152.68898905342212,74.01892844251415 152.10946555051487,74.05671750164765 151.14745653572027,74.29604801404639 150.9967804249609,74.38422232821176 150.6838377334061,74.68653391445696 150.33612363162683,74.93845982468338 149.81455247907434,75.16519282394438 148.7250482935924,75.35413675844029 147.6355441081687,75.58086920199275 146.62717321311356,75.93356351170223 145.97810688987374,75.99654456124699 145.13200257567223,75.93356351170223 144.564069542801,75.9209672989964 143.48615582747152,75.95875593430537 142.9993560849689,76.0217369745369 141.4810045073391,76.27366090143914 140.69285254343413,76.42481507797493 140.1596909207874,76.56337295479898 139.4758531873813,76.77750763266522 139.0817772053997,76.82789222347492 138.58338699291926,76.82789222347492 138.29362524149474,76.8656806567742 137.9227301995852,76.8656806567742 137.0418544752174,76.85308451327728 136.77527366386494,76.81529607716948 134.94397939468035,76.37443036741752 134.50354153255466,76.31144945818232 134.14423696073936,76.17289137557964 132.93882807472255,75.45490677078487 131.51320025755558,74.73691912647337 130.33097231166903,74.37162600044394 129.5196394075756,74.23306633300672 128.89375402440783,74.25825900823111 128.56922086281702,74.35902967171569 128.14037347066915,74.56057081901236 127.89697359950515,74.74951542714552 126.62202189309755,75.40452177208499 126.54088860267075,75.49269550995086 126.52929813263472,75.68163907960115 126.63361236319179,76.52558445415343 126.56406954285922,76.85308451327728 126.55247907276498,77.19318005915557 126.4365743722301,78.26384676947782 126.45975531230215,79.56123384417151 126.4365743722301,79.91391987714451 126.16999356087763,80.63188560699928 125.9613650998217,80.94678189826664 125.81068898906233,81.12312356597977 125.439793947211,81.42542314139428 125.01094655506313,81.60176431156287 123.70122343848925,81.95444610199775 121.46426271728706,82.38270157603256 119.80682549899211,82.92431724490598" stroke="#4dd2ff" stroke-linecap="round" stroke-linejoin="round" stroke-width="0.5"><title>2023-10-21 18.0km</title></polyline><polyline fill="none" points="14.173271297942847,164.3557752683555 14.346542595827486,164.33066902073915 14.76239371090196,164.20513772664708 15.732712979312055,164.067053195482 15.975292796443682,164.07960633935 16.17166693409672,164.0545000507118 16.714583667519037,163.85364960735023 16.96871490450576,163.64024574987707 17.118883362738416,163.56492667703424 18.655222204397433,163.01258578436682 18.897802021470852,162.88705351165845 19.67174715222791,162.6736484341527 21.369805871974677,162.05853817414027 21.98203112464398,161.90789858567587 23.05631317186635,161.75725886294094 25.343494304455817,161.3053388894623 25.955719557241537,161.01661160730873 26.302262153069023,160.62745666422416 26.729664687940385,159.98723206674913 26.856730306404643,159.64828865120944 26.76431894750567,159.33445154942456 26.902935985883232,159.1587025179615 26.914487405738328,159.0206138650101 26.637253329041414,157.95356137990893 26.637253329041414,157.53929212941148 26.76431894750567,156.52244511929166 26.833627466694452,156.20860221420298 26.81052462698426,155.71900611868477 26.856730306404643,155.27962379995733 26.96069308515871,155.10387055261526 27.203272902290337,154.95322476665024 27.110861543391366,154.97833240695763 26.914487405738328,155.10387055261526 26.822076046839356,155.2168548040354 26.752767527650576,155.43026929502958 26.729664687940385,155.22940860505332 26.752767527650576,155.0662091187114 26.845178886607755,154.9657785872696 27.14551580301486,154.8025788463856 29.028397240501363,153.8987005052768 29.55976255412679,153.83593099654536 30.021819348621648,153.8987005052768 30.37991336430423,154.0242394528177 30.634044601290952,154.0242394528177 31.939355045731645,154.463625034914 32.75950585590908,154.91556329916057 34.24963901814772,155.80688244536577 34.49221883522114,155.89475872638286 35.15064976736903,156.0202961914183 36.67543718917295,156.3969080271636 37.06818546447903,156.45967658486916 38.4312530081952,156.48478400144086 38.847104123211466,156.43456916458672 39.64415209367871,156.3969080271636 40.3372372854501,156.18349475660943 43.30595219001407,155.58091465587495 44.634365474106744,155.53069955049432 45.38520776515361,155.53069955049432 46.07829295686679,155.59346842988452 46.644312530057505,155.54325332824374 48.145997112151235,155.11642436208786 50.08663564897142,154.72725583589636 50.421626824943814,154.55150201426295 51.06850633723661,154.0367933424568 51.415048933180515,153.8484849001252 52.44312530080788,153.63506841193885 53.12465907266596,153.64762233047804 53.690678645914886,153.823377091976 53.9794641425251,153.94891609546903 54.718755013658665,154.3883018733759 55.22701748763211,154.73980967332318 56.33595379436156,155.819436202597 56.751804909377825,156.34669316423242 57.271618803206366,156.836287441678 57.537301459989976,157.04969988808443 58.44986362912459,157.6146138868353 59.35087437834591,158.0790973159892 60.03240815020399,158.30506176597555 60.66773624258349,158.3803831822006 61.07203593774466,158.3552760471939 61.36082143429667,158.36782961517747 61.93839242745889,158.5059188013256 62.504412000707816,158.7444362207898 63.682656826567836,159.33445154942456 64.0985079415841,159.6357351783372 65.86587518051965,161.3053388894623 66.80154018930625,162.46024308727647 66.91705438791541,162.6736484341527 67.41376544203376,163.25109684575 67.71410235844087,163.47705438299454 67.88737365632551,163.55237349498202 68.31477619125508,163.55237349498202 68.81148724531522,163.3640756521345 69.31974971928867,163.05024544800108 69.55077811650699,162.82428734035057 69.89732071233448,162.20917762842146 69.94352639181307,162.03343158539792 70.24386330827838,161.85768535964598 71.37590245465981,160.21319396623585 71.50296807318227,159.97467861903715 71.82640782935778,159.5604143214441 72.06898764637299,159.17125602626766 72.48483876150567,158.26740104529017 72.80827851762297,156.86139480231213 72.77362425799947,155.88220497475413 72.42708166217199,154.55150201426295 71.98812770738732,153.67273016473337 71.84951066906797,153.23334252662607 71.83795924915466,152.3671178372606 71.88416492863325,151.82729440859111 72.08053906628629,151.2498069714493 72.17295042518526,151.17448237765348 72.48483876150567,151.1619282754109 72.58880154020153,151.0991577502573 73.0162040751311,150.27058463338471 73.58222364832181,149.45456168425153 73.92876624420751,149.0402716020035 74.57564575650031,148.50043754669605 75.19942242902471,148.16147109575104 76.21594737685518,147.5211992777622 77.4635007220204,146.91858829181 78.02952029526932,146.61728199297795 78.19124017329887,146.45407419011462 78.66484838764882,146.14021258772118 78.79191400611307,146.0146677835146 79.10380234237527,145.8765683912061 79.73913043481298,145.55015119699237 80.68634686351288,144.97264230874134 81.2292635969934,144.4453498608782 81.76062891067704,144.01849286454672 83.11214503453812,142.77557958677062 84.7408952350961,139.08444989634154 85.20295202959096,138.39392348275578 85.3646719076205,138.243262799253 85.91914006101433,137.91683085737168 86.0,137.80383503824123 85.9884485801449,137.67828403942985 85.53794320550514,136.91242092606262 84.55607251729816,135.06680210818013 84.39435263921041,134.95380438258871 84.19797850155737,135.00402560328075 82.98507941607386,135.707121125306 82.36130274354946,136.12144390183676 81.63356329221278,136.44787931306928 81.09064655861584,136.81197960444842 81.71442323119845,136.4353241165809 82.47681694210041,136.08377823687624 82.95042515645036,135.76989736889664 84.32504412002163,135.02913620806066 84.4174554789206,135.00402560328075 84.50986683781957,135.0165809061582 84.64848387613893,135.17979975817434 85.41087758704089,136.64876232948154 85.89603722130414,137.54017783298332 85.97689716034802,137.7912799425394 85.89603722130414,137.89172068185871 85.22605486924294,138.30603810035973 85.00657789193792,138.56969411035243 84.68313813576242,139.13466988902655 84.16332424199209,140.4027197575051 83.94384726462886,140.8170310179703 83.12369645439321,142.6751417509222 82.82335953798611,143.02667391519935 82.523022621579,143.20243972308526 82.39595700305654,143.20243972308526 82.32664848392596,143.08944743902248 81.93390020861989,141.59543124465563 81.85304026957601,141.40710893801588 81.65666613192298,141.1560122026567 81.47184341412503,141.06812825711677 81.36788063537097,141.06812825711677 81.71442323119845,141.26900577977358 81.8876945291413,141.50754752769717 82.1880314455484,142.66258701725747 82.41905984282494,143.20243972308526 82.39595700305654,143.3907600286475 82.28044280444738,143.56652545777615 82.00320872775046,143.77995466162974 80.70944970322307,144.89731491693237 79.20776512118755,145.8263504023489 79.72757901495788,145.60036926789326 80.68634686351288,144.9977514318889 81.50649767369032,144.30724918593478 82.17648002569331,143.66696276373114 82.60388256056467,143.30287724549999 82.82335953798611,143.16477563681838 83.1467992941034,142.81324375983968 83.8052302262513,141.26900577977358 84.07091288309311,140.76681152536185 84.23263276118087,140.3148354201112 84.1055671426584,140.50315894422238 83.45868763042381,142.07251348196587 83.11214503453812,142.75047013342555 82.34975132363616,143.46608809208556 80.9173752607312,144.75921461138933 80.32825284777209,145.1609606413549 79.56585913687013,145.63803281130095 79.30017648002831,145.75102339113073 78.89587678486714,146.0146677835146 78.58398844860494,146.17787601078453 78.28365153219784,146.37874745870067 78.13348307396518,146.54195533430902 76.27370447618887,147.45842740032822 75.18787100916961,148.1489167697 74.55254291679012,148.50043754669605 73.97497192362789,149.0026088168961 73.35119525110349,149.70564608827408 73.07396117446478,150.1575970754493 72.80827851762297,150.70997997403902 72.58880154020153,151.08660364242678 72.46173592167906,151.1619282754109 72.14984758547507,151.2246987772378 72.045884806721,151.35023971095507 71.94192202790873,151.6389835046284 71.89571634848835,151.9779429807677 71.89571634848835,153.33377408747037 71.96502486767713,153.52208310320566 72.50794160121586,154.55150201426295 72.75052141828928,155.55580710504728 72.78517567785457,156.22115594158822 72.77362425799947,157.0622535530274 72.54259586078115,158.26740104529017 72.0574362265761,159.27168405914563 71.87261350877816,159.58552127746225 71.61848227179144,159.89935791316384 70.74057436233852,161.21746542101027 70.26696614793036,161.84513205081748 70.09369484998751,161.93300519305922 69.97818065143656,162.05853817414027 69.93197497195797,162.19662434568454 69.96662923152326,162.271944028078 69.92042355210287,162.37237021909095 69.5161238569417,162.84939381165896 69.2273383603897,163.12556475013844 68.96165570354788,163.3013096578943 68.5689074282418,163.50216075740173 68.26857051177649,163.6025862176466 67.9104764960939,163.56492667703424 67.77185945777455,163.50216075740173 67.44841970159905,163.23854364038561 67.11342852562666,162.861947045938 66.84774586878484,162.47279635041195 66.18931493669515,161.6693856293714 65.64639820309822,161.06682508312224 64.19091930054128,159.68594906428189 63.567142627958674,159.25913055831916 62.30803786305478,158.64400787465274 61.81132680893643,158.4682581253728 61.34927001449978,158.3929367482924 60.54067062411923,158.405490313482 60.10171666939277,158.3552760471939 59.570351355709136,158.16697241576912 58.63468634686433,157.70248922807514 57.81453553668689,157.22545111220097 57.39868442167062,156.91160951236088 56.728702069609426,156.28392456454458 56.11647681699833,155.58091465587495 55.27322316705249,154.79002501362993 54.222043959540315,154.07445500569884 53.75998716510367,153.81082318651897 53.321033210319,153.66017624808592 52.96293919463642,153.64762233047804 52.44312530080788,153.71039190914598 51.33418899407843,153.94891609546903 51.091609176946804,154.09956277658057 50.83747794001829,154.3380864137289 50.52558960375609,154.56405586469918 50.02887854963774,154.79002501362993 48.00738007383188,155.1791933952918 46.74827530881157,155.58091465587495 46.112947216432076,155.6436835165805 45.26969356648624,155.58091465587495 43.66404620569665,155.60602220293367 42.91320391470799,155.70645235400298 40.591368522436824,156.13327983026102 39.62104925402673,156.43456916458672 38.7662441842258,156.45967658486916 38.4312530081952,156.50989141427272 37.437830900074914,156.52244511929166 37.09128830418922,156.48478400144086 35.219958286499605,156.0328499328025 34.573078774265014,155.90731247706572 34.2958446975681,155.80688244536577 32.87502005457645,154.9657785872696 32.031766404630616,154.51384045726445 31.731429488165304,154.3883018733759 30.714904540334828,154.06190111889737 29.940959409577772,153.8987005052768 29.571313974040095,153.8610388028319 29.06305150006665,153.91125440424366 26.902935985883232,155.04110149144253 26.775870367418975,155.1791933952918 26.822076046839356,156.1458335632342 26.637253329041414,157.56439938559197 26.61415048938943,158.02888295272714 26.671907588664908,159.17125602626766 26.87983314617304,159.59807475408888 26.87983314617304,159.74871640074707 26.74121610785369,160.11276649263164 26.54484197020065,160.4517089769215 26.290710733213928,160.7906507816515 26.09433659556089,160.99150486383587 25.851756778429262,161.12959190686524 25.33194288465893,161.2927855396265 24.384726455959026,161.4685323525773 23.32199582864996,161.71959891130973 21.64703994867159,162.02087828959338 21.323600192554295,162.10875134046364 19.52157869405346,162.77407438654336 18.955559120804537,162.94981965966872 17.661800096277148,163.41428843070753 17.13043478265172,163.62769257339824 16.645275148388464,163.9038622405351 16.356489651836455,163.95407485886244 16.10235841490794,164.07960633935 15.72116155945696,164.067053195482 15.166693406004924,164.18003145663533 14.589122412959114,164.24279712465068 14.346542595827486,164.34322214499116 14.080859939043876,164.3934346328315 14.023102839710191,164.41854087112006 14.0,164.53151889739092 14.150168458174448,164.93321793503128 14.265682656841818,165.04619561739673 14.589122412959114,164.9457710145507 15.663404460123274,164.36832839078852 16.379592491546646,164.0921594822721 16.541312369692605,163.96662801108323 17.072677683318034,163.62769257339824 18.74763356335461,162.98747933730192 18.886250601673964,162.91215997366817 18.63211936468724,163.0627986673353 17.34991175995674,163.50216075740173" stroke="#ff0000" stroke-linecap="round" stroke-linejoin="round" stroke-width="0.5"><title>2023-10-14 21.5km</title></polyline><polyline fill="none" points="114.0,160.09468106243003 114.36122558679199,159.95448460303305 115.67711879592389,159.75820938503603 115.8835334169562,159.77222905021335 116.30926357279532,159.70213071384933 116.81239921157248,159.50585523352493 116.91560652211774,159.42173710805946 117.04461566027021,159.29555984963372 117.38003941945499,159.1273233739048 117.80576957535231,159.00114591873717 118.64432897331426,158.67869203914597 119.07005912915338,158.53849452843133 119.26357283641119,158.4403562090156 119.94732126861345,158.27211897130474 120.37305142451078,158.1038815837237 122.05017022037646,157.5430892091972 122.65651316969888,157.4028908553155 123.95950546493987,157.16455341478286 124.65615481091663,156.9963150403637 125.09478588064667,156.95425542333396 125.41730872599874,156.8561162804981 125.88174162333598,156.75797708665777 126.43648091738578,156.65983784178388 126.82350833184319,156.51963883207645 127.14603117719525,156.3513998829876 127.35244579822756,156.14110098587116 127.71367138501955,155.63638267701026 127.94588783371728,155.2157830556971 128.07489697181154,154.89332271143212 128.07489697181154,154.78116246264835 128.03619423042983,154.59890191619343 127.97168966132449,154.45870137610473 127.88138326461194,154.3605609361257 127.7910768679576,153.98201876111852 127.77817595412489,153.08473057379888 127.73947321268497,152.66412526795466 127.76527504035039,152.2715594703477 127.81687869556481,152.1033167358255 127.82977960939752,151.89301310676092 127.95878874754999,151.61260790361848 127.94588783371728,151.36024286468455 128.0103924027644,150.8555117747601 127.92008600605186,150.35077933534922 127.97168966132449,150.1685145116935 127.95878874754999,149.88810674706474 127.9845905751572,149.80398433642404 128.08779788570246,149.70584147669433 128.3458161619492,149.57965772485477 128.5780326105887,149.42543302479316 129.90682673361152,148.7664715232968 130.10034044075292,148.62626665172866 130.2422504927381,148.55616417688725 130.40996237233048,148.45802066837496 130.55187242431566,148.40193864059984 130.77118795912247,148.38791813107673 131.32592725317227,148.40193864059984 132.02257659914903,148.51410267948813 133.17075792868854,148.86461487141787 133.88030818849802,149.11698324662575 134.09962372336304,149.22914686062722 135.44131876004394,150.02831068143132 135.69933703634888,150.19655526525457 136.33148181327851,150.57510503058438 136.25407633039868,150.54706433323736 136.33148181327851,150.6031457237259 136.53789643431082,150.68726777822303 137.260347607953,150.82747111908975 138.33112345455447,151.07983687020896 139.20838559395634,151.33220228400023 139.46640387026127,151.37426315349876 141.220928149065,151.37426315349876 141.67246013262775,151.4023037279403 142.162694857514,151.36024286468455 142.78193872061092,151.19199931799085 143.6850026876782,151.0517962478625 144.18813832645537,150.91159307360067 144.33004837844055,150.84149144742696 144.6267693961272,150.78541012774804 145.52983336319448,150.75736946168763 145.78785163944121,150.79943045922846 145.86525712237926,150.77138979523443 145.89105894998647,150.68726777822303 145.9297616914846,150.65922709753795 146.38129367493093,150.65922709753795 146.79412291699555,150.50500327943882 147.16824941762025,150.54706433323736 147.4391686078161,150.54706433323736 147.6584841426229,150.50500327943882 147.8261960221571,150.43490150230355 148.0068088156404,150.2946978698892 148.11001612612745,150.25263675986207 148.70345816161716,150.2806775009085 149.5162157319137,150.36479969909124 150.07095502596349,150.32273860469286 150.3031714746612,150.2806775009085 151.68356925278204,149.83202514414734 153.18007525528083,149.5516168796894 153.73481454933062,149.46749431913486 153.99283282563556,149.39739215670852 154.48306755063822,149.15904460966703 154.8184913097648,148.92069676172105 155.16681598278228,148.59822566491493 155.32162694854196,148.48606167601247 155.43773517286172,148.44400016299915 156.39240279520163,148.27575401720242 156.93424117541872,148.19163088810456 157.39867407275597,148.17761036290904 157.54058412468294,148.20565141220868 158.19853072921978,148.40193864059984 158.46944991935743,148.64028714355663 158.779071850935,148.8505943962664 159.19190109299961,149.03286049237067 159.32091023115208,149.20110596335144 159.59182942123152,149.34131040798093 159.81114495609654,149.48151474846236 160.0820641462342,149.70584147669433 160.6755061817239,150.2946978698892 161.0754345099558,150.6732474384189 161.29475004476262,150.9957149906695 161.52696649346035,151.26210081399768 162.09460670134285,151.79487133304065 162.64934599533444,152.20145834919822 163.65561727288878,152.7622665897943 164.35226661892375,153.11277089420764 164.8554022576427,153.30905302042083 165.17792510305298,153.39317386918992 165.56495251745218,153.46327454788843 166.3261064325343,153.4492544142122 166.79053932987154,153.46327454788843 167.3194767962559,153.6174959493219 168.17093710805057,153.98201876111852 169.35782117903,154.59890191619343 169.78355133486912,154.96342283317063 170.58340799139114,155.692462555744 171.58967926894547,156.65983784178388 171.8218957176432,156.9121957969328 172.53144597739447,157.83750541351037 172.73786059848499,158.0478024212207 172.93137430568459,158.32819806721818 173.344203547691,158.83290918068087 173.55061816883972,158.94506702270883 173.67962730693398,159.08526423155854 173.83443827269366,159.19742192367266 174.01505106611876,159.22546133630385 174.19566385948565,159.19742192367266 174.42788030818338,159.22546133630385 174.54398853256134,159.21144163049757 174.96971868840046,159.02918536048674 175.45995341340313,158.7207512720779 175.71797168970807,158.51045501383487 175.85988174163504,158.3422178385954 176.1953055008198,157.72534691359033 176.25981006986694,157.47299004523666 176.3501164665795,157.38887101419095 176.46622469089925,157.36083132884232 176.5565310876118,157.29073209721537 177.1112703816616,156.4495392881654 177.21447769214865,156.23924050033384 177.40799139940646,155.95884175218816 177.91112703812541,155.398043006644 177.98853252106346,155.20176305218774 178.18204622832127,155.01950291176036 178.6206772979931,154.3605609361257 178.77548826375278,153.9539785698289 178.8141910052509,153.7576971140661 179.0077047123923,153.407194007028 179.07220928149763,153.22493213418056 179.25282207492273,152.5940242925135 179.26572298869723,152.35568078143115 179.381831213017,151.92105360417918 179.34312847157707,151.0377759351104 179.35602938540978,150.72932879140717 179.29152481630445,150.18253488898335 179.13671385060297,149.50955560409056 178.94320014334517,148.9627581685345 178.56907364266226,148.2477129783365 178.47876724600792,147.995343440969 178.4658663321752,147.35039753485762 178.37555993546266,146.91575883344922 178.34975810785545,146.5231810816622 178.38846084929537,146.06049911172886 178.53037090128055,145.63987815486325 178.6206772979931,145.47162950964412 178.72388460848015,145.41554659458052 178.9948037986178,145.40152586322802 179.14961476437747,145.2893599747622 179.71725497220177,144.26584316353546 180.18168786953902,143.64892624029017 180.36230066296412,143.35448790696682 180.64612076693447,143.03200730057142 181.35567102668574,142.44312824973895 181.70399569970323,142.2187928899075 182.12972585560055,141.9944572634704 182.4135459595127,141.77012137034035 182.73606880486477,141.55980622836796 183.47142089233967,141.16721733626036 184.36158394557424,140.76060655139736 185.34205339546315,140.22780488649732 186.0,139.90531893756997 185.48396344739012,140.19976265195874 184.58089948038105,140.64843790483428 184.25837663502898,140.78864870259713 183.561727288994,141.13917524130375 183.30370901274728,141.32144878413237 182.73606880486477,141.62991130173032 182.039419458888,142.10662511001283 181.4846801648382,142.4010653900914 181.0718509227736,142.68148427736014 180.63321985304356,143.0460282079439 179.9623723347322,143.8452182073088 179.54954309260938,144.44811368678347 179.2270202471991,145.13513176931883 179.12381293671206,145.30338071445294 179.0077047123923,145.38750513078412 178.68518186704023,145.47162950964412 178.55617272888776,145.5978160076047 178.4142626769608,145.97637499531265 178.34975810785545,146.42503651614243 178.32395628024824,147.15410921297735 178.33685719402274,147.6027679344552 178.40136176312808,147.86915854578547 178.6206772979931,148.3598771088291 178.74968643614557,148.59822566491493 178.90449740190525,148.822553442762 179.07220928149763,149.14502415637253 179.33022755780257,150.3367589705158 179.381831213017,151.89301310676092 179.23992116109002,152.34166056552203 179.1883175058174,152.70618584066688 179.03350654005772,153.3791537303332 178.78838917752728,153.86985797093075 178.68518186704023,154.17829998364323 178.49166815978242,154.51478160462284 178.15624440065585,155.01950291176036 177.73051424475852,155.52422286962974 177.56280236516614,155.8887420000974 177.27898226119578,156.18316078404314 176.49202651856467,157.29073209721537 176.40172012179391,157.38887101419095 176.24690915609244,157.48700988010387 176.1695036731544,157.57112886745017 176.14370184554718,157.64122799497272 176.13080093171448,157.89358463845565 175.93728722451488,158.1459409446834 175.73087260348257,158.39829691365594 175.395448844356,158.69271178447525 174.8665113779134,159.01516564012854 174.37627665291075,159.19742192367266 174.31177208386362,159.19742192367266 174.0795556352241,159.1413430859393 173.82153735886095,159.16938250689418 173.6925282207667,159.1273233739048 173.58932091027964,159.05722479810356 173.21519440959673,158.65065254530055 172.81526608130662,158.18800029627164 172.73786059848499,158.0478024212207 172.2218240458751,157.38887101419095 171.70578749326523,156.78601686151524 170.99623723345576,156.08502124036022 170.55760616378393,155.70648252281535 169.65454219671665,154.8372425953712 169.04819924745243,154.47272143482405 167.38398136536125,153.645536190641 166.68733201938448,153.46327454788843 166.1325927253347,153.4492544142122 165.88747536280425,153.47729468047328 165.24242967215832,153.43523427950277 164.481275757018,153.182871676996 163.7072209281032,152.8463876822061 162.61064325389452,152.20145834919822 161.91399390785955,151.62662817368982 161.33345278626075,151.0517962478625 160.90772263036342,150.5190236317285 159.7208385594422,149.46749431913486 159.1790001792251,149.08894233273168 158.88227916148026,148.9066762907314 158.5855581437354,148.7664715232968 158.2243325568852,148.5281231796689 157.96631428058026,148.40193864059984 157.34707041742513,148.19163088810456 156.83103386487346,148.20565141220868 156.46980827808147,148.23369245733193 155.42483425914543,148.48606167601247 155.07650958606973,148.66832812414214 154.71528399927774,149.0048195659765 154.49596846441273,149.17306506195746 153.96703099797014,149.42543302479316 153.06396703101927,149.6217189848394 152.1996058053919,149.7619231170538 151.27074001077563,149.98624951204692 150.34187421610113,150.30871823782218 149.99354954308365,150.37882006181462 149.77423400821863,150.40686078414728 149.3485038523795,150.42088114372746 148.70345816161716,150.36479969909124 148.16161978140008,150.35077933534922 147.37466403871076,150.37882006181462 146.96183479664614,150.40686078414728 146.60060920979595,150.39284042349027 145.11700412112987,150.61716606875416 144.21394015406258,150.8555117747601 143.3108761870535,151.00973530653573 142.69163232395658,151.1779790156579 142.3304067371646,151.26210081399768 142.03368571941974,151.30416169912496 141.32413545961026,151.3181819920719 141.0532162694144,151.37426315349876 140.67908976884792,151.3462225748808 140.31786418205593,151.37426315349876 139.81472854327876,151.37426315349876 139.15678193874191,151.29014140511572 138.69234904134646,151.1779790156579 138.0086006092024,150.9957149906695 137.73768141906476,150.95365403681353 137.18294212501496,150.79943045922846 136.55079734814353,150.68726777822303 136.39598638232565,150.63118641272013 136.15086901991162,150.46294221626886 135.5574269844219,150.12645337353752 135.1703995699063,149.86006594766513 134.86077763844514,149.7198618883267 133.8287045332254,149.15904460966703 133.15785701485584,148.9066762907314 132.22899122018134,148.62626665172866 131.17111628735438,148.4299796566047 130.6163769933628,148.44400016299915 130.39706145849777,148.48606167601247 130.2293495789636,148.55616417688725 130.10034044075292,148.65430763435143 129.63590754347388,148.92069676172105 128.12650062714238,149.69182106397056 128.0103924027644,149.7619231170538 127.94588783371728,149.8740863478888 128.0103924027644,150.6732474384189 128.02329331665533,151.3181819920719 127.80397778179031,152.9164885638893 127.88138326461194,154.37458100209187 127.85558143700473,154.78116246264835 127.80397778179031,155.03352292878844 127.59756316069979,155.5662828052009 127.46855402260553,155.74854241781577 127.19763483240968,156.08502124036022 126.91381472855574,156.3233600435924 126.70740010752343,156.46355919903726 126.21716538257897,156.63179804815445 124.91417308722157,156.9963150403637 123.10804515320342,157.34681148457457 122.60490951442625,157.4309305343777 122.07597204804188,157.55710903884028 120.9922952875495,157.90760444209445" stroke="#4dd2ff" stroke-linecap="round" stroke-linejoin="round" stroke-width="0.5"><title>2023-09-30 15.0km</title></polyline><polyline fill="none" points="54.28869465738535,198.13275549652462 55.16125057620229,197.64970981044462 55.96795321814716,197.0235380356462 56.44538947561523,196.89830348549003 56.758192540786695,196.6836155337951 57.41672530968208,196.504708761262 57.92708820552798,196.11111339420313 58.10818471695529,196.0037690915924 58.30574454768794,195.96798764675623 58.55269433604553,195.75329886628606 58.99720395496115,195.66384515129903 59.35939697793219,195.4133745727013 59.82036991615314,195.2523576347303 60.11670966213569,195.0376682166825 61.05511885782471,194.66196127494914 61.40084856149042,194.55461632684455 61.77950490359217,194.2683628981904 62.12523460731609,194.12523605638125 62.28986779949628,194.12523605638125 62.487427630170714,194.2325811957562 63.09657044138294,194.82297860742256 63.261203633621335,195.0376682166825 64.067906275508,195.75329886628606 65.12155870581046,196.59416216411046 66.88313386251684,198.09697436778515 68.1837360811187,199.0988439641951 68.43068586941808,199.36720118457743 68.95751208456932,199.83235299216176 70.15933438780485,200.7984346471203 71.19652349886019,201.74662213562988 71.36115669109859,201.99708613239636 71.64103311783401,202.2475498689164 71.67395975627005,202.39067188727495 71.5422532025259,203.83977753628278 71.65749643702293,204.39437122024538 71.5422532025259,205.48566474360996 71.44347328715958,205.7540148531698 71.5422532025259,206.5053935706237 71.47639992559562,206.84530222100148 71.52578988322057,207.47144848019525 71.50932656408986,208.07970328886586 71.3776200102875,208.866854292457 71.39408332947642,209.5287747378461 71.44347328715958,209.79712034654221 71.34469337185146,210.56637610279722 71.08128026430495,211.53241473842354 70.83433047594735,211.85442675670492 70.65323396452004,212.176438344919 70.32396758004325,212.90990757910185 70.30750426079612,213.26769663968298 70.15933438780485,213.44659097086696 70.12640774936881,213.5718169237225 71.27884009497939,214.14427759412501 71.4599366064067,214.26950318455056 71.50932656408986,214.39472870995814 71.70688639470609,214.94929811207112 71.69042307551717,215.1460804965609 71.73981303320033,215.50386623863596 71.69042307551717,215.64698038680945 71.49286324484274,215.82587295255507 71.39408332947642,215.96898690956004 71.39408332947642,216.2194361299771 71.42700996797066,216.45199588735704 71.65749643702293,216.84555804278352 71.6245697986451,217.3106761254603 71.92090954462765,217.52534570715216 72.2172492906102,218.09779699065257 72.26663924829336,218.49135645960632 72.71114886726718,219.5825861729245 73.04041525174398,220.35181070811814 73.18858512473525,221.38936549634673 73.68248470145045,221.58614262497576 73.92943448974984,221.5324761512602 74.06114104349399,221.55036497712717 74.62089389702305,222.23013937767246 75.06540351611329,223.10668774969236 75.09833015449112,223.14246516663115 75.411133219779,223.08879903926572 75.411133219779,223.12457645879476 74.85138036619173,223.3392408646323 74.43979738559574,223.53601640208217 74.17638427810743,223.71490311498928 73.88004453206668,224.0726761426631 73.83065457438352,224.59144609003852 73.74833797832252,224.8061091900745 73.41907159384573,225.00288353060023 72.99102529406082,225.18176915537333 72.76053882495034,225.5574285354669 72.66175890958402,225.5574285354669 72.2995658867294,225.3069890137558 72.2172492906102,225.34276610420784 71.90444622538052,226.95272968120116 72.00322614068864,227.50727020244813 71.8879829061334,229.0098897224525 72.03615277918288,229.4570961051213 71.83859294856666,229.7075313172245 71.7892029908835,229.86852524484857 71.8879829061334,230.06529545485682 72.08554273686605,230.154736406359 72.23371260979911,230.33361820982827 72.43127244047355,230.4230590617808 72.49712571740383,230.56616435592878 72.49712571740383,230.74504585425893 72.41480912122643,231.3174657573254 72.28310256748227,231.81833205807197 71.90444622538052,232.89161348585912 71.82212962926133,233.5355800500547 70.75201387982816,235.64634729066165 70.25811430317117,236.3976328682911 69.8629946418223,237.39934333194105 69.73128808807814,237.5961073984945 69.46787498047343,237.84653416016954 69.33616842667107,238.04329786197923 69.25385183061007,238.70513822653447 68.67763565777568,239.90360129257897 68.36483259260422,240.38656233756046 67.90385965438327,240.63698620241485 67.7721531005227,240.780085437058 67.49227667378727,241.20938263169955 67.19593692774652,241.78177770294133 65.22033862111857,243.65993949121912 64.36424602154875,244.71528112758824 63.59047001809813,245.3413290693279 63.261203633621335,245.6990700209717 62.70145078009227,246.03892343373445 62.158161245752126,246.61130704676907 61.64779834984802,247.05848079967836 61.466701838420704,247.30889773926174 61.10450881550787,247.63086199398094 60.347196131246164,248.47154441144085 59.8697598738363,248.73984669407946 59.47464021242922,249.24067682333407 58.81610744353384,249.70573244114348 58.58562097448157,249.81305284105474 58.174037993943784,249.92037319320661 57.38379867124604,250.29599404986948 56.98867900989717,250.36754081341496 56.64294930623146,250.67161432180728 56.4289261563099,250.79682094918098 55.721003429731354,250.88625421468168 55.21064053388545,251.17244044152903 54.46979116887087,251.387079888882 54.14052478445228,251.53017274771992 53.72894180385629,251.6196057414345 53.16918895026902,251.44073972091428 52.75760596967302,251.56594594921626 52.1484631584608,251.99522395296663 51.885050050972495,252.10254333460762 51.42407711275155,252.19197611615527 51.242980601324234,252.33506849770492 51.07834740902763,252.5139338553272 50.73261770530371,252.67491256378707 50.58444783237064,252.8537776694866 50.28810808638809,253.06841562133923 49.58018535980955,253.9090790945047 49.06982246390544,254.67819417486317 48.85579931404209,254.9286032069067 48.55945956805954,255.39364786280203 47.950316756847315,256.1806444696849 47.62105037237052,256.52048312014085 46.89666432654485,257.3969069049199 45.26679572352441,259.1139728489652 43.669853758998215,260.92045612377115 42.97839435166679,261.65377715899376 42.089375113660935,262.45863914517395 40.82169953355333,263.7106413444999 40.5582864258904,264.01469804137014 40.17963008384686,264.3187543552049 39.37292744190199,265.08783626293007 39.06012437667232,265.3382344947895 38.25342173478566,265.7853735484823 37.87476539268391,265.9105723350658 37.34793917759089,265.9463434050558 36.261360108910594,265.9284578707011 35.1747810402303,265.7674880022387 34.38454171753256,265.4634335133451 33.11686613742495,265.06995066499803 31.816263918823097,264.55126774852397 31.27297438448295,264.2650973865093 28.852866458764765,262.887897773704 25.823615721834358,261.68954885982384 25.165082952938974,261.60011959781696 24.737036653154064,261.6716630101 24.490086864912882,261.74320640112273 25.0169130799477,261.61800545288133 25.49434933741577,261.63589130660694 25.87300567951752,261.7253205553425 27.091291302000172,262.261895351985 28.819939820386935,262.92366929161653 30.877854723134078,264.0862407379318 31.997360430308618,264.6585815468279 33.62722903332906,265.24880658465554 35.12539108254714,265.7317169057642 35.58636402076809,265.8569157201855 36.50830989720998,266.0 37.49610905058216,266.0 37.94061866955599,265.9642289380281 38.22049509634962,265.87480125979346 39.14244097279152,265.30246333472314 41.216819194785785,263.4065842646087 42.583274690259714,261.9399506171321 43.04424762848066,261.5822337414429 43.43936728988774,261.08142922478146 44.54240967769874,259.9725012398412 45.332649000454694,259.0603147231159 46.7649577728007,257.5936546640878 47.57166041468736,256.6993453755276 49.16860237927176,254.62453506272868 49.25091897533275,254.42778488289332 49.613111998245586,253.98062478678185 49.79420850973111,253.8196469493123 49.9588417019113,253.60500966569816 50.27164476714097,253.13996156283247 50.716154386173,252.69279908035242 51.0454207706498,252.54970691089693 51.374687155068386,252.2277492194844 51.5557836664957,252.1562030075147 51.90151337016141,252.12042989354813 52.263706393074244,251.97733738475654 52.83992256585043,251.56594594921626 53.23504222714109,251.49439954099944 53.679551846173126,251.69115211250028 53.844185038411524,251.70903870195616 55.128323937766254,251.4049665008788 55.32588376844069,251.29764680903463 55.7539300682256,250.92202751158038 56.00087985652499,250.86836756420962 56.57709602935938,250.83259425939468 57.02160564833321,250.67161432180728 57.36733535199892,250.49274759856053 57.663675098039676,250.2423339632951 58.091721397824585,249.9919200681179 58.33867118606577,249.88459974777652 58.83257076283917,249.74150591307261 59.54049348941771,249.1691297256766 59.90268651227234,248.73984669407946 60.42951272742357,248.43577075125359 60.610609238850884,248.22112867851683 61.549018434481695,247.30889773926174 61.77950490359217,247.02270692991442 62.33925775717944,246.71862882305868 62.55328090704279,246.45032429284765 62.76730405696435,246.27145444029884 62.98132720688591,246.1820194642787 63.178887037502136,245.9137143373664 63.475226783542894,245.71695705461025 64.10083291394403,245.1624583945959 65.18741198262433,243.7851497572119 67.344106800796,241.71022839327634 68.6117823809036,240.24346286946093 68.82580553082516,239.88571382786904 70.58738068753155,236.21875556206214 71.16359686036594,234.89505937306967 71.90444622538052,233.57135591993574 71.93737286381656,232.96316541121632 72.13493269443279,232.46230148781615 72.39834580209572,231.4605705208087 72.56297899427591,230.58405251176737 72.51358903659275,230.35150638286723 72.23371260979911,230.2620655043429 72.13493269443279,230.11896002972207 71.93737286381656,229.99374266980158 71.8879829061334,229.86852524484857 72.08554273686605,229.42131962502026 71.97029950231081,228.90256006721756 71.97029950231081,227.93659102063975 72.06907941761892,227.4536050464667 72.03615277918288,227.095837034547 72.06907941761892,226.46974173662602 72.15139601373812,225.87942182408005 72.31602920597652,225.3069890137558 72.39834580209572,225.28910046651436 72.76053882495034,225.53954000683734 72.92517201724695,225.52165147685446 73.12273184786318,225.27121191797778 73.40260827465681,225.0565492319729 73.74833797832252,224.89555209202808 73.92943448974984,224.7166662549571 73.99528776668012,224.55566888811882 74.14345763961319,223.80434642168984 74.25870087416843,223.607571103159 75.36174326209584,223.12457645879476 75.50991313508712,222.99935546716733 75.411133219779,222.99935546716733 75.09833015449112,223.12457645879476 75.01601355843013,223.10668774969236 74.35748078953475,221.40725433288026 74.20931091648526,221.2820324494387 73.978824447433,221.29992129390303 73.86358121287776,221.1568105009792 73.56724146689521,221.03158848747262 72.9745619748719,220.13714364287443 72.66175890958402,219.49314130027778 72.4641990789678,218.68813595324173 72.25017592904624,218.04412974054867 71.92090954462765,217.68634776800172 71.65749643702293,217.50745658265078 71.57517984090373,217.38223267394642 71.65749643702293,216.95289306454652 71.52578988322057,216.5414418882283 71.50932656408986,216.07632232159085 71.52578988322057,215.95109766958922 71.72334971395321,215.53964478363923 71.75627635238925,214.8598515206104 71.70688639470609,214.64517956564669 71.52578988322057,214.41261806541297 70.48860077228164,213.80437923499267 70.32396758004325,213.62548516930838 70.3733575377264,213.26769663968298 70.34043089923216,212.9456865090906 70.65323396452004,212.26588593197812 71.06481694499962,211.639752125644 71.32823005260434,210.79894131333276 71.49286324484274,207.99025414854987 71.4599366064067,207.52511808385316 71.49286324484274,206.07603459026723 71.4599366064067,205.7719048498111 71.55871652177302,205.30676450458122 71.60810647939797,203.08839050945244 71.69042307551717,202.31911088869674 71.65749643702293,202.15809856435226 71.36115669109859,201.96130557736615 71.32823005260434,201.78240272249968 71.36115669109859,201.53193850262323 71.64103311783401,201.26358369247464 71.67395975627005,201.04889962921152 71.65749643702293,200.65531168333837 71.57517984090373,200.60164054998313 71.39408332947642,200.65531168333837 70.94957371050259,200.61953092907788 70.42274749540957,200.3690655007813 69.51726493809838,199.68922945467057 68.64470901939785,198.88415797267226 68.24958935799077,198.6336907409277 67.57459326990647,198.09697436778515 67.36057011998491,197.98963094969804 67.21240024699364,197.81072514674452 65.40143513254588,196.37947394145885 64.2325394678046,195.35970227200596 63.16242371831322,194.4651621669327 62.40511103410972,194.0 61.7959682228975,194.17890863202047 61.61487171141198,194.33992628724081 61.10450881550787,194.60828880689223 60.610609238850884,194.82297860742256 59.77097995852819,195.34181150242512 59.408786935557146,195.4491560998722 58.78318080515601,195.77118960530788 58.04233144008322,196.02165981201688 57.79538165178383,196.1468948177353 57.531968544237316,196.2005669431237" stroke="#4dd2ff" stroke-linecap="round" stroke-linejoin="round" stroke-width="0.5"><title>2023-03-18 15.0km</title></polyline><polyline fill="none" points="162.2961762797786,196.79647076365654 162.7884708714555,196.44387490670488 163.04580668074777,196.18854639847996 163.5381012725411,195.94537602059427 163.76187154150102,195.8602663030615 163.9520762701286,195.884583369756 164.5786330231931,195.5806197768543 164.81359180563595,195.53198554966366 165.55203369323863,195.08211826333718 166.4359262556536,194.6322497413057 167.28625327767804,194.26749057302368 167.51002354669617,194.10942801448982 167.90162151737604,194.0 169.3896938060061,195.2158627207682 170.37428298941813,196.10343680730148 171.81760122429114,197.222016476735 172.32108432950918,197.708353080714 173.18259986495832,198.4256969357957 173.68608297017636,198.93634657944494 173.97698431985918,199.13087935831572 174.2007545888191,199.54426074624644 174.24550864257617,200.0427486795379 174.17837756191147,200.31022938419483 174.1895660753944,200.60202601844503 174.2678856694838,200.90598029302782 174.30145120987436,201.6841006660543 174.23432012909325,201.7692073576036 174.24550864257617,202.14610788875143 174.1895660753944,202.38926906157576 174.21194310224382,203.04580242531665 174.1895660753944,203.580753591159 174.14481202157913,203.72664906048158 174.1895660753944,203.99412375016254 174.1224349946715,205.31933281650709 173.97698431985918,205.51385801579454 173.94341877952684,205.708382984114 173.652517429844,206.21900992702285 173.24973094568122,207.1429974927887 173.38399310706882,207.30104747560108 174.10005796776386,207.5563586641365 174.1895660753944,207.6293046449573 174.16718904848676,207.90893060390954 174.31263972329907,208.45602349116234 174.1224349946715,208.8085934950359 174.21194310224382,209.25842308823485 174.34620526363142,209.48941618320532 174.31263972329907,209.70825144651462 174.44690188468667,209.84198396354623 174.7378032343113,210.34044056548737 174.9615735032712,211.167145733285 175.2189093126217,211.58049675314396 175.37554850091692,212.37072374208947 175.7783349850215,212.528768682605 176.01329376746435,212.528768682605 176.28181809018133,212.905644464161 176.43845727847656,213.0393743718596 176.50558835914126,213.3797772807884 176.61747349367943,213.61076456635783 176.69579308776883,213.6472362132481 176.83005524915643,213.6472362132481 176.28181809018133,213.84175152629905 176.23706403642427,213.80527992268617 176.24825254984898,213.89038031849486 176.16993295575958,213.9754806701094 175.89022011950146,214.1943099427881 175.83427755226148,214.5954961837997 175.76714647153858,214.7292247125588 175.58813025639392,214.88726737858087 175.20772079919698,215.0817812198802 175.07345863775117,215.3006090153649 174.97276201675413,215.32492319685116 174.70423769397894,215.14256674791977 174.63710661331424,215.21550935183768 174.48046742501901,216.30964451479667 174.536409992259,216.61356965269079 174.48046742501901,217.64691090592532 174.56997553259134,217.9386766685784 174.42452485777903,218.23044191187364 174.44690188468667,218.31554001000768 174.59235255949898,218.3641674748069 174.6818606670713,218.49789292862988 174.84968836879125,218.60730458245962 174.76018026121892,219.40965447883354 174.49165593844373,220.17553026165115 174.3909593174467,220.79552232204878 173.708459997084,222.13275211618748 173.3728045936441,222.6068582420121 173.093091757386,223.34840609958337 172.70149378676433,223.7617264003784 172.64555121946614,224.22367138575646 172.22038770845393,225.12324472710316 172.00780595291872,225.40284084122686 171.73928163014352,225.53656055334432 171.6497735225712,225.63381118455436 171.21342149807606,226.38750162046927 169.88198839774122,227.6517487650417 169.3225627252832,228.35680543842318 168.81907962012338,228.7458009258844 168.5617438108311,229.02539086248726 168.19252286705887,229.25635610272002 167.99112962494837,229.5116330949677 166.99535192805342,230.42333339444303 166.570188416983,230.90957148149027 166.2121559866937,231.10406631258957 165.97719720425084,231.3958081266901 165.36182896461105,231.80910814153322 164.6345755904331,232.1008487012732 164.25416613317793,232.17378376012493 163.89613370288862,232.4655236710969 163.49334721872583,232.52630275388947 163.11293776147068,232.75726306306024 162.59826614282792,232.85450941169984 162.26261073944625,232.98822304692294 162.06121749733575,233.01253460528096 161.7591276342282,232.9152883503266 161.49060331145301,232.97606726641243 160.9983087197761,233.32858453555673 160.7857269642409,233.40151904834784 160.506014128041,233.4258305454132 160.28224385908106,233.64463385671843 160.05847359006293,233.75403540291882 159.9689654824906,233.87559259086265 159.77876075386303,233.99714968871558 159.67806413286598,234.17948516651813 159.40953981003258,234.3618204416416 159.17458102764795,234.62924514508632 158.9396222452633,235.04253701087146 158.82773711078335,235.1762488620734 158.76060603006044,235.3828942359105 157.26134522800567,237.2062244855042 156.5900344211259,237.92339549589087 156.16487091005547,238.30021290568402 154.65442159451777,239.95333711885905 154.28520065074554,240.33014986521448 153.6362668707152,240.93791053528548 153.3677425479982,241.25394519379188 153.00971011759248,241.52135866004392 152.31602228380507,242.1777353198704 152.02512093418045,242.38437187291856 151.4433182348148,242.68824868394586 151.26430201967014,242.74902397862752 150.98458918347023,242.74902397862752 149.73147567728302,242.65178349634516 149.39582027378492,242.55454295645177 149.01541081652977,242.3965269561595 147.30356825893978,241.82523706978827 144.86447232717182,240.50032307981746 142.96242504101247,239.8074738879077 142.60439261060674,239.75885278207716 142.3134912609239,239.8074738879077 142.05615545163164,239.9290265893942 141.38484464475187,240.43954695198045 141.08275478164433,240.7677377746295 140.5904601899092,241.1445486501325 139.84082978888182,241.9224780420045 139.2814041164238,242.66393855981005 138.99050276679918,243.13798533128283 138.7331669575069,243.63634071654815 137.4800534513197,246.96677442707005 136.51784129469888,248.58334743964951 136.21575143159134,249.26400499571173 136.0367352164467,250.37006750212458 135.62276021885918,252.08384193468373 135.34304738265928,252.92249098558386 135.26472778845346,253.46943370968802 134.72767914296128,255.7179568684369 134.91788387158886,258.08798847046273 134.92907238507178,258.4647595722927 134.8843183312565,259.3519913312193 134.526285900909,260.7132142953051 134.21300752431853,261.21151630776876 134.00042576884152,261.8435069281695 133.67595887882635,262.4998023047374 132.57948456087615,263.557161558987 131.1697318664519,264.5902071264718 129.8606757929665,265.258644911999 128.31666093703825,265.80554653033323 126.67194946017116,265.9149266353634 125.03842649672879,265.8541599193413 124.12096839398146,265.9149266353634 123.68461636942811,265.72047306491004 123.40490353322821,265.46525240417395 123.10281367012067,265.2343381311366 123.13637921045301,265.3315652330202 123.3937150198035,265.4530990294588 123.6062967753387,265.73262641982 123.78531299048336,265.8541599193413 124.19928798807086,265.98784666490974 124.65801703947363,265.95138665419654 126.64957243320532,266.0 128.39498053118587,265.86631326434144 129.61452849709895,265.40448552169255 129.9389953870559,265.30725846295536 131.32637105468893,264.60236056506983 132.65780415502377,263.5814685881778 133.32911496196175,262.9737917781749 133.7878440133063,262.48764871049207 134.35845819918904,261.4788972518436 134.71649062953657,260.02045044743863 134.72767914296128,259.78952851504437 134.86194130434887,259.41276045427367 134.92907238507178,258.08798847046273 134.78362171020126,256.86043791330303 134.72767914296128,255.7179568684369 135.1640311673982,253.8462154147128 135.17521968088113,253.1169597185799 135.41017846332397,252.69155906586093 135.6339487323421,251.93798948831682 135.94722710887436,250.69823845989595 136.20456291816663,249.37339612527285 136.37239061988657,248.86290356329118 137.53599601850146,246.8938459457422 138.71078993059928,243.80651050138113 138.96812573989155,243.22307050423115 139.35972371062962,242.5666980271053 140.53451762266923,241.22963485706714 141.79881964233937,240.14782122506585 141.9666473440593,240.01411342683423 142.3806223416468,239.81962916209886 142.7274662585114,239.79531861279975 143.0519331485266,239.83178443538782 145.08824259613175,240.63403048172768 147.16930609755218,241.77661656207056 147.69516622961964,242.0075638454582 149.87692635203712,242.712558804531 150.36922094383044,242.77333409017592 150.92864661617205,242.79764419814455 151.2978675600025,242.78548914463317 151.54401485587005,242.7247138634557 152.3383993107127,242.20204551608185 154.195692543115,240.4517021793872 155.3592979417299,239.2604856164835 158.0445411693654,236.33102849549323 159.06269589316798,234.92098068786436 159.4878594042384,234.49553284786816 159.85708034801064,233.93637115103775 160.15917021111818,233.705412502517 160.34937493974576,233.6081666584505 160.59552223561332,233.38936329845455 160.95355466596084,233.35289604340505 161.52416885184357,232.97606726641243 161.77031614765292,232.9274441353482 162.161914118391,233.04900193600042 162.43043844110798,233.01253460528096 162.74371681769844,232.85450941169984 163.2695769497659,232.74510726542212 163.58285532629816,232.52630275388947 164.00801883736858,232.4898353069002 164.26535464666085,232.40474456577795 164.5115019425284,232.3074979504163 165.09330464183586,231.91851091223361 165.56322220666334,231.7604846644099 165.71986139490036,231.65108178825176 165.97719720425084,231.56599061189627 166.570188416983,231.0797544713132 166.8387127398164,230.69076452075387 167.5883431408438,229.9249378588429 167.97994111152366,229.73044162912993 168.19252286705887,229.4508528947772 168.43867016286822,229.3171363750007 169.14354651013855,228.67286434229754 169.96030799188884,227.676061114631 171.29174109222367,226.3753453506215 172.23157622187864,225.3177464222099 173.5741978356964,222.6068582420121 173.9881728332839,221.64648799864517 174.44690188468667,220.7833656375442 174.55878701916663,220.21200044777652 174.6706721536466,219.99317920937028 174.8049343150342,219.51906552405853 174.91681944951415,218.65593196070404 174.87206539569888,218.570834039303 174.49165593844373,218.31554001000768 174.45809039811138,218.23044191187364 174.59235255949898,217.96299045867636 174.48046742501901,217.48887090095377 174.56997553259134,216.60141265796847 174.5475985056837,216.34611556111486 174.59235255949898,215.67747842271638 174.71542620740365,215.19119515415514 174.79374580160948,215.13040964413085 175.00632755708648,215.27629483029887 175.10702417814173,215.27629483029887 175.2972289067693,215.0817812198802 175.66644985054154,214.88726737858087 175.87903160607675,214.68059616927349 176.01329376746435,213.9876378596091 176.34894917090423,213.7931227196823 176.69579308776883,213.70802227337845 176.89718632987933,213.61076456635783 176.63985052058706,213.6472362132481 176.56153092643945,213.5986073489039 176.13636741542723,212.4679821850732 175.82308903883677,212.37072374208947 175.54337620257866,212.395038358256 175.28604039328638,212.05463340379356 174.82731134194182,210.74163624132052 174.7378032343113,210.25533832615474 174.6035410729819,210.06081875598466 174.29026269639144,209.8541414596839 174.24550864257617,209.7933539699734 174.30145120987436,209.55020378566405 174.17837756191147,209.1854778326815 174.17837756191147,208.86938135007222 174.2007545888191,208.7478056174732 174.35739377711434,208.57759944026475 174.36858229053905,208.49249628536927 174.17837756191147,207.5806739947293 173.6413289164193,207.3618358898966 173.35042756673647,207.21594365764759 173.32805053982884,207.16731288465962 173.35042756673647,206.76610845707182 173.48468972812407,206.6323734295438 173.652517429844,206.24332545604557 173.87628769886214,205.96369665450766 174.08886945433915,205.27070148060739 174.06649242748972,204.83301880786894 174.17837756191147,203.54427970355027 174.2007545888191,202.0853175391676 174.1224349946715,201.75704926153412 174.2007545888191,201.62331014500523 174.21194310224382,200.8451894832251 174.27907418296672,200.52907690859865 174.22313161572674,200.16433087216865 174.32382823672378,199.59289378215908 174.27907418296672,199.44699463117286 174.03292688704096,199.39836155201192 173.97698431985918,199.228145661109 174.02173837361624,199.10656277360977 174.29026269639144,198.7782885265624 174.34620526363142,198.45001362157927 174.24550864257617,198.3892219003319 173.94341877952684,198.4256969357957 173.5070667549735,198.25548003414588 173.13784581125947,197.9879959741229 172.30989581608446,197.24633334123064 171.85116676462349,196.9423722755455 170.6987498794333,196.05480273535068 169.91555393813178,195.3496070689871" stroke="#ff0a00" stroke-linecap="round" stroke-linejoin="round" stroke-width="0.5"><title>2023-03-11 21.3km</title></polyline></svg>