<?xml version="1.0" encoding="utf-8" ?>
<svg baseProfile="full" height="200mm" version="1.1" viewBox="0,0,200,200" width="200mm" xmlns="http://www.w3.org/2000/svg" xmlns:ev="http://www.w3.org/2001/xml-events" xmlns:xlink="http://www.w3.org/1999/xlink"><defs /><rect fill="#1a1a1a" height="200" width="200" x="0" y="0" /><text alignment-baseline="middle" fill="#e1ed5e" style="dominant-baseline: central; font-size:9.0px; font-family:Arial;" text-anchor="middle" x="100.0" y="100.0">2023</text><line stroke="#e1ed5e" stroke-width="0.3" x1="100.0" x2="100.0" y1="15.0" y2="10.0" /><path d="M 100.0 14.0 a86.0,86.0 0 0,1 42.46469731375804,11.215312516191453" fill="none" id="id13" stroke="none" /><text fill="#e1ed5e" style="font-size:6.75px; font-family:Arial;" text-anchor="middle"><textPath startOffset="22.20632615414155" xlink:href="#id13">January</textPath></text><path d="M 102.52436894288641 79.15227682838746 l 0.7124278695150746 -5.883648285741219 a26.926623880386487,26.926623880386487 0 0,0 0.45965705105368876,0.059676677472466064 l -0.8135996490766095 5.870513285104616" fill="#ff0000" stroke="none" /><path d="M 104.66035177308747 79.52364482259891 l 2.04465168982457 -8.983659657773943 a30.213400098737573,30.213400098737573 0 0,0 0.5061123090980967,0.11978043173063742 l -2.1989876858851902 8.947133313902437" fill="#ff3304" stroke="none" /><path d="M 105.01212808612495 79.60689891045804 l 3.553135388285039 -14.45682311246491 a35.88705832569293,35.88705832569293 0 0,0 0.5986151210824905,0.15260032308559354 l -3.8014593980525544 14.39351979321045" fill="#ff880c" stroke="none" /><path d="M 106.0581310904928 79.89281104454417 l 4.38224327122846 -14.544847608472264 a36.19067635235207,36.19067635235207 0 0,0 0.594930992777345,0.18484795543160168 l -4.631959636716523 14.46725951815814" fill="#ff8d0c" stroke="none" /><path d="M 107.4271985657038 80.35727306442388 l 6.976716108090061 -18.4513350768699 a40.72628535157628,40.72628535157628 0 0,0 0.6535925614527933,0.2535837596740069 l -7.293291834542521 18.328508613305345" fill="#ffcd13" stroke="none" /><path d="M 107.76421540070413 80.48803036053334 l 6.366558063179823 -15.99956740321765 a38.21973340856196,38.21973340856196 0 0,0 0.6091791081846327,0.24849945380499514 l -6.641021040952843 15.887607063229076" fill="#ffaa0f" stroke="none" /><path d="M 108.43124777332544 80.76684994638697 l 9.540706980284355 -21.764020451386575 a44.763368361661605,44.763368361661605 0 0,0 0.7030361582540183,0.3154318311964498 l -9.913925257005154 21.596568289673595" fill="#fbff18" stroke="none" /><path d="M 108.76106565485865 80.91482961587045 l 10.169855392715887 -22.154088394977673 a45.37682488186755,45.37682488186755 0 0,0 0.7070612287328385,0.3319747275460604 l -10.549694832748322 21.97574868479161" fill="#f3ff19" stroke="none" /><path d="M 109.41281617654863 81.2277094730956 l 8.151091201222554 -16.255990690848645 a39.185090626983566,39.185090626983566 0 0,0 0.6003519977198151,0.3075236110301889 l -8.429703686531125 16.113274554505956" fill="#ffb711" stroke="none" /><path d="M 110.05341064243156 81.56283822128135 l 11.373634255959134 -20.858347703817323 a44.75774032019183,44.75774032019183 0 0,0 0.6732329521294237,0.37465340896617266 l -11.730991297160593 20.65947889729097" fill="#fbff18" stroke="none" /><path d="M 110.36928655335952 81.73862282372117 l 11.840688242149943 -20.852666468801086 a44.97989985189365,44.97989985189365 0 0,0 0.6699933165264109,0.388103374008336 l -12.19787829114168 20.6457589374027" fill="#f8ff18" stroke="none" /><line stroke="#e1ed5e" stroke-width="0.3" x1="143.23703022742887" x2="145.7803849466894" y1="26.81831364943548" y2="22.513508569990506" /><path d="M 143.74570117128098 25.957352633546492 a86.0,86.0 0 0,1 28.547481713284135,27.462654790039103" fill="none" id="id14" stroke="none" /><text fill="#e1ed5e" style="font-size:6.75px; font-family:Arial;" text-anchor="middle"><textPath startOffset="19.985693538727396" xlink:href="#id14">February</textPath></text><path d="M 111.90073688211348 82.69761687909136 l 13.462042386599505 -19.572352306430485 a44.75507440581141,44.75507440581141 0 0,0 0.6309801846274998,0.44204194261872076 l -13.796953710810657 19.33772552104783" fill="#fbff18" stroke="none" /><path d="M 112.19680574252982 82.90503203632743 l 13.903446732245536 -19.48698548535438 a44.93843007264264,44.93843007264264 0 0,0 0.6258311595453376,0.45469295276059324 l -14.236823208144662 19.244773297777115" fill="#f9ff18" stroke="none" /><path d="M 112.77801427241765 83.33499621200491 l 14.995850024192798 -19.55749086904848 a45.644897383454406,45.644897383454406 0 0,0 0.6193957036844289,0.4834481714175511 l -15.330278283036657 19.296464308407707" fill="#f0ff19" stroke="none" /><path d="M 113.06298171725822 83.55741782278167 l 16.141014153774172 -20.316950401640803 a46.948233302771705,46.948233302771705 0 0,0 0.6284280392766906,0.5081451035210067 l -16.488345591615353 20.036099200855666" fill="#dfff1b" stroke="none" /><path d="M 113.6212207817346 84.01681056812373 l 15.64341344310363 -18.35603757025694 a45.11763876154877,45.11763876154877 0 0,0 0.5867574731520998,0.5088302987133475 l -15.957064714902494 18.08404227812392" fill="#f7ff19" stroke="none" /><path d="M 113.89432698308785 84.25364557470407 l 25.47603589155214 -28.871833158110153 a59.50469003455815,59.50469003455815 0 0,0 0.7621956098001205,0.6843067441057858 l -25.96924248894825 28.42902740523507" fill="#4aff2c" stroke="none" /><path d="M 114.42810811169701 84.74124197986012 l 18.01198544926643 -19.048965069080747 a47.216305804358555,47.216305804358555 0 0,0 0.5857447065121734,0.563485943579788 l -18.337213399391022 18.73609603873866" fill="#dbff1b" stroke="none" /><path d="M 114.68862486808459 84.99185889309783 l 18.920656062886703 -19.332230115289004 a48.05044079272163,48.05044079272163 0 0,0 0.58613346272738,0.5836164193658275 l -19.250625325781407 19.003677845273057" fill="#d1ff1c" stroke="none" /><path d="M 114.94478906791727 85.2469230424477 l 18.69431954469341 -18.454508368004138 a47.26873545384019,47.26873545384019 0 0,0 0.5666299963474007,0.5839620194188506 l -19.009213804743922 18.129982153035172" fill="#dbff1b" stroke="none" /><path d="M 115.4437574822437 85.77008943001954 l 18.23646459730631 -16.80311676939015 a45.79744692855631,45.79744692855631 0 0,0 0.529192463845895,0.5843475359370198 l -18.52300070176824 16.486716446183582" fill="#eeff19" stroke="none" /><path d="M 115.68641384162765 86.03803664274999 l 18.571678479399356 -16.530042942249523 a45.86261372452218,45.86261372452218 0 0,0 0.5197940582867869,0.59421446411027 l -18.85346440126399 16.207912921936305" fill="#edff1a" stroke="none" /><path d="M 116.15771136456269 86.58626213691792 l 20.57233678429017 -17.078652206941296 a47.73764017208548,47.73764017208548 0 0,0 0.5194344173350158,0.6367651770358764 l -20.863269693701593 16.722002860297316" fill="#d5ff1c" stroke="none" /><path d="M 116.38621287248628 86.86637796730983 l 18.48606115440374 -14.816659710481133 a44.69109246068129,44.69109246068129 0 0,0 0.4759514506013918,0.6044100086372147 l -18.738366685599097 14.49625730789088" fill="#fcff18" stroke="none" /><path d="M 116.60985879189232 87.15038557335679 l 21.326079364299293 -16.49814730496083 a47.962761830876644,47.962761830876644 0 0,0 0.49955285646253667,0.6573530021770653 l -21.60690816098594 16.128609526902732" fill="#d2ff1c" stroke="none" /><path d="M 117.04232023915458 87.72973835380427 l 21.750803581059102 -15.6603119299116 a47.80191832992454,47.80191832992454 0 0,0 0.47503129069622385,0.6718980725856015 l -22.017147491559207 15.283587356994206" fill="#d4ff1c" stroke="none" /><path d="M 117.2510076193507 88.02491185347247 l 31.63435003249436 -21.959536419907067 a59.50913322519219,59.50913322519219 0 0,0 0.5768858854242396,0.8465088528806735 l -32.007660383587336 21.411749543755988" fill="#4aff2c" stroke="none" /><path d="M 117.65298651832404 88.62581576622439 l 22.47739746116244 -14.482651961110436 a47.73912123563016,47.73912123563016 0 0,0 0.4391371810567819,0.6946095614096898 l -22.723362238465178 14.09359475198654" fill="#d5ff1c" stroke="none" /><line stroke="#e1ed5e" stroke-width="0.3" x1="172.23445277983987" x2="176.4835382374775" y1="55.19839476539836" y2="52.563006222186495" /><path d="M 173.08426987136738 54.67131705675599 a86.0,86.0 0 0,1 12.851231095245387,41.99856678651699" fill="none" id="id15" stroke="none" /><text fill="#e1ed5e" style="font-size:6.75px; font-family:Arial;" text-anchor="middle"><textPath startOffset="22.20632615414155" xlink:href="#id15">March</textPath></text><path d="M 117.84615892207809 88.93136811851018 l 20.706780263364426 -12.842860426538834 a45.36616122434586,45.36616122434586 0 0,0 0.40588499935498495,0.6671682186648232 l -20.924781061005632 12.48452443466693" fill="#f3ff19" stroke="none" /><path d="M 118.03404312379186 89.2402003453031 l 23.239864303401152 -13.865791613697846 a48.06199308837013,48.06199308837013 0 0,0 0.4177738982836173,0.7141110155655367 l -23.475097876155097 13.463701185778415" fill="#d1ff1d" stroke="none" /><path d="M 118.3937258080291 89.86733742301442 l 38.91494370472226 -21.437309541181584 a65.42894421327316,65.42894421327316 0 0,0 0.5349342761002807,0.991151971177232 l -39.27818608004101 20.764276586671894" fill="#34ff5b" stroke="none" /><path d="M 118.56541770881063 90.18545643968196 l 23.75441202293833 -12.557687373671628 a47.86945482756189,47.86945482756189 0 0,0 0.37883103962422454,0.7317809890558851 l -23.96705249572267 12.146933662355398" fill="#d3ff1c" stroke="none" /><path d="M 119.04729006885535 91.15688171328212 l 24.1264778642106 -11.201241584699424 a47.59990126243035,47.59990126243035 0 0,0 0.33863404578002615,0.746135232232523 l -24.315714226953975 10.784284343624838" fill="#d7ff1c" stroke="none" /><path d="M 119.196687751892 91.48605970444005 l 24.980470111443648 -11.079110825402113 a48.327103462867626,48.327103462867626 0 0,0 0.33071684447657296,0.7633400742040449 l -25.167477665762902 10.647471606611466" fill="#cdff1d" stroke="none" /><path d="M 119.47837535516314 92.15188598940014 l 58.435126065489385 -23.54434203179955 a84.0,84.0 0 0,0 0.5288258004731983,1.3458039804168624 l -58.83174541584429 22.534989046486903" fill="#4dd2ff" stroke="none" /><path d="M 119.7369772167798 92.82701384747503 l 25.203308377672265 -9.159608384062137 a47.81613653995345,47.81613653995345 0 0,0 0.2744803784508991,0.7759929918059629 l -25.357241836932975 8.72441776582956" fill="#d4ff1c" stroke="none" /><path d="M 119.97218684219823 93.5106431181261 l 25.683113870409557 -8.344949557088617 a48.004824035545525,48.004824035545525 0 0,0 0.24858387459703746,0.7880788141420645 l -25.8229532287748 7.901620576520133" fill="#d1ff1c" stroke="none" /><path d="M 120.08093135843002 93.85539295169968 l 26.507282591381003 -8.111019978857302 a48.720473940334294,48.720473940334294 0 0,0 0.23848463861854052,0.8040516443572079 l -26.642973127111244 7.653538947753564" fill="#c8ff1d" stroke="none" /><path d="M 120.28053869075195 94.5502522615342 l 42.91624594121843 -11.53237188754996 a65.43871923266803,65.43871923266803 0 0,0 0.28295598781122044,1.0903448460483682 l -43.10839826089995 10.791930615952742" fill="#34ff5c" stroke="none" /><path d="M 120.37134235888165 94.90015583598534 l 28.741135154276307 -7.19517191363618 a50.62808378588052,50.62808378588052 0 0,0 0.20436194717570014,0.8472122064353991 l -28.860729901712826 6.699374475541375" fill="#b1ff20" stroke="none" /><path d="M 120.53481517161879 95.60439243477599 l 26.16128790888792 -5.599989777713989 a47.753931871076944,47.753931871076944 0 0,0 0.16513924549070844,0.8052776090220123 l -26.253806450293627 5.148836512528566" fill="#d5ff1c" stroke="none" /><path d="M 120.6074358757038 95.95851677861258 l 23.258977311040137 -4.561497467039396 a44.70205233091191,44.70205233091191 0 0,0 0.14158688812067585,0.7563628178851785 l -23.334049923070673 4.160456571691654" fill="#fcff18" stroke="none" /><path d="M 120.91429891909075 98.10471618934814 l 26.224368466218674 -2.3764899407278013 a47.3318287608435,47.3318287608435 0 0,0 0.06654746075862802,0.8120475797922367 l -26.2613904107968 1.9247284437277958" fill="#daff1c" stroke="none" /><line stroke="#e1ed5e" stroke-width="0.3" x1="184.98032266829074" x2="189.97916517819016" y1="98.17113171792111" y2="98.06355123074" /><path d="M 185.9800911702706 98.14961562048488 a86.0,86.0 0 0,1 -9.607161424134198,41.387399972396054" fill="none" id="id16" stroke="none" /><text fill="#e1ed5e" style="font-size:6.75px; font-family:Arial;" text-anchor="middle"><textPath startOffset="21.466115282336823" xlink:href="#id16">April</textPath></text><path d="M 120.99824983174949 100.27111621757518 l 26.234261687672582 0.338720315103842 a47.236448268566186,47.236448268566186 0 0,0 -0.01749533969599028,0.8129396890553913 l -26.224544285291586 -0.7902498199493481" fill="#dbff1b" stroke="none" /><path d="M 120.9764740272857 100.99374915477107 l 17.622960286891377 0.8348782482166495 a38.64272515692221,38.64272515692221 0 0,0 -0.03719573747960332,0.6641548793814235 l -17.605978198524245 -1.1381048439334962" fill="#ffb010" stroke="none" /><path d="M 120.89721153311464 102.0752229133903 l 29.471862545150827 2.926739022432176 a50.61682770294097,50.61682770294097 0 0,0 -0.09356327413076033,0.8662797167124175 l -29.417116969519014 -3.433615061029385" fill="#b1ff20" stroke="none" /><path d="M 120.8583938346157 102.4346265915055 l 29.414174816499113 3.43327164801133 a50.61386557585161,50.61386557585161 0 0,0 -0.10845464581410623,0.8644902366163034 l -29.35071866143816 -3.9390796389150284" fill="#b1ff20" stroke="none" /><path d="M 120.76222939487914 103.15116336523771 l 14.75745118044087 2.239795093274465 a35.926454615981385,35.926454615981385 0 0,0 -0.09805911193365925,0.610614183615628 l -14.716710314145923 -2.493488506583298" fill="#ff890c" stroke="none" /><path d="M 120.64145759157962 103.86396538481128 l 26.53298582862898 4.96682651128926 a47.9938641653149,47.9938641653149 0 0,0 -0.1589969688922776,0.810722118933863 l -26.44355892676104 -5.422812357291067" fill="#d2ff1c" stroke="none" /><path d="M 120.49622156327973 104.57218783832717 l 13.786054379645874 3.075319515771648 a35.12490302560124,35.12490302560124 0 0,0 -0.13671855690746942,0.5889799649003057 l -13.73107525680785 -3.3121681380205183" fill="#ff7d0b" stroke="none" /><path d="M 120.32669344350535 105.2749913415812 l 26.227297873540472 6.806260426985554 a48.096057549897736,48.096057549897736 0 0,0 -0.21485636567297597,0.7995604651990441 l -26.10625343152572 -7.256711825360147" fill="#d0ff1d" stroke="none" /><path d="M 120.23288151984713 105.62410040840565 l 25.04459436877332 6.961604222295487 a46.99414627265675,46.99414627265675 0 0,0 -0.22335056291727667,0.7775126103561333 l -24.921051168969946 -7.391674308156203" fill="#deff1b" stroke="none" /><path d="M 119.79798401119884 107.00284435728193 l 13.452687548790204 4.758417677175289 a35.26945482756189,35.26945482756189 0 0,0 -0.20737723803695132,0.5706130940979474 l -13.368786049748026 -4.989278568279367" fill="#ff7f0b" stroke="none" /><path d="M 119.54520255179757 107.68017299344265 l 15.175480280184738 5.963116191890127 a37.30502856336836,37.30502856336836 0 0,0 -0.23999103971258895,0.595638079044729 l -15.070586626214757 -6.223453638777669" fill="#ff9d0e" stroke="none" /><path d="M 119.41010516605496 108.01547362559984 l 15.13602163763569 6.250475265077385 a37.375823400804,37.375823400804 0 0,0 -0.2506832406253706,0.5925411302062085 l -15.02618741581801 -6.510090920949756" fill="#ff9e0e" stroke="none" /><path d="M 119.26925614724726 108.34839909993367 l 15.79456582231027 6.8429906212884655 a38.21321672896538,38.21321672896538 0 0,0 -0.266689885367902,0.6013152874310507 l -15.674434852211094 -7.113854245212204" fill="#ffa90f" stroke="none" /><path d="M 119.12269723197855 108.67885076344098 l 15.69709239600806 7.124137388792553 a38.238098596515975,38.238098596515975 0 0,0 -0.27718139096052147,0.5970240569148143 l -15.572136388207706 -7.393281512986198" fill="#ffaa0f" stroke="none" /><path d="M 118.81262510543309 109.33194174019688 l 21.27568718637857 10.553735706379364 a44.74944636434163,44.74944636434163 0 0,0 -0.34823876434231976,0.6871081194675304 l -21.09086975224998 -10.918398037549588" fill="#fbff18" stroke="none" /><path d="M 118.64920377521936 109.65438752849418 l 26.310910653800907 13.620727766239039 a50.627491360462656,50.627491360462656 0 0,0 -0.4073041752483839,0.7704660029838248 l -26.072553970327633 -14.071608784309" fill="#b1ff20" stroke="none" /><line stroke="#e1ed5e" stroke-width="0.3" x1="174.80103733775053" x2="179.2010983576182" y1="140.37084112569926" y2="142.7455964860345" /><path d="M 175.68104954172406 140.8457921977663 a86.0,86.0 0 0,1 -30.038265399797805,32.042727171017184" fill="none" id="id17" stroke="none" /><text fill="#e1ed5e" style="font-size:6.75px; font-family:Arial;" text-anchor="middle"><textPath startOffset="22.206326154141568" xlink:href="#id17">May</textPath></text><path d="M 118.12598468904814 110.60418214915192 l 25.563531689604037 14.955344554382615 a50.61682770294097,50.61682770294097 0 0,0 -0.4464383096224971,0.7482562860108968 l -25.30231250428331 -15.393162934279616" fill="#b1ff20" stroke="none" /><path d="M 117.75023020441432 111.22182372390056 l 12.598795174358266 7.965049295248971 a35.905423513646944,35.905423513646944 0 0,0 -0.3347670143980654,0.519565840546175 l -12.45982329658315 -8.180736735716598" fill="#ff880c" stroke="none" /><path d="M 117.14729908036423 112.12312394758627 l 12.43569197005328 8.792022254956601 a36.22977642993159,36.22977642993159 0 0,0 -0.36440289998645914,0.5061237565028867 l -12.282509277691219 -9.004779616910618" fill="#ff8d0d" stroke="none" /><path d="M 116.71984013943494 112.70617746262583 l 12.005408876478388 9.123463766626246 a36.07870794837436,36.07870794837436 0 0,0 -0.38001734484574745,0.49122364506673005 l -11.846584714414572 -9.328765405806228" fill="#ff8b0c" stroke="none" /><path d="M 115.56566222782051 114.09645910891815 l 11.323994570309203 10.255151632718288 a36.27746667607025,36.27746667607025 0 0,0 -0.4231569414818525,0.4592532854676032 l -11.14579122083163 -10.448556172987226" fill="#ff8e0d" stroke="none" /><path d="M 115.07121518719521 114.62390073753431 l 10.677720522215116 10.360805222439858 a35.87817194442486,35.87817194442486 0 0,0 -0.4338856248169598,0.4395238472047388 l -10.497794272342622 -10.543069563625261" fill="#ff880c" stroke="none" /><path d="M 113.20401910651253 116.32954008644616 l 16.90885510435085 20.911347144766037 a47.89226320614995,47.89226320614995 0 0,0 -0.6455022027290112,0.5128259893620597 l -16.546395408904484 -21.19930704813322" fill="#d3ff1c" stroke="none" /><path d="M 112.34349029814194 116.9893568818739 l 12.0182538233986 16.541707278159382 a41.44667465970802,41.44667465970802 0 0,0 -0.5807916049471524,0.41437938915626144 l -11.731734890602564 -16.746130929159865" fill="#ffd614" stroke="none" /><path d="M 112.04921762599082 117.19931262002967 l 14.8977243953202 21.265332501709587 a46.96452500176317,46.96452500176317 0 0,0 -0.6660981161300776,0.4581483580811669 l -14.529469394567238 -21.518621649155847" fill="#dfff1b" stroke="none" /><path d="M 111.45004920935366 117.60387380957326 l 11.431475887411708 17.5753182628055 a41.965935538472394,41.965935538472394 0 0,0 -0.6089421072713327,0.38865566395919154 l -11.127251978093444 -17.7694883555885" fill="#ffdd14" stroke="none" /><path d="M 111.1453310114006 117.79835938074945 l 12.85576477124316 20.529809413368874 a45.222794273220956,45.222794273220956 0 0,0 -0.6633124415873394,0.4074606780352847 l -12.500473129723513 -20.748058558232536" fill="#f5ff19" stroke="none" /><line stroke="#e1ed5e" stroke-width="0.3" x1="143.8653032363475" x2="146.44561519142675" y1="172.8068346515853" y2="177.08958963109032" /><path d="M 144.38136562736335 173.6633856474863 a86.0,86.0 0 0,1 -40.68145358897372,12.25698825130547" fill="none" id="id18" stroke="none" /><text fill="#e1ed5e" style="font-size:6.75px; font-family:Arial;" text-anchor="middle"><textPath startOffset="21.466115282336833" xlink:href="#id18">June</textPath></text><path d="M 110.5260780823613 118.17145234162733 l 8.967395979129346 15.480657409933928 a38.8903589815925,38.8903589815925 0 0,0 -0.5821539190828963,0.33056218853927133 l -8.69959329312525 -15.632722764267827" fill="#ffb310" stroke="none" /><path d="M 110.21172684928248 118.3499491758327 l 14.451116716382886 25.967915240338073 a50.718132449397004,50.718132449397004 0 0,0 -0.7665132506696698,0.41796414026925144 l -14.001980653844567 -26.212820032367095" fill="#b0ff20" stroke="none" /><path d="M 109.89434966115114 118.52300852407294 l 12.665242081949428 23.71033924185195 a47.88100712321038,47.88100712321038 0 0,0 -0.7303201037027596,0.3820689611975485 l -12.255231075720173 -23.924837621994214" fill="#d3ff1c" stroke="none" /><path d="M 109.2508944713604 118.85261126421891 l 7.859247817336011 16.016542442258334 a38.84089145920022,38.84089145920022 0 0,0 -0.6027502138157765,0.28935673170174464 l -7.582384935520001 -16.14945345045964" fill="#ffb210" stroke="none" /><path d="M 108.92500713936063 119.00905698771935 l 7.555696149095792 16.092609948359403 a38.77809436490585,38.77809436490585 0 0,0 -0.6066592886677455,0.27848752466824633 l -7.277568864660627 -16.220284543361725" fill="#ffb110" stroke="none" /><path d="M 108.59647513512805 119.15986991738527 l 7.705240319651764 17.173480977505424 a39.822836589322236,39.822836589322236 0 0,0 -0.6278341843432058,0.2752240560701535 l -7.4084854606508035 -17.303569586870033" fill="#ffc011" stroke="none" /><path d="M 107.59598834532513 119.57807347666477 l 13.926067919932768 35.89336483714654 a59.50024684392411,59.50024684392411 0 0,0 -0.9580383490497721,0.36224812752776714 l -13.30615935012272 -36.12776121478094" fill="#4aff2c" stroke="none" /><path d="M 106.2309692047433 120.05430185196036 l 5.923529607053875 19.06481108564175 a40.96384794414274,40.96384794414274 0 0,0 -0.6751720436520138,0.20342379823162418 l -5.594482588961616 -19.1639502529791" fill="#ffd013" stroke="none" /><path d="M 105.88484417918355 120.15858648285463 l 4.981718363970674 17.06492090794162 a38.777205726779044,38.777205726779044 0 0,0 -0.6423514885877152,0.18153494695048275 l -4.6872357072783535 -17.14814464823062" fill="#ffb110" stroke="none" /><path d="M 104.83641907484287 120.43548508189849 l 4.09385018240102 17.2978836274029 a38.77572466323436,38.77572466323436 0 0,0 -0.6508410303085885,0.14812929954176204 l -3.7954890026995693 -17.365789660522346" fill="#ffb110" stroke="none" /><path d="M 104.48393922423573 120.51570834832081 l 3.793591574436264 17.357108212600075 a38.76683828196629,38.76683828196629 0 0,0 -0.6531446855974349,0.13687281927376999 l -3.494255427409451 -17.419837012600386" fill="#ffb110" stroke="none" /><path d="M 104.13013068566511 120.58985236759428 l 5.826516544130191 29.046808585832196 a50.625417871500105,50.625417871500105 0 0,0 -0.8558887081058548,0.16403310794078088 l -5.325660221452631 -29.142798892121444" fill="#b1ff20" stroke="none" /><path d="M 103.41894727170886 120.7198165907248 l 6.267145675928132 37.98072875446282 a59.4943225897454,59.4943225897454 0 0,0 -1.011868492760129,0.15803304844253907 l -5.612441319559487 -38.082980110252464" fill="#4aff2c" stroke="none" /><path d="M 102.70371172650421 120.8252237178851 l 2.28855401644391 17.627489245878643 a38.775428450525425,38.775428450525425 0 0,0 -0.6626399014441373,0.08023646389359845 l -1.9847866919483925 -17.66427123849759" fill="#ffb110" stroke="none" /><path d="M 102.34483914955558 120.86867818915974 l 1.9852828142030412 17.66868664399639 a38.77987164115946,38.77987164115946 0 0,0 -0.6639989404752253,0.06882620510812561 l -1.6808512771222133 -17.700242217560273" fill="#ffb110" stroke="none" /><path d="M 101.98527174616119 120.90594882070398 l 1.6784990262345971 17.675471786628062 a38.754989773608855,38.754989773608855 0 0,0 -0.6646585610873177,0.05734953738798325 l -1.3739961474057376 -17.70174557629471" fill="#ffb110" stroke="none" /><path d="M 101.62511606390274 120.93702456842531 l 1.4799914457975318 19.06732568214701 a40.12467733972777,40.12467733972777 0 0,0 -0.6890691838302684,0.047522245294710885 l -1.1515595011883333 -19.089976271958005" fill="#ffc412" stroke="none" /><path d="M 101.26447882468166 120.96189622390904 l 1.078913725704471 17.885691014605843 a38.91820297623246,38.91820297623246 0 0,0 -0.6690445538250451,0.034581961333540336 l -0.7708811034659463 -17.901612782701587" fill="#ffb310" stroke="none" /><path d="M 100.90346689309514 120.98055641714683 l 0.7723593763991438 17.93594164290878 a38.952563650469,38.952563650469 0 0,0 -0.6701318331910554,0.023080695301104664 l -0.463507191533436 -17.946579136635975" fill="#ffb410" stroke="none" /><line stroke="#e1ed5e" stroke-width="0.3" x1="102.19456741930631" x2="102.32365962044197" y1="184.97166512339345" y2="189.96999836594603" /><path d="M 102.22038585953345 185.97133177190398 a86.0,86.0 0 0,1 -42.740103519485714,-10.115201625700543" fill="none" id="id19" stroke="none" /><text fill="#e1ed5e" style="font-size:6.75px; font-family:Arial;" text-anchor="middle"><textPath startOffset="22.20632615414155" xlink:href="#id19">July</textPath></text><path d="M 99.81925306533755 120.99922214144158 l -0.1530338493985958 17.779509260738138 a38.78016785386839,38.78016785386839 0 0,0 -0.6674626616722181,-0.01149097502803325 l 0.4590562009634819 -17.774240808430946" fill="#ffb110" stroke="none" /><path d="M 99.09653310690486 120.98055641714683 l -0.7646366746964007 17.7566029421712 a38.77305874885394,38.77305874885394 0 0,0 -0.6665493729733826,-0.03445298898448157 l 1.0701741160832723 -17.740810146424515" fill="#ffb110" stroke="none" /><path d="M 98.73552117531835 120.96189622390904 l -1.0571360454035021 17.52467154511726 a38.556527258621905,38.556527258621905 0 0,0 -0.6621390259286348,-0.045664983934519246 l 1.358637832111067 -17.503878216666457" fill="#ffae10" stroke="none" /><path d="M 98.37488393609728 120.93702456842531 l -1.3793830191881804 17.77114681437327 a38.824599760208756,38.824599760208756 0 0,0 -0.6658523911928362,-0.05745254607286249 l 1.6850797281225582 -17.744770016021747" fill="#ffb210" stroke="none" /><path d="M 98.01472825383883 120.90594882070398 l -3.2442020218106307 34.16314243284008 a55.31683475562452,55.31683475562452 0 0,0 -0.9471490779560655,-0.09817587458906905 l 3.8317836963722893 -34.102237189795254" fill="#79ff26" stroke="none" /><path d="M 96.93821686468263 120.77559828337769 l -2.5629666431399802 17.39090034737357 a38.57874321179209,38.57874321179209 0 0,0 -0.6561401667765954,-0.10247559984643409 l 2.8619426735250926 -17.34420644018003" fill="#ffaf10" stroke="none" /><path d="M 96.58105272829116 120.7198165907248 l -2.916196368153381 17.672999636661668 a38.91198250934481,38.91198250934481 0 0,0 -0.6599305996554646,-0.11473739378782741 l 3.2199759392808955 -17.620183664352833" fill="#ffb310" stroke="none" /><path d="M 95.51606077576429 120.51570834832081 l -3.8264803310002216 17.507586643252832 a38.92086889061288,38.92086889061288 0 0,0 -0.6532772405744385,-0.14868377306664576 l 4.127277720967522 -17.4391261366085" fill="#ffb310" stroke="none" /><path d="M 94.46302465271185 120.25689768951611 l -4.699575676315255 17.193290142763995 a38.82400733479089,38.82400733479089 0 0,0 -0.6431267657643623,-0.1817540480246376 l 4.994833610184231 -17.109847301400837" fill="#ffb210" stroke="none" /><path d="M 94.11515582081647 120.15858648285463 l -4.980473245659246 17.060655744005615 a38.772762536145,38.772762536145 0 0,0 -0.6390582582783556,-0.19254301094443968 l 5.273406478377847 -16.972397363955448" fill="#ffb110" stroke="none" /><path d="M 93.42475214034765 119.94407469862007 l -4.664117915425025 14.147225791930385 a35.896240919669935,35.896240919669935 0 0,0 -0.5851604638371568,-0.19851820009503995 l 4.906948112199407 -14.064844604937223" fill="#ff880c" stroke="none" /><path d="M 93.08242187328487 119.8279376855182 l -8.89444719854316 25.494261368550827 a48.0012694830383,48.0012694830383 0 0,0 -0.7778044319056746,-0.278892996325197 l 9.331971191078562 -25.337380831185673" fill="#d1ff1c" stroke="none" /><path d="M 92.40401165467489 119.57807347666478 l -6.884015109487814 17.7430174324806 a40.03166654912194,40.03166654912194 0 0,0 -0.6402758611795343,-0.254778978951155 l 7.188412046709207 -17.621891609123377" fill="#ffc312" stroke="none" /><path d="M 92.06813273071674 119.44442032107085 l -6.710116926091593 16.449384424236186 a38.76535721842161,38.76535721842161 0 0,0 -0.6156834769104608,-0.25735574328198196 l 6.992271862499516 -16.331443637934232" fill="#ffb110" stroke="none" /><path d="M 91.7346041902142 119.30500536409082 l -6.9934377269201065 16.334166679807996 a38.76831934551097,38.76831934551097 0 0,0 -0.6112090006459491,-0.26793606410638404 l 7.273567402223799 -16.211366062407162" fill="#ffb110" stroke="none" /><path d="M 91.40352486487194 119.15986991738527 l -7.514261430621137 16.747826204674034 a39.356301572748436,39.356301572748436 0 0,0 -0.615704982613186,-0.2826399590953271 l 7.801434409001743 -16.615999175244635" fill="#ffba11" stroke="none" /><path d="M 90.7491055286396 118.85261126421891 l -12.072029085519523 24.601866578873157 a48.404118767190916,48.404118767190916 0 0,0 -0.7448381824608239,-0.37347732727288163 l 12.493721175663106 -24.390421410690973" fill="#ccff1d" stroke="none" /><path d="M 90.42595943632237 118.69057910512821 l -12.292233503457632 23.997074291361663 a47.96216940545877,47.96216940545877 0 0,0 -0.7315580569111345,-0.3827165998068883 l 12.703482462895263 -23.781928272610056" fill="#d2ff1c" stroke="none" /><path d="M 90.10565033884886 118.52300852407294 l -7.809830209300465 14.62062252625146 a37.57576697933564,37.57576697933564 0 0,0 -0.5678900602752729,-0.30965894014622564 l 8.060343081444378 -14.484022934345468" fill="#ffa00e" stroke="none" /><line stroke="#e1ed5e" stroke-width="0.3" x1="58.666819895761336" x2="56.23545636021788" y1="174.27360380694188" y2="178.64263932499728" /><path d="M 58.180547188652646 175.14741091055294 a86.0,86.0 0 0,1 -31.652253787137756,-30.449443065178592" fill="none" id="id20" stroke="none" /><text fill="#e1ed5e" style="font-size:6.75px; font-family:Arial;" text-anchor="middle"><textPath startOffset="22.20632615414155" xlink:href="#id20">August</textPath></text><path d="M 89.4739219176387 118.17145234162733 l -8.908451723558462 15.378900352600883 a38.772762536145,38.772762536145 0 0,0 -0.5746347347731141,-0.339504330060084 l 9.171854329359958 -15.22327745024705" fill="#ffb110" stroke="none" /><path d="M 89.1626897886671 117.98757091392108 l -9.170325686971733 15.220740237338678 a38.76980040905565,38.76980040905565 0 0,0 -0.5686621400220012,-0.3493187321978663 l 9.430967026926043 -15.060633038312433" fill="#ffb110" stroke="none" /><path d="M 88.8546689885994 117.79835938074946 l -9.583459742647298 15.3041538592353 a39.05712673672332,39.05712673672332 0 0,0 -0.5667341560209169,-0.3617165524710811 l 9.845475700715138 -15.136922877940414" fill="#ffb510" stroke="none" /><path d="M 88.54995079064634 117.60387380957326 l -14.602022696478947 22.449874250614684 a47.7808872275901,47.7808872275901 0 0,0 -0.685599535158357,-0.45437798730296625 l 14.986296930377266 -22.1951982422204" fill="#d4ff1c" stroke="none" /><path d="M 87.95078237400918 117.19931262002967 l -13.079166970987002 18.669484486555945 a43.79504901615064,43.79504901615064 0 0,0 -0.613699338141506,-0.4378581830359289 l 13.398593636977393 -18.441582041675797" fill="#fff617" stroke="none" /><path d="M 87.65650970185807 116.9893568818739 l -12.93041329405189 17.79718708215314 a42.99853304182241,42.99853304182241 0 0,0 -0.5950485691384553,-0.4402027058464874 l 13.234846833608911 -17.571974427566886" fill="#ffeb16" stroke="none" /><path d="M 87.36589467227662 116.77436683061367 l -13.231639077125392 17.56771547273296 a42.99320121306157,42.99320121306157 0 0,0 -0.5873102046726829,-0.4503244207511179 l 13.532078010291562 -17.337351710154476" fill="#ffeb16" stroke="none" /><path d="M 87.07902340077011 116.55440617244103 l -13.978056284335082 17.90874083356181 a43.718033711827346,43.718033711827346 0 0,0 -0.589241041679175,-0.468128720389065 l 14.284254818731615 -17.665478199167616" fill="#fff517" stroke="none" /><path d="M 86.51685102203217 116.09983520530335 l -20.948661778322574 25.014186445150685 a53.62753367656393,53.62753367656393 0 0,0 -0.7026088533547269,-0.5987785076024539 l 21.376136108254357 -24.649883547325278" fill="#8dff24" stroke="none" /><path d="M 85.97065885151581 115.62618273729859 l -14.498338094981229 16.148561651007554 a42.702024120177725,42.702024120177725 0 0,0 -0.5427233083977464,-0.49576487437589684 l 14.774160952845829 -15.896604010045083" fill="#ffe715" stroke="none" /><path d="M 85.70375840098266 115.38237550388516 l -15.471882878688273 16.647334234227927 a43.72692009309542,43.72692009309542 0 0,0 -0.5469283324243966,-0.5171548758525383 l 15.756147045503488 -16.378544721629456" fill="#fff517" stroke="none" /><path d="M 85.44109423537348 115.13401014063109 l -15.177035482540704 15.776557154148263 a42.89160025389661,42.89160025389661 0 0,0 -0.5276689032510755,-0.5164350814135259 l 15.446354338167573 -15.512971969812167" fill="#ffea16" stroke="none" /><path d="M 84.9287848128048 114.62390073753433 l -16.028910714641615 15.553171811976696 a43.33443825375555,43.33443825375555 0 0,0 -0.5148408782850047,-0.5398086025751201 l 16.294258144305577 -15.274956092819076" fill="#fff016" stroke="none" /><path d="M 84.67929136418377 114.36230785411682 l -22.573166239568163 21.16108141479333 a51.94089851188377,51.94089851188377 0 0,0 -0.6058623648769155,-0.657543937803573 l 22.934075012440807 -20.769386222188412" fill="#a1ff22" stroke="none" /><path d="M 84.43433777217949 114.09645910891817 l -19.805353850914013 17.935977063544165 a47.71986740954934,47.71986740954934 0 0,0 -0.5461451346590409,-0.613599848434259 l 20.11115783522139 -17.592403045369043" fill="#d5ff1c" stroke="none" /><path d="M 83.95833913139862 113.55231037782056 l -21.245725447442815 17.948806412512642 a48.81259609281331,48.81259609281331 0 0,0 -0.5367154139719871,-0.6465082911556584 l 21.55153686130834 -17.58043686424322" fill="#c7ff1e" stroke="none" /><path d="M 83.72743513129214 113.27417163493432 l -21.932098431973667 17.89087591594957 a49.303716764228795,49.303716764228795 0 0,0 -0.5307946299767906,-0.6622479143014236 l 22.23681097400532 -17.51070016806989" fill="#c1ff1e" stroke="none" /><path d="M 83.28015986056508 112.70617746262583 l -22.7019086229213 17.2522271324122 a49.5134353621553,49.5134353621553 0 0,0 -0.509843930680345,-0.6830192626507035 l 22.99551382029673 -16.85889499025219" fill="#beff1e" stroke="none" /><path d="M 83.06392112726016 112.41649034213515 l -28.722892210506725 21.05785621393073 a56.615135058889905,56.615135058889905 0 0,0 -0.56944098008675,-0.7909037166249235 l 29.08111298296908 -20.560318891854667" fill="#6aff28" stroke="none" /><path d="M 82.85270091963577 112.12312394758628 l -21.900265780811903 15.483466830638942 a47.82087594329643,47.82087594329643 0 0,0 -0.4694167612220601,-0.6762298552967982 l 22.163543449196098 -15.104195713155132" fill="#d4ff1c" stroke="none" /><path d="M 82.24976979558568 111.22182372390057 l -25.303999091743194 15.99737096630243 a50.936737428591584,50.936737428591584 0 0,0 -0.4621547438140674,-0.7451406003022664 l 25.575618475225216 -15.5594340346349" fill="#adff20" stroke="none" /><path d="M 82.05923443525364 110.91462005526583 l -25.357479820640094 15.426725063795777 a50.681402073488954,50.681402073488954 0 0,0 -0.4470078528779733,-0.7492108732671436 l 25.619268549216297 -14.987952096642521" fill="#b0ff20" stroke="none" /><line stroke="#e1ed5e" stroke-width="0.3" x1="26.63291911575756" x2="22.317208475507996" y1="142.92168965132927" y2="145.44649492493687" /><path d="M 25.769776987707644 143.4266507060508 a86.0,86.0 0 0,1 -11.730757126820373,-40.83630448921669" fill="none" id="id21" stroke="none" /><text fill="#e1ed5e" style="font-size:6.75px; font-family:Arial;" text-anchor="middle"><textPath startOffset="21.46611528233685" xlink:href="#id21">September</textPath></text><path d="M 81.69416730710424 110.29060199501025 l -23.38225092750088 13.144304445421438 a47.823541857676844,47.823541857676844 0 0,0 -0.3972168515981755,-0.7210639650845835 l 23.605044188550572 -12.739869961939032" fill="#d4ff1c" stroke="none" /><path d="M 81.51974371655577 109.97397251340807 l -35.12148008110388 18.95540146123191 a60.91021933845828,60.91021933845828 0 0,0 -0.4900299419383127,-0.926951977541997 l 35.44256253126708 -18.34803446860379" fill="#3bff2e" stroke="none" /><path d="M 81.35079622478065 109.6543875284942 l -26.294864368022093 13.612420866750542 a50.60942238521757,50.60942238521757 0 0,0 -0.3938409108352831,-0.7770854807749171 l 26.52528394864364 -13.15778117427294" fill="#b1ff20" stroke="none" /><path d="M 80.87730276802145 108.67885076344099 l -26.97758214759244 12.243796289672256 a50.62601029691798,50.62601029691798 0 0,0 -0.3533187215952074,-0.7966404437787836 l 27.184341953918928 -11.777607509400775" fill="#b1ff20" stroke="none" /><path d="M 80.58989483394504 108.01547362559985 l -32.98828071588681 13.622630674587771 a56.69037308695959,56.69037308695959 0 0,0 -0.36470100956293244,-0.905157996823084 l 33.21788433970713 -13.052773309921882" fill="#69ff28" stroke="none" /><path d="M 80.32549172779594 107.34259656027581 l -25.02751751210171 9.340358673981433 a47.71364694266168,47.71364694266168 0 0,0 -0.28054656268480793,-0.7719436505543643 l 25.18458833579174 -8.908167226420952" fill="#d5ff1c" stroke="none" /><path d="M 80.20201598880116 107.00284435728193 l -27.930530599450933 9.879448255621224 a50.626306509626914,50.626306509626914 0 0,0 -0.28352942100050693,-0.8240692146075477 l 28.096450851394668 -9.397206337924379" fill="#b1ff20" stroke="none" /><path d="M 79.86692584326677 105.97154293290107 l -28.391340557435704 8.420974747398056 a50.61386557585161,50.61386557585161 0 0,0 -0.24055411714890187,-0.83740043953071 l 28.532087311470708 -7.931016832362749" fill="#b1ff20" stroke="none" /><path d="M 79.76711848015287 105.62410040840567 l -46.230685907328244 12.850666833452783 a68.98349672050216,68.98349672050216 0 0,0 -0.30816545371529386,-1.1467982936372751 l 46.44503943738531 -12.052977606639967" fill="#39ff87" stroke="none" /><path d="M 79.67330655649465 105.27499134158121 l -26.39072569303124 6.848671669875769 a48.264898793991115,48.264898793991115 0 0,0 -0.20176723956221404,-0.8059598257788133 l 26.50470424688851 -6.393384004699563" fill="#ceff1d" stroke="none" /><path d="M 79.50377843672027 104.57218783832718 l -28.903445247039866 6.447626477703076 a50.61386557585161,50.61386557585161 0 0,0 -0.18236889488898805,-0.8519667631900711 l 29.010148180653296 -5.949145895096841" fill="#b1ff20" stroke="none" /><path d="M 79.4281124754447 104.21870165774334 l -29.021755141665803 5.951526148518234 a50.62571408420904,50.62571408420904 0 0,0 -0.16771592009491285,-0.855179863274079 l 29.119900994736383 -5.4510825581762" fill="#b1ff20" stroke="none" /><path d="M 79.29508885075956 103.50808413554451 l -29.212046446034638 4.949469039758855 a50.628379998589466,50.628379998589466 0 0,0 -0.13818713909757452,-0.8604914470705355 l 29.2929153394935 -4.445898362995106" fill="#b1ff20" stroke="none" /><path d="M 79.23777060512086 103.15116336523772 l -40.99760568754533 6.222364209930095 a62.467113336624585,62.467113336624585 0 0,0 -0.152199482577241,-1.064482826658315 l 41.09863922113917 -5.5157359112913795" fill="#30ff35" stroke="none" /><path d="M 79.1416061653843 102.43462659150553 l -29.42270706025683 3.4342675457637237 a50.62245574441074,50.62245574441074 0 0,0 -0.09357367735061335,-0.8663760376079077 l 29.477463039108496 -2.927295186271034" fill="#b1ff20" stroke="none" /><path d="M 79.07016306316243 101.71520430193888 l -29.517874971855623 2.4189957278984267 a50.61682770294097,50.61682770294097 0 0,0 -0.063689084638386,-0.8689869586773896 l 29.555140615158344 -1.9105356327242764" fill="#b1ff20" stroke="none" /><line stroke="#e1ed5e" stroke-width="0.3" x1="15.007084014347285" x2="10.007500721073583" y1="101.09737516637583" y2="101.16192664675087" /><path d="M 14.007167355692545 101.11028546245083 a86.0,86.0 0 0,1 10.666146001902534,-42.60595125391555" fill="none" id="id22" stroke="none" /><text fill="#e1ed5e" style="font-size:6.75px; font-family:Arial;" text-anchor="middle"><textPath startOffset="22.20632615414155" xlink:href="#id22">October</textPath></text><line stroke="#e1ed5e" stroke-width="0.3" x1="26.266209847984243" x2="21.928928074336255" y1="57.711370442889674" y2="55.22380399835377" /><path d="M 25.398753493254645 57.213857153982495 a86.0,86.0 0 0,1 29.58750427330803,-30.492523968695096" fill="none" id="id23" stroke="none" /><text fill="#e1ed5e" style="font-size:6.75px; font-family:Arial;" text-anchor="middle"><textPath startOffset="21.46611528233685" xlink:href="#id23">November</textPath></text><line stroke="#e1ed5e" stroke-width="0.3" x1="56.762969772571076" x2="54.21961505331055" y1="26.818313649435495" y2="22.513508569990535" /><path d="M 56.25429882871897 25.957352633546506 a86.0,86.0 0 0,1 42.265352541879196,-11.944610805530505" fill="none" id="id24" stroke="none" /><text fill="#e1ed5e" style="font-size:6.75px; font-family:Arial;" text-anchor="middle"><textPath startOffset="22.20632615414155" xlink:href="#id24">December</textPath></text></svg>