<?xml version="1.0" encoding="utf-8" ?>
<svg baseProfile="full" height="200mm" version="1.1" viewBox="0,0,200,200" width="200mm" xmlns="http://www.w3.org/2000/svg" xmlns:ev="http://www.w3.org/2001/xml-events" xmlns:xlink="http://www.w3.org/1999/xlink"><defs /><rect fill="#1a1a1a" height="200" width="200" x="0" y="0" /><text alignment-baseline="middle" fill="#e1ed5e" style="dominant-baseline: central; font-size:9.0px; font-family:Arial;" text-anchor="middle" x="100.0" y="100.0">2023</text><line stroke="#e1ed5e" stroke-width="0.3" x1="100.0" x2="100.0" y1="15.0" y2="10.0" /><path d="M 100.0 14.0 a86.0,86.0 0 0,1 42.46469731375804,11.215312516191453" fill="none" id="id13" stroke="none" /><text fill="#e1ed5e" style="font-size:6.75px; font-family:Arial;" text-anchor="middle"><textPath startOffset="22.20632615414155" xlink:href="#id13">January</textPath></text><path d="M 102.52436894288641 79.15227682838746 l 0.6644101511374997 -5.48708973082432 a26.52716876556635,26.52716876556635 0 0,0 0.4528380617543923,0.05879137695511409 l -0.7587629413997381 5.474840030705069" fill="#ff0000" stroke="none" /><path d="M 104.66035177308747 79.52364482259891 l 1.9068419364118396 -8.378159988396055 a29.59241589784965,29.59241589784965 0 0,0 0.49571004563891213,0.11731855205350145 l -2.0507756690132752 8.344095524201684" fill="#ff3004" stroke="none" /><path d="M 105.01212808612495 79.60689891045804 l 3.313653664264056 -13.482431611861122 a34.88366892342232,34.88366892342232 0 0,0 0.5818780549490123,0.14833367226184707 l -3.545240607898094 13.423394943430408" fill="#ff7f0b" stroke="none" /><path d="M 106.0581310904928 79.89281104454417 l 4.086879582827135 -13.56452324695655 a35.16682306100256,35.16682306100256 0 0,0 0.5781000817120056,0.17961850943492377 l -4.319765037249859 13.492164602639106" fill="#ff830c" stroke="none" /><path d="M 107.4271985657038 80.35727306442388 l 6.506484659246563 -17.207713021468734 a39.39673150454274,39.39673150454274 0 0,0 0.632255321953281,0.2453052422421009 l -6.801723146199511 17.093165075336085" fill="#ffbe11" stroke="none" /><path d="M 107.76421540070413 80.48803036053334 l 5.93745133505543 -14.921194764239253 a37.0591214438559,37.0591214438559 0 0,0 0.5906802726734027,0.24095331432186656 l -6.19341547731722 14.816780563733808" fill="#ff9e0e" stroke="none" /><path d="M 108.43124777332544 80.76684994638697 l 8.897662258838961 -20.29712302988369 a43.16171466657312,43.16171466657312 0 0,0 0.6778812045081165,0.3041455366999655 l -9.245725581813858 20.140957162667192" fill="#fff116" stroke="none" /><path d="M 108.76106565485865 80.91482961587045 l 9.484405997648729 -20.660900350290397 a43.733824148454765,43.733824148454765 0 0,0 0.681460007836486,0.3199546110603289 l -9.838644216784813 20.494580756590064" fill="#fff917" stroke="none" /><path d="M 109.41281617654863 81.2277094730956 l 7.60170673927465 -15.1603350934996 a37.95941347739152,37.95941347739152 0 0,0 0.5815734849348937,0.2979045274203585 l -7.861540711798299 15.027238040766742" fill="#ffaa0f" stroke="none" /><path d="M 110.05341064243156 81.56283822128135 l 10.607050030381435 -19.452492727165204 a43.15646595573017,43.15646595573017 0 0,0 0.6491470474379987,0.36124962908265035 l -10.94032116689147 19.267027700522373" fill="#fff116" stroke="none" /><path d="M 110.36928655335952 81.73862282372117 l 11.042624525474709 -19.447194408026792 a43.36365191005718,43.36365191005718 0 0,0 0.6459186671286663,0.3741577831660666 l -11.375739925068704 19.254232467470676" fill="#fff417" stroke="none" /><line stroke="#e1ed5e" stroke-width="0.3" x1="143.23703022742887" x2="145.7803849466894" y1="26.81831364943548" y2="22.513508569990506" /><path d="M 143.74570117128098 25.957352633546492 a86.0,86.0 0 0,1 28.547481713284135,27.462654790039103" fill="none" id="id14" stroke="none" /><text fill="#e1ed5e" style="font-size:6.75px; font-family:Arial;" text-anchor="middle"><textPath startOffset="19.985693538727396" xlink:href="#id14">February</textPath></text><path d="M 111.90073688211348 82.69761687909136 l 12.554699218586295 -18.253173563919248 a43.15397972427825,43.15397972427825 0 0,0 0.6084071237808235,0.4262280709463385 l -12.867037481950769 18.034360650208974" fill="#fff116" stroke="none" /><path d="M 112.19680574252982 82.90503203632743 l 12.966352861786762 -18.173560476166365 a43.3249771985828,43.3249771985828 0 0,0 0.6033615476471834,0.438367824128809 l -13.277259725787733 17.94767341722088" fill="#fff417" stroke="none" /><path d="M 112.77801427241765 83.33499621200491 l 13.985128049231088 -18.23931378908503 a43.98382853334269,43.98382853334269 0 0,0 0.5968552014977336,0.4658549519293142 l -14.297015805888252 17.995880447932493" fill="#fffc17" stroke="none" /><path d="M 113.06298171725822 83.55741782278167 l 15.05310798793042 -18.947585663928926 a45.19931946539447,45.19931946539447 0 0,0 0.6050178613771536,0.489215701061662 l -15.377029247872064 18.685663865603132" fill="#f2ff19" stroke="none" /><path d="M 113.6212207817346 84.01681056812373 l 14.589045621016313 -17.118838577498938 a43.49210720173993,43.49210720173993 0 0,0 0.5656173422245192,0.490497785491259 l -14.881556761887595 16.86517579858801" fill="#fff617" stroke="none" /><path d="M 113.89432698308785 84.25364557470407 l 23.75894821269674 -26.925868362299866 a56.90946960395693,56.90946960395693 0 0,0 0.728953429771638,0.6544615866556731 l -24.218912630064366 26.512907766874896" fill="#65ff29" stroke="none" /><path d="M 114.42810811169701 84.74124197986012 l 16.79797560808412 -17.765062685118743 a45.44932385028239,45.44932385028239 0 0,0 0.5638243061659203,0.542398535814203 l -17.101283157862458 17.473281062542238" fill="#efff19" stroke="none" /><path d="M 114.68862486808459 84.99185889309783 l 17.645401720345262 -18.029235635415173 a46.22723804679553,46.22723804679553 0 0,0 0.5638934973681943,0.5614719594857319 l -17.95313101788078 17.72282782527932" fill="#e5ff1a" stroke="none" /><path d="M 114.94478906791727 85.2469230424477 l 17.43432030888518 -17.210672432424317 a45.49821973550357,45.49821973550357 0 0,0 0.5454060878721297,0.5620889161008588 l -17.727990660460417 16.908019320773345" fill="#eeff19" stroke="none" /><path d="M 115.4437574822437 85.77008943001954 l 17.00732483634762 -15.670584812930793 a44.12609622198057,44.12609622198057 0 0,0 0.5098798982405861,0.5630221186359703 l -17.274548375204244 15.375509907025274" fill="#fffe18" stroke="none" /><path d="M 115.68641384162765 86.03803664274999 l 17.31994526515879 -15.415916192392835 a44.186870768583155,44.186870768583155 0 0,0 0.5008016555217586,0.5725028645810558 l -17.582738784258396 15.115497771608831" fill="#ffff18" stroke="none" /><path d="M 116.15771136456269 86.58626213691792 l 19.1857589757198 -15.927549131061271 a45.9355202231031,45.9355202231031 0 0,0 0.49982550658255587,0.6127269710370666 l -19.457082974378764 15.594937990416105" fill="#e8ff1a" stroke="none" /><path d="M 116.38621287248628 86.86637796730983 l 17.240098557478685 -13.818015182778264 a43.09431016943207,43.09431016943207 0 0,0 0.45894602947673907,0.5828148507364588 l -17.47539866754939 13.519207938088767" fill="#fff016" stroke="none" /><path d="M 116.60985879189232 87.15038557335679 l 19.88869922122635 -15.386170324637789 a46.14546865682114,46.14546865682114 0 0,0 0.4806249640419449,0.632446114454177 l -20.15060012549241 15.041539434302578" fill="#e6ff1a" stroke="none" /><path d="M 117.04232023915458 87.72973835380427 l 20.28479697809992 -14.604805147916515 a45.99546602588838,45.99546602588838 0 0,0 0.45707968123057885,0.6465067940824564 l -20.533189279134383 14.253471853502266" fill="#e8ff1a" stroke="none" /><path d="M 117.2510076193507 88.02491185347247 l 29.502191289249406 -20.47946120017862 a56.913613323043464,56.913613323043464 0 0,0 0.5517247258553175,0.8095879559372988 l -29.850340480773458 19.96859522097091" fill="#65ff29" stroke="none" /><path d="M 117.65298651832404 88.62581576622439 l 20.962418349121858 -13.506519593208571 a45.936901462798616,45.936901462798616 0 0,0 0.4225591274562611,0.6683870618418495 l -21.191805072824074 13.143684883652515" fill="#e8ff1a" stroke="none" /><line stroke="#e1ed5e" stroke-width="0.3" x1="172.23445277983987" x2="176.4835382374775" y1="55.19839476539836" y2="52.563006222186495" /><path d="M 173.08426987136738 54.67131705675599 a86.0,86.0 0 0,1 12.851231095245387,41.99856678651699" fill="none" id="id15" stroke="none" /><text fill="#e1ed5e" style="font-size:6.75px; font-family:Arial;" text-anchor="middle"><textPath startOffset="22.20632615414155" xlink:href="#id15">March</textPath></text><path d="M 117.84615892207809 88.93136811851018 l 19.311140949212753 -11.977250192138829 a43.72387922264707,43.72387922264707 0 0,0 0.39119172112269546,0.64301633258832 l -19.514448468621673 11.643066086343428" fill="#fff917" stroke="none" /><path d="M 118.03404312379186 89.2402003453031 l 21.673494840604384 -12.93123570245609 a46.23801171642053,46.23801171642053 0 0,0 0.4019191290742964,0.6870100755878575 l -21.89287364414901 12.556246214514339" fill="#e5ff1a" stroke="none" /><path d="M 118.3937258080291 89.86733742301442 l 36.29207213069972 -19.992432471700834 a62.43442838601046,62.43442838601046 0 0,0 0.5104516992287034,0.9457894744932226 l -36.630831929146886 19.364762013875154" fill="#30ff37" stroke="none" /><path d="M 118.56541770881063 90.18545643968196 l 22.153361986085166 -11.711297835046437 a46.05845055600379,46.05845055600379 0 0,0 0.36449904788900117,0.7040961428047812 l -22.351670467134284 11.32822896998131" fill="#e7ff1a" stroke="none" /><path d="M 119.04729006885535 91.15688171328212 l 22.500350547890136 -10.44627664451625 a45.807064931420356,45.807064931420356 0 0,0 0.3258794936887487,0.7180322673793403 l -22.676832358542235 10.057422368294846" fill="#eaff1a" stroke="none" /><path d="M 119.196687751892 91.48605970444005 l 23.29678362179636 -10.332377512105131 a46.48525362191742,46.48525362191742 0 0,0 0.31811251432327176,0.7342475424047015 l -23.471186845962315 9.929830825113827" fill="#e1ff1b" stroke="none" /><path d="M 119.47837535516314 92.15188598940014 l 54.49659200914955 -21.957450735930156 a79.75379292805276,79.75379292805276 0 0,0 0.5020936117375143,1.2777734759037573 l -54.86647917076877 21.016128255130614" fill="#47fdff" stroke="none" /><path d="M 119.7369772167798 92.82701384747503 l 23.504602563866893 -8.542249750781634 a46.00872592696531,46.00872592696531 0 0,0 0.26410524601721463,0.7466610952855779 l -23.648160890693916 8.136391029069442" fill="#e8ff1a" stroke="none" /><path d="M 119.97218684219823 93.5106431181261 l 23.95206911253402 -7.782499020194132 a46.18469586417372,46.18469586417372 0 0,0 0.2391586861458143,0.7581983910866827 l -24.082483282448038 7.369050462681031" fill="#e5ff1a" stroke="none" /><path d="M 120.08093135843002 93.85539295169968 l 24.720688769196464 -7.564336321794932 a46.852110885045775,46.852110885045775 0 0,0 0.2293390812786347,0.7732173715071379 l -24.8472337475868 7.137689563541264" fill="#ddff1b" stroke="none" /><path d="M 120.28053869075195 94.5502522615342 l 40.02368614729733 -10.75508872778424 a62.44354456800084,62.44354456800084 0 0,0 0.27000489989498627,1.0404390212258647 l -40.202887379062616 10.064553281009525" fill="#30ff37" stroke="none" /><path d="M 120.37134235888165 94.90015583598534 l 26.80397941859568 -6.710216518976528 a48.63114761286701,48.63114761286701 0 0,0 0.1963012477735939,0.8137954034529945 l -26.915513466630095 6.247835883864128" fill="#c6ff1e" stroke="none" /><path d="M 120.53481517161879 95.60439243477599 l 24.398014167142406 -5.222549838079682 a45.95071385975375,45.95071385975375 0 0,0 0.15890348541446797,0.7748698283051483 l -24.484296948471872 4.801804353611122" fill="#e8ff1a" stroke="none" /><path d="M 120.6074358757038 95.95851677861258 l 21.691319629383013 -4.254052025718569 a43.10453134317887,43.10453134317887 0 0,0 0.13652698564268206,0.7293326165206446 l -21.761332338935553 3.8800413317353613" fill="#fff116" stroke="none" /><path d="M 120.91429891909075 98.10471618934814 l 24.456843087828076 -2.2163142519543118 a45.55706054653243,45.55706054653243 0 0,0 0.06405217753823338,0.781598804182794 l -24.491369749185804 1.795001530563749" fill="#edff19" stroke="none" /><line stroke="#e1ed5e" stroke-width="0.3" x1="184.98032266829074" x2="189.97916517819016" y1="98.17113171792111" y2="98.06355123074" /><path d="M 185.9800911702706 98.14961562048488 a86.0,86.0 0 0,1 -9.607161424134198,41.387399972396054" fill="none" id="id16" stroke="none" /><text fill="#e1ed5e" style="font-size:6.75px; font-family:Arial;" text-anchor="middle"><textPath startOffset="21.466115282336823" xlink:href="#id16">April</textPath></text><path d="M 120.99824983174949 100.27111621757518 l 24.466069505045443 0.3158905278434272 a45.468108710141365,45.468108710141365 0 0,0 -0.016840385684702194,0.7825065497432035 l -24.45700705667573 -0.7369868933767456" fill="#eeff19" stroke="none" /><path d="M 120.9764740272857 100.99374915477107 l 16.435170785322427 0.7786073605691499 a37.453603500894516,37.453603500894516 0 0,0 -0.036051142817365996,0.6437173727919733 l -16.419333291617534 -1.0613964496965465" fill="#ffa30f" stroke="none" /><path d="M 120.89721153311464 102.0752229133903 l 27.48545570129882 2.7294764837846293 a48.62065019118111,48.62065019118111 0 0,0 -0.08987341618781393,0.8321162148125434 l -27.434399983609957 -3.2021890204819643" fill="#c7ff1e" stroke="none" /><path d="M 120.8583938346157 102.4346265915055 l 27.43165613203386 3.201868753539875 a48.61788771179009,48.61788771179009 0 0,0 -0.10417769383984583,0.8303987212508637 l -27.37247692894717 -3.6735852290781335" fill="#c7ff1e" stroke="none" /><path d="M 120.76222939487914 103.15116336523771 l 13.762797314309058 2.0888326525637546 a34.920409899322976,34.920409899322976 0 0,0 -0.09531317297208998,0.5935152190807328 l -13.724802386975679 -2.3254271013376924" fill="#ff7f0b" stroke="none" /><path d="M 120.64145759157962 103.86396538481128 l 24.744659605368664 4.632061846886539 a46.17447469042692,46.17447469042692 0 0,0 -0.15296958566792865,0.7799886217275025 l -24.66126008672507 -5.057314195681986" fill="#e5ff1a" stroke="none" /><path d="M 120.49622156327973 104.57218783832717 l 12.856872766929976 2.8680426351943953 a34.17288297611113,34.17288297611113 0 0,0 -0.13301295785660808,0.5730163411737325 l -12.805599243142817 -3.088927633716693" fill="#ff740a" stroke="none" /><path d="M 120.32669344350535 105.2749913415812 l 24.459575052767544 6.347517710182686 a46.269780229417336,46.269780229417336 0 0,0 -0.20669795669356403,0.7691999903840169 l -24.346689019732203 -6.767608633742251" fill="#e4ff1a" stroke="none" /><path d="M 120.23288151984713 105.62410040840565 l 23.35658589698387 6.4923913162509015 a45.24213789595538,45.24213789595538 0 0,0 -0.21502373738241815,0.7485258382924075 l -23.241369522715353 -6.8934746300478915" fill="#f1ff19" stroke="none" /><path d="M 119.79798401119884 107.00284435728193 l 12.545974897895448 4.437699791586392 a34.307691970393236,34.307691970393236 0 0,0 -0.20172226758330256,0.5550530441226746 l -12.467728369306919 -4.653000632715198" fill="#ff760a" stroke="none" /><path d="M 119.54520255179757 107.68017299344265 l 14.15265120580512 5.561201491178272 a36.206067807906834,36.206067807906834 0 0,0 -0.23292119566037117,0.5780913059008153 l -14.054827395887356 -5.803992164921901" fill="#ff920d" stroke="none" /><path d="M 119.41010516605496 108.01547362559984 l 14.115852080193232 5.829192530575753 a36.27209106535237,36.27209106535237 0 0,0 -0.24328040174562376,0.5750430058577405 l -14.013420697255299 -6.0713100620996565" fill="#ff920d" stroke="none" /><path d="M 119.26925614724726 108.34839909993367 l 14.730010312897095 6.381772285266502 a37.05304398919564,37.05304398919564 0 0,0 -0.25859304449814013,0.583059048773301 l -14.617976183667682 -6.634379670532491" fill="#ff9e0e" stroke="none" /><path d="M 119.12269723197855 108.67885076344098 l 14.639106606469355 6.643969729081211 a37.076248816080266,37.076248816080266 0 0,0 -0.26875934200807466,0.5788837127318921 l -14.522572647621448 -6.894973509091933" fill="#ff9e0e" stroke="none" /><path d="M 118.81262510543309 109.33194174019688 l 19.841703481754156 9.84241273507952 a43.148731013435295,43.148731013435295 0 0,0 -0.3357820485357173,0.6625298374121689 l -19.66934276343217 -10.182496784194383" fill="#fff116" stroke="none" /><path d="M 118.64920377521936 109.65438752849418 l 24.537552322252637 12.702689185825195 a48.630595116988815,48.630595116988815 0 0,0 -0.3912389080260011,0.7400765717531038 l -24.315260906001743 -13.123180772664433" fill="#c6ff1e" stroke="none" /><line stroke="#e1ed5e" stroke-width="0.3" x1="174.80103733775053" x2="179.2010983576182" y1="140.37084112569926" y2="142.7455964860345" /><path d="M 175.68104954172406 140.8457921977663 a86.0,86.0 0 0,1 -30.038265399797805,32.042727171017184" fill="none" id="id17" stroke="none" /><text fill="#e1ed5e" style="font-size:6.75px; font-family:Arial;" text-anchor="middle"><textPath startOffset="22.206326154141568" xlink:href="#id17">May</textPath></text><path d="M 118.12598468904814 110.60418214915192 l 23.840546784138258 13.94735265263298 a48.62065019118111,48.62065019118111 0 0,0 -0.42883210720920895,0.718747278059355 l -23.596933801230822 -14.35566202457844" fill="#c7ff1e" stroke="none" /><path d="M 117.75023020441432 111.22182372390056 l 11.749634965352316 7.42820407864747 a34.900796295646686,34.900796295646686 0 0,0 -0.3254002942359942,0.5050284828470665 l -11.620029807739272 -7.62935416141599" fill="#ff7f0b" stroke="none" /><path d="M 117.14729908036423 112.12312394758627 l 11.597524935326335 8.199438968040504 a35.20328778896412,35.20328778896412 0 0,0 -0.3540783693260194,0.4917838864245059 l -11.454666773624712 -8.39785645991614" fill="#ff830c" stroke="none" /><path d="M 116.71984013943494 112.70617746262583 l 11.196242970559013 8.508541284618266 a35.06240134002175,35.06240134002175 0 0,0 -0.36931257849413685,0.4773862915402474 l -11.048123574846807 -8.700005570271765" fill="#ff810b" stroke="none" /><path d="M 115.56566222782051 114.09645910891815 l 10.560756065116522 9.563953261500199 a35.24776370715965,35.24776370715965 0 0,0 -0.41114601572318016,0.44621779774321163 l -10.39456364139762 -9.744322314044744" fill="#ff840c" stroke="none" /><path d="M 115.07121518719521 114.62390073753431 l 9.958040960410257 9.662485787414585 a34.875381485249235,34.875381485249235 0 0,0 -0.4217585753782687,0.4272392101490996 l -9.790241759976452 -9.83246549154435" fill="#ff7e0b" stroke="none" /><path d="M 113.20401910651253 116.32954008644616 l 15.769196372245675 19.501919999844613 a46.0797216473147,46.0797216473147 0 0,0 -0.6210723785686907,0.4934174595507107 l -15.431166500959632 -19.77047137340045" fill="#e7ff1a" stroke="none" /><path d="M 112.34349029814194 116.9893568818739 l 11.208222166614913 15.426794350753008 a40.06856649244045,40.06856649244045 0 0,0 -0.5614801967140522,0.40060121213163413 l -10.941014642051977 -15.61743982472886" fill="#ffc812" stroke="none" /><path d="M 112.04921762599082 117.19931262002967 l 13.893616098759416 19.832046703994216 a45.21451310204512,45.21451310204512 0 0,0 -0.6412776877415514,0.44107664111078915 l -13.550181526394981 -20.0682641344701" fill="#f2ff19" stroke="none" /><path d="M 111.45004920935366 117.60387380957326 l 10.660993129381197 16.390739839007903 a40.552829129687446,40.552829129687446 0 0,0 -0.5884373816331954,0.37556857790941645 l -10.377273945701072 -16.571822845741128" fill="#ffce13" stroke="none" /><path d="M 111.1453310114006 117.79835938074945 l 11.98928478256153 19.146097954372433 a43.590175220121374,43.590175220121374 0 0,0 -0.639365745066316,0.39275066117232404 l -11.657939837562905 -19.349637082373135" fill="#fff717" stroke="none" /><line stroke="#e1ed5e" stroke-width="0.3" x1="143.8653032363475" x2="146.44561519142675" y1="172.8068346515853" y2="177.08958963109032" /><path d="M 144.38136562736335 173.6633856474863 a86.0,86.0 0 0,1 -40.68145358897372,12.25698825130547" fill="none" id="id18" stroke="none" /><text fill="#e1ed5e" style="font-size:6.75px; font-family:Arial;" text-anchor="middle"><textPath startOffset="21.466115282336833" xlink:href="#id18">June</textPath></text><path d="M 110.5260780823613 118.17145234162733 l 8.362992483517752 14.437259362752114 a37.68454677798435,37.68454677798435 0 0,0 -0.5641039879845302,0.32031296658735436 l -8.113239728612022 -14.579075495134097" fill="#ffa70f" stroke="none" /><path d="M 110.21172684928248 118.3499491758327 l 13.477109827515584 24.217674838159496 a48.715126986354235,48.715126986354235 0 0,0 -0.7362414296376579,0.4014575297951657 l -13.058245586009278 -24.446073019714433" fill="#c5ff1e" stroke="none" /><path d="M 109.89434966115114 118.52300852407294 l 11.811603343912962 22.112259715391318 a46.069224225628794,46.069224225628794 0 0,0 -0.7026853158578887,0.3676117462978451 l -11.429227125528577 -22.31230088063388" fill="#e7ff1a" stroke="none" /><path d="M 109.2508944713604 118.85261126421891 l 7.3295336322223905 14.937025683743089 a37.638413372154204,37.638413372154204 0 0,0 -0.5840896245026522,0.2803985148292999 l -7.071331339719506 -15.060978475071948" fill="#ffa60f" stroke="none" /><path d="M 108.92500713936063 119.00905698771935 l 7.046441380496189 15.007966231394132 a37.579848809064444,37.579848809064444 0 0,0 -0.587913478476157,0.2698822426332169 l -6.787059906252613 -15.127035544361423" fill="#ffa50f" stroke="none" /><path d="M 108.59647513512805 119.15986991738527 l 7.1859062571698855 16.015986431844553 a38.55417529027958,38.55417529027958 0 0,0 -0.6078328735348792,0.26645606919612524 l -6.909152708977253 -16.137307054335135" fill="#ffb310" stroke="none" /><path d="M 107.59598834532513 119.57807347666477 l 12.987449378884577 33.47414801798029 a56.905325884870386,56.905325884870386 0 0,0 -0.9162564418578973,0.34644978536348153 l -12.409322716266406 -33.692746053450406" fill="#65ff29" stroke="none" /><path d="M 106.2309692047433 120.05430185196036 l 5.5242830466037 17.779840678384762 a39.61828235170309,39.61828235170309 0 0,0 -0.6529942376960375,0.1967418072244049 l -5.217413834467417 -17.872297854714894" fill="#ffc112" stroke="none" /><path d="M 105.88484417918355 120.15858648285463 l 4.645949987025567 15.914743323155552 a37.579020065247136,37.579020065247136 0 0,0 -0.6225033244700525,0.1759256575128786 l -4.371315494450909 -15.992357774006951" fill="#ffa50f" stroke="none" /><path d="M 104.83641907484287 120.43548508189849 l 3.8179242205596915 16.132004329174354 a37.57763882555162,37.57763882555162 0 0,0 -0.6307314533047342,0.14355242528684656 l -3.539672617862095 -16.195333488038884" fill="#ffa50f" stroke="none" /><path d="M 104.48393922423573 120.51570834832081 l 3.537903076476729 16.187237170681094 a37.56935138737854,37.56935138737854 0 0,0 -0.6329693956864081,0.1326448911122448 l -3.258742219360943 -16.24573804251988" fill="#ffa50f" stroke="none" /><path d="M 104.13013068566511 120.58985236759428 l 5.433808675011091 27.089050426551896 a48.628661381415085,48.628661381415085 0 0,0 -0.822130935734697,0.15756335052167306 l -4.96671012470469 -27.178570975422037" fill="#c6ff1e" stroke="none" /><path d="M 103.41894727170886 120.7198165907248 l 5.8447393538638535 35.420823372956306 a56.89980092608833,56.89980092608833 0 0,0 -0.9677413456482684,0.1511412955842822 l -5.234162144607068 -35.516182975887695" fill="#65ff29" stroke="none" /><path d="M 102.70371172650421 120.8252237178851 l 2.1343052188382376 16.43939449196557 a37.57736257761252,37.57736257761252 0 0,0 -0.6421659496743062,0.07775735346218744 l -1.8510118461125509 -16.473697374153105" fill="#ffa50f" stroke="none" /><path d="M 102.34483914955558 120.86867818915974 l 1.8514745296715447 16.47781518082564 a37.581506296699054,37.581506296699054 0 0,0 -0.6434802207025844,0.0666993559077079 l -1.5675617123633576 -16.507243905189107" fill="#ffa50f" stroke="none" /><path d="M 101.98527174616119 120.90594882070398 l 1.5653680034496147 16.484143004082284 a37.55830146981443,37.55830146981443 0 0,0 -0.6441350328728511,0.05557868101513612 l -1.2813886528352219 -16.508645937376084" fill="#ffa50f" stroke="none" /><path d="M 101.62511606390274 120.93702456842531 l 1.380239856217105 17.7821857908033 a38.83567194022521,38.83567194022521 0 0,0 -0.6669328338960944,0.045995592998850136 l -1.0739442615420804 -17.803309728318435" fill="#ffb710" stroke="none" /><path d="M 101.26447882468166 120.96189622390904 l 1.0061948194805463 16.6801934324966 a37.71051408426001,37.71051408426001 0 0,0 -0.6482831205085423,0.033508832376618995 l -0.7189236305585244 -16.695042071635424" fill="#ffa70f" stroke="none" /><path d="M 100.90346689309514 120.98055641714683 l 0.7203022677300833 16.727057162811125 a37.742558845195916,37.742558845195916 0 0,0 -0.649315161261482,0.022363727029799513 l -0.432266754793949 -16.736977688267018" fill="#ffa70f" stroke="none" /><line stroke="#e1ed5e" stroke-width="0.3" x1="102.19456741930631" x2="102.32365962044197" y1="184.97166512339345" y2="189.96999836594603" /><path d="M 102.22038585953345 185.97133177190398 a86.0,86.0 0 0,1 -42.740103519485714,-10.115201625700543" fill="none" id="id19" stroke="none" /><text fill="#e1ed5e" style="font-size:6.75px; font-family:Arial;" text-anchor="middle"><textPath startOffset="22.20632615414155" xlink:href="#id19">July</textPath></text><path d="M 99.81925306533755 120.99922214144158 l -0.14271935077060177 16.58116834075881 a37.58178254463816,37.58178254463816 0 0,0 -0.6468367208247778,-0.011135880751128183 l 0.42811576148804753 -16.576254982728525" fill="#ffa50f" stroke="none" /><path d="M 99.09653310690486 120.98055641714683 l -0.7131000769890028 16.559805910634587 a37.5751525940997,37.5751525940997 0 0,0 -0.6459561151263731,-0.03338855277836434 l 0.9980442605288647 -16.54507755109402" fill="#ffa50f" stroke="none" /><path d="M 98.73552117531835 120.96189622390904 l -0.9858849572764754 16.34350671577711 a37.37321535061564,37.37321535061564 0 0,0 -0.6418177716600255,-0.04426351126281881 l 1.267065489715431 -16.32411485999801" fill="#ffa20f" stroke="none" /><path d="M 98.37488393609728 120.93702456842531 l -1.2864124488548347 16.57336952421765 a37.62321973550356,37.62321973550356 0 0,0 -0.6452483986952466,-0.05567474690309145 l 1.5715051652916232 -16.548770525035895" fill="#ffa60f" stroke="none" /><path d="M 98.01472825383883 120.90594882070398 l -3.0255424413687604 31.86054279794697 a53.00387624092329,53.00387624092329 0 0,0 -0.9075460071327273,-0.09407085437104332 l 3.573521045107081 -31.803742575120168" fill="#92ff23" stroke="none" /><path d="M 96.93821686468263 120.77559828337769 l -2.390222403691315 16.218751711777575 a37.393933946048335,37.393933946048335 0 0,0 -0.6359891487676432,-0.09932842526005223 l 2.6690474160674755 -16.17520497917042" fill="#ffa20f" stroke="none" /><path d="M 96.58105272829116 120.7198165907248 l -2.7196444055876707 16.48183747730113 a37.70471287753885,37.70471287753885 0 0,0 -0.6394558224612622,-0.11117759132545377 l 3.0029491995209825 -16.432581307454672" fill="#ffa70f" stroke="none" /><path d="M 95.51606077576429 120.51570834832081 l -3.5685751271564095 16.327573338216176 a37.71300031571193,37.71300031571193 0 0,0 -0.6330034627251936,-0.14406952723391153 l 3.8490987392744653 -16.263727077404578" fill="#ffa70f" stroke="none" /><path d="M 94.46302465271185 120.25689768951611 l -4.382823748189524 16.03446045714105 a37.62266723962536,37.62266723962536 0 0,0 -0.6232263478779658,-0.1761299911500405 l 4.658181264172103 -15.956641672652491" fill="#ffa60f" stroke="none" /><path d="M 94.11515582081647 120.15858648285463 l -4.644788789828098 15.910765631747617 a37.57487634616059,37.57487634616059 0 0,0 -0.6193145255104494,-0.18659438622177907 l 4.917978289778794 -15.828455876420113" fill="#ffa50f" stroke="none" /><path d="M 93.42475214034765 119.94407469862007 l -4.34975584436354 13.19370118548389 a34.8922326095345,34.8922326095345 0 0,0 -0.5687936813161135,-0.19296569884415463 l 4.576219258616879 -13.116872499741614" fill="#ff7f0b" stroke="none" /><path d="M 93.08242187328487 119.8279376855182 l -8.294960458931808 23.77594529049985 a46.181380888904485,46.181380888904485 0 0,0 -0.7483152656953507,-0.26831923049645406 l 8.702995285256884 -23.629638518963436" fill="#e5ff1a" stroke="none" /><path d="M 92.40401165467489 119.57807347666478 l -6.420031718356089 16.547136065822155 a38.74893008734697,38.74893008734697 0 0,0 -0.6197594734413033,-0.24661508486012537 l 6.703912267839251 -16.434174136555963" fill="#ffb510" stroke="none" /><path d="M 92.06813273071674 119.44442032107085 l -6.257854292041386 15.340694067547764 a37.56797014768303,37.56797014768303 0 0,0 -0.5966662025237918,-0.24940652104600766 l 6.52099195406264 -15.230702503481783" fill="#ffa50f" stroke="none" /><path d="M 91.7346041902142 119.30500536409082 l -6.522079239090411 15.233242012027588 a37.57073262707405,37.57073262707405 0 0,0 -0.5923282290850471,-0.2596592887088139 l 6.783328142833201 -15.118718170024321" fill="#ffa50f" stroke="none" /><path d="M 91.40352486487194 119.15986991738527 l -7.007799366697899 15.619020838483076 a38.119084786192865,38.119084786192865 0 0,0 -0.5963494916342672,-0.2737548025137886 l 7.275616854099586 -15.496078965635212" fill="#ffad10" stroke="none" /><path d="M 90.7491055286396 118.85261126421891 l -11.258372970032447 22.943698009820558 a46.55707808608412,46.55707808608412 0 0,0 -0.7164160882488889,-0.3592258992020203 l 11.651642965964095 -22.746504269709234" fill="#e1ff1b" stroke="none" /><path d="M 90.42595943632237 118.69057910512821 l -11.463735585482894 22.37966879037717 a46.14491616094293,46.14491616094293 0 0,0 -0.7038398308810551,-0.36821573399221597 l 11.847266318890444 -22.17902363744024" fill="#e6ff1a" stroke="none" /><path d="M 90.10565033884886 118.52300852407294 l -7.28344677651572 13.635190926771456 a36.458558424246675,36.458558424246675 0 0,0 -0.5510054645719189,-0.30045211231802993 l 7.517075052956279 -13.507798162693659" fill="#ff950d" stroke="none" /><line stroke="#e1ed5e" stroke-width="0.3" x1="58.666819895761336" x2="56.23545636021788" y1="174.27360380694188" y2="178.64263932499728" /><path d="M 58.180547188652646 175.14741091055294 a86.0,86.0 0 0,1 -31.652253787137756,-30.449443065178592" fill="none" id="id20" stroke="none" /><text fill="#e1ed5e" style="font-size:6.75px; font-family:Arial;" text-anchor="middle"><textPath startOffset="22.20632615414155" xlink:href="#id20">August</textPath></text><path d="M 89.4739219176387 118.17145234162733 l -8.308021077389027 14.342360742505873 a37.57487634616059,37.57487634616059 0 0,0 -0.5568813695743261,-0.32901532897227764 l 8.553670317991735 -14.197226841239845" fill="#ffa50f" stroke="none" /><path d="M 89.1626897886671 117.98757091392108 l -8.55224470627207 14.194860636766307 a37.57211386676957,37.57211386676957 0 0,0 -0.5510948844512743,-0.3385274890109631 l 8.795318790655655 -14.045544680926968" fill="#ffa50f" stroke="none" /><path d="M 88.8546689885994 117.79835938074946 l -8.93753348021951 14.272652171183656 a37.84007436769916,37.84007436769916 0 0,0 -0.5490742510350328,-0.35044516555960464 l 9.181889533301467 -14.116692576800249" fill="#ffa90f" stroke="none" /><path d="M 88.54995079064634 117.60387380957326 l -13.617844727613504 20.936750206054587 a45.97585242221209,45.97585242221209 0 0,0 -0.6596994086576246,-0.4372127957490122 l 13.97621883501109 -20.699239389214256" fill="#e8ff1a" stroke="none" /><path d="M 87.95078237400918 117.19931262002967 l -12.197629648965039 17.411159136453996 a42.258660153646474,42.258660153646474 0 0,0 -0.5921699449971102,-0.42249753266824397 l 12.495526921811036 -17.19861734194153" fill="#ffe515" stroke="none" /><path d="M 87.65650970185807 116.9893568818739 l -12.058901986553419 16.59765467502605 a41.515829445399376,41.515829445399376 0 0,0 -0.5745297143986943,-0.4250233476465483 l 12.342816671370677 -16.387621378639736" fill="#ffdb14" stroke="none" /><path d="M 87.36589467227662 116.77436683061367 l -12.339825118034227 16.383649477839697 a41.510856982495525,41.510856982495525 0 0,0 -0.5670605868520722,-0.43479787729427444 l 12.620014433379787 -16.168812258718056" fill="#ffdb14" stroke="none" /><path d="M 87.07902340077011 116.55440617244103 l -13.03593372169032 16.701689691067525 a42.18683568947978,42.18683568947978 0 0,0 -0.5686032260891046,-0.45173279152390394 l 13.321494440496783 -16.474822985538488" fill="#ffe415" stroke="none" /><path d="M 86.51685102203217 116.09983520530335 l -19.536719622910766 23.32822747082679 a51.42843424422072,51.42843424422072 0 0,0 -0.6737970355319929,-0.5742244513948808 l 19.935382135019815 -22.988478629208956" fill="#a4ff21" stroke="none" /><path d="M 85.97065885151581 115.62618273729859 l -13.521148479895652 15.060146783003045 a41.2393052583576,41.2393052583576 0 0,0 -0.524132816815693,-0.4787829010919922 l 13.7783808461782 -14.825171115324476" fill="#ffd814" stroke="none" /><path d="M 85.70375840098266 115.38237550388516 l -14.429076235897396 15.525302038125583 a42.19512312765286,42.19512312765286 0 0,0 -0.5277688956715086,-0.49903843253093716 l 14.69418096595972 -15.274628968848713" fill="#ffe515" stroke="none" /><path d="M 85.44109423537348 115.13401014063109 l -14.154101587347709 14.713215430990733 a41.41610393938331,41.41610393938331 0 0,0 -0.5095167821499398,-0.4986694104010108 l 14.405268321873443 -14.467395917667153" fill="#ffda14" stroke="none" /><path d="M 84.9287848128048 114.62390073753433 l -14.948560333179362 14.504886285957241 a41.82909460834181,41.82909460834181 0 0,0 -0.496956431739574,-0.5210568318733111 l 15.196023316297895 -14.245422337501429" fill="#ffe015" stroke="none" /><path d="M 84.67929136418377 114.36230785411682 l -21.05173230111269 19.73482215203862 a49.855478478970085,49.855478478970085 0 0,0 -0.5815370730721596,-0.63114363785299 l 21.388315782180577 -19.369527259384288" fill="#b7ff1f" stroke="none" /><path d="M 84.43433777217949 114.09645910891817 l -18.470470778149433 16.727090196091712 a45.91894534675694,45.91894534675694 0 0,0 -0.5255339117892689,-0.5904429210419965 l 18.75566353958704 -16.40667310530885" fill="#e9ff1a" stroke="none" /><path d="M 83.95833913139862 113.55231037782056 l -19.81376116738598 16.73905484549958 a46.938023994106715,46.938023994106715 0 0,0 -0.5161036903491623,-0.6216801422516647 l 20.09896085762868 -16.395513446134157" fill="#dcff1b" stroke="none" /><path d="M 83.72743513129214 113.27417163493432 l -20.453872535711927 16.685028870907736 a47.396043077138955,47.396043077138955 0 0,0 -0.5102569704389204,-0.636624026218415 l 20.73804741820571 -16.33047701111106" fill="#d6ff1c" stroke="none" /><path d="M 83.28015986056508 112.70617746262583 l -21.17179743337609 16.089425087071113 a47.591626618023646,47.591626618023646 0 0,0 -0.4900549074191384,-0.6565086321163544 l 21.445613607490312 -15.72260357544545" fill="#d3ff1c" stroke="none" /><path d="M 83.06392112726016 112.41649034213515 l -26.786966051284 19.638554341301514 a54.214670958010316,54.214670958010316 0 0,0 -0.545296859811384,-0.757369645266875 l 27.12104270347099 -19.1745510905835" fill="#83ff25" stroke="none" /><path d="M 82.85270091963577 112.12312394758628 l -20.42418540881178 14.439879428186249 a46.01314589399095,46.01314589399095 0 0,0 -0.45167181681922286,-0.650666939404019 l 20.669718132793136 -14.086171226595217" fill="#e7ff1a" stroke="none" /><path d="M 82.24976979558568 111.22182372390057 l -23.598506712506577 14.919146367418668 a48.918997965412004,48.918997965412004 0 0,0 -0.4438475668772528,-0.715623601948083 l 23.851818919051784 -14.51072643410532" fill="#c3ff1e" stroke="none" /><path d="M 82.05923443525364 110.91462005526583 l -23.648382834272454 14.386962062797755 a48.68087224190549,48.68087224190549 0 0,0 -0.4293632631853327,-0.7196375260273751 l 23.892526973156016 -13.97776244288427" fill="#c6ff1e" stroke="none" /><line stroke="#e1ed5e" stroke-width="0.3" x1="26.63291911575756" x2="22.317208475507996" y1="142.92168965132927" y2="145.44649492493687" /><path d="M 25.769776987707644 143.4266507060508 a86.0,86.0 0 0,1 -11.730757126820373,-40.83630448921669" fill="none" id="id21" stroke="none" /><text fill="#e1ed5e" style="font-size:6.75px; font-family:Arial;" text-anchor="middle"><textPath startOffset="21.46611528233685" xlink:href="#id21">September</textPath></text><path d="M 81.69416730710424 110.29060199501025 l -21.806284590256457 12.258376850310711 a46.01563212544288,46.01563212544288 0 0,0 -0.3822005607941852,-0.6938050354988324 l 22.014061560502157 -11.881201296414055" fill="#e7ff1a" stroke="none" /><path d="M 81.51974371655577 109.97397251340807 l -32.75428838114138 17.677805274941722 a58.220266074999124,58.220266074999124 0 0,0 -0.4683889487548028,-0.886015374060015 l 33.05372983812107 -17.11137488579558" fill="#56ff2a" stroke="none" /><path d="M 81.35079622478065 109.6543875284942 l -24.522587557936557 12.694942172294699 a48.61374399270355,48.61374399270355 0 0,0 -0.3783106052360714,-0.746442714467198 l 24.737476832958897 -12.270945246124814" fill="#c7ff1e" stroke="none" /><path d="M 80.87730276802145 108.67885076344099 l -25.159290082526645 11.418563045343877 a48.629213877293296,48.629213877293296 0 0,0 -0.3393830874393665,-0.7652192676573357 l 25.352114254697295 -10.983795441193845" fill="#c6ff1e" stroke="none" /><path d="M 80.58989483394504 108.01547362559985 l -30.76486689259825 12.704463837937613 a54.284837934542395,54.284837934542395 0 0,0 -0.34922569954371724,-0.8667495464763297 l 30.978995206399354 -12.173014923618478" fill="#83ff25" stroke="none" /><path d="M 80.32549172779594 107.34259656027581 l -23.34066002236886 8.710817450870582 a45.91314414003578,45.91314414003578 0 0,0 -0.26995997153640805,-0.7428138984739449 l 23.487144254910493 -8.30775575539052" fill="#e9ff1a" stroke="none" /><path d="M 80.20201598880116 107.00284435728193 l -26.048009701758442 9.213572334193358 a48.62949012523241,48.62949012523241 0 0,0 -0.27234637739443146,-0.7915660552216154 l 26.2027469100961 -8.763833575882446" fill="#c6ff1e" stroke="none" /><path d="M 79.86692584326677 105.97154293290107 l -26.477761016847673 7.853400104142647 a48.61788771179009,48.61788771179009 0 0,0 -0.23106777012767868,-0.8043772210580205 l 26.609021423861456 -7.39646540758003" fill="#c7ff1e" stroke="none" /><path d="M 79.76711848015287 105.62410040840567 l -43.11473248763508 11.984530446350478 a65.74940365524257,65.74940365524257 0 0,0 -0.29371800172759255,-1.0930339502069784 l 43.31463856570445 -11.24060556296796" fill="#35ff61" stroke="none" /><path d="M 79.67330655649465 105.27499134158121 l -24.611987818879346 6.3870704305413035 a46.42724155470586,46.42724155470586 0 0,0 -0.19408507223778432,-0.7752733860384712 l 24.71828420541219 -5.962469205105441" fill="#e2ff1b" stroke="none" /><path d="M 79.50377843672027 104.57218783832718 l -26.955349792887162 6.01305572933963 a48.61788771179009,48.61788771179009 0 0,0 -0.1751771051857046,-0.8183691159664049 l 27.054860936797304 -5.548172793957062" fill="#c7ff1e" stroke="none" /><path d="M 79.4281124754447 104.21870165774334 l -27.06568558733466 5.550392618030663 a48.6289376293542,48.6289376293542 0 0,0 -0.16110087858077654,-0.8214499091086662 l 27.1572163988911 -5.0836789818540415" fill="#c6ff1e" stroke="none" /><path d="M 79.29508885075956 103.50808413554451 l -27.243151236428226 4.615874270885712 a48.631423860806116,48.631423860806116 0 0,0 -0.13273656660066052,-0.8265507269292737 l 27.318569557390177 -4.146244314263225" fill="#c6ff1e" stroke="none" /><path d="M 79.23777060512086 103.15116336523772 l -38.234362462095184 5.802976163700944 a59.67222524292279,59.67222524292279 0 0,0 -0.14538981107168572,-1.0168560000088267 l 38.32858632418347 -5.1439746917117155" fill="#47ff2c" stroke="none" /><path d="M 79.1416061653843 102.43462659150553 l -27.43961330160454 3.202797527671965 a48.62589890202406,48.62589890202406 0 0,0 -0.08988311822948106,-0.8322060436688659 l 27.49067872133507 -2.729995162118317" fill="#c6ff1e" stroke="none" /><path d="M 79.07016306316243 101.71520430193888 l -27.528366885278675 2.255955144298229 a48.62065019118111,48.62065019118111 0 0,0 -0.06117737609659746,-0.8347166911864143 l 27.563120820039607 -1.781765316615054" fill="#c7ff1e" stroke="none" /><path d="M 79.0095281055655 100.63252640178507 l -41.421703482845125 1.2482006689310885 a62.44050584067072,62.44050584067072 0 0,0 -0.023126587635483937,-1.0746016532397304 l 41.437052133165615 -0.535009199901229" fill="#30ff37" stroke="none" /><line stroke="#e1ed5e" stroke-width="0.3" x1="15.007084014347285" x2="10.007500721073583" y1="101.09737516637583" y2="101.16192664675087" /><path d="M 14.007167355692545 101.11028546245083 a86.0,86.0 0 0,1 10.666146001902534,-42.60595125391555" fill="none" id="id22" stroke="none" /><text fill="#e1ed5e" style="font-size:6.75px; font-family:Arial;" text-anchor="middle"><textPath startOffset="22.20632615414155" xlink:href="#id22">October</textPath></text><path d="M 79.00175016825051 100.2711162175752 l -27.918880957893016 0.36047106139253465 a48.921207948924824,48.921207948924824 0 0,0 -0.003624135990806147,-0.8421215708744446 l 27.920949391173327 0.12015998768558538" fill="#c3ff1e" stroke="none" /><path d="M 79.01574976396665 99.18683210126434 l -27.59855481020383 -1.0694810903759253 a48.6192689514856,48.6192689514856 0 0,0 0.03960477438500002,-0.8359941915471537 l 27.57605642758533 1.5443863885460882" fill="#c7ff1e" stroke="none" /><path d="M 79.03285615573316 98.82574320788736 l -27.57771132194986 -1.544479070265745 a48.62092643912022,48.62092643912022 0 0,0 0.053991012827532624,-0.835217071453986 l 27.54703971811791 2.018955205972743" fill="#c7ff1e" stroke="none" /><path d="M 79.08570108090925 98.10471618934814 l -27.514808225588457 -2.4934314453900615 a48.62755638965868,48.62755638965868 0 0,0 0.08271981358514834,-0.8329772340671598 l 27.46781128632108 2.966684210161652" fill="#c6ff1e" stroke="none" /><path d="M 79.12142395522702 97.74499172005258 l -27.45545200717016 -2.9653493357545204 a48.615125232399066,48.615125232399066 0 0,0 0.0970210827226744,-0.8312173869911379 l 27.400340571443895 3.43751046107052" fill="#c7ff1e" stroke="none" /><path d="M 79.21141760316559 97.0276538004421 l -27.347775029111645 -3.91017788622867 a48.62589890202406,48.62589890202406 0 0,0 0.12560325912624334,-0.8275685442055141 l 27.2764158765461 4.3803455428262765" fill="#c6ff1e" stroke="none" /><path d="M 79.26566170972629 96.67025291283419 l -27.27259733106521 -4.379732318979236 a48.62203143087663,48.62203143087663 0 0,0 0.13981876034361174,-0.8252182382342348 l 27.193166709201375 4.848536345529298" fill="#c7ff1e" stroke="none" /><path d="M 79.3925641242962 95.95851677861259 l -24.86923607232961 -4.8772977347241175 a46.34298593327955,46.34298593327955 0 0,0 0.16026001275601254,-0.7814847373833947 l 24.7815967636586 5.304658128270915" fill="#e3ff1b" stroke="none" /><path d="M 79.46518482838121 95.60439243477599 l -58.15382291774526 -12.448195020388258 a80.47120882590241,80.47120882590241 0 0,0 0.3015969437776044,-1.3519999617372556 l 57.93093158696561 13.447373151675473" fill="#48f5ff" stroke="none" /><path d="M 79.62865764111835 94.90015583598534 l -26.79111646695364 -6.706996355684984 a48.61788771179009,48.61788771179009 0 0,0 0.21022297814038332,-0.8100748901247297 l 26.671697156942948 7.167167671358577" fill="#c7ff1e" stroke="none" /><path d="M 79.71946130924805 94.55025226153421 l -26.78508021562462 -7.197635750981756 a48.73529308590872,48.73529308590872 0 0,0 0.22467719576389206,-0.8082834145898556 l 26.65721624929437 7.657630468990554" fill="#c5ff1e" stroke="none" /><path d="M 80.02781315780177 93.51064311812611 l -26.31950573733294 -8.551725809174448 a48.673966043427924,48.673966043427924 0 0,0 0.2657661271143001,-0.7946068927206024 l 26.168402316446866 9.003505804817372" fill="#c6ff1e" stroke="none" /><path d="M 80.14247586403 93.16781622104843 l -47.008980822813186 -16.173919469693292 a70.71357912091767,70.71357912091767 0 0,0 0.405919243235162,-1.1475883622989704 l 46.723608498768215 16.980705458418875" fill="#3bff9d" stroke="none" /><path d="M 80.38941819471856 92.48833698450439 l -28.246491933156207 -10.819573375158196 a51.247768092047565,51.247768092047565 0 0,0 0.3226326426636166,-0.8210648843543118 l 28.0560657406109 11.304187264408272" fill="#a6ff21" stroke="none" /><path d="M 80.52162464483688 92.15188598940014 l -25.647233611038928 -10.33363459558593 a48.6507612165433,48.6507612165433 0 0,0 0.3196547602076639,-0.774069356630996 l 25.465557163945064 10.773578522670238" fill="#c6ff1e" stroke="none" /><path d="M 80.65960295795068 91.81776055985345 l -27.99445638077738 -11.84346653309386 a51.396665731223905,51.396665731223905 0 0,0 0.3517227785089145,-0.8118246661163613 l 27.786442892425782 12.323590343796822" fill="#a5ff21" stroke="none" /><path d="M 80.95270993114464 91.15688171328213 l -25.067094323085982 -11.637943214075527 a48.63694881958817,48.63694881958817 0 0,0 0.3590838281435829,-0.7563221198637992 l 24.863052301100645 12.067707749579858" fill="#c6ff1e" stroke="none" /><path d="M 81.10775173730289 90.83032412892265 l -37.280661265924074 -18.094806680205455 a62.43995334479251,62.43995334479251 0 0,0 0.4776358712617609,-0.9628847707277738 l 36.9636653817089 18.733851039432192" fill="#30ff37" stroke="none" /><path d="M 81.43458229118936 90.18545643968196 l -26.738626800204326 -14.135282146070539 a51.24500561265654,51.24500561265654 0 0,0 0.41896916281890867,-0.7762862283152484 l 26.491349538166947 14.59344935771826" fill="#a6ff21" stroke="none" /><path d="M 81.6062741919709 89.86733742301443 l -25.89007079128523 -14.262219311100642 a50.55852948398639,50.55852948398639 0 0,0 0.42647891264664467,-0.7586583978024999 l 25.640734237346155 14.705761218837928" fill="#afff20" stroke="none" /><line stroke="#e1ed5e" stroke-width="0.3" x1="26.266209847984243" x2="21.928928074336255" y1="57.711370442889674" y2="55.22380399835377" /><path d="M 25.398753493254645 57.213857153982495 a86.0,86.0 0 0,1 29.58750427330803,-30.492523968695096" fill="none" id="id23" stroke="none" /><text fill="#e1ed5e" style="font-size:6.75px; font-family:Arial;" text-anchor="middle"><textPath startOffset="21.46611528233685" xlink:href="#id23">November</textPath></text><path d="M 81.78341655067845 89.55222093294921 l -26.43439883355261 -15.16095263151822 a51.47346265829446,51.47346265829446 0 0,0 0.44742774427545917,-0.7647990508010021 l 26.169511414806827 15.613731094673115" fill="#a4ff21" stroke="none" /><path d="M 82.15384107792192 88.93136811851018 l -42.882006093023854 -26.596487336907277 a71.46027730031221,71.46027730031221 0 0,0 0.65734064471578,-1.0397550392430879 l 42.417837852062114 27.33069002386458" fill="#3cffa6" stroke="none" /><path d="M 82.7489923806493 88.02491185347247 l -25.16099734006791 -17.465945621859177 a51.62899024800926,51.62899024800926 0 0,0 0.5130627960489605,-0.7256909398019512 l 24.856621924215073 17.896463061992915" fill="#a2ff22" stroke="none" /><path d="M 82.95767976084542 87.72973835380427 l -23.903831455868616 -17.210465605276166 a50.45493650682289,50.45493650682289 0 0,0 0.5135288721313728,-0.7004528044718445 l 23.60403997122361 17.61938085341951" fill="#b0ff20" stroke="none" /><path d="M 83.17141714833178 87.43820079747576 l -24.37220896254971 -18.192785322928213 a51.41351685550917,51.41351685550917 0 0,0 0.5354939587615798,-0.7046472798339519 l 24.055439063564023 18.609617378643193" fill="#a4ff21" stroke="none" /><path d="M 83.6137871275137 86.86637796730984 l -22.94174705640179 -18.387911651891375 a50.401344406636966,50.401344406636966 0 0,0 0.5484182475377917,-0.6722959257778168 l 22.62183031678761 18.78009174727727" fill="#b1ff20" stroke="none" /><path d="M 84.07557802195018 86.31012108654704 l -39.140158996914 -33.647942641788056 a72.6152699337005,72.6152699337005 0 0,0 0.8230011939386621,-0.9408326348135261 l 38.5551659393975 34.316690832804525" fill="#3effb3" stroke="none" /><path d="M 84.5562425177563 85.77008943001954 l -23.121144744668065 -21.30387131308415 a52.43950170133651,52.43950170133651 0 0,0 0.6173694495312504,-0.6585666839199028 l 22.751007973166356 21.698707413882104" fill="#98ff23" stroke="none" /><path d="M 84.80347519578584 85.50635884689758 l -22.217860873513136 -21.19021992455505 a51.702748447749684,51.702748447749684 0 0,0 0.6197823547174629,-0.6387401969434064 l 21.849814255092554 21.56952431704858" fill="#a1ff22" stroke="none" /><path d="M 85.31137513191541 84.99185889309783 l -31.288749581974663 -31.969362210693912 a65.73282877889642,65.73282877889642 0 0,0 0.8154525400789414,-0.7844646974737324 l 30.733813798283293 32.50320999492996" fill="#35ff61" stroke="none" /><path d="M 86.10567301691215 84.25364557470407 l -19.441432444712103 -22.032854573129562 a50.383940786473495,50.383940786473495 0 0,0 0.6552460322571272,-0.5682229022717559 l 19.0592926138082 22.364242468820997" fill="#b1ff20" stroke="none" /><path d="M 86.37877921826538 84.01681056812374 l -19.065026456351468 -22.370970580273713 a50.39278072052478,50.39278072052478 0 0,0 0.6650466365888427,-0.5569574324257718 l 18.677122282803513 22.695829170093297" fill="#b1ff20" stroke="none" /><path d="M 86.65592168130627 83.78471172551755 l -19.344513438059334 -23.5068211109269 a51.443075384993165,51.443075384993165 0 0,0 0.6885939837196086,-0.5567951129995449 l 18.937016055775224 23.83632232119058" fill="#a4ff21" stroke="none" /><path d="M 87.22198572758235 83.33499621200491 l -17.997279748835624 -23.471936154850294 a50.57759059178447,50.57759059178447 0 0,0 0.6954511341433922,-0.5237993760227572 l 17.59058246093384 23.778252120378905" fill="#afff20" stroke="none" /><path d="M 87.51073957382395 83.11751280151077 l -28.256256211331852 -38.19568713334138 a68.51133055039114,68.51133055039114 0 0,0 0.9541171191569586,-0.6932066637654909 l 27.594593775821114 38.67641303192354" fill="#38ff83" stroke="none" /><path d="M 88.09926311788651 82.69761687909137 l -17.463330496939022 -25.389792062306782 a51.81573385484268,51.81573385484268 0 0,0 0.739226219942429,-0.4991288435398774 l 17.02369958259005 25.686632818145327" fill="#a0ff22" stroke="none" /><path d="M 88.39885842347998 82.49532879139004 l -16.302468896829094 -24.598385947220322 a50.51018609464342,50.51018609464342 0 0,0 0.7288691390689971,-0.47407676286458633 l 15.876632731975809 24.87536163424444" fill="#afff20" stroke="none" /><path d="M 89.00827224532344 82.1063720568725 l -15.388254985066638 -25.05081235109811 a50.39968691900235,50.39968691900235 0 0,0 0.7431264248036792,-0.4477253560459031 l 14.954766494045309 25.311984316602633" fill="#b1ff20" stroke="none" /><line stroke="#e1ed5e" stroke-width="0.3" x1="56.762969772571076" x2="54.21961505331055" y1="26.818313649435495" y2="22.513508569990535" /><path d="M 56.25429882871897 25.957352633546506 a86.0,86.0 0 0,1 42.265352541879196,-11.944610805530505" fill="none" id="id24" stroke="none" /><text fill="#e1ed5e" style="font-size:6.75px; font-family:Arial;" text-anchor="middle"><textPath startOffset="22.20632615414155" xlink:href="#id24">December</textPath></text><path d="M 89.63071344664047 81.73862282372117 l -7.776964915019644 -13.696032882209122 a36.75,36.75 0 0,0 0.5527828441239202,-0.30762305426967695 l 7.5400579818236775 13.827871334038983" fill="#ff990e" stroke="none" /><path d="M 89.94658935756843 81.56283822128135 l -28.21973887703865 -51.752774211092714 a79.94661398954642,79.94661398954642 0 0,0 1.2138749468503027,-0.6484099574558381 l 27.324718883660044 52.2308628950503" fill="#48fbff" stroke="none" /><path d="M 90.58718382345135 81.22770947309562 l -12.634840951192118 -25.19808106822873 a49.18833970603711,49.18833970603711 0 0,0 0.7601442648886181,-0.3729994895105467 l 12.199225419293073 25.41183571787411" fill="#c0ff1e" stroke="none" /><path d="M 91.23893434514133 80.91482961587045 l -12.284377365446023 -26.760378739139103 a50.44526782895429,50.44526782895429 0 0,0 0.792273874701042,-0.35547019334923013 l 11.821921372278206 26.96786926300486" fill="#b0ff20" stroke="none" /><path d="M 91.56875222667455 80.76684994638697 l -11.853198057023329 -27.03921684844597 a50.52316974778125,50.52316974778125 0 0,0 0.7995080911954784,-0.3423076400252666 l 11.386006208037543 27.239244016434025" fill="#afff20" stroke="none" /><path d="M 91.90106846888425 80.62456947434976 l -19.936590891066558 -47.695184265245324 a72.69427684428386,72.69427684428386 0 0,0 1.158664145161414,-0.47264819713544 l 19.112642876316762 48.03129334856434" fill="#3effb4" stroke="none" /><path d="M 92.23578459929587 80.48803036053334 l -10.928513801987354 -27.464053803753455 a50.55852948398639,50.55852948398639 0 0,0 0.8113845518554114,-0.3148046005045663 l 10.454146085132267 27.648101108148573" fill="#afff20" stroke="none" /><path d="M 92.91201910852362 80.23233633223022 l -10.518871210648808 -29.33607065825212 a52.16491124986845,52.16491124986845 0 0,0 0.8478487126676992,-0.2957977679038919 l 10.012340493917822 29.51278927932822" fill="#9bff22" stroke="none" /><path d="M 93.59665428221793 80.00007090966166 l -9.859152131991308 -30.793643232960125 a53.333440032272776,53.333440032272776 0 0,0 0.876737315371226,-0.2724065516244051 l 9.327629443909354 30.958789919467055" fill="#8eff24" stroke="none" /><path d="M 93.94186890950719 79.89281104454417 l -8.500020987546428 -28.211923045071178 a50.46460518469148,50.46460518469148 0 0,0 0.8338910313244425,-0.243435658841302 l 8.013139738498564 28.35405703283118" fill="#b0ff20" stroke="none" /><path d="M 94.28887869178378 79.79150937346287 l -14.492468667872938 -51.28080834297082 a74.28933244466273,74.28933244466273 0 0,0 1.2335641443625949,-0.33717967880981375 l 13.60760663428662 51.52267456260693" fill="#40ffc6" stroke="none" /><path d="M 94.63758080256005 79.69619591428918 l -7.060148662543081 -26.73194130900902 a48.64855123303049,48.64855123303049 0 0,0 0.8114835750134758,-0.20686523170643709 l 6.598956198844605 26.84950953688432" fill="#c6ff1e" stroke="none" /><path d="M 94.98787191387505 79.60689891045804 l -7.052969870939043 -28.69677811261904 a50.550794541691516,50.550794541691516 0 0,0 0.8467891488090811,-0.20040763286298882 l 6.557957035167428 28.813931657622902" fill="#afff20" stroke="none" /><path d="M 95.33964822691252 79.52364482259891 l -7.036445374728078 -30.916283082180236 a52.70690970638791,52.70690970638791 0 0,0 0.8863727928663953,-0.1937267612577625 l 6.5032298577081615 31.032823341533867" fill="#95ff23" stroke="none" /><path d="M 96.04723909329186 79.375362276772 l -5.97890271939132 -31.196600421896896 a52.764369277721265,52.764369277721265 0 0,0 0.8934889117660137,-0.16327938758784377 l 5.441018686522413 31.294895290835477" fill="#94ff23" stroke="none" /><path d="M 96.40284397218896 79.31037775812273 l -6.049687846541004 -34.795753995240545 a56.31774651839899,56.31774651839899 0 0,0 0.9565188266279226,-0.157833802163171 l 5.449839813774196 34.89473406034334" fill="#6bff28" stroke="none" /><path d="M 96.75951476605007 79.25152402106235 l -9.72145570184976 -62.24542793681294 a84.0,84.0 0 0,0 1.430524078285405,-0.2108220633561242 l 8.648562643135705 62.403544484330034" fill="#4dd2ff" stroke="none" /></svg>