<?xml version="1.0" encoding="utf-8" ?>
<svg baseProfile="full" height="200mm" version="1.1" viewBox="0,0,200,200" width="200mm" xmlns="http://www.w3.org/2000/svg" xmlns:ev="http://www.w3.org/2001/xml-events" xmlns:xlink="http://www.w3.org/1999/xlink"><defs /><rect fill="#1a1a1a" height="200" width="200" x="0" y="0" /><text alignment-baseline="middle" fill="#e1ed5e" style="dominant-baseline: central; font-size:9.0px; font-family:Arial;" text-anchor="middle" x="100.0" y="100.0">2023</text><line stroke="#e1ed5e" stroke-width="0.3" x1="100.0" x2="100.0" y1="15.0" y2="10.0" /><path d="M 100.0 14.0 a86.0,86.0 0 0,1 42.46469731375804,11.215312516191453" fill="none" id="id13" stroke="none" /><text fill="#e1ed5e" style="font-size:6.75px; font-family:Arial;" text-anchor="middle"><textPath startOffset="22.20632615414155" xlink:href="#id13">January</textPath></text><path d="M 102.52436894288641 79.15227682838746 l 1.0102188241070313 -8.342981103092681 a29.403920261350756,29.403920261350756 0 0,0 0.5019463018011414,0.06516703592910857 l -1.153679854416019 8.324355743999435" fill="#ff0000" stroke="none" /><path d="M 104.66035177308747 79.52364482259891 l 2.89930491799679 -12.73878028077639 a34.06455097006467,34.06455097006467 0 0,0 0.5706239116917402,0.13504824377826774 l -3.1181525166510538 12.686986124857254" fill="#ff4c07" stroke="none" /><path d="M 105.01212808612495 79.60689891045804 l 5.038326555486391 -20.499696137573174 a42.109767317821195,42.109767317821195 0 0,0 0.702413199570219,0.17906076445274108 l -5.390448643741634 20.409932376951566" fill="#ffc512" stroke="none" /><path d="M 106.0581310904928 79.89281104454417 l 6.213997000741552 -20.62451439167894 a42.540296019734654,42.540296019734654 0 0,0 0.6993110683442102,0.21727935300639933 l -6.56809344179648 20.51449490379002" fill="#ffcc13" stroke="none" /><path d="M 107.4271985657038 80.35727306442388 l 9.892945299347517 -26.163892264978152 a48.97176478431895,48.97176478431895 0 0,0 0.7859194843805684,0.30492454994788976 l -10.341847948727752 25.989725011139715" fill="#d9ff1c" stroke="none" /><path d="M 107.76421540070413 80.48803036053334 l 9.027744527417832 -22.687299107629485 a45.41748783252217,45.41748783252217 0 0,0 0.7239031323961103,0.2952982638295546 l -9.41693152940233 22.52853995761635" fill="#fff417" stroke="none" /><path d="M 108.43124777332544 80.76684994638697 l 13.528670338701103 -30.86126201548873 a54.69632642176145,54.69632642176145 0 0,0 0.8590393575273731,0.38542591932629416 l -14.057891814695257 30.623815765645908" fill="#90ff24" stroke="none" /><path d="M 108.76106565485865 80.91482961587045 l 14.420799347955054 -31.41437622698731 a55.566204413627574,55.566204413627574 0 0,0 0.8658320380723519,0.40651975141508656 l -14.959409597327003 31.16149149293222" fill="#85ff25" stroke="none" /><path d="M 109.41281617654863 81.2277094730956 l 11.5582027610642 -23.050905927616135 a46.78635909060604,46.78635909060604 0 0,0 0.7168104933956657,0.36717817578787215 l -11.953273742048621 22.848535226515764" fill="#f7ff19" stroke="none" /><path d="M 110.05341064243156 81.56283822128135 l 16.127751194937456 -29.57702301077664 a54.68834588972598,54.68834588972598 0 0,0 0.8226062416695629,0.45777948287223097 l -16.634481525679053 29.295028130344228" fill="#90ff24" stroke="none" /><path d="M 110.36928655335952 81.73862282372117 l 16.790031193957333 -29.568967050583097 a55.00336689112608,55.00336689112608 0 0,0 0.8192968042358387,0.47458959096294484 l -17.2965247306585 29.275573302230104" fill="#8cff24" stroke="none" /><line stroke="#e1ed5e" stroke-width="0.3" x1="143.23703022742887" x2="145.7803849466894" y1="26.81831364943548" y2="22.513508569990506" /><path d="M 143.74570117128098 25.957352633546492 a86.0,86.0 0 0,1 28.547481713284135,27.462654790039103" fill="none" id="id14" stroke="none" /><text fill="#e1ed5e" style="font-size:6.75px; font-family:Arial;" text-anchor="middle"><textPath startOffset="19.985693538727396" xlink:href="#id14">February</textPath></text><path d="M 111.90073688211348 82.69761687909136 l 19.089102506793225 -27.753488567858977 a54.684565637709184,54.684565637709184 0 0,0 0.7709712871771237,0.5401146561967303 l -19.564004933554 27.42078906889831" fill="#90ff24" stroke="none" /><path d="M 112.19680574252982 82.90503203632743 l 19.715011455747995 -27.63243888227613 a54.94456297086472,54.94456297086472 0 0,0 0.765180703891599,0.5559363229863205 l -20.187737475993384 27.288983324473136" fill="#8dff24" stroke="none" /><path d="M 112.77801427241765 83.33499621200491 l 21.264033351526404 -27.732415130899234 a55.946329755317024,55.946329755317024 0 0,0 0.7591848875514584,0.5925558467250609 l -21.738250794237292 27.36228089495095" fill="#81ff25" stroke="none" /><path d="M 113.06298171725822 83.55741782278167 l 22.887869826624836 -28.80932459612624 a57.7944529635309,57.7944529635309 0 0,0 0.7736106814225194,0.6255393700269346 l -23.380383906611847 28.411079128835173" fill="#6aff28" stroke="none" /><path d="M 113.6212207817346 84.01681056812373 l 22.18227473929259 -26.028760921595424 a55.198679911994134,55.198679911994134 0 0,0 0.7178619900227563,0.6225228438182187 l -22.627030527962113 25.643073084357532" fill="#8aff24" stroke="none" /><path d="M 113.89432698308785 84.25364557470407 l 36.124879615939506 -40.940101574989384 a75.59943996266418,75.59943996266418 0 0,0 0.9683532711358706,0.8693971279747327 l -36.82424387467137 40.31220543824536" fill="#41ffd0" stroke="none" /><path d="M 114.42810811169701 84.74124197986012 l 25.54089689497454 -27.01132832667138 a58.17457830522035,58.17457830522035 0 0,0 0.7216882116329233,0.6942634877980515 l -26.002068350219883 26.567681752111024" fill="#66ff29" stroke="none" /><path d="M 114.68862486808459 84.99185889309783 l 26.829386857357548 -27.412996613575853 a59.357377158477235,59.357377158477235 0 0,0 0.7240588106651318,0.7209494720270033 l -27.297281468190004 26.947111290898732" fill="#58ff2a" stroke="none" /><path d="M 114.94478906791727 85.2469230424477 l 26.50844291194825 -26.16839197445803 a58.24892326155078,58.24892326155078 0 0,0 0.6982540755117898,0.7196122030809564 l -26.954961251163148 25.70821557582696" fill="#65ff29" stroke="none" /><path d="M 115.4437574822437 85.77008943001954 l 25.859207099660598 -23.826727715832686 a56.16264417627842,56.16264417627842 0 0,0 0.6489629890091776,0.7166011412669475 l -26.26551372928581 23.37807378729619" fill="#7eff26" stroke="none" /><path d="M 115.68641384162765 86.03803664274999 l 26.334538551843806 -23.43951052185039 a56.25505033668911,56.25505033668911 0 0,0 0.637579033093796,0.7288630515063443 l -26.73410944851545 22.982731914141098" fill="#7dff26" stroke="none" /><path d="M 116.15771136456269 86.58626213691792 l 29.171461090517735 -24.217435459919393 a58.9138275885059,58.9138275885059 0 0,0 0.6410427829297173,0.7858426541199766 l -29.58400236552386 23.711708636191315" fill="#5dff2a" stroke="none" /><path d="M 116.38621287248628 86.86637796730983 l 26.213133653072596 -21.009942466322286 a54.59383958930595,54.59383958930595 0 0,0 0.5814137832788558,0.7383364612700296 l -26.57090151694542 20.55561361109922" fill="#91ff24" stroke="none" /><path d="M 116.60985879189232 87.15038557335679 l 30.240263948236517 -23.394282682549466 a59.23304886992466,59.23304886992466 0 0,0 0.6169377581777813,0.8118177731308123 l -30.63847764663841 22.87028013353762" fill="#5aff2a" stroke="none" /><path d="M 117.04232023915458 87.72973835380427 l 30.84252056562141 -22.206236701201735 a59.004973664911,59.004973664911 0 0,0 0.5863615891748171,0.8293668845001029 l -31.22019477460011 21.67204331636984" fill="#5cff2a" stroke="none" /><path d="M 117.2510076193507 88.02491185347247 l 44.85733540010042 -31.138502589958893 a75.60574038269218,75.60574038269218 0 0,0 0.7329275712817896,1.0754807723439173 l -45.386687437050945 30.36174379434457" fill="#41ffd0" stroke="none" /><path d="M 117.65298651832404 88.62581576622439 l 31.872826715296576 -20.536321303745407 a58.915927728515236,58.915927728515236 0 0,0 0.5419491132722305,0.8572333478356026 l -32.22160342481476 19.984640308195598" fill="#5dff2a" stroke="none" /><line stroke="#e1ed5e" stroke-width="0.3" x1="172.23445277983987" x2="176.4835382374775" y1="55.19839476539836" y2="52.563006222186495" /><path d="M 173.08426987136738 54.67131705675599 a86.0,86.0 0 0,1 12.851231095245387,41.99856678651699" fill="none" id="id15" stroke="none" /><text fill="#e1ed5e" style="font-size:6.75px; font-family:Arial;" text-anchor="middle"><textPath startOffset="22.20632615414155" xlink:href="#id15">March</textPath></text><path d="M 117.84615892207809 88.93136811851018 l 29.362101208838343 -18.211105872514253 a55.55108340556037,55.55108340556037 0 0,0 0.497008140951862,0.816950704233255 l -29.67122514807643 17.702987395073915" fill="#85ff25" stroke="none" /><path d="M 118.03404312379186 89.2402003453031 l 32.9540005291611 -19.661616703509075 a59.37375825055004,59.37375825055004 0 0,0 0.5161002456654997,0.8821826161949705 l -33.287560449296926 19.09145467496021" fill="#58ff2a" stroke="none" /><path d="M 118.3937258080291 89.86733742301442 l 55.1811774240873 -30.397987730956764 a84.0,84.0 0 0,0 0.6867676031261407,1.272476066670165 l -55.696253126431905 29.44363068095414" fill="#4dd2ff" stroke="none" /><path d="M 118.56541770881063 90.18545643968196 l 33.68362638241641 -17.806732042598508 a59.10074004933662,59.10074004933662 0 0,0 0.4677135947359936,0.9034737947827405 l -33.98514941031252 17.22428552555542" fill="#5bff2a" stroke="none" /><path d="M 119.04729006885535 91.15688171328212 l 34.211213711244966 -15.883299329567285 a58.71851456763784,58.71851456763784 0 0,0 0.4177338108456691,0.9204210794834808 l -34.47954983905398 15.292056241241742" fill="#5fff29" stroke="none" /><path d="M 119.196687751892 91.48605970444005 l 35.422170049019215 -15.71011858057636 a59.74968331222082,59.74968331222082 0 0,0 0.40888497980589894,0.9437629078734872 l -35.687345738667794 15.09805652811627" fill="#54ff2b" stroke="none" /><line stroke="#e1ed5e" stroke-width="0.3" x1="184.98032266829074" x2="189.97916517819016" y1="98.17113171792111" y2="98.06355123074" /><path d="M 185.9800911702706 98.14961562048488 a86.0,86.0 0 0,1 -9.607161424134198,41.387399972396054" fill="none" id="id16" stroke="none" /><text fill="#e1ed5e" style="font-size:6.75px; font-family:Arial;" text-anchor="middle"><textPath startOffset="21.466115282336823" xlink:href="#id16">April</textPath></text><line stroke="#e1ed5e" stroke-width="0.3" x1="174.80103733775053" x2="179.2010983576182" y1="140.37084112569926" y2="142.7455964860345" /><path d="M 175.68104954172406 140.8457921977663 a86.0,86.0 0 0,1 -30.038265399797805,32.042727171017184" fill="none" id="id17" stroke="none" /><text fill="#e1ed5e" style="font-size:6.75px; font-family:Arial;" text-anchor="middle"><textPath startOffset="22.206326154141568" xlink:href="#id17">May</textPath></text><line stroke="#e1ed5e" stroke-width="0.3" x1="143.8653032363475" x2="146.44561519142675" y1="172.8068346515853" y2="177.08958963109032" /><path d="M 144.38136562736335 173.6633856474863 a86.0,86.0 0 0,1 -40.68145358897372,12.25698825130547" fill="none" id="id18" stroke="none" /><text fill="#e1ed5e" style="font-size:6.75px; font-family:Arial;" text-anchor="middle"><textPath startOffset="21.466115282336833" xlink:href="#id18">June</textPath></text><line stroke="#e1ed5e" stroke-width="0.3" x1="102.19456741930631" x2="102.32365962044197" y1="184.97166512339345" y2="189.96999836594603" /><path d="M 102.22038585953345 185.97133177190398 a86.0,86.0 0 0,1 -42.740103519485714,-10.115201625700543" fill="none" id="id19" stroke="none" /><text fill="#e1ed5e" style="font-size:6.75px; font-family:Arial;" text-anchor="middle"><textPath startOffset="22.20632615414155" xlink:href="#id19">July</textPath></text><line stroke="#e1ed5e" stroke-width="0.3" x1="58.666819895761336" x2="56.23545636021788" y1="174.27360380694188" y2="178.64263932499728" /><path d="M 58.180547188652646 175.14741091055294 a86.0,86.0 0 0,1 -31.652253787137756,-30.449443065178592" fill="none" id="id20" stroke="none" /><text fill="#e1ed5e" style="font-size:6.75px; font-family:Arial;" text-anchor="middle"><textPath startOffset="22.20632615414155" xlink:href="#id20">August</textPath></text><line stroke="#e1ed5e" stroke-width="0.3" x1="26.63291911575756" x2="22.317208475507996" y1="142.92168965132927" y2="145.44649492493687" /><path d="M 25.769776987707644 143.4266507060508 a86.0,86.0 0 0,1 -11.730757126820373,-40.83630448921669" fill="none" id="id21" stroke="none" /><text fill="#e1ed5e" style="font-size:6.75px; font-family:Arial;" text-anchor="middle"><textPath startOffset="21.46611528233685" xlink:href="#id21">September</textPath></text><line stroke="#e1ed5e" stroke-width="0.3" x1="15.007084014347285" x2="10.007500721073583" y1="101.09737516637583" y2="101.16192664675087" /><path d="M 14.007167355692545 101.11028546245083 a86.0,86.0 0 0,1 10.666146001902534,-42.60595125391555" fill="none" id="id22" stroke="none" /><text fill="#e1ed5e" style="font-size:6.75px; font-family:Arial;" text-anchor="middle"><textPath startOffset="22.20632615414155" xlink:href="#id22">October</textPath></text><line stroke="#e1ed5e" stroke-width="0.3" x1="26.266209847984243" x2="21.928928074336255" y1="57.711370442889674" y2="55.22380399835377" /><path d="M 25.398753493254645 57.213857153982495 a86.0,86.0 0 0,1 29.58750427330803,-30.492523968695096" fill="none" id="id23" stroke="none" /><text fill="#e1ed5e" style="font-size:6.75px; font-family:Arial;" text-anchor="middle"><textPath startOffset="21.46611528233685" xlink:href="#id23">November</textPath></text><line stroke="#e1ed5e" stroke-width="0.3" x1="56.762969772571076" x2="54.21961505331055" y1="26.818313649435495" y2="22.513508569990535" /><path d="M 56.25429882871897 25.957352633546506 a86.0,86.0 0 0,1 42.265352541879196,-11.944610805530505" fill="none" id="id24" stroke="none" /><text fill="#e1ed5e" style="font-size:6.75px; font-family:Arial;" text-anchor="middle"><textPath startOffset="22.20632615414155" xlink:href="#id24">December</textPath></text></svg>