<?xml version="1.0" encoding="utf-8" ?>
<svg baseProfile="full" height="200mm" version="1.1" viewBox="0,0,200,200" width="200mm" xmlns="http://www.w3.org/2000/svg" xmlns:ev="http://www.w3.org/2001/xml-events" xmlns:xlink="http://www.w3.org/1999/xlink"><defs /><rect fill="#1a1a1a" height="200" width="200" x="0" y="0" /><text alignment-baseline="middle" fill="#e1ed5e" style="dominant-baseline: central; font-size:9.0px; font-family:Arial;" text-anchor="middle" x="100.0" y="100.0">2024</text><line stroke="#e1ed5e" stroke-width="0.3" x1="100.0" x2="100.0" y1="15.0" y2="10.0" /><path d="M 100.0 14.0 a86.0,86.0 0 0,1 42.35913384403234,11.155469271406648" fill="none" id="id25" stroke="none" /><text fill="#e1ed5e" style="font-size:6.75px; font-family:Arial;" text-anchor="middle"><textPath startOffset="22.145653131862478" xlink:href="#id25">January</textPath></text><path d="M 100.0 79.0 l 0.0 -53.42504326401314 a74.42504326401314,74.42504326401314 0 0,0 1.2776048346784121,0.010966700928423924 l -0.9171119098295574 53.417170961279155" fill="#3effb7" stroke="none" /><path d="M 100.72087961077811 79.0123766808444 l 1.0325616978363235 -30.061907208868003 a51.079635115712904,51.079635115712904 0 0,0 0.8760747012661291,0.03762241718980063 l -1.5484621597032886 30.039752223252375" fill="#e8ff1a" stroke="none" /><path d="M 101.08105385017728 79.02784411241856 l 1.5042689178466464 -29.182415137552983 a50.22115976886751,50.22115976886751 0 0,0 0.860588951680235,0.05177089430219727 l -2.0050022216593435 29.152292265426095" fill="#f5ff19" stroke="none" /><path d="M 101.44090949804482 79.04949213459386 l 2.017355410344913 -29.331904917762024 a50.40119672660077,50.40119672660077 0 0,0 0.8626548954273013,0.06677494471693457 l -2.5205793005474475 29.29295220605004" fill="#f2ff19" stroke="none" /><path d="M 101.80034050326958 79.07731436759882 l 4.263586761739482 -49.54934098318455 a70.7324377438184,70.7324377438184 0 0,0 1.2088525137666102,0.11447958989291772 l -5.113538838891105 49.46884963778645" fill="#38ff85" stroke="none" /><path d="M 102.15924093988457 79.11130261209362 l 3.0199389104368777 -29.21516949074334 a50.37083858856657,50.37083858856657 0 0,0 0.8593363367878382,0.09629042894114907 l -3.5210111488255125 29.15902330129522" fill="#f3ff19" stroke="none" /><path d="M 103.23170211078529 79.25015418208739 l 4.6785344321447075 -30.03954720851671 a51.40169536268442,51.40169536268442 0 0,0 0.8707018772247385,0.14327366255640792 l -5.193513812422516 29.954807547464632" fill="#e3ff1b" stroke="none" /><path d="M 103.58742460773223 79.30868818359171 l 5.337145484306906 -30.783236862262314 a52.242483794327285,52.242483794327285 0 0,0 0.882314020708088,0.16078700599944734 l -5.864794238566048 30.687081682331502" fill="#d7ff1c" stroke="none" /><path d="M 103.94208987418118 79.37332000966035 l 5.382726487380832 -28.164699505688326 a49.674449300442916,49.674449300442916 0 0,0 0.8361948765248033,0.1672623943083111 l -5.865417849436592 28.068147714717153" fill="#fdff18" stroke="none" /><path d="M 104.29559338865022 79.4440306129975 l 12.357541518693852 -59.135309647336804 a81.41269468805913,81.41269468805913 0 0,0 1.3655528968307717,0.29761589812414474 l -13.370856832143758 58.91446229107894" fill="#49f0ff" stroke="none" /><path d="M 104.64783097203109 79.52079915486377 l 3.2621735650684487 -14.373738639109028 a35.739271991317864,35.739271991317864 0 0,0 0.5971314947856262,0.14092140686464238 l -3.5084372135939597 14.315621088598158" fill="#ff1b02" stroke="none" /><path d="M 104.9986988182912 79.60360301121754 l 6.837789173422421 -27.90051322884039 a49.72619012700554,49.72619012700554 0 0,0 0.8273365532592089,0.2103057165640666 l -7.315731019907025 27.779022280441055" fill="#fcff18" stroke="none" /><path d="M 105.3480935250658 79.69241777938227 l 8.183321940636135 -31.073406321032618 a53.132901182060834,53.132901182060834 0 0,0 0.880029107305705,0.2398558465117856 l -8.715532448876534 30.92834998037669" fill="#caff1d" stroke="none" /><path d="M 106.04205211174951 79.88797359093562 l 8.947896098064927 -29.78463596497144 a52.09966855366204,52.09966855366204 0 0,0 0.8543337567017568,0.26467478168797215 l -9.457870487638314 29.62664459547682" fill="#d9ff1c" stroke="none" /><path d="M 106.38641147887787 79.99465700312896 l 8.657866418260626 -27.120643242490825 a49.46906989704631,49.46906989704631 0 0,0 0.8067634109263285,0.26519915752897455 l -9.122152566834696 26.968023163559828" fill="#fffe18" stroke="none" /><path d="M 106.72888874123014 80.10723608172694 l 19.303075057625016 -57.066111476207965 a81.24242513125861,81.24242513125861 0 0,0 1.3172655629646812,0.4582133416416766 l -20.279846392634717 56.726339701997695" fill="#49f2ff" stroke="none" /><path d="M 107.40779381753099 80.34994680014964 l 10.359972749937464 -27.481058558015082 a50.36899070190361,50.36899070190361 0 0,0 0.8064500849612231,0.3119522173839855 l -10.830195097392211 27.299166452493058" fill="#f3ff19" stroke="none" /><path d="M 108.07796709384702 80.6158196554323 l 12.446313010116059 -29.866620303120264 a53.35623148446895,53.35623148446895 0 0,0 0.8424311848255754,0.35958377874731123 l -12.957179270112064 29.64856187471355" fill="#c7ff1e" stroke="none" /><path d="M 108.4095320186766 80.7573450057729 l 11.737670095198238 -26.85808622600388 a50.31091426392514,50.31091426392514 0 0,0 0.7884117892541519,0.352646565140275 l -12.196995287308022 26.65263590995375" fill="#f4ff19" stroke="none" /><path d="M 108.73861861582097 80.90454125486305 l 12.152945364220201 -26.556378878261462 a50.20505675651894,50.20505675651894 0 0,0 0.7805960786535755,0.36535837941649857 l -12.607030156745282 26.343844267274427" fill="#f5ff19" stroke="none" /><path d="M 109.06512990194946 81.05736502329252 l 27.195389705848374 -56.82790493012246 a84.0,84.0 0 0,0 1.2953590029517317,0.6336249996111154 l -28.166908958062173 56.352686180414125" fill="#4dd2ff" stroke="none" /><path d="M 110.34350942703115 81.72400993836675 l 20.6260806042565 -36.444308074849985 a62.87627958818526,62.87627958818526 0 0,0 0.9347832419212853,0.5396973563572052 l -21.248656314038183 36.08486382121661" fill="#47ff2c" stroke="none" /><line stroke="#e1ed5e" stroke-width="0.3" x1="143.13028292997686" x2="145.6673583964461" y1="26.7553504044142" y2="22.446841604673864" /><path d="M 143.63769802327073 25.89364864446614 a86.0,86.0 0 0,1 29.32050498858742,28.57503671076993" fill="none" id="id26" stroke="none" /><text fill="#e1ed5e" style="font-size:6.75px; font-family:Arial;" text-anchor="middle"><textPath startOffset="20.669276256404974" xlink:href="#id26">February</textPath></text><path d="M 110.65571695917076 81.90426304109057 l 16.214169277607166 -27.53520418936158 a52.954448127181536,52.954448127181536 0 0,0 0.7793564433662065,0.4679811515119861 l -16.684458477530807 27.252809037313675" fill="#cdff1d" stroke="none" /><path d="M 110.96478420261332 82.08984904055464 l 14.83030814386087 -24.22419381207105 a49.403337928607044,49.403337928607044 0 0,0 0.7194910902900844,0.4490156536719735 l -15.243963362940669 23.96604236155753" fill="#fffd17" stroke="none" /><path d="M 111.27062007382361 82.28071324371311 l 7.116824830589113 -11.188830706870746 a34.26043469333881,34.26043469333881 0 0,0 0.4935368447550229,0.3199046200272101 l -7.307847307601143 11.065012245139641" fill="#ff0000" stroke="none" /><path d="M 111.5731344415666 82.4767994020092 l 22.678593036166426 -34.33828035606462 a62.15138004869035,62.15138004869035 0 0,0 0.8852242129741561,0.5956183567904197 l -23.264713537237583 33.943912325217084" fill="#50ff2b" stroke="none" /><path d="M 111.8722381534696 82.67804972795209 l 16.13199825757683 -23.537067568413388 a49.534801865485576,49.534801865485576 0 0,0 0.6972728851986995,0.4867506268099443 l -16.533666233949287 23.256672125798318" fill="#ffff18" stroke="none" /><path d="M 112.16784306229584 82.88440491214696 l 18.47041775212592 -25.980955682151265 a52.877364854955566,52.877364854955566 0 0,0 0.7352949837633898,0.5322968639124808 l -18.913693746263277 25.66005804686571" fill="#ceff1d" stroke="none" /><path d="M 112.7482090630111 83.31218511350987 l 17.636203960626585 -23.086357114212955 a50.05194614730297,50.05194614730297 0 0,0 0.678299339294078,0.5274496688919503 l -18.02991324455589 22.78020639370021" fill="#f7ff18" stroke="none" /><path d="M 113.03279911837588 83.53348406188908 l 17.628691480881283 -22.273275802178272 a49.40544979907899,49.40544979907899 0 0,0 0.6605019986353964,0.5320536556174204 l -18.00844424987194 21.967373852767444" fill="#fffd17" stroke="none" /><path d="M 113.31354834802062 83.75963576809568 l 18.082082675101194 -22.05720075810668 a49.52160267503593,49.52160267503593 0 0,0 0.652802411137477,0.5445909890931849 l -18.458059420400563 21.743547585101624" fill="#ffff18" stroke="none" /><path d="M 113.59037401385872 83.9905735841838 l 37.974472256657606 -44.73383283289037 a79.6785850467838,79.6785850467838 0 0,0 1.0351406202010829,0.8941298134849249 l -38.73679235662155 44.07535888694073" fill="#46fff9" stroke="none" /><line stroke="#e1ed5e" stroke-width="0.3" x1="172.87174338648825" x2="177.1583165268699" y1="56.24261187166439" y2="53.66864786411523" /><path d="M 173.72905801456457 55.72781907015455 a86.0,86.0 0 0,1 12.242430191666344,42.057860355516425" fill="none" id="id27" stroke="none" /><text fill="#e1ed5e" style="font-size:6.75px; font-family:Arial;" text-anchor="middle"><textPath startOffset="22.145653131862474" xlink:href="#id27">March</textPath></text><line stroke="#e1ed5e" stroke-width="0.3" x1="184.99686870605535" x2="189.99668451229388" y1="99.2704041080226" y2="99.22748670261217" /><path d="M 185.99683186730306 99.26182062694052 a86.0,86.0 0 0,1 -10.086455211305974,41.156179273409016" fill="none" id="id28" stroke="none" /><text fill="#e1ed5e" style="font-size:6.75px; font-family:Arial;" text-anchor="middle"><textPath startOffset="21.40746469413373" xlink:href="#id28">April</textPath></text><line stroke="#e1ed5e" stroke-width="0.3" x1="174.33088141563837" x2="178.70328620479359" y1="141.23008692659167" y2="143.65538615756765" /><path d="M 175.20536237346943 141.71514677278685 a86.0,86.0 0 0,1 -30.301960400862466,31.631185727798858" fill="none" id="id29" stroke="none" /><text fill="#e1ed5e" style="font-size:6.75px; font-family:Arial;" text-anchor="middle"><textPath startOffset="22.145653131862474" xlink:href="#id29">May</textPath></text><line stroke="#e1ed5e" stroke-width="0.3" x1="143.1302829299769" x2="145.66735839644613" y1="173.24464959558577" y2="177.55315839532614" /><path d="M 143.63769802327073 174.10635135553383 a86.0,86.0 0 0,1 -40.68552437913181,11.842963189579606" fill="none" id="id30" stroke="none" /><text fill="#e1ed5e" style="font-size:6.75px; font-family:Arial;" text-anchor="middle"><textPath startOffset="21.407464694133747" xlink:href="#id30">June</textPath></text><line stroke="#e1ed5e" stroke-width="0.3" x1="101.45913802915013" x2="101.54496967792366" y1="184.9874750549273" y2="189.98673829345242" /><path d="M 101.47630435890484 185.9873277026323 a86.0,86.0 0 0,1 -42.54439059252881,-10.42667462771756" fill="none" id="id31" stroke="none" /><text fill="#e1ed5e" style="font-size:6.75px; font-family:Arial;" text-anchor="middle"><textPath startOffset="22.145653131862474" xlink:href="#id31">July</textPath></text><line stroke="#e1ed5e" stroke-width="0.3" x1="58.13341422392154" x2="55.67067388415222" y1="173.97424548756322" y2="178.32567169271397" /><path d="M 57.64086615596768 174.84453072859336 a86.0,86.0 0 0,1 -31.369924170532247,-30.572349798747897" fill="none" id="id32" stroke="none" /><text fill="#e1ed5e" style="font-size:6.75px; font-family:Arial;" text-anchor="middle"><textPath startOffset="22.145653131862474" xlink:href="#id32">August</textPath></text><line stroke="#e1ed5e" stroke-width="0.3" x1="26.387840678322732" x2="22.057713659400548" y1="142.50000000000003" y2="145.00000000000006" /><path d="M 25.521815274538298 143.00000000000003 a86.0,86.0 0 0,1 -11.493303480769221,-40.785679425670985" fill="none" id="id33" stroke="none" /><text fill="#e1ed5e" style="font-size:6.75px; font-family:Arial;" text-anchor="middle"><textPath startOffset="21.40746469413373" xlink:href="#id33">September</textPath></text><line stroke="#e1ed5e" stroke-width="0.3" x1="15.003131293944662" x2="10.003315487706104" y1="100.72959589197737" y2="100.7725132973878" /><path d="M 14.003168132696942 100.73817937305945 a86.0,86.0 0 0,1 10.791469493833604,-42.45332614584628" fill="none" id="id34" stroke="none" /><text fill="#e1ed5e" style="font-size:6.75px; font-family:Arial;" text-anchor="middle"><textPath startOffset="22.145653131862435" xlink:href="#id34">October</textPath></text><line stroke="#e1ed5e" stroke-width="0.3" x1="26.387840678322718" x2="22.05771365940052" y1="57.49999999999999" y2="54.99999999999999" /><path d="M 25.521815274538284 56.99999999999999 a86.0,86.0 0 0,1 29.574782752854787,-30.34633250058573" fill="none" id="id35" stroke="none" /><text fill="#e1ed5e" style="font-size:6.75px; font-family:Arial;" text-anchor="middle"><textPath startOffset="21.40746469413373" xlink:href="#id35">November</textPath></text><line stroke="#e1ed5e" stroke-width="0.3" x1="56.869717070023135" x2="54.33264160355391" y1="26.7553504044142" y2="22.446841604673864" /><path d="M 56.362301976729285 25.89364864446614 a86.0,86.0 0 0,1 42.16139366436587,-11.88097634709845" fill="none" id="id36" stroke="none" /><text fill="#e1ed5e" style="font-size:6.75px; font-family:Arial;" text-anchor="middle"><textPath startOffset="22.145653131862474" xlink:href="#id36">December</textPath></text></svg>