<?xml version="1.0" encoding="utf-8" ?>
<svg baseProfile="full" height="200mm" version="1.1" viewBox="0,0,200,200" width="200mm" xmlns="http://www.w3.org/2000/svg" xmlns:ev="http://www.w3.org/2001/xml-events" xmlns:xlink="http://www.w3.org/1999/xlink"><defs /><rect fill="#1a1a1a" height="200" width="200" x="0" y="0" /><text alignment-baseline="middle" fill="#e1ed5e" style="dominant-baseline: central; font-size:9.0px; font-family:Arial;" text-anchor="middle" x="100.0" y="100.0">2024</text><line stroke="#e1ed5e" stroke-width="0.3" x1="100.0" x2="100.0" y1="15.0" y2="10.0" /><path d="M 100.0 14.0 a86.0,86.0 0 0,1 42.35913384403234,11.155469271406648" fill="none" id="id25" stroke="none" /><text fill="#e1ed5e" style="font-size:6.75px; font-family:Arial;" text-anchor="middle"><textPath startOffset="22.145653131862478" xlink:href="#id25">January</textPath></text><path d="M 100.0 79.0 l 0.0 -39.825640961567295 a60.825640961567295,60.825640961567295 0 0,0 1.0441530102877001,0.00896279778889619 l -0.6836600854388453 39.81977256197283" fill="#35ff2f" stroke="none" /><path d="M 100.72087961077811 79.0123766808444 l 0.7697220055672959 -22.409616351715343 a43.422831600779645,43.422831600779645 0 0,0 0.74475168306518,0.03198284174008218 l -1.154299449233312 22.39310094154943" fill="#fdff18" stroke="none" /><path d="M 101.08105385017728 79.02784411241856 l 1.1213556446880777 -21.753999934380015 a42.782882078064866,42.782882078064866 0 0,0 0.7331267498972618,0.04410308475950221 l -1.4946267467178018 21.731544871795823" fill="#fff917" stroke="none" /><path d="M 101.44090949804482 79.04949213459386 l 1.5038354179188855 -21.865436930034058 a42.91709043430456,42.91709043430456 0 0,0 0.7345587121963952,0.056859489997979795 l -1.8789631248905143 21.836399673041026" fill="#fffb17" stroke="none" /><path d="M 101.80034050326958 79.07731436759882 l 3.1782861595903373 -36.93650287051443 a58.07299215353091,58.07299215353091 0 0,0 0.9924962971162363,0.09399043123141701 l -3.8118820200915864 36.876500683777834" fill="#51ff2b" stroke="none" /><path d="M 102.15924093988457 79.11130261209362 l 2.251210208264628 -21.778416631688824 a42.894459993003146,42.894459993003146 0 0,0 0.7317878588435224,0.08199835594682264 l -2.6247339687089473 21.736562515235033" fill="#fffa17" stroke="none" /><path d="M 103.23170211078529 79.25015418208739 l 3.487608453588905 -22.39294811353553 a43.66291106502074,43.66291106502074 0 0,0 0.7396133213343282,0.12170309056968677 l -3.8714992779763033 22.329779024470177" fill="#faff18" stroke="none" /><path d="M 103.58742460773223 79.30868818359171 l 3.978569353089008 -22.94733076495503 a44.28967589584687,44.28967589584687 0 0,0 0.7480004620256193,0.1363106013874547 l -4.371904548665681 22.87565198963621" fill="#f2ff19" stroke="none" /><path d="M 103.94208987418118 79.37332000966035 l 4.012547662739025 -20.995344912701853 a42.37533734819331,42.37533734819331 0 0,0 0.7133252704475065,0.1426850319288394 l -4.372369418717488 20.923370484110155" fill="#fff417" stroke="none" /><path d="M 104.29559338865022 79.4440306129975 l 9.211916015848512 -44.082352886971414 a66.03457818981458,66.03457818981458 0 0,0 1.1076123924359582,0.2413989657327144 l -9.967290824903605 43.91772246310498" fill="#35ff6a" stroke="none" /><path d="M 104.64783097203109 79.52079915486377 l 2.4317837706692935 -10.714887987786772 a31.98737443150582,31.98737443150582 0 0,0 0.5344448178237294,0.12612752178860684 l -2.615360742232908 10.671564322351939" fill="#ff6609" stroke="none" /><path d="M 104.9986988182912 79.60360301121754 l 5.097222574923892 -20.79840753715824 a42.41390749162876,42.41390749162876 0 0,0 0.7056759414858513,0.1793800648014006 l -5.453503809635137 20.707842240521572" fill="#fff417" stroke="none" /><path d="M 105.3480935250658 79.69241777938227 l 6.100248527083918 -23.16363727547839 a44.95343657853965,44.95343657853965 0 0,0 0.7445543492342285,0.20293159876991468 l -6.49698427725284 23.055505182564332" fill="#eaff1a" stroke="none" /><path d="M 106.04205211174951 79.88797359093562 l 6.670199509281113 -22.202924801578035 a44.18321442850717,44.18321442850717 0 0,0 0.724519226585609,0.22445790842398788 l -7.050359368738352 22.0851503053474" fill="#f3ff19" stroke="none" /><path d="M 106.38641147887787 79.99465700312896 l 6.453997196837413 -20.2170542957659 a42.22223749312809,42.22223749312809 0 0,0 0.6885788717634932,0.22634955206292284 l -6.8000988062486485 20.103283822300956" fill="#fff216" stroke="none" /><path d="M 106.72888874123014 80.10723608172694 l 14.389456511998565 -42.5398713388616 a65.90765093208057,65.90765093208057 0 0,0 1.0686273676402478,0.3717240705770392 l -15.117589651683831 42.286588835715975" fill="#35ff68" stroke="none" /><path d="M 107.40779381753099 80.34994680014964 l 7.722830528591276 -20.48572550455063 a42.89308248788045,42.89308248788045 0 0,0 0.6867544799799338,0.2656513860227659 l -8.073357271064735 20.350134230389827" fill="#fffa17" stroke="none" /><path d="M 108.07796709384702 80.6158196554323 l 9.278090628520939 -22.264039938152685 a45.11991791193962,45.11991791193962 0 0,0 0.7123896281327919,0.3040767709441094 l -9.658915331824161 22.101488517549175" fill="#e7ff1a" stroke="none" /><path d="M 108.4095320186766 80.7573450057729 l 8.74983353081474 -20.021331450603636 a42.84978946973861,42.84978946973861 0 0,0 0.671490066902327,0.30034896591657234 l -9.092237000572698 19.86817873377721" fill="#fffa17" stroke="none" /><path d="M 108.73861861582097 80.90454125486305 l 9.059400032849327 -19.796424033172492 a42.77087810485282,42.77087810485282 0 0,0 0.6650083056600276,0.31125746528671255 l -9.39789705238086 19.637990336315248" fill="#fff917" stroke="none" /><path d="M 109.06512990194946 81.05736502329252 l 20.272773966372696 -42.36230052563426 a67.96328214803339,67.96328214803339 0 0,0 1.0480577309595684,0.5126575550549736 l -20.99699194659433 42.008049220482064" fill="#38ff81" stroke="none" /><path d="M 110.34350942703115 81.72400993836675 l 15.375689571837727 -27.167370203317947 a52.21662751761707,52.21662751761707 0 0,0 0.7763059244727661,0.4482004344678529 l -15.83978796417089 26.899422871573925" fill="#92ff23" stroke="none" /><line stroke="#e1ed5e" stroke-width="0.3" x1="143.13028292997686" x2="145.6673583964461" y1="26.7553504044142" y2="22.446841604673864" /><path d="M 143.63769802327073 25.89364864446614 a86.0,86.0 0 0,1 29.32050498858742,28.57503671076993" fill="none" id="id26" stroke="none" /><text fill="#e1ed5e" style="font-size:6.75px; font-family:Arial;" text-anchor="middle"><textPath startOffset="20.669276256404974" xlink:href="#id26">February</textPath></text><path d="M 110.65571695917076 81.90426304109057 l 12.086835025083174 -20.526088307122205 a44.82040894097656,44.82040894097656 0 0,0 0.6596438210169597,0.3960971614142798 l -12.437411602657567 20.315577145172004" fill="#ebff1a" stroke="none" /><path d="M 110.96478420261332 82.08984904055464 l 11.055237233371674 -18.05789918737996 a42.17323766804938,42.17323766804938 0 0,0 0.6141947087603045,0.38330292391068427 l -11.363596070921691 17.865460466627727" fill="#fff116" stroke="none" /><path d="M 111.27062007382361 82.28071324371311 l 5.305229405033117 -8.340701799894454 a30.884976760457793,30.884976760457793 0 0,0 0.44491186749747197,0.2883864972391743 l -5.4476269047875965 8.248401460951385" fill="#ff5607" stroke="none" /><path d="M 111.5731344415666 82.4767994020092 l 16.905732753617603 -25.597434108573573 a51.67625193662852,51.67625193662852 0 0,0 0.7360266081657205,0.49523154979775874 l -17.342655649880324 25.3034528847187" fill="#98ff23" stroke="none" /><path d="M 111.8722381534696 82.67804972795209 l 12.025580726701007 -17.545681669090857 a42.2712373182068,42.2712373182068 0 0,0 0.5950278692105163,0.4153756649020841 l -12.325003687085285 17.336661188383644" fill="#fff216" stroke="none" /><path d="M 112.16784306229584 82.88440491214696 l 13.76875302039895 -19.36747543137176 a44.762947298715574,44.762947298715574 0 0,0 0.6224586020406784,0.4506120252388658 l -14.099192632813596 19.128262634759817" fill="#ecff1a" stroke="none" /><path d="M 112.7482090630111 83.31218511350987 l 13.146889247986826 -17.209700046429216 a42.65674196611525,42.65674196611525 0 0,0 0.5780802170389342,0.4495186732564087 l -13.440379409660986 16.981480321552016" fill="#fff717" stroke="none" /><path d="M 113.03279911837588 83.53348406188908 l 13.141289078051747 -16.603589458074012 a42.17481195961817,42.17481195961817 0 0,0 0.5638355222892661,0.45418598493380097 l -13.424375370696273 16.375555179346804" fill="#fff116" stroke="none" /><path d="M 113.31354834802062 83.75963576809568 l 13.479269055473711 -16.442516549186983 a42.261397995901845,42.261397995901845 0 0,0 0.5570971256887991,0.46475023609546845 l -13.759540515324403 16.208704129179647" fill="#fff216" stroke="none" /><path d="M 113.59037401385872 83.9905735841838 l 28.30802944463614 -33.346787506253804 a64.74188802538856,64.74188802538856 0 0,0 0.841091217724817,0.7265145613568998 l -28.876300142123817 32.85592881243218" fill="#34ff5a" stroke="none" /><path d="M 113.86319453409587 84.22622945171908 l 13.0014215993445 -14.793231142009558 a40.694584312059575,40.694584312059575 0 0,0 0.5207646677873911,0.4656709771297767 l -13.253451293955267 14.567864634996395" fill="#ffde14" stroke="none" /><path d="M 114.13192950727249 84.46653392183569 l 16.163275189420727 -17.766270822232485 a45.018572892198506,45.018572892198506 0 0,0 0.5671701964384713,0.5249642664640732 l -16.465875157173162 17.486188809636037" fill="#e9ff1a" stroke="none" /><path d="M 114.39649973595853 84.71141617570332 l 17.840841971877385 -18.946355918848443 a47.02422035084212,47.02422035084212 0 0,0 0.5829380184788825,0.5584414351113095 l -18.16345247622158 18.637302353431554" fill="#d0ff1d" stroke="none" /><path d="M 115.6541949942343 86.00192230759917 l 14.686663020026089 -13.132904634965625 a40.702062197011344,40.702062197011344 0 0,0 0.4612685941408579,0.5248389862243612 l -14.909942678125537 12.878853370929967" fill="#ffde14" stroke="none" /><path d="M 115.8921839302757 86.27271002978787 l 3.160724971289529 -2.730158950295324 a25.176595532010595,25.176595532010595 0 0,0 0.2797065052381248,0.32949355985850975 l -3.207126040034766 2.6754986079872625" fill="#ff0000" stroke="none" /><path d="M 116.1254893667686 86.54754324733833 l 15.136837056274151 -12.627687832609315 a40.7124918786546,40.7124918786546 0 0,0 0.44309378645657393,0.5405023734351165 l -15.351377661969353 12.365983177475702" fill="#ffde14" stroke="none" /><path d="M 116.35404254752997 86.82634096563983 l 16.614925448006744 -13.383807832052703 a42.334996126742965,42.334996126742965 0 0,0 0.4510361805815221,0.5698694799752181 l -16.842228059229825 13.096618408162806" fill="#fff316" stroke="none" /><path d="M 116.57777611688842 87.10902102172516 l 15.69778858836874 -12.20669535354097 a40.88527037832975,40.88527037832975 0 0,0 0.4260790751253334,0.5577511866611203 l -15.90501964084838 11.93542325363897" fill="#ffe015" stroke="none" /><path d="M 116.7966241395341 87.39550010848427 l 29.009465165223578 -21.76924347954911 a57.26911952121545,57.26911952121545 0 0,0 0.5833213812285946,0.7913874837515918 l -29.378888566035997 21.26804968652864" fill="#5aff2a" stroke="none" /><path d="M 117.01052211995028 87.68569379921539 l 17.709712048783636 -12.820465789270179 a42.86317094807337,42.86317094807337 0 0,0 0.42635567810389324,0.5997226552375017 l -17.92718282541749 12.514565907323174" fill="#fffa17" stroke="none" /><path d="M 117.42321728460499 88.27688183743584 l 17.58752051372134 -11.833668707733779 a42.19803276025789,42.19803276025789 0 0,0 0.39922465881361385,0.6044770166091983 l -17.78806961145568 11.53001181278552" fill="#fff116" stroke="none" /><path d="M 117.62189284568427 88.57770195909679 l 18.689849655719648 -12.114534742480021 a43.272683542405915,43.272683542405915 0 0,0 0.39869041434890756,0.6268075520741506 l -18.895057761694446 11.791913515727199" fill="#ffff18" stroke="none" /><path d="M 117.81537515405839 88.88188828441811 l 18.085713166010546 -11.28682262915296 a42.318662851716724,42.318662851716724 0 0,0 0.3793203833382946,0.6195913391495952 l -18.276801513804244 10.97469417387881" fill="#fff316" stroke="none" /><line stroke="#e1ed5e" stroke-width="0.3" x1="172.87174338648825" x2="177.1583165268699" y1="56.24261187166439" y2="53.66864786411523" /><path d="M 173.72905801456457 55.72781907015455 a86.0,86.0 0 0,1 12.242430191666344,42.057860355516425" fill="none" id="id27" stroke="none" /><text fill="#e1ed5e" style="font-size:6.75px; font-family:Arial;" text-anchor="middle"><textPath startOffset="22.145653131862474" xlink:href="#id27">March</textPath></text><path d="M 118.00360718960297 89.18935116829356 l 20.37704614656357 -12.235830730921078 a44.76845731920635,44.76845731920635 0 0,0 0.3899679905055363,0.6622509030243444 l -20.584087847198873 11.884228659603176" fill="#ecff1a" stroke="none" /><path d="M 118.18653347947321 89.5 l 21.825953408929735 -12.601220075965816 a46.202440151931626,46.202440151931626 0 0,0 0.3906672297895126,0.6902715620271058 l -22.039054003740624 12.224691743839593" fill="#daff1c" stroke="none" /><path d="M 118.36410011445183 89.81374322990088 l 39.422321280916066 -21.86689707298737 a66.0808230046479,66.0808230046479 0 0,0 0.5417200467378891,0.9967038707972601 l -39.7918866772693 21.18693836871551" fill="#36ff6a" stroke="none" /><path d="M 118.8641267826498 90.77261029715802 l 19.10671639846073 -9.346052440255763 a42.270056599530214,42.270056599530214 0 0,0 0.31324274162359106,0.6545568544365566 l -19.26433839804423 9.016683083754103" fill="#fff216" stroke="none" /><path d="M 119.0197475246899 91.09779779509293 l 20.17634094768287 -9.443546326693305 a43.277012844220096,43.277012844220096 0 0,0 0.3091535353000234,0.6755562679605702 l -20.335478947837945 9.09580107651805" fill="#ffff18" stroke="none" /><path d="M 119.16976305983485 91.42560881287824 l 19.391673018790026 -8.673648689181686 a42.24309685641461,42.24309685641461 0 0,0 0.2904034240353191,0.6644998658003013 l -19.537710324842315 8.339486753605534" fill="#fff216" stroke="none" /><path d="M 119.71291397450082 92.76114493625339 l 28.80442290617243 -10.577383073976767 a51.68510732670298,51.68510732670298 0 0,0 0.29869027792520086,0.8354898672912487 l -28.981753354141574 10.081358250304602" fill="#98ff23" stroke="none" /><path d="M 119.83427380445688 93.10060997987247 l 21.18091086594695 -7.367820293621617 a43.425783397471136,43.425783397471136 0 0,0 0.23887195533565095,0.7061824911849592 l -21.304268242854963 7.003136127962495" fill="#fdff18" stroke="none" /><path d="M 119.94978838288452 93.4421083053983 l 20.273265791474255 -6.664225143882877 a42.34050614723374,42.34050614723374 0 0,0 0.2210482583612743,0.6924305209590595 l -20.384678765612787 6.315225589232431" fill="#fff316" stroke="none" /><path d="M 120.05942366710727 93.78553927170692 l 31.02768223934599 -9.61245527121261 a53.48255472537358,53.48255472537358 0 0,0 0.26416225674872085,0.8793102385987028 l -31.188120816098337 9.078407429023184" fill="#84ff25" stroke="none" /><path d="M 120.16314734710363 94.1308016681162 l 24.82824957343714 -7.2271416000411435 a46.85872294967265,46.85872294967265 0 0,0 0.21818650426087524,0.7742669314076398 l -24.948654569772597 6.79986674473049" fill="#d2ff1c" stroke="none" /><path d="M 120.26092885502905 94.47779374421319 l 43.66418003847877 -11.900866435471393 a66.25694687390674,66.25694687390674 0 0,0 0.2896706996565134,1.0999268286180786 l -43.86204021894001 11.149559102480515" fill="#36ff6c" stroke="none" /><path d="M 120.43855184770803 95.1765574152323 l 28.625361954230996 -6.755507478378929 a50.4117022339947,50.4117022339947 0 0,0 0.19153839469818576,0.8439535082458012 l -28.737111210486848 6.263119636194102" fill="#a7ff21" stroke="none" /><path d="M 120.51834098615036 95.52812308129327 l 24.561327848588324 -5.353027087961374 a46.137894197611075,46.137894197611075 0 0,0 0.16201494932738117,0.7753001826034068 l -24.649600508740072 4.930610454072563" fill="#dbff1b" stroke="none" /><path d="M 120.592083275326 95.88100663000786 l 21.008949722010577 -4.202378334354795 a42.42512431905642,42.42512431905642 0 0,0 0.13671740300290386,0.7153632237866966 l -21.077993417295637 3.841112545534784" fill="#fff417" stroke="none" /><path d="M 120.65975698304385 96.23510406497455 l 31.732277796023816 -5.782678072225169 a53.25487280723674,53.25487280723674 0 0,0 0.1561767172029296,0.9007858024789602 l -31.82686933071898 5.237099236825617" fill="#86ff25" stroke="none" /><path d="M 120.86939407059847 97.66154086499901 l 30.740088664812376 -3.4444910525813497 a51.93246788944974,51.93246788944974 0 0,0 0.09166725415164775,0.8867975300877883 l -30.79468831144569 2.9162890002106296" fill="#96ff23" stroke="none" /><path d="M 120.9064616781168 98.02013634271609 l 23.95762805632989 -2.2688122855864177 a45.064817707031835,45.064817707031835 0 0,0 0.06632334567195511,0.7707778106770674 l -23.993045024699587 1.8572134275336882" fill="#e8ff1a" stroke="none" /><path d="M 120.93736805541906 98.37931529534042 l 20.69807002167556 -1.602161523421292 a41.759986131240936,41.759986131240936 0 0,0 0.049189363747079884,0.7152025533011719 l -20.722523346587703 1.246615545965786" fill="#ffec16" stroke="none" /><path d="M 120.96210409425399 98.7389718711861 l 31.222367324455405 -1.8782600862616217 a52.27881203458443,52.27881203458443 0 0,0 0.04620055506954701,0.8962784257717346 l -31.250009468981524 1.3420098671131564" fill="#92ff23" stroke="none" /><path d="M 120.98066250479742 99.09900007780936 l 25.980792468590373 -1.1157270170710065 a47.0047384926783,47.0047384926783 0 0,0 0.02769992149896166,0.8064529911768458 l -25.996117077086183 0.6695677613300408" fill="#d0ff1d" stroke="none" /><path d="M 120.99303781780057 99.45929381324524 l 45.24568042871003 -1.16536823036579 a66.26068581638263,66.26068581638263 0 0,0 0.01952660888066589,1.1373270739295172 l -45.259018469189364 0.3884942404672062" fill="#36ff6c" stroke="none" /><line stroke="#e1ed5e" stroke-width="0.3" x1="184.99686870605535" x2="189.99668451229388" y1="99.2704041080226" y2="99.22748670261217" /><path d="M 185.99683186730306 99.26182062694052 a86.0,86.0 0 0,1 -10.086455211305974,41.156179273409016" fill="none" id="id28" stroke="none" /><text fill="#e1ed5e" style="font-size:6.75px; font-family:Arial;" text-anchor="middle"><textPath startOffset="21.40746469413373" xlink:href="#id28">April</textPath></text><path d="M 120.99922638620191 100.18025310272382 l 27.49320225062396 0.23599607520517657 a48.49421510320356,48.49421510320356 0 0,0 -0.014290941296907863,0.8323756853147132 l -27.485099877728384 -0.7079186764889609" fill="#beff1f" stroke="none" /><path d="M 120.99303781780057 100.54070618675476 l 21.669824336734305 0.5581378067554287 a42.67701097006347,42.67701097006347 0 0,0 -0.025149588990170516,0.7322028428401235 l -21.657050060747288 -0.9300469141596629" fill="#fff817" stroke="none" /><path d="M 120.98066250479742 100.90099992219065 l 24.20308790094226 1.0393847339442177 a45.225395447048825,45.225395447048825 0 0,0 -0.03996721217596101,0.7753532388871028 l -24.181679099309726 -1.454709766208051" fill="#e6ff1a" stroke="none" /><path d="M 120.96210409425399 101.26102812881392 l 25.238479664309413 1.5182842639311274 a46.28410652706282,46.28410652706282 0 0,0 -0.054518355071125915,0.7926849175999531 l -25.20869734807322 -1.951312605685424" fill="#d9ff1c" stroke="none" /><path d="M 120.9064616781168 101.97986365728391 l 31.458235206315955 2.9791275810419457 a52.59898358238792,52.59898358238792 0 0,0 -0.09284373710929741,0.8981789354837451 l -31.40245907672499 -3.5187110388086222" fill="#8eff24" stroke="none" /><path d="M 120.86939407059847 102.33845913500097 l 25.743269534378634 2.8845870466489223 a46.90437740516768,46.90437740516768 0 0,0 -0.09652901603527228,0.7993987263466817 l -25.689958432083696 -3.3260794499190127" fill="#d1ff1c" stroke="none" /><path d="M 120.82617615685814 102.69636545807757 l 21.840475155551637 2.827686770431843 a43.02276475585987,43.02276475585987 0 0,0 -0.10111473112652036,0.7316158241845178 l -21.788715907869907 -3.202190902816446" fill="#fffc17" stroke="none" /><path d="M 120.77682067341334 103.0534771498775 l 23.655062954592683 3.4764796474943918 a44.909159628167316,44.909159628167316 0 0,0 -0.11864253169024186,0.761770161860961 l -23.591898930764174 -3.8820379912868033" fill="#eaff1a" stroke="none" /><path d="M 120.7213421655516 103.40968896794604 l 21.04296102837779 3.4626112294337537 a42.325943950222396,42.325943950222396 0 0,0 -0.12412623728513843,0.7159271513967468 l -20.980419973600416 -3.8233314137510885" fill="#fff316" stroke="none" /><path d="M 120.65975698304385 103.76489593502545 l 31.53267815227428 5.746304368120034 a53.05198598130841,53.05198598130841 0 0,0 -0.17096307586428813,0.8945510550414222 l -31.42938878412783 -6.286757988194771" fill="#89ff24" stroke="none" /><path d="M 120.51834098615036 104.47187691870673 l 44.229117510249694 9.639530304246186 a66.26737655554999,66.26737655554999 0 0,0 -0.2517817562952945,1.1093968750888525 l -44.057124892396736 -10.397361513274056" fill="#36ff6d" stroke="none" /><path d="M 120.35273937422433 105.17358676015961 l 27.336056285679934 6.948718611003267 a49.20540131940626,49.20540131940626 0 0,0 -0.21512254487363328,0.8168553423859626 l -27.21274426000157 -7.416954457762032" fill="#b6ff1f" stroke="none" /><path d="M 120.26092885502905 105.52220625578681 l 22.96574868090456 6.259416927128678 a44.803485306612025,44.803485306612025 0 0,0 -0.20861677874261594,0.7403073515677314 l -22.854913410087363 -6.6527322025994176" fill="#ebff1a" stroke="none" /><path d="M 120.16314734710363 105.8691983318838 l 20.15848671656336 5.867841690258279 a41.99514593432955,41.99514593432955 0 0,0 -0.20742338468063196,0.6904449868020908 l -20.0547870118791 -6.213024280651094" fill="#ffef16" stroke="none" /><path d="M 120.05942366710727 106.21446072829308 l 29.860184984394433 9.250761637253246 a52.2603141086511,52.2603141086511 0 0,0 -0.27283687575580484,0.8546576273298033 l -29.696983392861373 -9.761988298274433" fill="#92ff23" stroke="none" /><path d="M 119.71291397450082 107.23885506374661 l 25.466803618995893 9.351763040881275 a48.12956981858163,48.12956981858163 0 0,0 -0.291457356292103,0.773125264781783 l -25.30251557888935 -9.787556585857217" fill="#c2ff1e" stroke="none" /><path d="M 119.4528033332814 107.91128576633889 l 22.06906149561178 8.975295184729529 a44.82434466989855,44.82434466989855 0 0,0 -0.2959989591096985,0.7102897472257798 l -21.911736691965594 -9.352817441396585" fill="#ebff1a" stroke="none" /><line stroke="#e1ed5e" stroke-width="0.3" x1="174.33088141563837" x2="178.70328620479359" y1="141.23008692659167" y2="143.65538615756765" /><path d="M 175.20536237346943 141.71514677278685 a86.0,86.0 0 0,1 -30.301960400862466,31.631185727798858" fill="none" id="id29" stroke="none" /><text fill="#e1ed5e" style="font-size:6.75px; font-family:Arial;" text-anchor="middle"><textPath startOffset="22.145653131862474" xlink:href="#id29">May</textPath></text><path d="M 117.21940702142032 112.02048342749411 l 17.184768552100905 11.996303085750064 a41.95775650957069,41.95775650957069 0 0,0 -0.4173496111621703,0.5870544942233058 l -16.976303842408775 -12.289534806682875" fill="#ffee16" stroke="none" /><path d="M 116.79662413953412 112.60449989151573 l 22.518863533064607 16.898575011361974 a49.15423684342046,49.15423684342046 0 0,0 -0.5122527398971793,0.6705552800592722 l -22.225458815813123 -17.282651204662123" fill="#b6ff1f" stroke="none" /><path d="M 116.57777611688842 112.89097897827486 l 20.212164999828367 15.717101756053596 a46.60388450197411,46.60388450197411 0 0,0 -0.49651682979024164,0.6273327945148419 l -19.939381739396566 -16.06175449448312" fill="#d5ff1c" stroke="none" /><path d="M 116.35404254752997 113.17365903436017 l 21.731642668166398 17.505473031205742 a48.9053019891049,48.9053019891049 0 0,0 -0.5322601107478762,0.6492707908289811 l -21.427935738179894 -17.875946103733217" fill="#b9ff1f" stroke="none" /><path d="M 116.1254893667686 113.45245675266167 l 30.23317704419506 25.221591570470203 a60.372244989754606,60.372244989754606 0 0,0 -0.6707225223519103,0.7901094448227566 l -29.795759958336035 -25.736867797742516" fill="#39ff2e" stroke="none" /><path d="M 115.6541949942343 113.99807769240083 l 21.47498509590307 19.203064094085963 a49.80855177670048,49.80855177670048 0 0,0 -0.5754128180363718,0.632479484511247 l -21.142174577024814 -19.568881154154884" fill="#aeff20" stroke="none" /><path d="M 115.41159269507618 114.26474011684316 l 17.195211694480413 15.915631234806185 a44.43037820480784,44.43037820480784 0 0,0 -0.5228908942004704,0.5552920094165571 l -16.919464966543682 -16.208464704167238" fill="#f0ff19" stroke="none" /><path d="M 115.16444852881244 114.52719865689866 l 20.68902484700817 19.81961779875796 a49.650532260482784,49.650532260482784 0 0,0 -0.5948918688869105,0.6104114645912098 l -20.34574617697045 -20.17185195541691" fill="#b0ff20" stroke="none" /><path d="M 114.91283532996324 114.78537596483092 l 22.006754605039784 21.818663815560907 a51.98953595881853,51.98953595881853 0 0,0 -0.6337972035310133,0.628380165965902 l -21.628965481378806 -22.19322399175547" fill="#95ff23" stroke="none" /><path d="M 114.65682725009322 115.03919595460226 l 20.62304374510061 21.161059673465825 a50.548272027587586,50.548272027587586 0 0,0 -0.6266240952736122,0.6002917084616238 l -20.256747163961684 -21.51196351223303" fill="#a6ff21" stroke="none" /><path d="M 114.39649973595853 115.28858382429668 l 26.98534261629564 28.657498710337205 a60.36319281323404,60.36319281323404 0 0,0 -0.7604906536579248,0.7038987955595476 l -26.489422191323747 -29.11651525202913" fill="#39ff2e" stroke="none" /><path d="M 113.59037401385872 116.0094264158162 l 15.276562873261001 17.995752652330495 a44.60551814183617,44.60551814183617 0 0,0 -0.5879977266508318,0.4905286164359571 l -14.965390812448275 -18.255343452678325" fill="#eeff19" stroke="none" /><path d="M 113.31354834802062 116.24036423190432 l 16.849242267310256 20.553335917648045 a47.57699347793493,47.57699347793493 0 0,0 -0.6360573460830193,0.5123627738673854 l -16.493934150871986 -20.839546985308832" fill="#c9ff1d" stroke="none" /><path d="M 112.7482090630111 116.68781488649013 l 19.368761024082648 25.354329926105844 a52.90597043830276,52.90597043830276 0 0,0 -0.7264418306980931,0.5451354927133916 l -18.93066620447379 -25.683084446083253" fill="#8aff24" stroke="none" /><path d="M 112.45986205192187 116.90419585922612 l 8.395064796421932 11.389517715223931 a35.14914226098256,35.14914226098256 0 0,0 -0.48877223853684726,0.3538334076604615 l -8.198311547511118 -11.53195189425747" fill="#ff920d" stroke="none" /><path d="M 112.16784306229584 117.11559508785304 l 11.410659515244953 16.050521604232507 a40.69320680693687,40.69320680693687 0 0,0 -0.5728148422862841,0.3998692469583676 l -11.13344958178491 -16.244035666995998" fill="#ffde14" stroke="none" /><path d="M 111.8722381534696 117.32195027204791 l 14.824351547583184 21.629171939037285 a47.22179394272577,47.22179394272577 0 0,0 -0.6725816119517962,0.45254292488481057 l -14.450873647534383 -21.880464537979215" fill="#cdff1d" stroke="none" /><path d="M 111.27062007382361 117.71928675628689 l 12.532220918960622 19.70273283117288 a44.35067969413764,44.35067969413764 0 0,0 -0.6459061315726136,0.40309319711225394 l -12.192150658598292 -19.91496182512668" fill="#f1ff19" stroke="none" /><path d="M 110.96478420261333 117.91015095944535 l 11.55665047468265 18.876920034393425 a43.13355552501375,43.13355552501375 0 0,0 -0.6348175764758452,0.3811897148832819 l -11.230900141649368 -19.07252374981263" fill="#fffd18" stroke="none" /><line stroke="#e1ed5e" stroke-width="0.3" x1="143.1302829299769" x2="145.66735839644613" y1="173.24464959558577" y2="177.55315839532614" /><path d="M 143.63769802327073 174.10635135553383 a86.0,86.0 0 0,1 -40.68552437913181,11.842963189579606" fill="none" id="id30" stroke="none" /><text fill="#e1ed5e" style="font-size:6.75px; font-family:Arial;" text-anchor="middle"><textPath startOffset="21.407464694133747" xlink:href="#id30">June</textPath></text><path d="M 110.34350942703117 118.27599006163325 l 20.370520595943486 35.992758027447884 a62.3574266580039,62.3574266580039 0 0,0 -0.9361210078840866,0.5192505428941289 l -19.749655399903304 -36.337141485775156" fill="#31ff3c" stroke="none" /><path d="M 109.71004243097381 118.62028667847754 l 13.403749317160287 25.70345666624877 a49.988414588435205,49.988414588435205 0 0,0 -0.7642818644781992,0.39024776572645437 l -12.960540230968505 -25.929762383648058" fill="#acff20" stroke="none" /><path d="M 109.3889696526874 118.78422872680471 l 10.394017349966102 20.794997376123746 a44.24795716927382,44.24795716927382 0 0,0 -0.6823451152552505,0.33376918862111143 l -10.035511985448782 -20.970360314842083" fill="#f2ff19" stroke="none" /><path d="M 109.06512990194946 118.94263497670748 l 11.26673911572943 23.543151477747518 a47.100179919036435,47.100179919036435 0 0,0 -0.7323209677260972,0.34276318994919186 l -10.860929434131828 -23.733090899267243" fill="#cfff1d" stroke="none" /><path d="M 108.4095320186766 119.2426549942271 l 15.762119850251477 36.06681484563498 a60.36063458943475,60.36063458943475 0 0,0 -0.953022346205286,0.40678856938335506 l -15.140662428875759 -36.33207806467774" fill="#39ff2e" stroke="none" /><path d="M 107.407793817531 119.65005319985036 l 9.401676549228748 24.939064033197557 a47.65236268679094,47.65236268679094 0 0,0 -0.7679084039296259,0.2819866025626652 l -8.972178993644993 -25.096781484768943" fill="#c8ff1d" stroke="none" /><path d="M 107.06938296918513 119.77432235084164 l 6.64304801683225 18.581787611387828 a40.73354802838722,40.73354802838722 0 0,0 -0.6604541898948919,0.2297402512154659 l -6.323088054892336 -18.693086295171884" fill="#ffde14" stroke="none" /><path d="M 106.72888874123015 119.89276391827305 l 8.597038977055329 25.415618141947228 a47.83025763406467,47.83025763406467 0 0,0 -0.7800369377199062,0.25641363493081126 l -8.159479301687687 -25.559452698280058" fill="#c6ff1e" stroke="none" /><path d="M 105.69591212413111 120.21278271476187 l 8.463004822822134 30.032218522644477 a52.20186853415963,52.20186853415963 0 0,0 -0.8646086086734582,0.23565292103765678 l -7.94621481321398 -30.173071937826276" fill="#92ff23" stroke="none" /><path d="M 104.9986988182912 120.39639698878246 l 6.722677192472777 27.430817064505998 a49.24259395771902,49.24259395771902 0 0,0 -0.8227448993431673,0.19416555602677274 l -6.250800139389731 -27.542178764178995" fill="#b5ff20" stroke="none" /><path d="M 103.94208987418118 120.62667999033965 l 4.842710830649157 25.33910940077193 a46.79771915138188,46.79771915138188 0 0,0 -0.7903583586679832,0.14402962117147652 l -4.407017738430116 -25.418507195874774" fill="#d3ff1c" stroke="none" /><path d="M 102.875027216393 120.80226474461374 l 2.918681032484769 21.11812201172968 a42.31885963816283,42.31885963816283 0 0,0 -0.7204728987111679,0.09327964110809998 l -2.555730311882826 -21.16511324903818" fill="#fff316" stroke="none" /><path d="M 102.51750503828377 120.84855314841334 l 3.3365922062228037 27.631769902411175 a48.83249100404818,48.83249100404818 0 0,0 -0.8330918267691619,0.09334967685274768 l -2.8617644778528426 -27.684975339770894" fill="#baff1f" stroke="none" /><path d="M 102.15924093988457 120.88869738790638 l 2.6344784427149985 25.486189127082053 a46.621988855015246,46.621988855015246 0 0,0 -0.7967929598059011,0.07545712171613614 l -2.1965859195240824 -25.527658004303373" fill="#d5ff1c" stroke="none" /><path d="M 101.80034050326958 120.92268563240118 l 2.0275931148369595 23.563705451891682 a44.650779024439004,44.650779024439004 0 0,0 -0.7642321137534727,0.059156398946205384 l -1.622792006308251 -23.59503961783294" fill="#edff19" stroke="none" /><line stroke="#e1ed5e" stroke-width="0.3" x1="101.45913802915013" x2="101.54496967792366" y1="184.9874750549273" y2="189.98673829345242" /><path d="M 101.47630435890484 185.9873277026323 a86.0,86.0 0 0,1 -42.54439059252881,-10.42667462771756" fill="none" id="id31" stroke="none" /><text fill="#e1ed5e" style="font-size:6.75px; font-family:Arial;" text-anchor="middle"><textPath startOffset="22.145653131862474" xlink:href="#id31">July</textPath></text><path d="M 99.63950707515114 120.99690560180557 l -0.33815466880422135 19.695814176295112 a40.69871682742766,40.69871682742766 0 0,0 -0.6984416990004715,-0.017989380622979254 l 0.6762096818754367 -19.687107078322086" fill="#ffde14" stroke="none" /><path d="M 98.91894614982273 120.97215588758144 l -1.2175835657751455 23.620795895973576 a44.652156529561694,44.652156529561694 0 0,0 -0.7651586055537543,-0.04603004165368033 l 1.622886523461346 -23.596413876495205" fill="#edff19" stroke="none" /><path d="M 98.55909050195518 120.95050786540614 l -1.8103815502916196 26.32255041710533 a47.38473312009595,47.38473312009595 0 0,0 -0.8110258217934881,-0.06277852789259562 l 2.2619763668603436 -26.28759412221768" fill="#cbff1d" stroke="none" /><path d="M 97.84075906011543 120.88869738790638 l -2.4358029705331727 23.564184157582197 a44.68974274076665,44.68974274076665 0 0,0 -0.7624157328910947,-0.08543027311748556 l 2.8399546050250666 -23.51889812395774" fill="#edff1a" stroke="none" /><path d="M 97.48249496171623 120.84855314841334 l -1.1513348607664151 9.534704269221015 a30.603965715428053,30.603965715428053 0 0,0 -0.5210284038742524,-0.06745755823356853 l 1.3148410865314615 -9.51353511478705" fill="#ff5207" stroke="none" /><path d="M 97.12497278360702 120.80226474461374 l -3.2329507905863344 23.392021428047837 a44.614373531910644,44.614373531910644 0 0,0 -0.7577536651368346,-0.11136369409454784 l 3.634029561330854 -23.333076660654406" fill="#eeff19" stroke="none" /><path d="M 96.41257539226777 120.69131181640829 l -4.608417053971777 26.580124928133717 a47.97666674996252,47.97666674996252 0 0,0 -0.8102693950575044,-0.14765807527316172 l 5.064021182580339 -26.497098678929188" fill="#c4ff1e" stroke="none" /><path d="M 95.35216902796893 120.47920084513623 l -2.7450663702040576 12.095268925855878 a33.402859338297766,33.402859338297766 0 0,0 -0.5580947292837148,-0.13170883649779416 l 2.9522932532276602 -12.046363945711857" fill="#ff7a0b" stroke="none" /><line stroke="#e1ed5e" stroke-width="0.3" x1="58.13341422392154" x2="55.67067388415222" y1="173.97424548756322" y2="178.32567169271397" /><path d="M 57.64086615596768 174.84453072859336 a86.0,86.0 0 0,1 -31.369924170532247,-30.572349798747897" fill="none" id="id32" stroke="none" /><text fill="#e1ed5e" style="font-size:6.75px; font-family:Arial;" text-anchor="middle"><textPath startOffset="22.145653131862474" xlink:href="#id32">August</textPath></text><path d="M 87.2517909369889 116.68781488649013 l -11.962077999108722 15.658744088695734 a40.705013993702835,40.705013993702835 0 0,0 -0.5516305802900807,-0.42895127574130165 l 12.229118524034032 -15.45109176133364" fill="#ffde14" stroke="none" /><path d="M 86.68645165197938 116.24036423190432 l -12.488562803615498 15.234016008503243 a40.69871682742766,40.69871682742766 0 0,0 -0.5364975897385355,-0.4475653705578744 l 12.748234727515927 -15.017388454033497" fill="#ffde14" stroke="none" /><path d="M 86.40962598614128 116.0094264158162 l -7.671202044381226 9.036656719317916 a32.85362836723475,32.85362836723475 0 0,0 -0.4268163801345981,-0.3686738235505863 l 7.825197904278687 -8.903638763302606" fill="#ff720a" stroke="none" /><path d="M 86.13680546590413 115.77377054828092 l -17.164225265668723 19.52973755895738 a47.00040919086411,47.00040919086411 0 0,0 -0.6014597001522599,-0.5378289726607052 l 17.496949992644353 -19.23221305641329" fill="#d0ff1d" stroke="none" /><path d="M 85.86807049272751 115.53346607816431 l -16.81971705215328 18.48781542106421 a45.99404330551252,45.99404330551252 0 0,0 -0.5794597407397496,-0.536339285197093 l 17.134606564206994 -18.196358389734737" fill="#ddff1b" stroke="none" /><path d="M 85.34317274990678 115.03919595460226 l -18.300661080064 18.77809046839215 a47.22081001049528,47.22081001049528 0 0,0 -0.5756623286045115,-0.570742167326587 l 18.620315328798473 -18.461168290836902" fill="#cdff1d" stroke="none" /><path d="M 84.83555147118756 114.52719865689866 l -18.81426315126541 18.023638503061676 a47.054328677095306,47.054328677095306 0 0,0 -0.553771563333383,-0.5880862098991687 l 19.120890548335048 -17.698010833218017" fill="#d0ff1d" stroke="none" /><path d="M 84.3458050057657 113.99807769240083 l -17.598647234915752 15.736818876105692 a44.60846993852766,44.60846993852766 0 0,0 -0.5055391571002528,-0.5752107602369999 l 17.866197455974596 -15.432395838057392" fill="#eeff19" stroke="none" /><path d="M 84.1078160697243 113.72728997021213 l -16.947943113109382 14.63922960702078 a43.39508471187965,43.39508471187965 0 0,0 -0.48210996096909164,-0.5679243217733351 l 17.196747637585585 -14.34613850279789" fill="#fdff18" stroke="none" /><path d="M 83.8745106332314 113.45245675266167 l -18.13452676519847 15.128467204323005 a44.61634139637163,44.61634139637163 0 0,0 -0.48558127333694884,-0.5923301990604469 l 18.391554857774047 -14.814934723564063" fill="#eeff19" stroke="none" /><path d="M 83.64595745247003 113.17365903436017 l -18.56442106791961 14.954183505900371 a44.83831650757159,44.83831650757159 0 0,0 -0.47770650458392283,-0.6035665631015067 l 18.818394003145094 -14.633296998884184" fill="#ebff1a" stroke="none" /><path d="M 83.20337586046588 112.60449989151573 l -28.32935047083362 21.258872733591907 a56.418805287620565,56.418805287620565 0 0,0 -0.574660405167388,-0.7796372063359552 l 28.69011289558484 -20.76942921798707" fill="#63ff29" stroke="none" /><path d="M 82.98947788004972 112.3143062007846 l -19.124244633737025 13.844478295134062 a44.60945387075816,44.60945387075816 0 0,0 -0.4437257798297897,-0.6241558786324102 l 19.359085512096772 -13.514145189792147" fill="#eeff19" stroke="none" /><path d="M 82.576782715395 111.72311816256416 l -18.15161556830594 12.213217035220714 a42.877929931530815,42.877929931530815 0 0,0 -0.40565698986022153,-0.6142163856463008 l 18.358596997086888 -11.899820771235351" fill="#fffa17" stroke="none" /><path d="M 82.37810715431573 111.42229804090323 l -19.81686829737898 12.84505460975067 a44.615751037033334,44.615751037033334 0 0,0 -0.4110646904995145,-0.6462619694955429 l 20.034450679504385 -12.502978965576455" fill="#eeff19" stroke="none" /><path d="M 82.18462484594161 111.11811171558189 l -21.707730564516698 13.547229369069358 a46.58814158628617,46.58814158628617 0 0,0 -0.4175895582393552,-0.6821011603103333 l 21.937088087211457 -13.172591092634468" fill="#d5ff1c" stroke="none" /><path d="M 81.99639281039703 110.81064883170644 l -16.868259266321907 10.128905024971601 a40.67569281323404,40.67569281323404 0 0,0 -0.3543168368679086,-0.6017074500610116 l 17.039649813319585 -9.83784640661703" fill="#ffdd14" stroke="none" /><line stroke="#e1ed5e" stroke-width="0.3" x1="26.387840678322732" x2="22.057713659400548" y1="142.50000000000003" y2="145.00000000000006" /><path d="M 25.521815274538298 143.00000000000003 a86.0,86.0 0 0,1 -11.493303480769221,-40.785679425670985" fill="none" id="id33" stroke="none" /><text fill="#e1ed5e" style="font-size:6.75px; font-family:Arial;" text-anchor="middle"><textPath startOffset="21.40746469413373" xlink:href="#id33">September</textPath></text><path d="M 81.81346652052679 110.50000000000001 l -30.706135764509508 17.72819574941278 a56.45639149882553,56.45639149882553 0 0,0 -0.4773700695943864,-0.8434671722566676 l 31.005939199125272 -17.198471807056993" fill="#63ff29" stroke="none" /><path d="M 81.4637452351635 109.86951160357371 l -20.845122746923884 11.098853756528978 a44.615751037033334,44.615751037033334 0 0,0 -0.3541469378331427,-0.679123449319137 l 21.032577753731978 -10.739384064105339" fill="#eeff19" stroke="none" /><path d="M 81.29705330413844 109.54985784667822 l -22.56208274974737 11.520360213225366 a46.333106352141535,46.333106352141535 0 0,0 -0.355617814428952,-0.7114738477877389 l 22.756520477388058 -11.131354509273876" fill="#d8ff1c" stroke="none" /><path d="M 81.1358732173502 109.22738970284198 l -21.209061529021234 10.374414793470876 a44.610437802988656,44.610437802988656 0 0,0 -0.3305861635063947,-0.690797935758769 l 21.384026950487538 -10.008804355647003" fill="#eeff19" stroke="none" /><path d="M 80.5471966667186 107.91128576633889 l -21.8718258778278 8.89508117604115 a44.61142173521915,44.61142173521915 0 0,0 -0.2824143579583367,-0.7118686687680277 l 22.02129891075226 -8.518311490059558" fill="#eeff19" stroke="none" /><path d="M 80.41425534168474 107.57618678355246 l -23.86177551596977 9.230247378898303 a46.58479621670248,46.58479621670248 0 0,0 -0.28210269902485263,-0.7483109249802637 l 24.01670889880906 -8.819268173723895" fill="#d5ff1c" stroke="none" /><path d="M 80.28708602549918 107.23885506374661 l -22.17130173260951 8.14160910074272 a44.61889962017092,44.61889962017092 0 0,0 -0.2578543843204909,-0.7212646050379338 l 22.307796286973943 -7.759809539323864" fill="#eeff19" stroke="none" /><path d="M 80.16572619554312 106.89939002012753 l -27.884048373672258 9.699519476575844 a50.522886576040776,50.522886576040776 0 0,0 -0.27791094970373587,-0.8215943412595135 l 28.04644474494836 -9.219423460842169" fill="#a6ff21" stroke="none" /><path d="M 79.94057633289273 106.21446072829308 l -28.234598724400712 8.747150858557314 a50.55850492278475,50.55850492278475 0 0,0 -0.2497197231288495,-0.8312357413576603 l 28.380594767533193 -8.26117751360893" fill="#a5ff21" stroke="none" /><path d="M 79.83685265289637 105.86919833188381 l -28.336003869931645 8.248197753191825 a50.51206332150532,50.51206332150532 0 0,0 -0.23519741523815904,-0.8346326533272608 l 28.473419777244377 -7.7605571759615675" fill="#a6ff21" stroke="none" /><path d="M 79.64726062577567 105.17358676015961 l -25.571123160251332 6.500079512236611 a47.38433954720376,47.38433954720376 0 0,0 -0.19362701813987457,-0.7900643093926417 l 25.6789377049075 -6.060159378235869" fill="#cbff1d" stroke="none" /><path d="M 79.48165901384964 104.47187691870673 l -23.069866777668036 5.027970089313188 a44.61142173521915,44.61142173521915 0 0,0 -0.1566546839111742,-0.7496493721489222 l 23.152779172403577 -4.631204265878857" fill="#eeff19" stroke="none" /><path d="M 79.407916724674 104.11899336999214 l -30.399540199362082 6.080759428649873 a52.001736718476685,52.001736718476685 0 0,0 -0.16757858721459143,-0.8768419802774047 l 30.49944507885883 -5.558014883339154" fill="#95ff23" stroke="none" /><path d="M 79.2786578344484 103.40968896794605 l -34.94765320876835 5.750623036361101 a56.41762456894397,56.41762456894397 0 0,0 -0.1490459822946871,-0.9569821247053537 l 35.0412206832013 -5.149852729724297" fill="#63ff29" stroke="none" /><path d="M 79.17382384314188 102.69636545807758 l -23.460673389354877 3.037453869296364 a44.656485831375875,44.656485831375875 0 0,0 -0.09190286440985994,-0.7610875545442884 l 23.5093583400244 -2.6342726378286763" fill="#edff19" stroke="none" /><path d="M 79.13060592940153 102.33845913500099 l -27.355291768035446 3.0652175002867827 a48.52648808036383,48.52648808036383 0 0,0 -0.08565527687647792,-0.8286371035766525 l 27.40387943739359 -2.595175874427199" fill="#beff1f" stroke="none" /><path d="M 79.0935383218832 101.97986365728391 l -23.512520720886954 2.226660158143617 a44.61771890149433,44.61771890149433 0 0,0 -0.06566533593979647,-0.7631307401678982 l 23.54727967952449 -1.822708370600057" fill="#eeff19" stroke="none" /><path d="M 79.06263194458094 101.62068470465958 l -29.466619672452605 2.2809027225752248 a50.55476598030886,50.55476598030886 0 0,0 -0.059548793075234085,-0.8658263821503036 l 29.501432426692904 -1.7747329162705776" fill="#a6ff21" stroke="none" /><path d="M 79.03789590574601 101.26102812881392 l -19.63822239513822 1.1813866932833805 a40.67372494877306,40.67372494877306 0 0,0 -0.035944746949036814,-0.6973184880949945 l 19.655608731543833 -0.8440964118116551" fill="#ffdd14" stroke="none" /><path d="M 79.01933749520258 100.90099992219065 l -35.39385808348264 1.5199645565030573 a56.42647995901844,56.42647995901844 0 0,0 -0.033252159578996625,-0.9681003448539324 l 35.414734930058486 -0.912157947085005" fill="#63ff29" stroke="none" /><path d="M 79.00696218219943 100.54070618675478 l -23.601626569830675 0.6078941797057269 a44.60945387075816,44.60945387075816 0 0,0 -0.01314612650596854,-0.7656959630786225 l 23.60858412793531 -0.20265130065805206" fill="#eeff19" stroke="none" /><line stroke="#e1ed5e" stroke-width="0.3" x1="15.003131293944662" x2="10.003315487706104" y1="100.72959589197737" y2="100.7725132973878" /><path d="M 14.003168132696942 100.73817937305945 a86.0,86.0 0 0,1 10.791469493833604,-42.45332614584628" fill="none" id="id34" stroke="none" /><text fill="#e1ed5e" style="font-size:6.75px; font-family:Arial;" text-anchor="middle"><textPath startOffset="22.145653131862435" xlink:href="#id34">October</textPath></text><path d="M 79.00077361379809 100.18025310272382 l -26.879054377623035 0.2307243543520452 a47.88004460492778,47.88004460492778 0 0,0 0.0,-0.8219549141517156 l 26.879054377623035 0.2307243543520353" fill="#c5ff1e" stroke="none" /><path d="M 79.03789590574601 98.7389718711861 l -23.567831187483705 -1.4177822001514289 a44.610437802988656,44.610437802988656 0 0,0 0.05254692961610645,-0.7640208241523504 l 23.540020296702533 1.8221464484581043" fill="#eeff19" stroke="none" /><path d="M 79.2786578344484 96.59031103205396 l -19.422180600921468 -3.195912426875106 a40.683367484631916,40.683367484631916 0 0,0 0.11930917197959792,-0.6881435987996705 l 19.364456611449636 3.5288490585953687" fill="#ffde14" stroke="none" /><path d="M 79.34024301695615 96.23510406497455 l -23.225964365308453 -4.232544404939678 a44.60846993852766,44.60846993852766 0 0,0 0.143753359826667,-0.7521783230010068 l 23.149884713199626 4.630625292974" fill="#eeff19" stroke="none" /><path d="M 79.407916724674 95.88100663000787 l -28.948451318448008 -5.790501012352749 a50.52190264381028,50.52190264381028 0 0,0 0.17740955973633546,-0.848968966321945 l 28.844784047887305 6.286586429960103" fill="#a6ff21" stroke="none" /><path d="M 79.48165901384962 95.52812308129327 l -23.067944048428743 -5.0275510394245 a44.60945387075816,44.60945387075816 0 0,0 0.16949285193957261,-0.7468167791757229 l 22.97824033493151 5.422802152539232" fill="#eeff19" stroke="none" /><path d="M 79.56144815229197 95.17655741523228 l -26.758948517565795 -6.315038989306262 a48.49401831675746,48.49401831675746 0 0,0 0.19816150766309043,-0.8085665740457085 l 26.646599483386407 6.773461387960088" fill="#beff1f" stroke="none" /><path d="M 79.73907114497095 94.47779374421319 l -22.78803899955828 -6.210981363237907 a44.61929319306312,44.61929319306312 0 0,0 0.20775913195162138,-0.737263865668625 l 22.67806137553208 6.601253152809545" fill="#eeff19" stroke="none" /><path d="M 79.83685265289637 94.1308016681162 l -29.6028766174671 -8.61696594639813 a51.83151644260083,51.83151644260083 0 0,0 0.2560074107247112,-0.852165408404723 l 29.450592886738757 9.123868958393576" fill="#97ff23" stroke="none" /><path d="M 80.05021161711548 93.44210830539832 l -30.156681494030043 -9.913100194893062 a52.744211979609176,52.744211979609176 0 0,0 0.29012978149154145,-0.8577171462960189 l 29.982066290966134 10.429319015663243" fill="#8cff24" stroke="none" /><path d="M 80.16572619554312 93.10060997987247 l -22.307052836259096 -7.7595509285729385 a44.61811247438652,44.61811247438652 0 0,0 0.2578498353738935,-0.7212518808246939 l 22.17056283084126 8.141337765778554" fill="#eeff19" stroke="none" /><path d="M 80.28708602549916 92.7611449362534 l -24.048112223959606 -8.830799909700545 a46.618249912539355,46.618249912539355 0 0,0 0.2823052839593029,-0.7488483055874311 l 23.892976256185868 9.24231649548212" fill="#d5ff1c" stroke="none" /><path d="M 80.41425534168474 92.42381321644754 l -22.023134248412035 -8.519021438093892 a44.61338959968015,44.61338959968015 0 0,0 0.2824268156016043,-0.7119000701669972 l 21.8736487578443 8.895822525474474" fill="#eeff19" stroke="none" /><path d="M 80.5471966667186 92.08871423366112 l -25.851537529823787 -10.513595258929234 a48.9076634264581,48.9076634264581 0 0,0 0.3229632819694397,-0.774994306072083 l 25.66724840331787 10.955822074442581" fill="#b9ff1f" stroke="none" /><path d="M 80.68587082218212 91.75594674310238 l -21.71952688775083 -9.27077450547876 a44.615357464141134,44.615357464141134 0 0,0 0.3067117123582348,-0.7018164209959149 l 21.55718129337562 9.642252996250543" fill="#eeff19" stroke="none" /><path d="M 81.1358732173502 90.77261029715801 l -15.992176849537355 -7.822575075310252 a38.80287620570743,38.80287620570743 0 0,0 0.29782147402237513,-0.5958424507410228 l 15.855535462303235 8.095949382215045" fill="#ffc512" stroke="none" /><path d="M 81.29705330413844 90.45014215332179 l -22.939946021365245 -11.71329989209585 a46.75737792993153,46.75737792993153 0 0,0 0.371146553181372,-0.7117224532326657 l 22.735491399208932 12.105368588433002" fill="#d3ff1c" stroke="none" /><path d="M 81.46374523516351 90.13048839642627 l -17.391982178383326 -9.260250902697162 a40.703636488580145,40.703636488580145 0 0,0 0.33368191947977965,-0.6139371484649461 l 17.230454909288195 9.557442884636728" fill="#ffde14" stroke="none" /><path d="M 81.63589988554816 89.8137432299009 l -20.65049207076505 -11.454479846587752 a44.61457031835674,44.61457031835674 0 0,0 0.3772409105927675,-0.666548542491516 l 20.450817795150915 11.807285159178372" fill="#eeff19" stroke="none" /><line stroke="#e1ed5e" stroke-width="0.3" x1="26.387840678322718" x2="22.05771365940052" y1="57.49999999999999" y2="54.99999999999999" /><path d="M 25.521815274538284 56.99999999999999 a86.0,86.0 0 0,1 29.574782752854787,-30.34633250058573" fill="none" id="id35" stroke="none" /><text fill="#e1ed5e" style="font-size:6.75px; font-family:Arial;" text-anchor="middle"><textPath startOffset="21.40746469413373" xlink:href="#id35">November</textPath></text><path d="M 81.81346652052679 89.5 l -32.09081501372911 -18.527640686690994 a58.05528137338198,58.05528137338198 0 0,0 0.5057065347144997,-0.8588002539537627 l 31.76803476888484 19.07579210893833" fill="#52ff2b" stroke="none" /><path d="M 81.99639281039701 89.18935116829357 l -16.8699463453104 -10.129918067430447 a40.67766067769504,40.67766067769504 0 0,0 0.3646113747883502,-0.5955652791081615 l 16.693567006066658 10.418020462663153" fill="#ffdd14" stroke="none" /><path d="M 82.18462484594161 88.88188828441811 l -35.0614155612492 -21.880916441302592 a62.32889262331951,62.32889262331951 0 0,0 0.5742637153886619,-0.9028379432588187 l 34.680634154234646 22.479568059240083" fill="#31ff3c" stroke="none" /><path d="M 82.37810715431573 88.57770195909679 l -19.816538035505967 -12.844840537994685 a44.615357464141134,44.615357464141134 0 0,0 0.4220943417590705,-0.6391046314432961 l 19.59311925482617 13.183125047777041" fill="#eeff19" stroke="none" /><path d="M 82.78059297857968 87.97951657250589 l -21.287974932489384 -14.860659810327897 a46.961839047428654,46.961839047428654 0 0,0 0.46712472010825873,-0.6570694184636489 l 21.029735113851153 15.223906455501066" fill="#d1ff1d" stroke="none" /><path d="M 82.98947788004972 87.6856937992154 l -22.312282914001585 -16.15237215554398 a48.54518279274326,48.54518279274326 0 0,0 0.4944626932524827,-0.6708336077068493 l 22.031718201165283 16.533012072519693" fill="#bdff1f" stroke="none" /><path d="M 83.2033758604659 87.39550010848427 l -27.556371238214055 -20.678814706886126 a55.45238705082713,55.45238705082713 0 0,0 0.5778878693836744,-0.7564737714730462 l 27.197331391476077 21.148809391600057" fill="#6eff28" stroke="none" /><path d="M 83.42222388311158 87.10902102172516 l -18.632288602562557 -14.488580313742741 a44.60256634514468,44.60256634514468 0 0,0 0.4751948271878941,-0.6003931407616464 l 18.380827344733103 14.80629339841907" fill="#eeff19" stroke="none" /><path d="M 83.64595745247003 86.82634096563983 l -39.84796019134699 -32.09869604104994 a72.16821492828228,72.16821492828228 0 0,0 0.7854416700823385,-0.9581111264713269 l 39.291071702026024 32.77800944921976" fill="#3effb1" stroke="none" /><path d="M 83.8745106332314 86.54754324733833 l -12.109681196868932 -10.102326750164494 a36.77026900394822,36.77026900394822 0 0,0 0.4085096980917599,-0.4812233971690678 l 11.934476935270057 10.308716929783118" fill="#ffa90f" stroke="none" /><path d="M 84.10781606972428 86.27271002978789 l -20.923868258392464 -18.073539051752427 a48.64888924983757,48.64888924983757 0 0,0 0.5513284472459576,-0.6273105669987544 l 20.610528747187914 18.43006189656248" fill="#bcff1f" stroke="none" /><path d="M 84.58840730492382 85.73525988315684 l -20.2217942458702 -18.716990860118692 a48.55443175570993,48.55443175570993 0 0,0 0.5714259311749537,-0.6068345367536901 l 19.897512480958973 19.061366856816893" fill="#bdff1f" stroke="none" /><path d="M 85.08716467003674 85.21462403516908 l -16.771349948368947 -16.6280059383579 a44.617128542156024,44.617128542156024 0 0,0 0.5439212098757802,-0.5392723385807622 l 16.483436818363188 16.913458287167337" fill="#eeff19" stroke="none" /><path d="M 85.34317274990677 84.96080404539775 l -37.09727838482774 -38.06507571468483 a74.15221587785496,74.15221587785496 0 0,0 0.9192315250981705,-0.8806030071857069 l 36.438374373864264 38.69629085217611" fill="#40ffc7" stroke="none" /><path d="M 85.86807049272753 84.46653392183569 l -15.891534478844322 -17.46758017934311 a44.61476710480284,44.61476710480284 0 0,0 0.5709308686280861,-0.5105299032616724 l 15.589338583392845 17.737805612488184" fill="#eeff19" stroke="none" /><path d="M 86.40962598614128 83.9905735841838 l -24.833217907001803 -29.2534682522099 a59.37256984357039,59.37256984357039 0 0,0 0.7826595799745207,-0.6529224578673052 l 24.327383992865375 29.675452893989085" fill="#44ff2d" stroke="none" /><path d="M 86.68645165197937 83.75963576809568 l -14.96788597993817 -18.258387151307417 a44.60945387075816,44.60945387075816 0 0,0 0.5963842766232649,-0.4804049574198392 l 14.65225093295966 18.512640402520656" fill="#eeff19" stroke="none" /><path d="M 86.96720088162412 83.53348406188908 l -36.63703902795223 -46.28970197417938 a80.0339659653156,80.0339659653156 0 0,0 1.0846128954823864,-0.8434015477495543 l 35.83701618783459 46.91180457354974" fill="#48f9ff" stroke="none" /><path d="M 87.83215693770416 82.88440491214696 l -13.678675467617577 -19.24077007266376 a44.607486006297165,44.607486006297165 0 0,0 0.627913896850429,-0.43833266625236594 l 13.346366479593383 19.472747554721256" fill="#eeff19" stroke="none" /><path d="M 88.12776184653039 82.6780497279521 l -20.925976768049996 -30.53162548497724 a58.01454657903943,58.01454657903943 0 0,0 0.8263031536267049,-0.555973638498128 l 20.3987773263263 30.886348797532477" fill="#52ff2b" stroke="none" /><path d="M 88.4268655584334 82.4767994020092 l -13.01175099610638 -19.70144942038835 a44.610437802988656,44.610437802988656 0 0,0 0.6426332565099229,-0.416547112794994 l 12.67163210733943 19.92191037488725" fill="#eeff19" stroke="none" /><path d="M 88.72937992617638 82.28071324371311 l -14.784450913034757 -23.243612467316147 a48.547150657204256,48.547150657204256 0 0,0 0.7070219102868486,-0.44123396313339003 l 14.38326487395821 23.493982227291074" fill="#bdff1f" stroke="none" /><path d="M 89.03521579738668 82.08984904055464 l -10.272292786898399 -16.779018274625322 a40.67372494877306,40.67372494877306 0 0,0 0.5986150500218287,-0.3594511379307141 l 9.982744980319136 16.95288341309196" fill="#ffdd14" stroke="none" /><line stroke="#e1ed5e" stroke-width="0.3" x1="56.869717070023135" x2="54.33264160355391" y1="26.7553504044142" y2="22.446841604673864" /><path d="M 56.362301976729285 25.89364864446614 a86.0,86.0 0 0,1 42.16139366436587,-11.88097634709845" fill="none" id="id36" stroke="none" /><text fill="#e1ed5e" style="font-size:6.75px; font-family:Arial;" text-anchor="middle"><textPath startOffset="22.145653131862474" xlink:href="#id36">December</textPath></text><path d="M 89.34428304082924 81.90426304109057 l -31.967150877512267 -54.287210876728295 a84.0,84.0 0 0,0 1.2488301285584011,-0.721012410895304 l 31.030528281093464 54.827970184899776" fill="#4dd2ff" stroke="none" /><path d="M 89.97174638481275 81.54914285379989 l -11.27436148247749 -20.743555269960005 a44.60945387075816,44.60945387075816 0 0,0 0.6759631973013664,-0.35991232878447144 l 10.916609469389563 20.93403806646705" fill="#eeff19" stroke="none" /><path d="M 90.28995756902619 81.37971332152246 l -11.377750346996281 -21.81833650298178 a45.60676757958918,45.60676757958918 0 0,0 0.6972900750210295,-0.3560412806942305 l 11.001533050261669 22.010435735348842" fill="#e1ff1b" stroke="none" /><path d="M 90.93487009805054 81.0573650232925 l -11.891357101720423 -24.848362835608953 a48.547150657204256,48.547150657204256 0 0,0 0.7548186951884153,-0.35329326237840714 l 11.463049692660485 25.048832329557904" fill="#bdff1f" stroke="none" /><path d="M 91.26138138417902 80.90454125486306 l -8.187132251828377 -17.890361512370603 a40.674708881003546,40.674708881003546 0 0,0 0.6374048350232285,-0.2851030752437006 l 7.878814013949529 18.02826833852415" fill="#ffdd14" stroke="none" /><path d="M 91.5904679813234 80.7573450057729 l -23.641564295408365 -54.09652573413621 a80.03691776200709,80.03691776200709 0 0,0 1.2636873629214411,-0.539392991735692 l 22.709441857316495 54.4943933755313" fill="#48f9ff" stroke="none" /><path d="M 92.25597844496254 80.48000691201159 l -8.707017088696063 -21.947370908050335 a44.61142173521915,44.61142173521915 0 0,0 0.7142665427133201,-0.27629364291445957 l 8.328978283489212 22.093604439102837" fill="#eeff19" stroke="none" /><path d="M 92.592206182469 80.34994680014964 l -12.329331331961239 -32.705016170707765 a55.951831051027035,55.951831051027035 0 0,0 0.9016526958325246,-0.3310993591008839 l 11.766089484474588 32.91184637881737" fill="#68ff28" stroke="none" /><path d="M 92.93061703081487 80.22567764915836 l -7.94914734670057 -22.23517989238508 a44.61338959968015,44.61338959968015 0 0,0 0.7233619832475489,-0.2516228472673557 l 7.566279591408017 22.36836117222102" fill="#eeff19" stroke="none" /><path d="M 93.27111125876988 80.10723608172694 l -8.828387615089193 -26.099559282335406 a48.55226710480284,48.55226710480284 0 0,0 0.7918117866213116,-0.2602842616429192 l 8.37905309082012 26.247264465380354" fill="#bdff1f" stroke="none" /><path d="M 93.95794788825049 79.88797359093562 l -13.58980465682741 -45.23603985815314 a68.23327315208155,68.23327315208155 0 0,0 1.1246792535248933,-0.32737773945003534 l 12.811265390920891 45.4626612919057" fill="#38ff84" stroke="none" /><path d="M 94.6519064749342 79.69241777938228 l -6.014500351062626 -22.838037484326815 a44.61673496926383,44.61673496926383 0 0,0 0.7423262396108073,-0.18869642726488955 l 5.62156881822644 22.937919143426967" fill="#eeff19" stroke="none" /><path d="M 95.00130118170881 79.60360301121753 l -6.032277042389102 -24.61374885253578 a46.3421585286621,46.3421585286621 0 0,0 0.7742844454283581,-0.18272902085385115 l 5.608860443220838 24.713674017035864" fill="#d8ff1c" stroke="none" /><path d="M 95.70440661134978 79.44403061299748 l -4.841076213948155 -23.16630217305879 a44.66671872657304,44.66671872657304 0 0,0 0.7518972404591859,-0.15040050620219214 l 4.442682487957993 23.245992075923844" fill="#edff1a" stroke="none" /></svg>